<?xml version="1.0" encoding="UTF-8" standalone="no"?>
<svg
   id="Layer_1"
   data-name="Layer 1"
   version="1.1"
   width="292.2"
   height="300.284"
   sodipodi:docname="ATL2.svg"
   inkscape:version="1.1.2 (b8e25be833, 2022-02-05)"
   xmlns:inkscape="http://www.inkscape.org/namespaces/inkscape"
   xmlns:sodipodi="http://sodipodi.sourceforge.net/DTD/sodipodi-0.dtd"
   xmlns="http://www.w3.org/2000/svg"
   xmlns:svg="http://www.w3.org/2000/svg">
  <sodipodi:namedview
     id="namedview61"
     pagecolor="#8f8f8f"
     bordercolor="#666666"
     borderopacity="1.0"
     inkscape:pageshadow="2"
     inkscape:pageopacity="1"
     inkscape:pagecheckerboard="true"
     showgrid="false"
     inkscape:zoom="5.6568543"
     inkscape:cx="150.60482"
     inkscape:cy="191.29332"
     inkscape:window-width="1920"
     inkscape:window-height="1017"
     inkscape:window-x="-1928"
     inkscape:window-y="-8"
     inkscape:window-maximized="1"
     inkscape:current-layer="Layer_1"
     inkscape:rotation="-2" />
  <defs
     id="defs4">
    <style
       id="style2">.cls-1{fill:#f15d24}.cls-2{fill:#5e4c9b}.cls-3{fill:#f2ea1e}.cls-4{fill:#231f20}.cls-5{fill:#d08f2a}.cls-6{fill:#f6dd93}.cls-7{fill:#fff}</style>
    <clipPath
       clipPathUnits="userSpaceOnUse"
       id="clipPath27597">
      <path
         id="path27599"
         style="color:#000000;fill:#000000;-inkscape-stroke:none"
         d="m 177.67188,203.11328 -0.99805,0.0644 0.59765,9.13086 0.99805,-0.0664 z m -3.15821,0.46094 -0.98047,0.19922 1.89063,9.25781 0.97851,-0.19922 z m -3.20117,0.64844 -0.97656,0.21289 2.06836,9.42383 0.97656,-0.2129 z m -3.73828,0.58984 -0.95703,0.29297 2.85742,9.29297 0.95703,-0.29297 z m -16.00781,0.10352 -2.02735,7.67382 0.96875,0.25391 2.02539,-7.67383 z m 13.15039,0.39062 -0.98633,0.16016 1.51172,9.28906 0.98633,-0.16016 z m -9.10157,0.0703 -2.3789,8.06446 0.95898,0.2832 2.37891,-8.06445 z m 2.79688,0.12891 -1.28516,8.55859 0.98828,0.14844 1.28516,-8.55859 z m 2.69141,0.0781 -0.0703,8.9336 1,0.008 0.0703,-8.93359 z" />
    </clipPath>
    <clipPath
       clipPathUnits="userSpaceOnUse"
       id="clipPath28297">
      <path
         id="path28299"
         style="font-variation-settings:normal;opacity:1;vector-effect:none;fill:#f9f9f9;fill-opacity:1;stroke:none;stroke-width:0.224716;stroke-linecap:butt;stroke-linejoin:miter;stroke-miterlimit:4;stroke-dasharray:none;stroke-dashoffset:0;stroke-opacity:1;-inkscape-stroke:none;stop-color:#000000;stop-opacity:1"
         d="m 176.6543,203.14062 c -0.72546,0.0689 -1.44293,0.20422 -2.16211,0.31836 -0.16365,0.0748 -0.016,0.26995 -0.0176,0.4004 0.60215,2.91391 1.18211,5.83393 1.79101,8.74609 0.1064,0.14084 0.30011,0.008 0.4336,-0.0156 0.21693,-0.087 0.46262,-0.1288 0.65625,-0.25781 7.1e-4,-0.4273 -0.0553,-0.85957 -0.0742,-1.28906 -0.17465,-2.6007 -0.32933,-5.20307 -0.51758,-7.80274 -0.0108,-0.0601 -0.049,-0.0954 -0.10937,-0.0996 z m -3.16211,0.51954 c -0.71999,0.15852 -1.44504,0.29871 -2.16211,0.46875 -0.15346,0.0812 -0.029,0.27911 -0.0274,0.4082 0.54588,2.62129 1.13137,5.23559 1.71094,7.84961 0.0916,0.35137 0.13984,0.71826 0.27149,1.05664 0.11938,0.10017 0.28183,-0.0293 0.41796,-0.0332 0.57618,-0.13734 1.15697,-0.2644 1.72266,-0.43946 0.11535,-0.12267 -0.0157,-0.30115 -0.0156,-0.44726 -0.59152,-2.93215 -1.1911,-5.86506 -1.78907,-8.79492 -0.0232,-0.047 -0.0775,-0.0733 -0.1289,-0.0684 z m -3.18555,0.68945 c -0.77723,0.11333 -1.54706,0.28045 -2.32226,0.4082 -0.14349,0.0406 -0.31036,0.0314 -0.43555,0.11719 -0.0475,0.16816 0.0782,0.33609 0.10547,0.50391 0.88061,2.86786 1.75236,5.74018 2.64648,8.60351 0.0921,0.14518 0.28739,0.0183 0.42188,0.0195 0.54995,-0.10393 1.10393,-0.19232 1.64843,-0.32031 0.11918,-0.11722 -0.009,-0.29442 -0.0137,-0.4375 -0.63763,-2.94322 -1.27526,-5.88693 -1.93945,-8.82422 -0.0273,-0.0423 -0.0565,-0.0776 -0.11133,-0.0703 z m -3.71484,0.63867 c -0.62815,0.0816 -1.25572,0.17403 -1.88282,0.26172 -0.14755,0.10172 -0.0129,0.30692 -0.0195,0.45312 0.46472,2.88612 0.93416,5.77155 1.40625,8.65626 0.0878,0.13119 0.27768,0.0519 0.40821,0.0703 0.94419,-0.0471 1.89069,-0.1 2.82812,-0.22461 0.15698,-0.0101 0.12856,-0.19143 0.0781,-0.29297 -0.89534,-2.95604 -1.79378,-5.91068 -2.71289,-8.85938 -0.0284,-0.0342 -0.0561,-0.071 -0.10547,-0.0644 z m -14.08399,0.18164 c -0.15673,0.0452 -0.12347,0.26166 -0.18359,0.38477 -0.63272,2.37877 -1.26763,4.75683 -1.87305,7.14258 0.0248,0.17589 0.25889,0.13621 0.38477,0.19335 0.79316,0.17811 1.58621,0.36271 2.38672,0.50196 0.18787,-0.049 0.17382,-0.30011 0.24218,-0.44531 0.71616,-2.41977 1.43106,-4.84168 2.13282,-7.26563 0.0126,-0.18351 -0.22968,-0.15537 -0.35157,-0.17969 -0.90983,-0.075 -1.81154,-0.20849 -2.71289,-0.33203 -0.008,-4.6e-4 -0.017,-4.4e-4 -0.0254,0 z m 11.1875,0.20313 v 0.002 c -0.53425,0.0359 -1.06778,0.0799 -1.59961,0.14258 -0.16184,0.0791 -0.058,0.30557 -0.0879,0.45117 -0.0147,2.77811 -0.0509,5.55586 -0.0605,8.33398 0.0506,0.16922 0.27093,0.083 0.40039,0.11719 0.91509,0.0296 1.83084,0.0451 2.74609,0.0234 0.14159,0.0104 0.19673,-0.14272 0.14453,-0.25781 -0.46713,-2.91267 -0.93718,-5.82527 -1.42578,-8.73438 -0.0248,-0.0474 -0.0596,-0.0864 -0.11719,-0.0781 z m -2.65039,0.21679 c -0.0223,-2.2e-4 -0.0435,8e-4 -0.0644,0.002 -0.52737,0.0237 -1.0538,0.0382 -1.58008,0.0625 -0.18218,0.0334 -0.10878,0.27703 -0.1582,0.40625 -0.39198,2.64898 -0.79979,5.29675 -1.1836,7.94726 0.0408,0.17953 0.2778,0.10098 0.41211,0.14258 0.85095,0.0776 1.70319,0.16329 2.55664,0.20117 0.16809,-0.0418 0.0739,-0.26451 0.10157,-0.38672 0.0239,-2.75739 0.0474,-5.51596 0.0586,-8.27343 -0.0103,-0.0849 -0.0755,-0.10091 -0.14258,-0.10157 z m -4.45508,0.0391 c -0.17201,0.0158 -0.14769,0.24465 -0.20898,0.36523 -0.73977,2.49179 -1.48011,4.983 -2.19336,7.48242 0.0174,0.1808 0.25112,0.12618 0.37695,0.17188 0.83888,0.13062 1.68065,0.25169 2.52344,0.34961 0.20233,-0.006 0.17251,-0.26044 0.20508,-0.39844 0.39271,-2.6026 0.78563,-5.20531 1.16015,-7.81055 -0.0382,-0.1828 -0.2738,-0.091 -0.40624,-0.12304 -0.48599,-0.0158 -0.97078,-0.0341 -1.45704,-0.0371 z" />
    </clipPath>
    <clipPath
       clipPathUnits="userSpaceOnUse"
       id="clipPath44226">
      <path
         id="path44228"
         style="color:#000000;fill:#000000;-inkscape-stroke:none"
         d="m 82.931641,138.26367 -1.273438,5.51758 0.974609,0.22461 1.273438,-5.51758 z m 2.322265,2.30274 -1.603515,5.13086 0.955078,0.29687 1.603515,-5.12891 z m 2.328125,2.68359 -2.49414,5.16602 0.90039,0.43359 2.494141,-5.16602 z m 2.628907,2.12305 -3.134766,4.95117 0.84375,0.53516 3.136719,-4.95118 z m 2.134765,2.28125 -2.457031,5.80664 0.919922,0.39062 2.458984,-5.80664 z m 2.171875,2.57031 -2.066406,5.06055 0.925781,0.37695 2.066406,-5.05859 z m 2.701172,2.91211 -3.476562,3.92969 0.748046,0.66211 3.476563,-3.92969 z" />
    </clipPath>
    <clipPath
       clipPathUnits="userSpaceOnUse"
       id="clipPath44747">
      <path
         id="path44749"
         style="font-variation-settings:normal;opacity:1;vector-effect:none;fill:#a0a0a0;fill-opacity:1;stroke:none;stroke-width:0.224716;stroke-linecap:butt;stroke-linejoin:miter;stroke-miterlimit:4;stroke-dasharray:none;stroke-dashoffset:0;stroke-opacity:1;-inkscape-stroke:none;stop-color:#000000;stop-opacity:1"
         d="m 82.152344,138.38672 c -1.134111,0.0496 -2.064631,1.20809 -1.894532,2.33008 0.04526,0.5704 0.404089,1.03739 0.785157,1.43554 0.253131,0.2651 0.484439,0.56082 0.773437,0.78711 0.216875,0.0323 0.156127,-0.28651 0.222656,-0.41601 0.292172,-1.31806 0.637187,-2.62665 0.878907,-3.95508 0.0089,-0.22242 -0.293243,-0.15905 -0.435547,-0.18164 -0.07326,-0.002 -0.147436,-0.001 -0.220703,0 -0.03698,-7.5e-4 -0.07279,-0.002 -0.109375,0 z m 1.642578,0.63476 c -0.0161,-3e-4 -0.03235,0.002 -0.04883,0.006 -0.146208,0.16069 -0.11834,0.41888 -0.195313,0.61719 -0.325597,1.37483 -0.640162,2.75247 -0.958984,4.12891 0.07153,0.22805 0.321393,0.36874 0.460937,0.5625 0.251954,0.24263 0.453707,0.5491 0.746094,0.74414 0.22967,0.0387 0.19429,-0.2965 0.273438,-0.43164 0.414454,-1.32424 0.828577,-2.64813 1.242187,-3.97266 -0.05076,-0.22407 -0.303609,-0.35583 -0.433594,-0.54297 -0.354119,-0.35774 -0.664206,-0.76322 -1.039062,-1.09765 -0.01508,-0.009 -0.03078,-0.0134 -0.04687,-0.0137 z m 2.21875,2.39454 c -0.02307,0.003 -0.04493,0.022 -0.06836,0.0273 -0.486142,1.46392 -0.926349,2.94983 -1.394531,4.42187 0.05912,0.23808 0.306513,0.38958 0.449219,0.58594 0.219847,0.23303 0.428376,0.48035 0.664062,0.69727 0.207523,0.0477 0.215495,-0.26086 0.316407,-0.37891 0.571257,-1.16672 1.128263,-2.33934 1.699219,-3.50586 0.0018,-0.20573 -0.253526,-0.31374 -0.355469,-0.47851 -0.42512,-0.44773 -0.826792,-0.9267 -1.267578,-1.35352 -0.01366,-0.0143 -0.02913,-0.0177 -0.04297,-0.0156 z m 2.310547,2.54687 c -0.01385,0.001 -0.02914,0.005 -0.04297,0.006 -0.211476,0.26664 -0.311829,0.61754 -0.480469,0.91602 -0.478163,0.98564 -0.952051,1.97409 -1.427734,2.96093 -0.0011,0.20574 0.254793,0.31224 0.357422,0.47657 0.324247,0.31845 0.594549,0.7026 0.964843,0.96875 0.204791,0.0522 0.251184,-0.24741 0.365235,-0.35743 0.65756,-1.03576 1.327507,-2.06523 1.955078,-3.11914 -0.01519,-0.21114 -0.251923,-0.33585 -0.363281,-0.5039 -0.424026,-0.44983 -0.826149,-0.92855 -1.289063,-1.33789 -0.01289,-0.009 -0.02522,-0.0108 -0.03906,-0.01 z m 2.345703,2.51563 c -0.02078,-0.001 -0.04193,0.004 -0.06445,0.0215 -0.766527,1.14088 -1.50154,2.30633 -2.226563,3.47461 -0.02178,0.19579 0.214377,0.31225 0.308594,0.46484 0.572059,0.60238 1.085283,1.24113 1.636719,1.85938 0.210744,0.10618 0.219433,-0.23886 0.304687,-0.35547 0.521928,-1.24688 1.068283,-2.48762 1.572266,-3.74024 -0.04685,-0.26521 -0.31351,-0.42911 -0.464844,-0.63671 -0.331406,-0.35773 -0.657291,-0.7215 -1,-1.06836 -0.0242,-0.01 -0.04563,-0.0181 -0.06641,-0.0195 z m 2.224609,2.43359 c -0.02084,-0.002 -0.04172,0.01 -0.0625,0.0137 -0.217895,0.34743 -0.336216,0.76091 -0.515625,1.13281 -0.413525,0.99395 -0.861426,1.97764 -1.24414,2.98243 0.04863,0.24083 0.298877,0.38335 0.4375,0.57421 0.371783,0.38705 0.716863,0.80538 1.113281,1.16602 0.197213,0.0228 0.194684,-0.25383 0.279297,-0.375 0.525394,-1.26471 1.038677,-2.53497 1.55664,-3.80273 -0.02078,-0.21052 -0.269951,-0.32661 -0.382812,-0.49805 -0.386103,-0.39462 -0.729217,-0.84039 -1.160156,-1.18555 -0.007,-0.004 -0.01454,-0.007 -0.02148,-0.008 z m 2.230469,2.42578 c -0.01451,0.001 -0.03013,0.005 -0.04492,0.008 -0.19331,0.27522 -0.271811,0.62705 -0.419922,0.93164 -0.439265,1.06692 -0.87261,2.13682 -1.308594,3.20508 0.0242,0.20846 0.26306,0.32856 0.382813,0.49414 0.192759,0.16464 0.339142,0.42216 0.580078,0.51367 0.232087,-0.13602 0.375068,-0.39989 0.572266,-0.58398 0.725047,-0.82457 1.474786,-1.63696 2.175781,-2.47656 0.0016,-0.18537 -0.239156,-0.29424 -0.333984,-0.44727 -0.521132,-0.54273 -0.997461,-1.13587 -1.560547,-1.63476 -0.01437,-0.009 -0.02846,-0.0112 -0.04297,-0.01 z" />
    </clipPath>
    <clipPath
       clipPathUnits="userSpaceOnUse"
       id="clipPath30760">
      <g
         id="g30766">
        <path
           style="color:#000000;fill:#d08f2a;stroke-width:1px;stroke-linejoin:round;-inkscape-stroke:none"
           d="m 119.54063,177.14466 c 1.2986,-0.37881 2.16907,-0.35435 3.48057,0.18638 l 25.17957,27.20726 c 0,0 4.13453,2.13939 11.71864,0.14104 7.9139,-2.08525 17.78796,-4.03884 17.78796,-4.03884 0,0 1.76404,0.0172 2.26964,1.44382 0.50559,1.42666 1.36747,7.05434 1.36747,7.05434 0,0 0.21952,0.95332 -1.5303,1.69177 -1.74981,0.73844 -11.67265,2.31111 -11.67265,2.31111 l -10.13765,2.20662 -7.80332,1.73432 c 0,0 -4.8511,-0.14485 -6.72838,-2.46266 l -27.34062,-29.85216 c 0,0 -1.02145,-0.5937 -0.3449,-3.59654 z"
           id="path30762" />
        <path
           style="color:#000000;fill:#d08f2a;stroke-linejoin:round;-inkscape-stroke:none"
           d="m 121.30078,176.4043 c -0.61023,-0.0296 -1.21948,0.0611 -1.90039,0.25976 a 0.50005,0.50005 0 0 0 -0.22461,0.13867 l -3.7539,4.02735 a 0.50005,0.50005 0 0 0 -0.12305,0.23047 c -0.35169,1.56094 -0.27606,2.55248 -0.0684,3.18945 0.10385,0.31848 0.24142,0.54583 0.36719,0.69727 0.12576,0.15143 0.2832,0.25195 0.2832,0.25195 l -0.11719,-0.0937 27.33985,29.85156 -0.0195,-0.0234 c 1.06802,1.31864 2.84762,1.93805 4.34571,2.27539 1.49808,0.33735 2.75586,0.37305 2.75586,0.37305 a 0.50005,0.50005 0 0 0 0.12304,-0.0117 l 7.80274,-1.73437 10.13672,-2.20508 c 0.0259,-0.004 2.47063,-0.39096 5.16211,-0.875 1.35283,-0.2433 2.76187,-0.51046 3.94726,-0.76367 1.18539,-0.25322 2.11555,-0.47547 2.65039,-0.70117 0.95282,-0.40211 1.44977,-0.90524 1.67578,-1.36133 0.11301,-0.22805 0.15536,-0.43863 0.16602,-0.59766 0.0106,-0.15903 -0.0176,-0.30469 -0.0176,-0.30469 -0.005,-0.0325 -0.21176,-1.39379 -0.48828,-2.96679 -0.27979,-1.59165 -0.60247,-3.31846 -0.89453,-4.14258 -0.6275,-1.77057 -2.73633,-1.77734 -2.73633,-1.77735 a 0.50005,0.50005 0 0 0 -0.10352,0.01 c 0,0 -9.87782,1.95317 -17.8164,4.04492 -3.72789,0.98227 -6.58721,0.94396 -8.50586,0.66797 -1.88178,-0.27069 -2.76736,-0.73558 -2.80274,-0.75391 l -25.0957,-27.11718 a 0.50005,0.50005 0 0 0 -0.17773,-0.12305 c -0.68933,-0.28421 -1.29993,-0.43521 -1.91016,-0.46484 z m -0.0488,0.97656 c 0.4527,0.0219 0.92006,0.15965 1.4961,0.39062 l 25.08593,27.10547 a 0.50005,0.50005 0 0 0 0.13672,0.10547 c 0,0 1.1292,0.57698 3.17383,0.8711 2.04464,0.29411 5.04613,0.32467 8.90234,-0.69141 7.85801,-2.07052 17.60993,-4.00026 17.6875,-4.01563 0.0562,0.002 1.39569,0.0451 1.77149,1.10547 0.21353,0.60254 0.57402,2.40162 0.85156,3.98047 0.27755,1.57885 0.49219,2.98242 0.49219,2.98242 a 0.50005,0.50005 0 0 0 0.008,0.0352 c 0,0 -0.001,-0.0272 -0.004,0.0156 -0.003,0.0428 -0.0156,0.11812 -0.0664,0.22071 -0.10168,0.20518 -0.37097,0.54647 -1.16797,0.88281 -0.34006,0.14351 -1.30343,0.39519 -2.4707,0.64453 -1.16727,0.24935 -2.56942,0.51564 -3.91602,0.75781 -2.6932,0.48435 -5.16992,0.87696 -5.16992,0.87696 a 0.50005,0.50005 0 0 0 -0.0273,0.004 l -10.13672,2.20703 a 0.50005,0.50005 0 0 0 -0.004,0 l -7.72266,1.7168 c -0.0382,-0.001 -1.1481,-0.0345 -2.52148,-0.34375 -1.39678,-0.31453 -2.97979,-0.92856 -3.78906,-1.92773 a 0.50005,0.50005 0 0 0 -0.0195,-0.0234 L 116.5,184.42969 a 0.50005,0.50005 0 0 0 -0.11719,-0.0937 c 0,0 0.029,0.0264 -0.0156,-0.0273 -0.0446,-0.0537 -0.11861,-0.16189 -0.18555,-0.36718 -0.12877,-0.39492 -0.19215,-1.21807 0.0898,-2.5586 l 3.52149,-3.77539 c 0.55498,-0.15455 1.01586,-0.24797 1.45898,-0.22656 z"
           id="path30764" />
      </g>
    </clipPath>
  </defs>
  <g
     id="SlHar6"
     transform="translate(-104.42 -286.276)">
    <path
       class="cls-1"
       d="M150.51 369.93a31.64 31.64 0 0 1-3.84-2.66c-1.6-1.15-1.59-1.18-3.19 0-1.29.91-2.57 1.85-3.89 2.81-.17-.33 0-.57.08-.8.53-1.65 1.06-3.3 1.63-4.94a.88.88 0 0 0-.37-1.17c-1.48-1-2.92-2.13-4.38-3.2-.13-.1-.25-.22-.53-.47h2.33c1.32 0 2.65 0 4-.07a.7.7 0 0 0 .75-.59c.61-2 1.26-3.89 2-6 .55 1.66 1.07 3.13 1.52 4.62.61 2 .59 2.05 2.75 2.05h4.84l-2.44 1.79c-.89.66-1.76 1.33-2.66 2a.72.72 0 0 0-.3 1c.57 1.67 1.1 3.34 1.63 5 .07.23.11.47.16.71z"
       id="path6"
       style="fill:#f15d24" />
    <path
       class="cls-1"
       d="m150.53 369.91.06.08-.08-.06z"
       id="path8"
       style="fill:#f15d24" />
  </g>
  <circle
     class="cls-4"
     cx="-117.008"
     cy="177.274"
     r="142.45"
     transform="rotate(-76.72)"
     id="circle179"
     style="fill:#231f20" />
  <path
     class="cls-6"
     d="M145.66 300.284C65.34 300.284 0 234.944 0 154.624S65.34 8.964 145.66 8.964s145.66 65.34 145.66 145.66-65.35 145.66-145.66 145.66zm0-284.91c-76.79 0-139.25 62.47-139.25 139.25s62.46 139.25 139.25 139.25c76.79 0 139.25-62.47 139.25-139.25s-62.47-139.25-139.25-139.25z"
     id="path181"
     style="fill:#f6dd93" />
  <path
     class="cls-2"
     d="M145.66 241.494a86.87 86.87 0 1 1 86.92-86.87 87 87 0 0 1-86.92 86.87z"
     id="path183"
     style="fill:#5e4c9b" />
  <path
     class="cls-2"
     d="M145.66 244.584a90 90 0 1 1 90-90 90.05 90.05 0 0 1-90 90zm0-173.74a83.79 83.79 0 1 0 83.78 83.78 83.88 83.88 0 0 0-83.78-83.78z"
     id="path185"
     style="fill:#5e4c9b" />
  <path
     class="cls-6"
     d="m102.42 105.644-13.17.82s-7 1.65-7 10.3v12.76"
     id="path187"
     style="fill:#f6dd93" />
  <path
     class="cls-6"
     d="M82.25 132.724a3.2 3.2 0 0 1-3.2-3.2v-12.8c0-8.85 6.19-12.65 9.47-13.42a3.07 3.07 0 0 1 .53-.07l13.17-.83a3.21 3.21 0 1 1 .4 6.4l-12.82.8c-.92.31-4.35 1.82-4.35 7.12v12.8a3.2 3.2 0 0 1-3.2 3.2z"
     id="path189"
     style="fill:#f6dd93" />
  <path
     class="cls-6"
     d="m83.15 132.974-10.57 7.88s-5 5.2-.25 12.45l7 10.69"
     id="path191"
     style="fill:#f6dd93" />
  <path
     class="cls-6"
     d="M79.28 167.204a3.21 3.21 0 0 1-2.7-1.48l-7-10.7c-4.82-7.41-1.7-14 .62-16.4a3.52 3.52 0 0 1 .41-.36l10.59-7.88a3.202 3.202 0 0 1 3.82 5.14l-10.31 7.67c-.6.76-2.65 3.9.24 8.34l7 10.69a3.22 3.22 0 0 1-.94 4.44 3.18 3.18 0 0 1-1.73.54z"
     id="path193"
     style="fill:#f6dd93" />
  <path
     class="cls-6"
     d="m80.99 164.264-6.93 11.23s-2.69 6.67 4.37 11.66l10.42 7.36"
     id="path195"
     style="fill:#f6dd93" />
  <path
     class="cls-6"
     d="M88.85 197.724a3.18 3.18 0 0 1-1.85-.59l-10.42-7.36c-7.23-5.11-6.75-12.36-5.49-15.48a4.3 4.3 0 0 1 .24-.48l6.93-11.23a3.21 3.21 0 1 1 5.46 3.36l-6.75 10.94c-.28.92-1 4.6 3.3 7.65l10.43 7.37a3.2 3.2 0 0 1-1.85 5.82z"
     id="path197"
     style="fill:#f6dd93" />
  <path
     class="cls-6"
     d="m89.39 195.194 2.06 13s2.3 6.81 10.91 6l12.7-1.2"
     id="path199"
     style="fill:#f6dd93" />
  <path
     class="cls-6"
     d="M100.98 217.504a13 13 0 0 1-12.57-8.25 3 3 0 0 1-.12-.52l-2.07-13a3.204 3.204 0 0 1 6.33-1l2 12.7c.39.88 2.21 4.15 7.49 3.65l12.71-1.2a3.204 3.204 0 1 1 .6 6.38l-12.7 1.2c-.57.01-1.13.04-1.67.04z"
     id="path201"
     style="fill:#f6dd93" />
  <path
     class="cls-6"
     d="m116.75 215.084 6.49 11.5s4.54 5.57 12.32 1.8l11.48-5.58"
     id="path203"
     style="fill:#f6dd93" />
  <path
     class="cls-6"
     d="M130.32 232.884a12.66 12.66 0 0 1-9.56-4.28 2.77 2.77 0 0 1-.31-.45l-6.49-11.49a3.204 3.204 0 0 1 5.58-3.15l6.32 11.21c.68.68 3.53 3.11 8.3.79l11.48-5.57a3.202 3.202 0 0 1 2.8 5.76l-11.48 5.58a15.17 15.17 0 0 1-6.64 1.6z"
     id="path205"
     style="fill:#f6dd93" />
  <path
     class="cls-6"
     d="m152.93 221.464 11.7 6.12s6.84 2.21 11.31-5.18l6.64-10.92"
     id="path207"
     style="fill:#f6dd93" />
  <path
     class="cls-6"
     d="M166.95 231.104a11.24 11.24 0 0 1-3.31-.47 4.4 4.4 0 0 1-.5-.21l-11.7-6.12a3.212 3.212 0 0 1 3-5.68l11.39 6c.94.21 4.66.69 7.4-3.84l6.61-10.92a3.204 3.204 0 1 1 5.48 3.32l-6.61 10.92c-3.38 5.5-8.13 7-11.76 7z"
     id="path209"
     style="fill:#f6dd93" />
  <path
     class="cls-6"
     d="m185.74 209.564 13.19-.43s7-1.44 7.3-10.08l.38-12.76"
     id="path211"
     style="fill:#f6dd93" />
  <path
     class="cls-6"
     d="M185.73 212.774a3.21 3.21 0 0 1-.1-6.41l12.85-.42c.92-.28 4.39-1.69 4.55-7l.38-12.76a3.201 3.201 0 1 1 6.4.19l-.38 12.75c-.26 8.85-6.56 12.46-9.86 13.13a2.39 2.39 0 0 1-.53.06l-13.2.44z"
     id="path213"
     style="fill:#f6dd93" />
  <circle
     class="cls-6"
     cx="145.66"
     cy="154.624"
     id="circle215"
     style="fill:#f6dd93"
     r="68.35" />
  <path
     class="cls-6"
     d="M145.66 226.174a71.55 71.55 0 1 1 71.55-71.55 71.63 71.63 0 0 1-71.55 71.55zm0-136.69a65.14 65.14 0 1 0 65.14 65.14 65.21 65.21 0 0 0-65.14-65.14z"
     id="path217"
     style="fill:#f6dd93" />
  <path
     class="cls-6"
     d="M145.66 226.174a71.55 71.55 0 1 1 71.55-71.55 71.63 71.63 0 0 1-71.55 71.55zm0-136.69a65.14 65.14 0 1 0 65.14 65.14 65.21 65.21 0 0 0-65.14-65.14z"
     id="path227"
     style="fill:#f6dd93" />
  <path
     class="cls-5"
     d="M130.29 236.304c-5.45 0-10.44-2.41-13.08-6.44a23.09 23.09 0 0 1-2.15-4.56c-.67-1.78-1.25-3.32-2.28-4.22-1.63-1.42-4.11-1.22-8-.72-3.28.41-7 .89-10.48-.45-4.56-1.76-7.79-6.21-9.62-13.24l-.54-2.18c-.88-3.67-1.72-7.13-3.86-9.49a22.74 22.74 0 0 0-4.3-3.35c-3-2-6.32-4.21-7.71-8.22-1.51-4.38.11-8.5 1.54-12.13 1-2.63 2-5.11 1.71-7.31-.29-2.2-1.77-4.21-3.35-6.42-2.17-3-4.63-6.47-4.42-10.88.25-5.27 4.2-9 7.37-12l.34-.31c3.63-3.41 4.34-6.38 4.49-11.36v-3.09c-.07-4.49-.14-9.58 3.13-13.92 4.69-6.24 13.2-6.81 20-7.27 1.5-.1 2.91-.19 4.19-.34l.7 6.14c-1.42.16-2.91.26-4.48.36-5.87.4-12.53.84-15.52 4.82-2 2.65-1.94 6.28-1.89 10.12v3.36c-.18 6.12-1.32 10.88-6.43 15.68l-.34.32c-2.61 2.44-5.3 5-5.43 7.73-.11 2.27 1.46 4.46 3.27 7s4 5.56 4.46 9.22c.46 3.66-.88 7.27-2.1 10.36-1.22 3.09-2.21 5.64-1.44 7.86.71 2 2.83 3.46 5.29 5.1a27.54 27.54 0 0 1 5.46 4.35c3.19 3.52 4.3 8.12 5.29 12.17.17.7.33 1.4.51 2.09 1.3 5 3.27 8 5.86 9 2 .79 4.67.45 7.47.09 4.23-.54 9-1.15 12.86 2.21 2.18 1.91 3.14 4.44 4 6.67a18.9 18.9 0 0 0 1.53 3.37c1.94 2.94 6 3.91 9.25 3.57 4.05-.44 7.87-2.52 11.38-4.7l.28-.17a17.86 17.86 0 0 1 6.14-2.78c4.57-.86 8.54 1.32 12 3.24 2.85 1.57 5.55 3.05 7.94 2.58 2.58-.51 4.36-3.08 6.42-6.06a28.28 28.28 0 0 1 5.75-6.69c3.63-2.8 8.11-3.6 12-4.13l1-.13c3.26-.43 6.33-.84 8.85-2.19 2.52-1.35 2.95-2.81 3.9-6.31.14-.52.28-1 .44-1.59l5.93 1.71c-.15.51-.28 1-.41 1.49-1 3.68-2 7.49-6.93 10.13-3.52 1.9-7.31 2.4-11 2.88l-.94.13c-3.11.42-6.64 1-9.07 2.9a23.27 23.27 0 0 0-4.44 5.31c-2.47 3.57-5.27 7.61-10.31 8.61-4.59.9-8.58-1.29-12.11-3.22-2.84-1.56-5.53-3-7.92-2.59a13.36 13.36 0 0 0-4 2l-.28.18c-3.94 2.44-8.68 5-14 5.59a19.11 19.11 0 0 1-1.92.12z"
     id="path229"
     style="fill:#d08f2a" />
  <path
     class="cls-7"
     d="M91.24 244.724c.09-.23.23-.28.45-.16l2 1.17a.35.35 0 0 1 .16.5l-1.2 2.55 1.4.79 1.57-2.34a.37.37 0 0 1 .52-.12l2.06 1.17c.21.12.24.27.09.47l-10.31 14.23a.39.39 0 0 1-.55.12l-3-1.7a.38.38 0 0 1-.18-.52zm.21 6.7-3.05 6.37.18.1 3.91-5.88z"
     id="path231"
     style="fill:#fff" />
  <path
     class="cls-7"
     d="m53.88 235.724 1.7-1.58a.32.32 0 0 1 .51 0l1.26 1.35 10.84-10.06a.31.31 0 0 1 .51 0l1.58 1.69a.37.37 0 0 1 .09.25.33.33 0 0 1-.11.27l-10.84 10.08 1.24 1.34a.32.32 0 0 1 0 .51l-1.7 1.57a.32.32 0 0 1-.51 0l-4.57-4.92a.32.32 0 0 1 0-.5z"
     id="path233"
     style="fill:#fff" />
  <path
     class="cls-7"
     d="m47.19 196.834 2.1-1a.31.31 0 0 1 .48.17l1.48 3.19 1 2.1a.32.32 0 0 1-.18.48l-15.85 7.36a.32.32 0 0 1-.48-.18l-1-2.1a.31.31 0 0 1 .17-.48l13.42-6.23-1.36-2.93a.32.32 0 0 1 .22-.38z"
     id="path235"
     style="fill:#fff" />
  <path
     class="cls-7"
     d="M41.17 163.124a.27.27 0 0 1 .4.26l.29 2.35a.37.37 0 0 1-.32.43l-2.76.55.2 1.6 2.81-.14a.37.37 0 0 1 .41.35l.29 2.34c0 .24-.08.36-.32.36l-17.58.21a.38.38 0 0 1-.41-.37l-.42-3.41a.37.37 0 0 1 .31-.45zm-5.25 4.16-6.94 1.35v.21l7-.38z"
     id="path237"
     style="fill:#fff" />
  <path
     class="cls-7"
     d="m26.74 125.374 17.12 3.51a.32.32 0 0 1 .28.43l-.33 1.63a.5.5 0 0 1-.16.27.61.61 0 0 1-.27.15l-9 1 8.41 1.72a.32.32 0 0 1 .28.43l-.49 2.21a.32.32 0 0 1-.43.28l-17.12-3.51a.32.32 0 0 1-.28-.43l.34-1.68a.54.54 0 0 1 .16-.27.61.61 0 0 1 .27-.15l8.72-1-8.15-1.67a.32.32 0 0 1-.28-.43l.46-2.27a.33.33 0 0 1 .47-.22z"
     id="path239"
     style="fill:#fff" />
  <path
     class="cls-7"
     d="m41.81 89.234 2 1.16a.32.32 0 0 1 .14.49l-.92 1.6 12.81 7.39a.33.33 0 0 1 .14.5l-1.16 2a.32.32 0 0 1-.21.16.33.33 0 0 1-.29 0l-12.81-7.39-.93 1.58a.32.32 0 0 1-.5.13l-2-1.16a.31.31 0 0 1-.14-.49l3.35-5.81a.32.32 0 0 1 .52-.16z"
     id="path241"
     style="fill:#fff" />
  <path
     class="cls-7"
     d="M78.5 72.994a.28.28 0 0 1 0 .48l-1.74 1.6a.36.36 0 0 1-.53 0l-2-1.93-1.19 1.09 1.74 2.21a.37.37 0 0 1 0 .53l-1.75 1.6a.27.27 0 0 1-.47-.06l-10.36-14.2a.38.38 0 0 1 .06-.55l2.53-2.32a.39.39 0 0 1 .56 0zm-6.43-1.87-5.12-4.86-.16.14 4.4 5.53z"
     id="path243"
     style="fill:#fff" />
  <path
     class="cls-7"
     d="M145.25 271.984a118.63 118.63 0 0 1-13.08-.73l.68-6.13a113.8 113.8 0 0 0 12.4.68 110.54 110.54 0 0 0 102.88-69.32l5.72 2.32a116.7 116.7 0 0 1-108.6 73.18z"
     id="path245"
     style="fill:#fff" />
  <path
     class="cls-5"
     d="M288.87 152.804v45.28h-68.58c-34.95-2.64-40.88-33-40.88-33-78.47 0-77.81-58-77.81-58v-39.59c3.3-54.07 39.56-56 39.56-56h27.67s46.84-5.28 50.79 35.61h20.45c45.5-.66 48.8 34.28 48.8 34.28v71.47z"
     id="path247"
     style="fill:#d08f2a" />
  <path
     class="cls-5"
     d="M292.16 201.374h-72.12c-30.74-2.32-40.63-25.12-43.14-33-26.95-.43-47.6-7.71-61.4-21.67a59.81 59.81 0 0 1-17.2-39.68v-39.73c1-16.11 5.65-38 22.3-50.72 10.17-7.78 20-8.4 20.37-8.42h27.67c2.49-.25 24.68-2.07 40.11 10.44 7.54 6.13 12.17 14.55 13.83 25.13h17.54c47.91-.7 52 36.89 52.08 37.27v120.38zm-71.74-6.59h65.16V81.514c-.29-2.5-4.56-31.18-44.24-31.18h-24.7l-.29-3c-1-10.17-4.92-18.12-11.71-23.64-13.84-11.24-35.22-9-35.44-9h-27.93c-2.13.16-33.31 3.36-36.37 52.86v39.49a54 54 0 0 0 15.37 35.09c12.94 13 32.84 19.64 59.14 19.64h2.71l.52 2.66c.23 1.17 5.94 27.88 37.78 30.35z"
     id="path249"
     style="fill:#d08f2a" />
  <path
     class="cls-4"
     d="M288.87 144.884v45.28h-68.58c-34.95-2.64-40.88-33-40.88-33-78.47 0-77.81-58-77.81-58v-39.59c3.3-54.07 39.56-56.05 39.56-56.05h27.67s46.84-5.28 50.79 35.61h20.45c45.5-.66 48.8 34.28 48.8 34.28z"
     id="path251"
     style="fill:#231f20" />
  <path
     class="cls-6"
     d="M292.16 193.464h-72.12c-30.74-2.32-40.63-25.13-43.14-33-26.95-.43-47.6-7.71-61.4-21.67a59.81 59.81 0 0 1-17.2-39.68v-39.74c1-16.11 5.65-38 22.3-50.72 10.17-7.78 20-8.4 20.37-8.42h27.67c2.49-.25 24.68-2.07 40.11 10.44 7.53 6.11 12.16 14.56 13.77 25.17h17.54c47.91-.7 52 36.9 52.08 37.27v120.35zm-71.74-6.6h65.16V73.594c-.29-2.5-4.56-31.18-44.24-31.18h-24.7l-.29-3c-1-10.17-4.92-18.12-11.71-23.64-13.84-11.24-35.22-9-35.44-9h-27.93c-2.13.15-33.31 3.35-36.37 52.85v39.49a54 54 0 0 0 15.37 35.09c12.94 13 32.84 19.64 59.14 19.64h2.71l.52 2.67c.23 1.21 5.94 27.88 37.78 30.35z"
     id="path253"
     style="fill:#f6dd93" />
  <path
     class="cls-3"
     d="M170.85 87.254c-17.36-1.44-28-12.55-27.87-29 .08-8.89 2.47-17 6.71-22.91 5-6.94 12.39-10.65 21.35-10.74l.05 5.28c-10.91.1-22.63 7.62-22.84 28.42-.13 13.61 8.48 22.46 23 23.68z"
     id="path255"
     style="fill:#f2ea1e" />
  <path
     class="cls-3"
     d="M179.3 87.264h-21.65c-17.35-1.44-28-12.55-27.87-29 .09-8.89 2.47-17 6.72-22.91 4.89-6.78 12.05-10.48 20.73-10.73h23.07c4.32 0 7.64 1.29 9.86 3.82a12.18 12.18 0 0 1 2.67 8.86v11.06h-17.81v-11.87a4.53 4.53 0 0 0-1.83-3.64c-2.57-2.17-6.79-2.84-7.57-2.95h-7.75c-10.88.1-22.61 7.62-22.82 28.42-.13 13.58 8.44 22.42 22.93 23.67h16v-12.2h5.28zm1-44.18h7.28v-6.28a7 7 0 0 0-1.4-4.91c-1.18-1.32-3.15-2-5.87-2h-2.58a9.61 9.61 0 0 1 2.58 6.59z"
     id="path257"
     style="fill:#f2ea1e" />
  <path
     class="cls-3"
     d="M243.44 122.894c-17.35-1.45-28-12.55-27.87-29 .2-20.41 8.75-30.84 25.42-31v5.27c-13.61.13-20 8.32-20.2 25.78-.13 13.62 8.48 22.47 23 23.68z"
     id="path259"
     style="fill:#f2ea1e" />
  <path
     class="cls-3"
     d="M250.58 122.904h-20.34c-17.35-1.45-28-12.55-27.87-29 .19-19 10.43-30.56 27.45-31h20.43c4.32 0 7.64 1.28 9.86 3.82a12.06 12.06 0 0 1 2.67 8.85v11.06h-17.81v-11.86a4.55 4.55 0 0 0-1.82-3.65 15.24 15.24 0 0 0-5.12-2.95h-7.57c-20.36.2-22.74 18.1-22.82 25.78-.13 13.58 8.44 22.43 22.93 23.67h14.73v-9.58h17.76v13.85h-5.28v-8.57h-7.2zm-.32-41.54h7.25v-6.28a7.09 7.09 0 0 0-1.41-4.92c-1.18-1.32-3.15-2-5.87-2h-2.58a9.64 9.64 0 0 1 2.58 6.6z"
     id="path261"
     style="fill:#f2ea1e" />
  <path
     class="cls-3"
     d="M195.46 70.124h-40.22v-16.49h40.22zm-34.95-5.28h29.67v-5.93h-29.67z"
     id="path263"
     style="fill:#f2ea1e" />
  <path
     class="cls-3"
     id="rect265"
     style="fill:#f2ea1e"
     d="M186.56 69.134h5.28v32.65h-5.28z" />
  <path
     class="cls-2"
     d="M267.77 147.924h-44.84c-26.85 0-31.55-24.89-31.6-25.15l6.5-1.14-3.25.57 3.24-.58c.15.8 3.87 19.7 25.11 19.7h44.84z"
     id="path267"
     style="fill:#5e4c9b" />
  <path
     class="cls-2"
     d="M267.77 169.044h-44.84c-26.85 0-31.55-24.9-31.6-25.15l-.05-.28v-28.21h6.6v27.6c.51 2.38 4.87 19.44 25.05 19.44h44.84z"
     id="path269"
     style="fill:#5e4c9b" />
  <path
     class="cls-2"
     d="M176.7 113.604h-22.4c-26.85 0-31.56-24.89-31.6-25.14l6.49-1.15-3.24.58 3.24-.59c.15.81 3.87 19.71 25.11 19.71h22.4z"
     id="path271"
     style="fill:#5e4c9b" />
  <path
     class="cls-2"
     d="M176.7 134.724h-22.4c-26.85 0-31.56-24.89-31.6-25.14l-.05-.29v-28.21h6.59v27.64c.51 2.38 4.88 19.45 25.06 19.45h22.4z"
     id="path273"
     style="fill:#5e4c9b" />
  <path
     class="cls-2"
     id="rect275"
     style="fill:#5e4c9b"
     d="M261.25 146.394h6.59v9.47h-6.59z" />
  <path
     class="cls-2"
     id="rect277"
     style="fill:#5e4c9b"
     d="M241.35 146.394h6.59v9.47h-6.59z" />
  <path
     class="cls-2"
     id="rect279"
     style="fill:#5e4c9b"
     d="M220.5 146.394h6.59v9.47h-6.59z" />
  <path
     class="cls-2"
     id="rect281"
     style="fill:#5e4c9b"
     d="M169.71 111.984h6.59v8.52h-6.59z" />
  <path
     class="cls-2"
     id="rect283"
     style="fill:#5e4c9b"
     d="M149.81 111.984h6.59v8.52h-6.59z" />
  <path
     id="path1282"
     style="fill:#d08f2a;fill-opacity:1;stroke-width:1"
     d="m 82.097656,138.47461 a 2,2 0 0 0 -1.123047,0.51758 2,2 0 0 0 -0.113281,2.82617 l 8.697266,9.42773 c 0.556801,0.71565 1.340002,1.58182 2.509765,2.83594 1.211119,1.29845 2.120144,2.23636 2.75586,2.87109 l 4.054687,4.39649 c 0.573887,0.68615 1.945044,2.14658 5.695314,6.10351 2.21591,2.33806 5.49921,5.82938 7.29687,7.75782 1.75302,1.88056 4.13712,4.41368 5.42969,5.76953 6.6e-4,1e-4 0.001,-1e-4 0.002,0 1.04284,0.16047 2.14235,1.09945 2.73633,2.99023 0.97055,1.30311 24.04167,25.37788 25.72071,26.83399 1.6812,1.45799 7.11226,2.69824 12.83789,3.25195 0.23307,-0.0672 0.46751,-0.1302 0.70507,-0.17969 0.23285,-0.0504 0.46553,-0.0988 0.69727,-0.15429 0.26673,-0.0625 0.5326,-0.13103 0.79688,-0.20313 0.22157,-0.0625 0.44148,-0.13154 0.65624,-0.21484 0.19837,-0.075 0.39327,-0.15809 0.5879,-0.24219 0.22218,-0.0975 0.4429,-0.19871 0.6621,-0.30273 0.2841,-0.13123 0.5696,-0.25959 0.86133,-0.37305 0.33042,-0.11902 0.66999,-0.21436 1.02344,-0.22656 0.24423,-0.013 0.48787,-0.0156 0.73242,-0.0176 0.23991,-0.004 0.4793,-0.0119 0.71875,-0.0274 0.26771,-0.0166 0.53527,-0.0364 0.80274,-0.0566 0.24887,-0.0175 0.49851,-0.0331 0.74804,-0.0371 0.22112,-0.006 0.44291,-0.0116 0.66407,-0.0156 0.21974,-0.006 0.43918,-0.0162 0.6582,-0.0352 0.2626,-0.0209 0.52435,-0.0436 0.78711,-0.0625 0.28342,-0.0191 0.56734,-0.0374 0.85156,-0.0312 0.26965,0.006 0.53929,0.0165 0.8086,0.0312 0.30029,0.0156 0.59995,0.028 0.90039,0.041 0.30274,0.0119 0.60719,0.0187 0.91015,0.0137 0.26339,-0.005 0.52604,-0.0168 0.78906,-0.0312 0.19125,-0.0126 0.3817,-0.0362 0.57032,-0.0703 0.18709,-0.0349 0.37037,-0.0843 0.55273,-0.13867 0.215,-0.0615 0.42918,-0.12852 0.64258,-0.19532 0.20195,-0.0636 0.40164,-0.13141 0.60351,-0.19531 0.14296,-0.0484 0.2844,-0.10246 0.42383,-0.16015 0.13751,-0.0585 0.27396,-0.11986 0.40625,-0.18946 0.17465,-0.0893 0.34774,-0.18038 0.52149,-0.27148 0.15747,-0.0802 0.31624,-0.15999 0.47265,-0.24219 0.14674,-0.0756 0.29315,-0.15037 0.4375,-0.23047 0.17195,-0.0943 0.34628,-0.18544 0.51954,-0.27734 0.11324,-0.0618 0.22744,-0.12322 0.33203,-0.19922 -0.0279,0.0403 0.0388,-0.032 0.0488,-0.041 0.0251,-0.0222 0.0134,-0.0137 -0.0137,0.0274 -0.002,0.004 0.005,-0.007 0.008,-0.01 0.0374,-0.0578 0.0614,-0.13401 0.0977,-0.1875 0.0463,-0.0974 0.0955,-0.19364 0.13281,-0.29492 0.0277,-0.0735 0.0498,-0.14956 0.0645,-0.22656 0.03,-0.14292 0.0263,-0.29339 0.0488,-0.4375 0.0167,-0.17047 0.032,-0.34065 0.041,-0.51172 0.009,-0.16216 0.0137,-0.32394 0.0117,-0.48633 -0.002,-0.2071 -0.007,-0.41592 -0.008,-0.62305 0.002,-0.26434 0.0115,-0.52725 0.0293,-0.79101 0.0165,-0.25754 0.0346,-0.51576 0.0488,-0.77344 0.0131,-0.21626 0.0282,-0.43186 0.0352,-0.64844 0.007,-0.20257 0.011,-0.40473 0.0117,-0.60742 0.002,-0.10423 0.006,-0.20835 0.01,-0.3125 -0.58668,-0.36775 -1.27713,-0.61584 -2.06445,-0.67969 -0.71671,-0.0581 -2.95086,0.25924 -4.96289,0.70703 -9.02063,2.00759 -15.50889,2.39609 -21.25781,1.27149 -2.44143,-0.47758 -7.57509,-2.85539 -10.51758,-4.8711 -1.07748,-0.7381 -4.24232,-3.85978 -7.2168,-7.11718 -2.91424,-3.19145 -6.5592,-7.12383 -8.09961,-8.73828 -1.89535,-1.98646 -13.21793,-14.0913 -22.51367,-24.0293 a 2,2 0 0 0 -0.2207,-0.29297 L 83.800781,139.10547 a 2,2 0 0 0 -1.703125,-0.63086 z" />
  <path
     id="path43816"
     style="fill:#4d3e7e;fill-opacity:1;stroke-width:1"
     d="M 82.097656 138.47461 A 2 2 0 0 0 80.974609 138.99219 A 2 2 0 0 0 80.861328 141.81836 L 89.558594 151.24609 C 90.115395 151.96174 90.898596 152.82791 92.068359 154.08203 C 93.279478 155.38048 94.188503 156.31839 94.824219 156.95312 L 98.878906 161.34961 C 99.452793 162.03576 100.82395 163.49617 104.57422 167.45312 C 106.79013 169.79117 110.07343 173.2825 111.87109 175.21094 C 113.66874 177.13938 116.17437 179.8017 117.43945 181.12695 C 118.70455 182.45222 119.8323 183.68366 119.94531 183.86523 C 120.47655 184.71864 144.06407 209.33413 145.75977 210.80469 C 148.52754 213.20498 161.44077 215.0445 169.14062 214.13477 C 170.71249 213.94905 173.32749 213.4415 174.95117 213.00781 C 179.01795 211.92152 181.22219 210.57303 181.73242 208.85938 C 182.58518 205.99533 180.85675 203.39445 177.94336 203.1582 C 177.22665 203.1001 174.9925 203.41744 172.98047 203.86523 C 163.95984 205.87282 157.47158 206.26132 151.72266 205.13672 C 149.28123 204.65914 144.14757 202.28132 141.20508 200.26562 C 140.1276 199.52752 136.96276 196.40584 133.98828 193.14844 C 131.07404 189.95699 127.42908 186.02461 125.88867 184.41016 C 123.99332 182.4237 112.67074 170.31886 103.375 160.38086 A 2 2 0 0 0 103.1543 160.08789 L 83.800781 139.10547 A 2 2 0 0 0 82.097656 138.47461 z "
     clip-path="url(#clipPath44226)" />
  <path
     id="path44621"
     style="fill:#5e4c9b;fill-opacity:1;stroke-width:1"
     d="M 82.097656 138.47461 A 2 2 0 0 0 80.974609 138.99219 A 2 2 0 0 0 80.861328 141.81836 L 89.558594 151.24609 C 90.115395 151.96174 90.898596 152.82791 92.068359 154.08203 C 93.279478 155.38048 94.188503 156.31839 94.824219 156.95312 L 98.878906 161.34961 C 99.452793 162.03576 100.82395 163.49617 104.57422 167.45312 C 106.79013 169.79117 110.07343 173.2825 111.87109 175.21094 C 113.66874 177.13938 116.17437 179.8017 117.43945 181.12695 C 118.70455 182.45222 119.8323 183.68366 119.94531 183.86523 C 120.47655 184.71864 144.06407 209.33413 145.75977 210.80469 C 148.52754 213.20498 161.44077 215.0445 169.14062 214.13477 C 170.71249 213.94905 173.32749 213.4415 174.95117 213.00781 C 179.01795 211.92152 181.22219 210.57303 181.73242 208.85938 C 182.58518 205.99533 180.85675 203.39445 177.94336 203.1582 C 177.22665 203.1001 174.9925 203.41744 172.98047 203.86523 C 163.95984 205.87282 157.47158 206.26132 151.72266 205.13672 C 149.28123 204.65914 144.14757 202.28132 141.20508 200.26562 C 140.1276 199.52752 136.96276 196.40584 133.98828 193.14844 C 131.07404 189.95699 127.42908 186.02461 125.88867 184.41016 C 123.99332 182.4237 112.67074 170.31886 103.375 160.38086 A 2 2 0 0 0 103.1543 160.08789 L 83.800781 139.10547 A 2 2 0 0 0 82.097656 138.47461 z "
     clip-path="url(#clipPath44747)" />
  <g
     id="path1978">
    <path
       style="color:#000000;fill:#d08f2a;stroke-width:1px;stroke-linejoin:round;-inkscape-stroke:none"
       d="m 119.54063,177.14466 c 1.2986,-0.37881 2.16907,-0.35435 3.48057,0.18638 l 25.17957,27.20726 c 0,0 4.13453,2.13939 11.71864,0.14104 7.9139,-2.08525 17.78796,-4.03884 17.78796,-4.03884 0,0 1.76404,0.0172 2.26964,1.44382 0.50559,1.42666 1.36747,7.05434 1.36747,7.05434 0,0 0.21952,0.95332 -1.5303,1.69177 -1.74981,0.73844 -11.67265,2.31111 -11.67265,2.31111 l -10.13765,2.20662 -7.80332,1.73432 c 0,0 -4.8511,-0.14485 -6.72838,-2.46266 l -27.34062,-29.85216 c 0,0 -1.02145,-0.5937 -0.3449,-3.59654 z"
       id="path30742" />
    <path
       style="color:#000000;fill:#d08f2a;stroke-linejoin:round;-inkscape-stroke:none"
       d="m 121.30078,176.4043 c -0.61023,-0.0296 -1.21948,0.0611 -1.90039,0.25976 a 0.50005,0.50005 0 0 0 -0.22461,0.13867 l -3.7539,4.02735 a 0.50005,0.50005 0 0 0 -0.12305,0.23047 c -0.35169,1.56094 -0.27606,2.55248 -0.0684,3.18945 0.10385,0.31848 0.24142,0.54583 0.36719,0.69727 0.12576,0.15143 0.2832,0.25195 0.2832,0.25195 l -0.11719,-0.0937 27.33985,29.85156 -0.0195,-0.0234 c 1.06802,1.31864 2.84762,1.93805 4.34571,2.27539 1.49808,0.33735 2.75586,0.37305 2.75586,0.37305 a 0.50005,0.50005 0 0 0 0.12304,-0.0117 l 7.80274,-1.73437 10.13672,-2.20508 c 0.0259,-0.004 2.47063,-0.39096 5.16211,-0.875 1.35283,-0.2433 2.76187,-0.51046 3.94726,-0.76367 1.18539,-0.25322 2.11555,-0.47547 2.65039,-0.70117 0.95282,-0.40211 1.44977,-0.90524 1.67578,-1.36133 0.11301,-0.22805 0.15536,-0.43863 0.16602,-0.59766 0.0106,-0.15903 -0.0176,-0.30469 -0.0176,-0.30469 -0.005,-0.0325 -0.21176,-1.39379 -0.48828,-2.96679 -0.27979,-1.59165 -0.60247,-3.31846 -0.89453,-4.14258 -0.6275,-1.77057 -2.73633,-1.77734 -2.73633,-1.77735 a 0.50005,0.50005 0 0 0 -0.10352,0.01 c 0,0 -9.87782,1.95317 -17.8164,4.04492 -3.72789,0.98227 -6.58721,0.94396 -8.50586,0.66797 -1.88178,-0.27069 -2.76736,-0.73558 -2.80274,-0.75391 l -25.0957,-27.11718 a 0.50005,0.50005 0 0 0 -0.17773,-0.12305 c -0.68933,-0.28421 -1.29993,-0.43521 -1.91016,-0.46484 z m -0.0488,0.97656 c 0.4527,0.0219 0.92006,0.15965 1.4961,0.39062 l 25.08593,27.10547 a 0.50005,0.50005 0 0 0 0.13672,0.10547 c 0,0 1.1292,0.57698 3.17383,0.8711 2.04464,0.29411 5.04613,0.32467 8.90234,-0.69141 7.85801,-2.07052 17.60993,-4.00026 17.6875,-4.01563 0.0562,0.002 1.39569,0.0451 1.77149,1.10547 0.21353,0.60254 0.57402,2.40162 0.85156,3.98047 0.27755,1.57885 0.49219,2.98242 0.49219,2.98242 a 0.50005,0.50005 0 0 0 0.008,0.0352 c 0,0 -0.001,-0.0272 -0.004,0.0156 -0.003,0.0428 -0.0156,0.11812 -0.0664,0.22071 -0.10168,0.20518 -0.37097,0.54647 -1.16797,0.88281 -0.34006,0.14351 -1.30343,0.39519 -2.4707,0.64453 -1.16727,0.24935 -2.56942,0.51564 -3.91602,0.75781 -2.6932,0.48435 -5.16992,0.87696 -5.16992,0.87696 a 0.50005,0.50005 0 0 0 -0.0273,0.004 l -10.13672,2.20703 a 0.50005,0.50005 0 0 0 -0.004,0 l -7.72266,1.7168 c -0.0382,-0.001 -1.1481,-0.0345 -2.52148,-0.34375 -1.39678,-0.31453 -2.97979,-0.92856 -3.78906,-1.92773 a 0.50005,0.50005 0 0 0 -0.0195,-0.0234 L 116.5,184.42969 a 0.50005,0.50005 0 0 0 -0.11719,-0.0937 c 0,0 0.029,0.0264 -0.0156,-0.0273 -0.0446,-0.0537 -0.11861,-0.16189 -0.18555,-0.36718 -0.12877,-0.39492 -0.19215,-1.21807 0.0898,-2.5586 l 3.52149,-3.77539 c 0.55498,-0.15455 1.01586,-0.24797 1.45898,-0.22656 z"
       id="path30744" />
  </g>
  <g
     id="g30700"
     clip-path="url(#clipPath30760)">
    <path
       id="path16787"
       style="fill:#5e4c9b;stroke:none;stroke-width:1px;stroke-linecap:butt;stroke-linejoin:miter;stroke-opacity:1;fill-opacity:1"
       d="m 116.40165,187.7301 4.68375,3.96556 4.62269,5.85277 4.41953,4.4204 0.15592,2.89229 3.47897,2.64336 4.18651,2.80884 2.33365,3.88952 6.02082,3.40287 5.58926,0.21649 4.73099,-0.5299 4.94564,-0.94899 8.32133,-2.45286 5.10641,-0.46489 -0.38687,-13.74913 -6.4662,1.98359 -3.98071,0.72816 -6.63431,1.7261 -3.52375,0.19555 -3.18625,-0.67342 -2.0996,-1.20857 -2.46581,-3.10961 -2.75886,-1.76459 -3.46157,-4.28246 -4.29772,-4.87985 -3.94291,-3.72772 -2.81844,-3.22795 -3.58798,-3.6806 -8.98449,9.97504" />
    <path
       id="path16672"
       style="color:#000000;fill:#4d3e7e;-inkscape-stroke:none;fill-opacity:1"
       d="m 175.10937,199.66211 -0.99804,0.0293 0.38672,13.74804 0.99804,-0.0273 z m -6.46875,1.93359 -0.99218,0.12891 c 0,0 0.39687,3.08907 0.81445,6.16406 0.20879,1.5375 0.42399,3.07128 0.5957,4.2168 0.0859,0.57276 0.16065,1.04723 0.22071,1.38281 0.03,0.16779 0.0551,0.2988 0.0801,0.40234 0.0125,0.0518 0.0214,0.0927 0.0449,0.1543 0.0118,0.0308 0.0178,0.0624 0.0801,0.14453 0.0156,0.0205 0.0362,0.0456 0.0684,0.0742 0.0322,0.0287 0.14384,0.0896 0.14454,0.0899 6.9e-4,2.8e-4 0.26302,0.0333 0.26367,0.0332 6.5e-4,-9e-5 0.23572,-0.10109 0.23633,-0.10156 l -0.61329,-0.78907 c -6e-4,4.8e-4 0.23503,-0.0997 0.23438,-0.0996 -6.5e-4,1e-4 0.2585,0.0315 0.25781,0.0312 -6.9e-4,-2.8e-4 0.10992,0.0605 0.14063,0.0879 0.0307,0.0274 0.0504,0.0499 0.0644,0.0684 0.056,0.0739 0.0544,0.0925 0.0586,0.10352 0.008,0.022 -9e-5,7.9e-4 -0.008,-0.0312 -0.0154,-0.0641 -0.04,-0.18539 -0.0684,-0.34375 -0.0567,-0.31673 -0.13163,-0.7873 -0.2168,-1.35547 -0.17033,-1.13634 -0.38331,-2.66789 -0.59179,-4.20312 -0.41697,-3.07047 -0.81445,-6.15821 -0.81446,-6.15821 z m -4.96875,0.70117 -2.59375,13.95508 0.98243,0.1836 2.59375,-13.95508 z m -6.64062,1.78125 c 0,0 -0.23205,3.2573 -0.46094,6.53321 -0.11444,1.63795 -0.22853,3.28011 -0.3125,4.52344 -0.042,0.62166 -0.0762,1.14344 -0.0996,1.51562 -0.0117,0.18609 -0.0215,0.33498 -0.0273,0.44141 -0.003,0.0532 -0.005,0.0952 -0.006,0.1289 -6.7e-4,0.0168 -0.002,0.0315 -0.002,0.0469 -2.5e-4,0.0154 -0.006,4.1e-4 0.006,0.0918 l 0.99023,-0.13281 c 0.0116,0.0866 0.004,0.0584 0.004,0.0566 3e-5,-0.002 0.001,-0.009 0.002,-0.0215 9.8e-4,-0.0246 0.001,-0.0647 0.004,-0.11524 0.006,-0.10107 0.0157,-0.24701 0.0273,-0.43164 0.0233,-0.36926 0.0577,-0.89082 0.0996,-1.51172 0.0839,-1.24179 0.19808,-2.88392 0.3125,-4.52148 0.22883,-3.27512 0.45898,-6.53125 0.45898,-6.53125 z m -3.51953,0.15625 c 0,0 -0.51074,3.3432 -1.0293,6.70313 -0.25928,1.67996 -0.5193,3.36464 -0.7207,4.63672 -0.1007,0.63604 -0.18746,1.16829 -0.25,1.54492 -0.0313,0.18832 -0.0559,0.33827 -0.0742,0.43945 -0.009,0.0506 -0.017,0.0895 -0.0215,0.11133 0.003,-0.011 0.0377,-0.087 0.0371,-0.0859 l 0.87891,0.47657 c 5.9e-4,-0.001 0.036,-0.0813 0.041,-0.0977 0.005,-0.0164 0.007,-0.0253 0.01,-0.0352 0.005,-0.0198 0.008,-0.0362 0.0117,-0.0547 0.008,-0.037 0.0174,-0.0817 0.0273,-0.13672 0.0199,-0.11009 0.0445,-0.26239 0.0762,-0.45313 0.0633,-0.38148 0.14909,-0.91542 0.25,-1.55273 0.2018,-1.27462 0.46328,-2.96001 0.72265,-4.64063 0.51876,-3.36122 1.0293,-6.70507 1.0293,-6.70507 z m -3.16797,-0.75195 -4.51563,13.96875 0.95118,0.3086 4.51562,-13.96875 z m -2.03125,-1.3457 -8.43555,11.77539 0.8125,0.58203 8.43555,-11.77539 z m -2.45703,-3.11914 -8.30469,10.99414 0.79688,0.60351 8.30468,-10.99609 z m -2.71875,-1.81446 -9.73242,9.95118 0.71484,0.69922 9.73242,-9.95118 z m -3.48633,-4.2539 -9.75,11.58984 0.76563,0.64453 9.75,-11.58984 z m -4.37695,-4.74805 -5.60742,13.57617 0.92382,0.38282 5.60743,-13.57813 z m -3.9336,-3.75195 -6.08398,12.88476 0.9043,0.42774 6.08398,-12.88477 z m -2.76172,-3.31836 -7.88867,10.25976 0.79297,0.60938 7.88867,-10.25977 z m -3.56445,-3.71094 -8.98437,9.97461 0.74414,0.66992 8.98437,-9.97461 z" />
  </g>
</svg>
