<?xml version="1.0" encoding="UTF-8" standalone="no"?>
<svg
   id="Layer_1"
   data-name="Layer 1"
   version="1.1"
   width="292.2"
   height="300.284"
   sodipodi:docname="ATL3.svg"
   inkscape:version="1.1.2 (b8e25be833, 2022-02-05)"
   inkscape:export-filename="D:\ART\HGM\ATL3.png"
   inkscape:export-xdpi="2537.468"
   inkscape:export-ydpi="2537.468"
   xmlns:inkscape="http://www.inkscape.org/namespaces/inkscape"
   xmlns:sodipodi="http://sodipodi.sourceforge.net/DTD/sodipodi-0.dtd"
   xmlns="http://www.w3.org/2000/svg"
   xmlns:svg="http://www.w3.org/2000/svg">
  <sodipodi:namedview
     id="namedview61"
     pagecolor="#8f8f8f"
     bordercolor="#666666"
     borderopacity="1.0"
     inkscape:pageshadow="2"
     inkscape:pageopacity="1"
     inkscape:pagecheckerboard="true"
     showgrid="false"
     inkscape:zoom="11.313709"
     inkscape:cx="148.58071"
     inkscape:cy="198.87702"
     inkscape:window-width="1920"
     inkscape:window-height="1017"
     inkscape:window-x="-1928"
     inkscape:window-y="-8"
     inkscape:window-maximized="1"
     inkscape:current-layer="layer3"
     inkscape:rotation="-2" />
  <defs
     id="defs4">
    <inkscape:path-effect
       effect="powerclip"
       id="path-effect1243"
       is_visible="true"
       lpeversion="1"
       inverse="true"
       flatten="false"
       hide_clip="false"
       message="Use fill-rule evenodd on &lt;b&gt;fill and stroke&lt;/b&gt; dialog if no flatten result after convert clip to paths." />
    <style
       id="style2">.cls-1{fill:#f15d24}.cls-2{fill:#5e4c9b}.cls-3{fill:#f2ea1e}.cls-4{fill:#231f20}.cls-5{fill:#d08f2a}.cls-6{fill:#f6dd93}.cls-7{fill:#fff}</style>
    <clipPath
       clipPathUnits="userSpaceOnUse"
       id="clipPath27597">
      <path
         id="path27599"
         style="color:#000000;fill:#000000;-inkscape-stroke:none"
         d="m 177.67188,203.11328 -0.99805,0.0644 0.59765,9.13086 0.99805,-0.0664 z m -3.15821,0.46094 -0.98047,0.19922 1.89063,9.25781 0.97851,-0.19922 z m -3.20117,0.64844 -0.97656,0.21289 2.06836,9.42383 0.97656,-0.2129 z m -3.73828,0.58984 -0.95703,0.29297 2.85742,9.29297 0.95703,-0.29297 z m -16.00781,0.10352 -2.02735,7.67382 0.96875,0.25391 2.02539,-7.67383 z m 13.15039,0.39062 -0.98633,0.16016 1.51172,9.28906 0.98633,-0.16016 z m -9.10157,0.0703 -2.3789,8.06446 0.95898,0.2832 2.37891,-8.06445 z m 2.79688,0.12891 -1.28516,8.55859 0.98828,0.14844 1.28516,-8.55859 z m 2.69141,0.0781 -0.0703,8.9336 1,0.008 0.0703,-8.93359 z" />
    </clipPath>
    <clipPath
       clipPathUnits="userSpaceOnUse"
       id="clipPath28297">
      <path
         id="path28299"
         style="font-variation-settings:normal;opacity:1;vector-effect:none;fill:#f9f9f9;fill-opacity:1;stroke:none;stroke-width:0.224716;stroke-linecap:butt;stroke-linejoin:miter;stroke-miterlimit:4;stroke-dasharray:none;stroke-dashoffset:0;stroke-opacity:1;-inkscape-stroke:none;stop-color:#000000;stop-opacity:1"
         d="m 176.6543,203.14062 c -0.72546,0.0689 -1.44293,0.20422 -2.16211,0.31836 -0.16365,0.0748 -0.016,0.26995 -0.0176,0.4004 0.60215,2.91391 1.18211,5.83393 1.79101,8.74609 0.1064,0.14084 0.30011,0.008 0.4336,-0.0156 0.21693,-0.087 0.46262,-0.1288 0.65625,-0.25781 7.1e-4,-0.4273 -0.0553,-0.85957 -0.0742,-1.28906 -0.17465,-2.6007 -0.32933,-5.20307 -0.51758,-7.80274 -0.0108,-0.0601 -0.049,-0.0954 -0.10937,-0.0996 z m -3.16211,0.51954 c -0.71999,0.15852 -1.44504,0.29871 -2.16211,0.46875 -0.15346,0.0812 -0.029,0.27911 -0.0274,0.4082 0.54588,2.62129 1.13137,5.23559 1.71094,7.84961 0.0916,0.35137 0.13984,0.71826 0.27149,1.05664 0.11938,0.10017 0.28183,-0.0293 0.41796,-0.0332 0.57618,-0.13734 1.15697,-0.2644 1.72266,-0.43946 0.11535,-0.12267 -0.0157,-0.30115 -0.0156,-0.44726 -0.59152,-2.93215 -1.1911,-5.86506 -1.78907,-8.79492 -0.0232,-0.047 -0.0775,-0.0733 -0.1289,-0.0684 z m -3.18555,0.68945 c -0.77723,0.11333 -1.54706,0.28045 -2.32226,0.4082 -0.14349,0.0406 -0.31036,0.0314 -0.43555,0.11719 -0.0475,0.16816 0.0782,0.33609 0.10547,0.50391 0.88061,2.86786 1.75236,5.74018 2.64648,8.60351 0.0921,0.14518 0.28739,0.0183 0.42188,0.0195 0.54995,-0.10393 1.10393,-0.19232 1.64843,-0.32031 0.11918,-0.11722 -0.009,-0.29442 -0.0137,-0.4375 -0.63763,-2.94322 -1.27526,-5.88693 -1.93945,-8.82422 -0.0273,-0.0423 -0.0565,-0.0776 -0.11133,-0.0703 z m -3.71484,0.63867 c -0.62815,0.0816 -1.25572,0.17403 -1.88282,0.26172 -0.14755,0.10172 -0.0129,0.30692 -0.0195,0.45312 0.46472,2.88612 0.93416,5.77155 1.40625,8.65626 0.0878,0.13119 0.27768,0.0519 0.40821,0.0703 0.94419,-0.0471 1.89069,-0.1 2.82812,-0.22461 0.15698,-0.0101 0.12856,-0.19143 0.0781,-0.29297 -0.89534,-2.95604 -1.79378,-5.91068 -2.71289,-8.85938 -0.0284,-0.0342 -0.0561,-0.071 -0.10547,-0.0644 z m -14.08399,0.18164 c -0.15673,0.0452 -0.12347,0.26166 -0.18359,0.38477 -0.63272,2.37877 -1.26763,4.75683 -1.87305,7.14258 0.0248,0.17589 0.25889,0.13621 0.38477,0.19335 0.79316,0.17811 1.58621,0.36271 2.38672,0.50196 0.18787,-0.049 0.17382,-0.30011 0.24218,-0.44531 0.71616,-2.41977 1.43106,-4.84168 2.13282,-7.26563 0.0126,-0.18351 -0.22968,-0.15537 -0.35157,-0.17969 -0.90983,-0.075 -1.81154,-0.20849 -2.71289,-0.33203 -0.008,-4.6e-4 -0.017,-4.4e-4 -0.0254,0 z m 11.1875,0.20313 v 0.002 c -0.53425,0.0359 -1.06778,0.0799 -1.59961,0.14258 -0.16184,0.0791 -0.058,0.30557 -0.0879,0.45117 -0.0147,2.77811 -0.0509,5.55586 -0.0605,8.33398 0.0506,0.16922 0.27093,0.083 0.40039,0.11719 0.91509,0.0296 1.83084,0.0451 2.74609,0.0234 0.14159,0.0104 0.19673,-0.14272 0.14453,-0.25781 -0.46713,-2.91267 -0.93718,-5.82527 -1.42578,-8.73438 -0.0248,-0.0474 -0.0596,-0.0864 -0.11719,-0.0781 z m -2.65039,0.21679 c -0.0223,-2.2e-4 -0.0435,8e-4 -0.0644,0.002 -0.52737,0.0237 -1.0538,0.0382 -1.58008,0.0625 -0.18218,0.0334 -0.10878,0.27703 -0.1582,0.40625 -0.39198,2.64898 -0.79979,5.29675 -1.1836,7.94726 0.0408,0.17953 0.2778,0.10098 0.41211,0.14258 0.85095,0.0776 1.70319,0.16329 2.55664,0.20117 0.16809,-0.0418 0.0739,-0.26451 0.10157,-0.38672 0.0239,-2.75739 0.0474,-5.51596 0.0586,-8.27343 -0.0103,-0.0849 -0.0755,-0.10091 -0.14258,-0.10157 z m -4.45508,0.0391 c -0.17201,0.0158 -0.14769,0.24465 -0.20898,0.36523 -0.73977,2.49179 -1.48011,4.983 -2.19336,7.48242 0.0174,0.1808 0.25112,0.12618 0.37695,0.17188 0.83888,0.13062 1.68065,0.25169 2.52344,0.34961 0.20233,-0.006 0.17251,-0.26044 0.20508,-0.39844 0.39271,-2.6026 0.78563,-5.20531 1.16015,-7.81055 -0.0382,-0.1828 -0.2738,-0.091 -0.40624,-0.12304 -0.48599,-0.0158 -0.97078,-0.0341 -1.45704,-0.0371 z" />
    </clipPath>
    <clipPath
       clipPathUnits="userSpaceOnUse"
       id="clipPath44226">
      <path
         id="path44228"
         style="color:#000000;fill:#000000;-inkscape-stroke:none"
         d="m 82.931641,138.26367 -1.273438,5.51758 0.974609,0.22461 1.273438,-5.51758 z m 2.322265,2.30274 -1.603515,5.13086 0.955078,0.29687 1.603515,-5.12891 z m 2.328125,2.68359 -2.49414,5.16602 0.90039,0.43359 2.494141,-5.16602 z m 2.628907,2.12305 -3.134766,4.95117 0.84375,0.53516 3.136719,-4.95118 z m 2.134765,2.28125 -2.457031,5.80664 0.919922,0.39062 2.458984,-5.80664 z m 2.171875,2.57031 -2.066406,5.06055 0.925781,0.37695 2.066406,-5.05859 z m 2.701172,2.91211 -3.476562,3.92969 0.748046,0.66211 3.476563,-3.92969 z" />
    </clipPath>
    <clipPath
       clipPathUnits="userSpaceOnUse"
       id="clipPath44747">
      <path
         id="path44749"
         style="font-variation-settings:normal;opacity:1;vector-effect:none;fill:#a0a0a0;fill-opacity:1;stroke:none;stroke-width:0.224716;stroke-linecap:butt;stroke-linejoin:miter;stroke-miterlimit:4;stroke-dasharray:none;stroke-dashoffset:0;stroke-opacity:1;-inkscape-stroke:none;stop-color:#000000;stop-opacity:1"
         d="m 82.152344,138.38672 c -1.134111,0.0496 -2.064631,1.20809 -1.894532,2.33008 0.04526,0.5704 0.404089,1.03739 0.785157,1.43554 0.253131,0.2651 0.484439,0.56082 0.773437,0.78711 0.216875,0.0323 0.156127,-0.28651 0.222656,-0.41601 0.292172,-1.31806 0.637187,-2.62665 0.878907,-3.95508 0.0089,-0.22242 -0.293243,-0.15905 -0.435547,-0.18164 -0.07326,-0.002 -0.147436,-0.001 -0.220703,0 -0.03698,-7.5e-4 -0.07279,-0.002 -0.109375,0 z m 1.642578,0.63476 c -0.0161,-3e-4 -0.03235,0.002 -0.04883,0.006 -0.146208,0.16069 -0.11834,0.41888 -0.195313,0.61719 -0.325597,1.37483 -0.640162,2.75247 -0.958984,4.12891 0.07153,0.22805 0.321393,0.36874 0.460937,0.5625 0.251954,0.24263 0.453707,0.5491 0.746094,0.74414 0.22967,0.0387 0.19429,-0.2965 0.273438,-0.43164 0.414454,-1.32424 0.828577,-2.64813 1.242187,-3.97266 -0.05076,-0.22407 -0.303609,-0.35583 -0.433594,-0.54297 -0.354119,-0.35774 -0.664206,-0.76322 -1.039062,-1.09765 -0.01508,-0.009 -0.03078,-0.0134 -0.04687,-0.0137 z m 2.21875,2.39454 c -0.02307,0.003 -0.04493,0.022 -0.06836,0.0273 -0.486142,1.46392 -0.926349,2.94983 -1.394531,4.42187 0.05912,0.23808 0.306513,0.38958 0.449219,0.58594 0.219847,0.23303 0.428376,0.48035 0.664062,0.69727 0.207523,0.0477 0.215495,-0.26086 0.316407,-0.37891 0.571257,-1.16672 1.128263,-2.33934 1.699219,-3.50586 0.0018,-0.20573 -0.253526,-0.31374 -0.355469,-0.47851 -0.42512,-0.44773 -0.826792,-0.9267 -1.267578,-1.35352 -0.01366,-0.0143 -0.02913,-0.0177 -0.04297,-0.0156 z m 2.310547,2.54687 c -0.01385,0.001 -0.02914,0.005 -0.04297,0.006 -0.211476,0.26664 -0.311829,0.61754 -0.480469,0.91602 -0.478163,0.98564 -0.952051,1.97409 -1.427734,2.96093 -0.0011,0.20574 0.254793,0.31224 0.357422,0.47657 0.324247,0.31845 0.594549,0.7026 0.964843,0.96875 0.204791,0.0522 0.251184,-0.24741 0.365235,-0.35743 0.65756,-1.03576 1.327507,-2.06523 1.955078,-3.11914 -0.01519,-0.21114 -0.251923,-0.33585 -0.363281,-0.5039 -0.424026,-0.44983 -0.826149,-0.92855 -1.289063,-1.33789 -0.01289,-0.009 -0.02522,-0.0108 -0.03906,-0.01 z m 2.345703,2.51563 c -0.02078,-0.001 -0.04193,0.004 -0.06445,0.0215 -0.766527,1.14088 -1.50154,2.30633 -2.226563,3.47461 -0.02178,0.19579 0.214377,0.31225 0.308594,0.46484 0.572059,0.60238 1.085283,1.24113 1.636719,1.85938 0.210744,0.10618 0.219433,-0.23886 0.304687,-0.35547 0.521928,-1.24688 1.068283,-2.48762 1.572266,-3.74024 -0.04685,-0.26521 -0.31351,-0.42911 -0.464844,-0.63671 -0.331406,-0.35773 -0.657291,-0.7215 -1,-1.06836 -0.0242,-0.01 -0.04563,-0.0181 -0.06641,-0.0195 z m 2.224609,2.43359 c -0.02084,-0.002 -0.04172,0.01 -0.0625,0.0137 -0.217895,0.34743 -0.336216,0.76091 -0.515625,1.13281 -0.413525,0.99395 -0.861426,1.97764 -1.24414,2.98243 0.04863,0.24083 0.298877,0.38335 0.4375,0.57421 0.371783,0.38705 0.716863,0.80538 1.113281,1.16602 0.197213,0.0228 0.194684,-0.25383 0.279297,-0.375 0.525394,-1.26471 1.038677,-2.53497 1.55664,-3.80273 -0.02078,-0.21052 -0.269951,-0.32661 -0.382812,-0.49805 -0.386103,-0.39462 -0.729217,-0.84039 -1.160156,-1.18555 -0.007,-0.004 -0.01454,-0.007 -0.02148,-0.008 z m 2.230469,2.42578 c -0.01451,0.001 -0.03013,0.005 -0.04492,0.008 -0.19331,0.27522 -0.271811,0.62705 -0.419922,0.93164 -0.439265,1.06692 -0.87261,2.13682 -1.308594,3.20508 0.0242,0.20846 0.26306,0.32856 0.382813,0.49414 0.192759,0.16464 0.339142,0.42216 0.580078,0.51367 0.232087,-0.13602 0.375068,-0.39989 0.572266,-0.58398 0.725047,-0.82457 1.474786,-1.63696 2.175781,-2.47656 0.0016,-0.18537 -0.239156,-0.29424 -0.333984,-0.44727 -0.521132,-0.54273 -0.997461,-1.13587 -1.560547,-1.63476 -0.01437,-0.009 -0.02846,-0.0112 -0.04297,-0.01 z" />
    </clipPath>
    <clipPath
       clipPathUnits="userSpaceOnUse"
       id="clipPath30760">
      <g
         id="g30766">
        <path
           style="color:#000000;fill:#d08f2a;stroke-width:1px;stroke-linejoin:round;-inkscape-stroke:none"
           d="m 119.54063,177.14466 c 1.2986,-0.37881 2.16907,-0.35435 3.48057,0.18638 l 25.17957,27.20726 c 0,0 4.13453,2.13939 11.71864,0.14104 7.9139,-2.08525 17.78796,-4.03884 17.78796,-4.03884 0,0 1.76404,0.0172 2.26964,1.44382 0.50559,1.42666 1.36747,7.05434 1.36747,7.05434 0,0 0.21952,0.95332 -1.5303,1.69177 -1.74981,0.73844 -11.67265,2.31111 -11.67265,2.31111 l -10.13765,2.20662 -7.80332,1.73432 c 0,0 -4.8511,-0.14485 -6.72838,-2.46266 l -27.34062,-29.85216 c 0,0 -1.02145,-0.5937 -0.3449,-3.59654 z"
           id="path30762" />
        <path
           style="color:#000000;fill:#d08f2a;stroke-linejoin:round;-inkscape-stroke:none"
           d="m 121.30078,176.4043 c -0.61023,-0.0296 -1.21948,0.0611 -1.90039,0.25976 a 0.50005,0.50005 0 0 0 -0.22461,0.13867 l -3.7539,4.02735 a 0.50005,0.50005 0 0 0 -0.12305,0.23047 c -0.35169,1.56094 -0.27606,2.55248 -0.0684,3.18945 0.10385,0.31848 0.24142,0.54583 0.36719,0.69727 0.12576,0.15143 0.2832,0.25195 0.2832,0.25195 l -0.11719,-0.0937 27.33985,29.85156 -0.0195,-0.0234 c 1.06802,1.31864 2.84762,1.93805 4.34571,2.27539 1.49808,0.33735 2.75586,0.37305 2.75586,0.37305 a 0.50005,0.50005 0 0 0 0.12304,-0.0117 l 7.80274,-1.73437 10.13672,-2.20508 c 0.0259,-0.004 2.47063,-0.39096 5.16211,-0.875 1.35283,-0.2433 2.76187,-0.51046 3.94726,-0.76367 1.18539,-0.25322 2.11555,-0.47547 2.65039,-0.70117 0.95282,-0.40211 1.44977,-0.90524 1.67578,-1.36133 0.11301,-0.22805 0.15536,-0.43863 0.16602,-0.59766 0.0106,-0.15903 -0.0176,-0.30469 -0.0176,-0.30469 -0.005,-0.0325 -0.21176,-1.39379 -0.48828,-2.96679 -0.27979,-1.59165 -0.60247,-3.31846 -0.89453,-4.14258 -0.6275,-1.77057 -2.73633,-1.77734 -2.73633,-1.77735 a 0.50005,0.50005 0 0 0 -0.10352,0.01 c 0,0 -9.87782,1.95317 -17.8164,4.04492 -3.72789,0.98227 -6.58721,0.94396 -8.50586,0.66797 -1.88178,-0.27069 -2.76736,-0.73558 -2.80274,-0.75391 l -25.0957,-27.11718 a 0.50005,0.50005 0 0 0 -0.17773,-0.12305 c -0.68933,-0.28421 -1.29993,-0.43521 -1.91016,-0.46484 z m -0.0488,0.97656 c 0.4527,0.0219 0.92006,0.15965 1.4961,0.39062 l 25.08593,27.10547 a 0.50005,0.50005 0 0 0 0.13672,0.10547 c 0,0 1.1292,0.57698 3.17383,0.8711 2.04464,0.29411 5.04613,0.32467 8.90234,-0.69141 7.85801,-2.07052 17.60993,-4.00026 17.6875,-4.01563 0.0562,0.002 1.39569,0.0451 1.77149,1.10547 0.21353,0.60254 0.57402,2.40162 0.85156,3.98047 0.27755,1.57885 0.49219,2.98242 0.49219,2.98242 a 0.50005,0.50005 0 0 0 0.008,0.0352 c 0,0 -0.001,-0.0272 -0.004,0.0156 -0.003,0.0428 -0.0156,0.11812 -0.0664,0.22071 -0.10168,0.20518 -0.37097,0.54647 -1.16797,0.88281 -0.34006,0.14351 -1.30343,0.39519 -2.4707,0.64453 -1.16727,0.24935 -2.56942,0.51564 -3.91602,0.75781 -2.6932,0.48435 -5.16992,0.87696 -5.16992,0.87696 a 0.50005,0.50005 0 0 0 -0.0273,0.004 l -10.13672,2.20703 a 0.50005,0.50005 0 0 0 -0.004,0 l -7.72266,1.7168 c -0.0382,-0.001 -1.1481,-0.0345 -2.52148,-0.34375 -1.39678,-0.31453 -2.97979,-0.92856 -3.78906,-1.92773 a 0.50005,0.50005 0 0 0 -0.0195,-0.0234 L 116.5,184.42969 a 0.50005,0.50005 0 0 0 -0.11719,-0.0937 c 0,0 0.029,0.0264 -0.0156,-0.0273 -0.0446,-0.0537 -0.11861,-0.16189 -0.18555,-0.36718 -0.12877,-0.39492 -0.19215,-1.21807 0.0898,-2.5586 l 3.52149,-3.77539 c 0.55498,-0.15455 1.01586,-0.24797 1.45898,-0.22656 z"
           id="path30764" />
      </g>
    </clipPath>
    <clipPath
       clipPathUnits="userSpaceOnUse"
       id="clipPath1235">
      <g
         id="g1241"
         style="display:block">
        <path
           style="color:#000000;fill:#d08f2a;stroke-width:1px;stroke-linejoin:round;-inkscape-stroke:none"
           d="m 119.54063,177.14466 c 1.2986,-0.37881 2.16907,-0.35435 3.48057,0.18638 l 25.17957,27.20726 c 0,0 4.13453,2.13939 11.71864,0.14104 7.9139,-2.08525 17.78796,-4.03884 17.78796,-4.03884 0,0 1.76404,0.0172 2.26964,1.44382 0.50559,1.42666 1.36747,7.05434 1.36747,7.05434 0,0 0.21952,0.95332 -1.5303,1.69177 -1.74981,0.73844 -11.67265,2.31111 -11.67265,2.31111 l -10.13765,2.20662 -7.80332,1.73432 c 0,0 -4.8511,-0.14485 -6.72838,-2.46266 l -27.34062,-29.85216 c 0,0 -1.02145,-0.5937 -0.3449,-3.59654 z"
           id="path1237" />
        <path
           style="color:#000000;fill:#d08f2a;stroke-linejoin:round;-inkscape-stroke:none"
           d="m 121.30078,176.4043 c -0.61023,-0.0296 -1.21948,0.0611 -1.90039,0.25976 a 0.50005,0.50005 0 0 0 -0.22461,0.13867 l -3.7539,4.02735 a 0.50005,0.50005 0 0 0 -0.12305,0.23047 c -0.35169,1.56094 -0.27606,2.55248 -0.0684,3.18945 0.10385,0.31848 0.24142,0.54583 0.36719,0.69727 0.12576,0.15143 0.2832,0.25195 0.2832,0.25195 l -0.11719,-0.0937 27.33985,29.85156 -0.0195,-0.0234 c 1.06802,1.31864 2.84762,1.93805 4.34571,2.27539 1.49808,0.33735 2.75586,0.37305 2.75586,0.37305 a 0.50005,0.50005 0 0 0 0.12304,-0.0117 l 7.80274,-1.73437 10.13672,-2.20508 c 0.0259,-0.004 2.47063,-0.39096 5.16211,-0.875 1.35283,-0.2433 2.76187,-0.51046 3.94726,-0.76367 1.18539,-0.25322 2.11555,-0.47547 2.65039,-0.70117 0.95282,-0.40211 1.44977,-0.90524 1.67578,-1.36133 0.11301,-0.22805 0.15536,-0.43863 0.16602,-0.59766 0.0106,-0.15903 -0.0176,-0.30469 -0.0176,-0.30469 -0.005,-0.0325 -0.21176,-1.39379 -0.48828,-2.96679 -0.27979,-1.59165 -0.60247,-3.31846 -0.89453,-4.14258 -0.6275,-1.77057 -2.73633,-1.77734 -2.73633,-1.77735 a 0.50005,0.50005 0 0 0 -0.10352,0.01 c 0,0 -9.87782,1.95317 -17.8164,4.04492 -3.72789,0.98227 -6.58721,0.94396 -8.50586,0.66797 -1.88178,-0.27069 -2.76736,-0.73558 -2.80274,-0.75391 l -25.0957,-27.11718 a 0.50005,0.50005 0 0 0 -0.17773,-0.12305 c -0.68933,-0.28421 -1.29993,-0.43521 -1.91016,-0.46484 z m -0.0488,0.97656 c 0.4527,0.0219 0.92006,0.15965 1.4961,0.39062 l 25.08593,27.10547 a 0.50005,0.50005 0 0 0 0.13672,0.10547 c 0,0 1.1292,0.57698 3.17383,0.8711 2.04464,0.29411 5.04613,0.32467 8.90234,-0.69141 7.85801,-2.07052 17.60993,-4.00026 17.6875,-4.01563 0.0562,0.002 1.39569,0.0451 1.77149,1.10547 0.21353,0.60254 0.57402,2.40162 0.85156,3.98047 0.27755,1.57885 0.49219,2.98242 0.49219,2.98242 a 0.50005,0.50005 0 0 0 0.008,0.0352 c 0,0 -0.001,-0.0272 -0.004,0.0156 -0.003,0.0428 -0.0156,0.11812 -0.0664,0.22071 -0.10168,0.20518 -0.37097,0.54647 -1.16797,0.88281 -0.34006,0.14351 -1.30343,0.39519 -2.4707,0.64453 -1.16727,0.24935 -2.56942,0.51564 -3.91602,0.75781 -2.6932,0.48435 -5.16992,0.87696 -5.16992,0.87696 a 0.50005,0.50005 0 0 0 -0.0273,0.004 l -10.13672,2.20703 a 0.50005,0.50005 0 0 0 -0.004,0 l -7.72266,1.7168 c -0.0382,-0.001 -1.1481,-0.0345 -2.52148,-0.34375 -1.39678,-0.31453 -2.97979,-0.92856 -3.78906,-1.92773 a 0.50005,0.50005 0 0 0 -0.0195,-0.0234 L 116.5,184.42969 a 0.50005,0.50005 0 0 0 -0.11719,-0.0937 c 0,0 0.029,0.0264 -0.0156,-0.0273 -0.0446,-0.0537 -0.11861,-0.16189 -0.18555,-0.36718 -0.12877,-0.39492 -0.19215,-1.21807 0.0898,-2.5586 l 3.52149,-3.77539 c 0.55498,-0.15455 1.01586,-0.24797 1.45898,-0.22656 z"
           id="path1239" />
      </g>
    </clipPath>
    <clipPath
       clipPathUnits="userSpaceOnUse"
       id="clipPath16298">
      <g
         id="g16304">
        <path
           style="color:#000000;fill:#d08f2a;stroke-width:1px;stroke-linejoin:round;-inkscape-stroke:none"
           d="m 119.54063,177.14466 c 1.2986,-0.37881 2.16907,-0.35435 3.48057,0.18638 l 25.17957,27.20726 c 0,0 4.13453,2.13939 11.71864,0.14104 7.9139,-2.08525 17.78796,-4.03884 17.78796,-4.03884 0,0 1.76404,0.0172 2.26964,1.44382 0.50559,1.42666 1.36747,7.05434 1.36747,7.05434 0,0 0.21952,0.95332 -1.5303,1.69177 -1.74981,0.73844 -11.67265,2.31111 -11.67265,2.31111 l -10.13765,2.20662 -7.80332,1.73432 c 0,0 -4.8511,-0.14485 -6.72838,-2.46266 l -27.34062,-29.85216 c 0,0 -1.02145,-0.5937 -0.3449,-3.59654 z"
           id="path16300" />
        <path
           style="color:#000000;fill:#d08f2a;stroke-linejoin:round;-inkscape-stroke:none"
           d="m 121.30078,176.4043 c -0.61023,-0.0296 -1.21948,0.0611 -1.90039,0.25976 a 0.50005,0.50005 0 0 0 -0.22461,0.13867 l -3.7539,4.02735 a 0.50005,0.50005 0 0 0 -0.12305,0.23047 c -0.35169,1.56094 -0.27606,2.55248 -0.0684,3.18945 0.10385,0.31848 0.24142,0.54583 0.36719,0.69727 0.12576,0.15143 0.2832,0.25195 0.2832,0.25195 l -0.11719,-0.0937 27.33985,29.85156 -0.0195,-0.0234 c 1.06802,1.31864 2.84762,1.93805 4.34571,2.27539 1.49808,0.33735 2.75586,0.37305 2.75586,0.37305 a 0.50005,0.50005 0 0 0 0.12304,-0.0117 l 7.80274,-1.73437 10.13672,-2.20508 c 0.0259,-0.004 2.47063,-0.39096 5.16211,-0.875 1.35283,-0.2433 2.76187,-0.51046 3.94726,-0.76367 1.18539,-0.25322 2.11555,-0.47547 2.65039,-0.70117 0.95282,-0.40211 1.44977,-0.90524 1.67578,-1.36133 0.11301,-0.22805 0.15536,-0.43863 0.16602,-0.59766 0.0106,-0.15903 -0.0176,-0.30469 -0.0176,-0.30469 -0.005,-0.0325 -0.21176,-1.39379 -0.48828,-2.96679 -0.27979,-1.59165 -0.60247,-3.31846 -0.89453,-4.14258 -0.6275,-1.77057 -2.73633,-1.77734 -2.73633,-1.77735 a 0.50005,0.50005 0 0 0 -0.10352,0.01 c 0,0 -9.87782,1.95317 -17.8164,4.04492 -3.72789,0.98227 -6.58721,0.94396 -8.50586,0.66797 -1.88178,-0.27069 -2.76736,-0.73558 -2.80274,-0.75391 l -25.0957,-27.11718 a 0.50005,0.50005 0 0 0 -0.17773,-0.12305 c -0.68933,-0.28421 -1.29993,-0.43521 -1.91016,-0.46484 z m -0.0488,0.97656 c 0.4527,0.0219 0.92006,0.15965 1.4961,0.39062 l 25.08593,27.10547 a 0.50005,0.50005 0 0 0 0.13672,0.10547 c 0,0 1.1292,0.57698 3.17383,0.8711 2.04464,0.29411 5.04613,0.32467 8.90234,-0.69141 7.85801,-2.07052 17.60993,-4.00026 17.6875,-4.01563 0.0562,0.002 1.39569,0.0451 1.77149,1.10547 0.21353,0.60254 0.57402,2.40162 0.85156,3.98047 0.27755,1.57885 0.49219,2.98242 0.49219,2.98242 a 0.50005,0.50005 0 0 0 0.008,0.0352 c 0,0 -0.001,-0.0272 -0.004,0.0156 -0.003,0.0428 -0.0156,0.11812 -0.0664,0.22071 -0.10168,0.20518 -0.37097,0.54647 -1.16797,0.88281 -0.34006,0.14351 -1.30343,0.39519 -2.4707,0.64453 -1.16727,0.24935 -2.56942,0.51564 -3.91602,0.75781 -2.6932,0.48435 -5.16992,0.87696 -5.16992,0.87696 a 0.50005,0.50005 0 0 0 -0.0273,0.004 l -10.13672,2.20703 a 0.50005,0.50005 0 0 0 -0.004,0 l -7.72266,1.7168 c -0.0382,-0.001 -1.1481,-0.0345 -2.52148,-0.34375 -1.39678,-0.31453 -2.97979,-0.92856 -3.78906,-1.92773 a 0.50005,0.50005 0 0 0 -0.0195,-0.0234 L 116.5,184.42969 a 0.50005,0.50005 0 0 0 -0.11719,-0.0937 c 0,0 0.029,0.0264 -0.0156,-0.0273 -0.0446,-0.0537 -0.11861,-0.16189 -0.18555,-0.36718 -0.12877,-0.39492 -0.19215,-1.21807 0.0898,-2.5586 l 3.52149,-3.77539 c 0.55498,-0.15455 1.01586,-0.24797 1.45898,-0.22656 z"
           id="path16302" />
      </g>
    </clipPath>
    <clipPath
       clipPathUnits="userSpaceOnUse"
       id="clipPath65123">
      <g
         id="g65133">
        <g
           id="g65129">
          <path
             style="color:#000000;fill:#d08f2a;stroke-width:1px;stroke-linejoin:round;-inkscape-stroke:none"
             d="m 119.54063,177.14466 c 1.2986,-0.37881 2.16907,-0.35435 3.48057,0.18638 l 25.17957,27.20726 c 0,0 4.13453,2.13939 11.71864,0.14104 7.9139,-2.08525 17.78796,-4.03884 17.78796,-4.03884 0,0 1.76404,0.0172 2.26964,1.44382 0.50559,1.42666 1.36747,7.05434 1.36747,7.05434 0,0 0.21952,0.95332 -1.5303,1.69177 -1.74981,0.73844 -11.67265,2.31111 -11.67265,2.31111 l -10.13765,2.20662 -7.80332,1.73432 c 0,0 -4.8511,-0.14485 -6.72838,-2.46266 l -27.34062,-29.85216 c 0,0 -1.02145,-0.5937 -0.3449,-3.59654 z"
             id="path65125" />
          <path
             style="color:#000000;fill:#d08f2a;stroke-linejoin:round;-inkscape-stroke:none"
             d="m 121.30078,176.4043 c -0.61023,-0.0296 -1.21948,0.0611 -1.90039,0.25976 a 0.50005,0.50005 0 0 0 -0.22461,0.13867 l -3.7539,4.02735 a 0.50005,0.50005 0 0 0 -0.12305,0.23047 c -0.35169,1.56094 -0.27606,2.55248 -0.0684,3.18945 0.10385,0.31848 0.24142,0.54583 0.36719,0.69727 0.12576,0.15143 0.2832,0.25195 0.2832,0.25195 l -0.11719,-0.0937 27.33985,29.85156 -0.0195,-0.0234 c 1.06802,1.31864 2.84762,1.93805 4.34571,2.27539 1.49808,0.33735 2.75586,0.37305 2.75586,0.37305 a 0.50005,0.50005 0 0 0 0.12304,-0.0117 l 7.80274,-1.73437 10.13672,-2.20508 c 0.0259,-0.004 2.47063,-0.39096 5.16211,-0.875 1.35283,-0.2433 2.76187,-0.51046 3.94726,-0.76367 1.18539,-0.25322 2.11555,-0.47547 2.65039,-0.70117 0.95282,-0.40211 1.44977,-0.90524 1.67578,-1.36133 0.11301,-0.22805 0.15536,-0.43863 0.16602,-0.59766 0.0106,-0.15903 -0.0176,-0.30469 -0.0176,-0.30469 -0.005,-0.0325 -0.21176,-1.39379 -0.48828,-2.96679 -0.27979,-1.59165 -0.60247,-3.31846 -0.89453,-4.14258 -0.6275,-1.77057 -2.73633,-1.77734 -2.73633,-1.77735 a 0.50005,0.50005 0 0 0 -0.10352,0.01 c 0,0 -9.87782,1.95317 -17.8164,4.04492 -3.72789,0.98227 -6.58721,0.94396 -8.50586,0.66797 -1.88178,-0.27069 -2.76736,-0.73558 -2.80274,-0.75391 l -25.0957,-27.11718 a 0.50005,0.50005 0 0 0 -0.17773,-0.12305 c -0.68933,-0.28421 -1.29993,-0.43521 -1.91016,-0.46484 z m -0.0488,0.97656 c 0.4527,0.0219 0.92006,0.15965 1.4961,0.39062 l 25.08593,27.10547 a 0.50005,0.50005 0 0 0 0.13672,0.10547 c 0,0 1.1292,0.57698 3.17383,0.8711 2.04464,0.29411 5.04613,0.32467 8.90234,-0.69141 7.85801,-2.07052 17.60993,-4.00026 17.6875,-4.01563 0.0562,0.002 1.39569,0.0451 1.77149,1.10547 0.21353,0.60254 0.57402,2.40162 0.85156,3.98047 0.27755,1.57885 0.49219,2.98242 0.49219,2.98242 a 0.50005,0.50005 0 0 0 0.008,0.0352 c 0,0 -0.001,-0.0272 -0.004,0.0156 -0.003,0.0428 -0.0156,0.11812 -0.0664,0.22071 -0.10168,0.20518 -0.37097,0.54647 -1.16797,0.88281 -0.34006,0.14351 -1.30343,0.39519 -2.4707,0.64453 -1.16727,0.24935 -2.56942,0.51564 -3.91602,0.75781 -2.6932,0.48435 -5.16992,0.87696 -5.16992,0.87696 a 0.50005,0.50005 0 0 0 -0.0273,0.004 l -10.13672,2.20703 a 0.50005,0.50005 0 0 0 -0.004,0 l -7.72266,1.7168 c -0.0382,-0.001 -1.1481,-0.0345 -2.52148,-0.34375 -1.39678,-0.31453 -2.97979,-0.92856 -3.78906,-1.92773 a 0.50005,0.50005 0 0 0 -0.0195,-0.0234 L 116.5,184.42969 a 0.50005,0.50005 0 0 0 -0.11719,-0.0937 c 0,0 0.029,0.0264 -0.0156,-0.0273 -0.0446,-0.0537 -0.11861,-0.16189 -0.18555,-0.36718 -0.12877,-0.39492 -0.19215,-1.21807 0.0898,-2.5586 l 3.52149,-3.77539 c 0.55498,-0.15455 1.01586,-0.24797 1.45898,-0.22656 z"
             id="path65127" />
        </g>
        <path
           style="fill:#d08f2a;fill-opacity:1;stroke:#d08f2a;stroke-width:0.1;stroke-linecap:butt;stroke-linejoin:miter;stroke-miterlimit:4;stroke-dasharray:none;stroke-opacity:1"
           d="m 97.60244,154.12516 22.43949,24.06341 -3.08705,2.44063 -22.169869,-23.72567 z"
           id="path65131" />
      </g>
    </clipPath>
    <clipPath
       clipPathUnits="userSpaceOnUse"
       id="clipPath65145">
      <g
         id="g65155">
        <g
           id="g65151">
          <path
             style="color:#000000;fill:#d08f2a;stroke-width:1px;stroke-linejoin:round;-inkscape-stroke:none"
             d="m 119.54063,177.14466 c 1.2986,-0.37881 2.16907,-0.35435 3.48057,0.18638 l 25.17957,27.20726 c 0,0 4.13453,2.13939 11.71864,0.14104 7.9139,-2.08525 17.78796,-4.03884 17.78796,-4.03884 0,0 1.76404,0.0172 2.26964,1.44382 0.50559,1.42666 1.36747,7.05434 1.36747,7.05434 0,0 0.21952,0.95332 -1.5303,1.69177 -1.74981,0.73844 -11.67265,2.31111 -11.67265,2.31111 l -10.13765,2.20662 -7.80332,1.73432 c 0,0 -4.8511,-0.14485 -6.72838,-2.46266 l -27.34062,-29.85216 c 0,0 -1.02145,-0.5937 -0.3449,-3.59654 z"
             id="path65147" />
          <path
             style="color:#000000;fill:#d08f2a;stroke-linejoin:round;-inkscape-stroke:none"
             d="m 121.30078,176.4043 c -0.61023,-0.0296 -1.21948,0.0611 -1.90039,0.25976 a 0.50005,0.50005 0 0 0 -0.22461,0.13867 l -3.7539,4.02735 a 0.50005,0.50005 0 0 0 -0.12305,0.23047 c -0.35169,1.56094 -0.27606,2.55248 -0.0684,3.18945 0.10385,0.31848 0.24142,0.54583 0.36719,0.69727 0.12576,0.15143 0.2832,0.25195 0.2832,0.25195 l -0.11719,-0.0937 27.33985,29.85156 -0.0195,-0.0234 c 1.06802,1.31864 2.84762,1.93805 4.34571,2.27539 1.49808,0.33735 2.75586,0.37305 2.75586,0.37305 a 0.50005,0.50005 0 0 0 0.12304,-0.0117 l 7.80274,-1.73437 10.13672,-2.20508 c 0.0259,-0.004 2.47063,-0.39096 5.16211,-0.875 1.35283,-0.2433 2.76187,-0.51046 3.94726,-0.76367 1.18539,-0.25322 2.11555,-0.47547 2.65039,-0.70117 0.95282,-0.40211 1.44977,-0.90524 1.67578,-1.36133 0.11301,-0.22805 0.15536,-0.43863 0.16602,-0.59766 0.0106,-0.15903 -0.0176,-0.30469 -0.0176,-0.30469 -0.005,-0.0325 -0.21176,-1.39379 -0.48828,-2.96679 -0.27979,-1.59165 -0.60247,-3.31846 -0.89453,-4.14258 -0.6275,-1.77057 -2.73633,-1.77734 -2.73633,-1.77735 a 0.50005,0.50005 0 0 0 -0.10352,0.01 c 0,0 -9.87782,1.95317 -17.8164,4.04492 -3.72789,0.98227 -6.58721,0.94396 -8.50586,0.66797 -1.88178,-0.27069 -2.76736,-0.73558 -2.80274,-0.75391 l -25.0957,-27.11718 a 0.50005,0.50005 0 0 0 -0.17773,-0.12305 c -0.68933,-0.28421 -1.29993,-0.43521 -1.91016,-0.46484 z m -0.0488,0.97656 c 0.4527,0.0219 0.92006,0.15965 1.4961,0.39062 l 25.08593,27.10547 a 0.50005,0.50005 0 0 0 0.13672,0.10547 c 0,0 1.1292,0.57698 3.17383,0.8711 2.04464,0.29411 5.04613,0.32467 8.90234,-0.69141 7.85801,-2.07052 17.60993,-4.00026 17.6875,-4.01563 0.0562,0.002 1.39569,0.0451 1.77149,1.10547 0.21353,0.60254 0.57402,2.40162 0.85156,3.98047 0.27755,1.57885 0.49219,2.98242 0.49219,2.98242 a 0.50005,0.50005 0 0 0 0.008,0.0352 c 0,0 -0.001,-0.0272 -0.004,0.0156 -0.003,0.0428 -0.0156,0.11812 -0.0664,0.22071 -0.10168,0.20518 -0.37097,0.54647 -1.16797,0.88281 -0.34006,0.14351 -1.30343,0.39519 -2.4707,0.64453 -1.16727,0.24935 -2.56942,0.51564 -3.91602,0.75781 -2.6932,0.48435 -5.16992,0.87696 -5.16992,0.87696 a 0.50005,0.50005 0 0 0 -0.0273,0.004 l -10.13672,2.20703 a 0.50005,0.50005 0 0 0 -0.004,0 l -7.72266,1.7168 c -0.0382,-0.001 -1.1481,-0.0345 -2.52148,-0.34375 -1.39678,-0.31453 -2.97979,-0.92856 -3.78906,-1.92773 a 0.50005,0.50005 0 0 0 -0.0195,-0.0234 L 116.5,184.42969 a 0.50005,0.50005 0 0 0 -0.11719,-0.0937 c 0,0 0.029,0.0264 -0.0156,-0.0273 -0.0446,-0.0537 -0.11861,-0.16189 -0.18555,-0.36718 -0.12877,-0.39492 -0.19215,-1.21807 0.0898,-2.5586 l 3.52149,-3.77539 c 0.55498,-0.15455 1.01586,-0.24797 1.45898,-0.22656 z"
             id="path65149" />
        </g>
        <path
           style="fill:#d08f2a;fill-opacity:1;stroke:#d08f2a;stroke-width:0.1;stroke-linecap:butt;stroke-linejoin:miter;stroke-miterlimit:4;stroke-dasharray:none;stroke-opacity:1"
           d="m 97.60244,154.12516 22.43949,24.06341 -3.08705,2.44063 -22.169869,-23.72567 z"
           id="path65153" />
      </g>
    </clipPath>
    <clipPath
       clipPathUnits="userSpaceOnUse"
       id="clipPath91840">
      <g
         id="g91846"
         style="display:inline;stroke:none;stroke-opacity:1"
         transform="translate(-0.35082,-0.56541)">
        <path
           style="color:#000000;fill:#d08f2a;stroke:none;stroke-width:1px;stroke-linejoin:round;stroke-opacity:1;-inkscape-stroke:none"
           d="m 119.54063,177.14466 c 1.2986,-0.37881 2.16907,-0.35435 3.48057,0.18638 l 25.17957,27.20726 c 0,0 4.13453,2.13939 11.71864,0.14104 7.9139,-2.08525 17.78796,-4.03884 17.78796,-4.03884 0,0 1.76404,0.0172 2.26964,1.44382 0.50559,1.42666 1.36747,7.05434 1.36747,7.05434 0,0 0.21952,0.95332 -1.5303,1.69177 -1.74981,0.73844 -11.67265,2.31111 -11.67265,2.31111 l -10.13765,2.20662 -7.80332,1.73432 c 0,0 -4.8511,-0.14485 -6.72838,-2.46266 l -27.34062,-29.85216 c 0,0 -1.02145,-0.5937 -0.3449,-3.59654 z"
           id="path91842" />
        <path
           style="color:#000000;fill:#d08f2a;stroke:none;stroke-linejoin:round;stroke-opacity:1;-inkscape-stroke:none"
           d="m 121.30078,176.4043 c -0.61023,-0.0296 -1.21948,0.0611 -1.90039,0.25976 a 0.50005,0.50005 0 0 0 -0.22461,0.13867 l -3.7539,4.02735 a 0.50005,0.50005 0 0 0 -0.12305,0.23047 c -0.35169,1.56094 -0.27606,2.55248 -0.0684,3.18945 0.10385,0.31848 0.24142,0.54583 0.36719,0.69727 0.12576,0.15143 0.2832,0.25195 0.2832,0.25195 l -0.11719,-0.0937 27.33985,29.85156 -0.0195,-0.0234 c 1.06802,1.31864 2.84762,1.93805 4.34571,2.27539 1.49808,0.33735 2.75586,0.37305 2.75586,0.37305 a 0.50005,0.50005 0 0 0 0.12304,-0.0117 l 7.80274,-1.73437 10.13672,-2.20508 c 0.0259,-0.004 2.47063,-0.39096 5.16211,-0.875 1.35283,-0.2433 2.76187,-0.51046 3.94726,-0.76367 1.18539,-0.25322 2.11555,-0.47547 2.65039,-0.70117 0.95282,-0.40211 1.44977,-0.90524 1.67578,-1.36133 0.11301,-0.22805 0.15536,-0.43863 0.16602,-0.59766 0.0106,-0.15903 -0.0176,-0.30469 -0.0176,-0.30469 -0.005,-0.0325 -0.21176,-1.39379 -0.48828,-2.96679 -0.27979,-1.59165 -0.60247,-3.31846 -0.89453,-4.14258 -0.6275,-1.77057 -2.73633,-1.77734 -2.73633,-1.77735 a 0.50005,0.50005 0 0 0 -0.10352,0.01 c 0,0 -9.87782,1.95317 -17.8164,4.04492 -3.72789,0.98227 -6.58721,0.94396 -8.50586,0.66797 -1.88178,-0.27069 -2.76736,-0.73558 -2.80274,-0.75391 l -25.0957,-27.11718 a 0.50005,0.50005 0 0 0 -0.17773,-0.12305 c -0.68933,-0.28421 -1.29993,-0.43521 -1.91016,-0.46484 z m -0.0488,0.97656 c 0.4527,0.0219 0.92006,0.15965 1.4961,0.39062 l 25.08593,27.10547 a 0.50005,0.50005 0 0 0 0.13672,0.10547 c 0,0 1.1292,0.57698 3.17383,0.8711 2.04464,0.29411 5.04613,0.32467 8.90234,-0.69141 7.85801,-2.07052 17.60993,-4.00026 17.6875,-4.01563 0.0562,0.002 1.39569,0.0451 1.77149,1.10547 0.21353,0.60254 0.57402,2.40162 0.85156,3.98047 0.27755,1.57885 0.49219,2.98242 0.49219,2.98242 a 0.50005,0.50005 0 0 0 0.008,0.0352 c 0,0 -0.001,-0.0272 -0.004,0.0156 -0.003,0.0428 -0.0156,0.11812 -0.0664,0.22071 -0.10168,0.20518 -0.37097,0.54647 -1.16797,0.88281 -0.34006,0.14351 -1.30343,0.39519 -2.4707,0.64453 -1.16727,0.24935 -2.56942,0.51564 -3.91602,0.75781 -2.6932,0.48435 -5.16992,0.87696 -5.16992,0.87696 a 0.50005,0.50005 0 0 0 -0.0273,0.004 l -10.13672,2.20703 a 0.50005,0.50005 0 0 0 -0.004,0 l -7.72266,1.7168 c -0.0382,-0.001 -1.1481,-0.0345 -2.52148,-0.34375 -1.39678,-0.31453 -2.97979,-0.92856 -3.78906,-1.92773 a 0.50005,0.50005 0 0 0 -0.0195,-0.0234 L 116.5,184.42969 a 0.50005,0.50005 0 0 0 -0.11719,-0.0937 c 0,0 0.029,0.0264 -0.0156,-0.0273 -0.0446,-0.0537 -0.11861,-0.16189 -0.18555,-0.36718 -0.12877,-0.39492 -0.19215,-1.21807 0.0898,-2.5586 l 3.52149,-3.77539 c 0.55498,-0.15455 1.01586,-0.24797 1.45898,-0.22656 z"
           id="path91844" />
      </g>
    </clipPath>
    <clipPath
       clipPathUnits="userSpaceOnUse"
       id="clipPath91848">
      <g
         id="g91854"
         style="display:inline;stroke:none;stroke-opacity:1"
         transform="translate(-0.35082,-0.56541)">
        <path
           style="color:#000000;fill:#d08f2a;stroke:none;stroke-width:1px;stroke-linejoin:round;stroke-opacity:1;-inkscape-stroke:none"
           d="m 119.54063,177.14466 c 1.2986,-0.37881 2.16907,-0.35435 3.48057,0.18638 l 25.17957,27.20726 c 0,0 4.13453,2.13939 11.71864,0.14104 7.9139,-2.08525 17.78796,-4.03884 17.78796,-4.03884 0,0 1.76404,0.0172 2.26964,1.44382 0.50559,1.42666 1.36747,7.05434 1.36747,7.05434 0,0 0.21952,0.95332 -1.5303,1.69177 -1.74981,0.73844 -11.67265,2.31111 -11.67265,2.31111 l -10.13765,2.20662 -7.80332,1.73432 c 0,0 -4.8511,-0.14485 -6.72838,-2.46266 l -27.34062,-29.85216 c 0,0 -1.02145,-0.5937 -0.3449,-3.59654 z"
           id="path91850" />
        <path
           style="color:#000000;fill:#d08f2a;stroke:none;stroke-linejoin:round;stroke-opacity:1;-inkscape-stroke:none"
           d="m 121.30078,176.4043 c -0.61023,-0.0296 -1.21948,0.0611 -1.90039,0.25976 a 0.50005,0.50005 0 0 0 -0.22461,0.13867 l -3.7539,4.02735 a 0.50005,0.50005 0 0 0 -0.12305,0.23047 c -0.35169,1.56094 -0.27606,2.55248 -0.0684,3.18945 0.10385,0.31848 0.24142,0.54583 0.36719,0.69727 0.12576,0.15143 0.2832,0.25195 0.2832,0.25195 l -0.11719,-0.0937 27.33985,29.85156 -0.0195,-0.0234 c 1.06802,1.31864 2.84762,1.93805 4.34571,2.27539 1.49808,0.33735 2.75586,0.37305 2.75586,0.37305 a 0.50005,0.50005 0 0 0 0.12304,-0.0117 l 7.80274,-1.73437 10.13672,-2.20508 c 0.0259,-0.004 2.47063,-0.39096 5.16211,-0.875 1.35283,-0.2433 2.76187,-0.51046 3.94726,-0.76367 1.18539,-0.25322 2.11555,-0.47547 2.65039,-0.70117 0.95282,-0.40211 1.44977,-0.90524 1.67578,-1.36133 0.11301,-0.22805 0.15536,-0.43863 0.16602,-0.59766 0.0106,-0.15903 -0.0176,-0.30469 -0.0176,-0.30469 -0.005,-0.0325 -0.21176,-1.39379 -0.48828,-2.96679 -0.27979,-1.59165 -0.60247,-3.31846 -0.89453,-4.14258 -0.6275,-1.77057 -2.73633,-1.77734 -2.73633,-1.77735 a 0.50005,0.50005 0 0 0 -0.10352,0.01 c 0,0 -9.87782,1.95317 -17.8164,4.04492 -3.72789,0.98227 -6.58721,0.94396 -8.50586,0.66797 -1.88178,-0.27069 -2.76736,-0.73558 -2.80274,-0.75391 l -25.0957,-27.11718 a 0.50005,0.50005 0 0 0 -0.17773,-0.12305 c -0.68933,-0.28421 -1.29993,-0.43521 -1.91016,-0.46484 z m -0.0488,0.97656 c 0.4527,0.0219 0.92006,0.15965 1.4961,0.39062 l 25.08593,27.10547 a 0.50005,0.50005 0 0 0 0.13672,0.10547 c 0,0 1.1292,0.57698 3.17383,0.8711 2.04464,0.29411 5.04613,0.32467 8.90234,-0.69141 7.85801,-2.07052 17.60993,-4.00026 17.6875,-4.01563 0.0562,0.002 1.39569,0.0451 1.77149,1.10547 0.21353,0.60254 0.57402,2.40162 0.85156,3.98047 0.27755,1.57885 0.49219,2.98242 0.49219,2.98242 a 0.50005,0.50005 0 0 0 0.008,0.0352 c 0,0 -0.001,-0.0272 -0.004,0.0156 -0.003,0.0428 -0.0156,0.11812 -0.0664,0.22071 -0.10168,0.20518 -0.37097,0.54647 -1.16797,0.88281 -0.34006,0.14351 -1.30343,0.39519 -2.4707,0.64453 -1.16727,0.24935 -2.56942,0.51564 -3.91602,0.75781 -2.6932,0.48435 -5.16992,0.87696 -5.16992,0.87696 a 0.50005,0.50005 0 0 0 -0.0273,0.004 l -10.13672,2.20703 a 0.50005,0.50005 0 0 0 -0.004,0 l -7.72266,1.7168 c -0.0382,-0.001 -1.1481,-0.0345 -2.52148,-0.34375 -1.39678,-0.31453 -2.97979,-0.92856 -3.78906,-1.92773 a 0.50005,0.50005 0 0 0 -0.0195,-0.0234 L 116.5,184.42969 a 0.50005,0.50005 0 0 0 -0.11719,-0.0937 c 0,0 0.029,0.0264 -0.0156,-0.0273 -0.0446,-0.0537 -0.11861,-0.16189 -0.18555,-0.36718 -0.12877,-0.39492 -0.19215,-1.21807 0.0898,-2.5586 l 3.52149,-3.77539 c 0.55498,-0.15455 1.01586,-0.24797 1.45898,-0.22656 z"
           id="path91852" />
      </g>
    </clipPath>
  </defs>
  <g
     id="SlHar6"
     transform="translate(-104.42 -286.276)">
    <path
       class="cls-1"
       d="M150.51 369.93a31.64 31.64 0 0 1-3.84-2.66c-1.6-1.15-1.59-1.18-3.19 0-1.29.91-2.57 1.85-3.89 2.81-.17-.33 0-.57.08-.8.53-1.65 1.06-3.3 1.63-4.94a.88.88 0 0 0-.37-1.17c-1.48-1-2.92-2.13-4.38-3.2-.13-.1-.25-.22-.53-.47h2.33c1.32 0 2.65 0 4-.07a.7.7 0 0 0 .75-.59c.61-2 1.26-3.89 2-6 .55 1.66 1.07 3.13 1.52 4.62.61 2 .59 2.05 2.75 2.05h4.84l-2.44 1.79c-.89.66-1.76 1.33-2.66 2a.72.72 0 0 0-.3 1c.57 1.67 1.1 3.34 1.63 5 .07.23.11.47.16.71z"
       id="path6"
       style="fill:#f15d24" />
    <path
       class="cls-1"
       d="m150.53 369.91.06.08-.08-.06z"
       id="path8"
       style="fill:#f15d24" />
  </g>
  <circle
     class="cls-4"
     cx="-117.008"
     cy="177.274"
     r="142.45"
     transform="rotate(-76.72)"
     id="circle179"
     style="fill:#231f20" />
  <path
     class="cls-6"
     d="M145.66 300.284C65.34 300.284 0 234.944 0 154.624S65.34 8.964 145.66 8.964s145.66 65.34 145.66 145.66-65.35 145.66-145.66 145.66zm0-284.91c-76.79 0-139.25 62.47-139.25 139.25s62.46 139.25 139.25 139.25c76.79 0 139.25-62.47 139.25-139.25s-62.47-139.25-139.25-139.25z"
     id="path181"
     style="fill:#f6dd93" />
  <path
     class="cls-2"
     d="M145.66 241.494a86.87 86.87 0 1 1 86.92-86.87 87 87 0 0 1-86.92 86.87z"
     id="path183"
     style="fill:#5e4c9b" />
  <path
     class="cls-2"
     d="M145.66 244.584a90 90 0 1 1 90-90 90.05 90.05 0 0 1-90 90zm0-173.74a83.79 83.79 0 1 0 83.78 83.78 83.88 83.88 0 0 0-83.78-83.78z"
     id="path185"
     style="fill:#5e4c9b" />
  <path
     class="cls-6"
     d="m102.42 105.644-13.17.82s-7 1.65-7 10.3v12.76"
     id="path187"
     style="fill:#f6dd93" />
  <path
     class="cls-6"
     d="M82.25 132.724a3.2 3.2 0 0 1-3.2-3.2v-12.8c0-8.85 6.19-12.65 9.47-13.42a3.07 3.07 0 0 1 .53-.07l13.17-.83a3.21 3.21 0 1 1 .4 6.4l-12.82.8c-.92.31-4.35 1.82-4.35 7.12v12.8a3.2 3.2 0 0 1-3.2 3.2z"
     id="path189"
     style="fill:#f6dd93" />
  <path
     class="cls-6"
     d="m83.15 132.974-10.57 7.88s-5 5.2-.25 12.45l7 10.69"
     id="path191"
     style="fill:#f6dd93" />
  <path
     class="cls-6"
     d="M79.28 167.204a3.21 3.21 0 0 1-2.7-1.48l-7-10.7c-4.82-7.41-1.7-14 .62-16.4a3.52 3.52 0 0 1 .41-.36l10.59-7.88a3.202 3.202 0 0 1 3.82 5.14l-10.31 7.67c-.6.76-2.65 3.9.24 8.34l7 10.69a3.22 3.22 0 0 1-.94 4.44 3.18 3.18 0 0 1-1.73.54z"
     id="path193"
     style="fill:#f6dd93" />
  <path
     class="cls-6"
     d="m80.99 164.264-6.93 11.23s-2.69 6.67 4.37 11.66l10.42 7.36"
     id="path195"
     style="fill:#f6dd93" />
  <path
     class="cls-6"
     d="M88.85 197.724a3.18 3.18 0 0 1-1.85-.59l-10.42-7.36c-7.23-5.11-6.75-12.36-5.49-15.48a4.3 4.3 0 0 1 .24-.48l6.93-11.23a3.21 3.21 0 1 1 5.46 3.36l-6.75 10.94c-.28.92-1 4.6 3.3 7.65l10.43 7.37a3.2 3.2 0 0 1-1.85 5.82z"
     id="path197"
     style="fill:#f6dd93" />
  <path
     class="cls-6"
     d="m89.39 195.194 2.06 13s2.3 6.81 10.91 6l12.7-1.2"
     id="path199"
     style="fill:#f6dd93" />
  <path
     class="cls-6"
     d="M100.98 217.504a13 13 0 0 1-12.57-8.25 3 3 0 0 1-.12-.52l-2.07-13a3.204 3.204 0 0 1 6.33-1l2 12.7c.39.88 2.21 4.15 7.49 3.65l12.71-1.2a3.204 3.204 0 1 1 .6 6.38l-12.7 1.2c-.57.01-1.13.04-1.67.04z"
     id="path201"
     style="fill:#f6dd93" />
  <path
     class="cls-6"
     d="m116.75 215.084 6.49 11.5s4.54 5.57 12.32 1.8l11.48-5.58"
     id="path203"
     style="fill:#f6dd93" />
  <path
     class="cls-6"
     d="M130.32 232.884a12.66 12.66 0 0 1-9.56-4.28 2.77 2.77 0 0 1-.31-.45l-6.49-11.49a3.204 3.204 0 0 1 5.58-3.15l6.32 11.21c.68.68 3.53 3.11 8.3.79l11.48-5.57a3.202 3.202 0 0 1 2.8 5.76l-11.48 5.58a15.17 15.17 0 0 1-6.64 1.6z"
     id="path205"
     style="fill:#f6dd93" />
  <path
     class="cls-6"
     d="m152.93 221.464 11.7 6.12s6.84 2.21 11.31-5.18l6.64-10.92"
     id="path207"
     style="fill:#f6dd93" />
  <path
     class="cls-6"
     d="M166.95 231.104a11.24 11.24 0 0 1-3.31-.47 4.4 4.4 0 0 1-.5-.21l-11.7-6.12a3.212 3.212 0 0 1 3-5.68l11.39 6c.94.21 4.66.69 7.4-3.84l6.61-10.92a3.204 3.204 0 1 1 5.48 3.32l-6.61 10.92c-3.38 5.5-8.13 7-11.76 7z"
     id="path209"
     style="fill:#f6dd93" />
  <path
     class="cls-6"
     d="m185.74 209.564 13.19-.43s7-1.44 7.3-10.08l.38-12.76"
     id="path211"
     style="fill:#f6dd93" />
  <path
     class="cls-6"
     d="M185.73 212.774a3.21 3.21 0 0 1-.1-6.41l12.85-.42c.92-.28 4.39-1.69 4.55-7l.38-12.76a3.201 3.201 0 1 1 6.4.19l-.38 12.75c-.26 8.85-6.56 12.46-9.86 13.13a2.39 2.39 0 0 1-.53.06l-13.2.44z"
     id="path213"
     style="fill:#f6dd93" />
  <circle
     class="cls-6"
     cx="145.66"
     cy="154.624"
     id="circle215"
     style="fill:#f6dd93"
     r="68.35" />
  <path
     class="cls-6"
     d="M145.66 226.174a71.55 71.55 0 1 1 71.55-71.55 71.63 71.63 0 0 1-71.55 71.55zm0-136.69a65.14 65.14 0 1 0 65.14 65.14 65.21 65.21 0 0 0-65.14-65.14z"
     id="path217"
     style="fill:#f6dd93" />
  <path
     class="cls-6"
     d="M145.66 226.174a71.55 71.55 0 1 1 71.55-71.55 71.63 71.63 0 0 1-71.55 71.55zm0-136.69a65.14 65.14 0 1 0 65.14 65.14 65.21 65.21 0 0 0-65.14-65.14z"
     id="path227"
     style="fill:#f6dd93" />
  <path
     class="cls-5"
     d="M130.29 236.304c-5.45 0-10.44-2.41-13.08-6.44a23.09 23.09 0 0 1-2.15-4.56c-.67-1.78-1.25-3.32-2.28-4.22-1.63-1.42-4.11-1.22-8-.72-3.28.41-7 .89-10.48-.45-4.56-1.76-7.79-6.21-9.62-13.24l-.54-2.18c-.88-3.67-1.72-7.13-3.86-9.49a22.74 22.74 0 0 0-4.3-3.35c-3-2-6.32-4.21-7.71-8.22-1.51-4.38.11-8.5 1.54-12.13 1-2.63 2-5.11 1.71-7.31-.29-2.2-1.77-4.21-3.35-6.42-2.17-3-4.63-6.47-4.42-10.88.25-5.27 4.2-9 7.37-12l.34-.31c3.63-3.41 4.34-6.38 4.49-11.36v-3.09c-.07-4.49-.14-9.58 3.13-13.92 4.69-6.24 13.2-6.81 20-7.27 1.5-.1 2.91-.19 4.19-.34l.7 6.14c-1.42.16-2.91.26-4.48.36-5.87.4-12.53.84-15.52 4.82-2 2.65-1.94 6.28-1.89 10.12v3.36c-.18 6.12-1.32 10.88-6.43 15.68l-.34.32c-2.61 2.44-5.3 5-5.43 7.73-.11 2.27 1.46 4.46 3.27 7s4 5.56 4.46 9.22c.46 3.66-.88 7.27-2.1 10.36-1.22 3.09-2.21 5.64-1.44 7.86.71 2 2.83 3.46 5.29 5.1a27.54 27.54 0 0 1 5.46 4.35c3.19 3.52 4.3 8.12 5.29 12.17.17.7.33 1.4.51 2.09 1.3 5 3.27 8 5.86 9 2 .79 4.67.45 7.47.09 4.23-.54 9-1.15 12.86 2.21 2.18 1.91 3.14 4.44 4 6.67a18.9 18.9 0 0 0 1.53 3.37c1.94 2.94 6 3.91 9.25 3.57 4.05-.44 7.87-2.52 11.38-4.7l.28-.17a17.86 17.86 0 0 1 6.14-2.78c4.57-.86 8.54 1.32 12 3.24 2.85 1.57 5.55 3.05 7.94 2.58 2.58-.51 4.36-3.08 6.42-6.06a28.28 28.28 0 0 1 5.75-6.69c3.63-2.8 8.11-3.6 12-4.13l1-.13c3.26-.43 6.33-.84 8.85-2.19 2.52-1.35 2.95-2.81 3.9-6.31.14-.52.28-1 .44-1.59l5.93 1.71c-.15.51-.28 1-.41 1.49-1 3.68-2 7.49-6.93 10.13-3.52 1.9-7.31 2.4-11 2.88l-.94.13c-3.11.42-6.64 1-9.07 2.9a23.27 23.27 0 0 0-4.44 5.31c-2.47 3.57-5.27 7.61-10.31 8.61-4.59.9-8.58-1.29-12.11-3.22-2.84-1.56-5.53-3-7.92-2.59a13.36 13.36 0 0 0-4 2l-.28.18c-3.94 2.44-8.68 5-14 5.59a19.11 19.11 0 0 1-1.92.12z"
     id="path229"
     style="fill:#d08f2a" />
  <path
     class="cls-7"
     d="M91.24 244.724c.09-.23.23-.28.45-.16l2 1.17a.35.35 0 0 1 .16.5l-1.2 2.55 1.4.79 1.57-2.34a.37.37 0 0 1 .52-.12l2.06 1.17c.21.12.24.27.09.47l-10.31 14.23a.39.39 0 0 1-.55.12l-3-1.7a.38.38 0 0 1-.18-.52zm.21 6.7-3.05 6.37.18.1 3.91-5.88z"
     id="path231"
     style="fill:#fff" />
  <path
     class="cls-7"
     d="m53.88 235.724 1.7-1.58a.32.32 0 0 1 .51 0l1.26 1.35 10.84-10.06a.31.31 0 0 1 .51 0l1.58 1.69a.37.37 0 0 1 .09.25.33.33 0 0 1-.11.27l-10.84 10.08 1.24 1.34a.32.32 0 0 1 0 .51l-1.7 1.57a.32.32 0 0 1-.51 0l-4.57-4.92a.32.32 0 0 1 0-.5z"
     id="path233"
     style="fill:#fff" />
  <path
     class="cls-7"
     d="m47.19 196.834 2.1-1a.31.31 0 0 1 .48.17l1.48 3.19 1 2.1a.32.32 0 0 1-.18.48l-15.85 7.36a.32.32 0 0 1-.48-.18l-1-2.1a.31.31 0 0 1 .17-.48l13.42-6.23-1.36-2.93a.32.32 0 0 1 .22-.38z"
     id="path235"
     style="fill:#fff" />
  <path
     class="cls-7"
     d="M41.17 163.124a.27.27 0 0 1 .4.26l.29 2.35a.37.37 0 0 1-.32.43l-2.76.55.2 1.6 2.81-.14a.37.37 0 0 1 .41.35l.29 2.34c0 .24-.08.36-.32.36l-17.58.21a.38.38 0 0 1-.41-.37l-.42-3.41a.37.37 0 0 1 .31-.45zm-5.25 4.16-6.94 1.35v.21l7-.38z"
     id="path237"
     style="fill:#fff" />
  <path
     class="cls-7"
     d="m26.74 125.374 17.12 3.51a.32.32 0 0 1 .28.43l-.33 1.63a.5.5 0 0 1-.16.27.61.61 0 0 1-.27.15l-9 1 8.41 1.72a.32.32 0 0 1 .28.43l-.49 2.21a.32.32 0 0 1-.43.28l-17.12-3.51a.32.32 0 0 1-.28-.43l.34-1.68a.54.54 0 0 1 .16-.27.61.61 0 0 1 .27-.15l8.72-1-8.15-1.67a.32.32 0 0 1-.28-.43l.46-2.27a.33.33 0 0 1 .47-.22z"
     id="path239"
     style="fill:#fff" />
  <path
     class="cls-7"
     d="m41.81 89.234 2 1.16a.32.32 0 0 1 .14.49l-.92 1.6 12.81 7.39a.33.33 0 0 1 .14.5l-1.16 2a.32.32 0 0 1-.21.16.33.33 0 0 1-.29 0l-12.81-7.39-.93 1.58a.32.32 0 0 1-.5.13l-2-1.16a.31.31 0 0 1-.14-.49l3.35-5.81a.32.32 0 0 1 .52-.16z"
     id="path241"
     style="fill:#fff" />
  <path
     class="cls-7"
     d="M78.5 72.994a.28.28 0 0 1 0 .48l-1.74 1.6a.36.36 0 0 1-.53 0l-2-1.93-1.19 1.09 1.74 2.21a.37.37 0 0 1 0 .53l-1.75 1.6a.27.27 0 0 1-.47-.06l-10.36-14.2a.38.38 0 0 1 .06-.55l2.53-2.32a.39.39 0 0 1 .56 0zm-6.43-1.87-5.12-4.86-.16.14 4.4 5.53z"
     id="path243"
     style="fill:#fff" />
  <path
     class="cls-7"
     d="M145.25 271.984a118.63 118.63 0 0 1-13.08-.73l.68-6.13a113.8 113.8 0 0 0 12.4.68 110.54 110.54 0 0 0 102.88-69.32l5.72 2.32a116.7 116.7 0 0 1-108.6 73.18z"
     id="path245"
     style="fill:#fff" />
  <path
     class="cls-5"
     d="M288.87 152.804v45.28h-68.58c-34.95-2.64-40.88-33-40.88-33-78.47 0-77.81-58-77.81-58v-39.59c3.3-54.07 39.56-56 39.56-56h27.67s46.84-5.28 50.79 35.61h20.45c45.5-.66 48.8 34.28 48.8 34.28v71.47z"
     id="path247"
     style="fill:#d08f2a" />
  <path
     class="cls-5"
     d="m 291.78,200.054 h -72.12 c -30.74,-2.32 -40.63,-25.12 -43.14,-33 -26.95,-0.43 -47.6,-7.71 -61.4,-21.67 a 59.81,59.81 0 0 1 -17.2,-39.68 v -39.73 c 1,-16.11 5.65,-38 22.3,-50.72 10.17,-7.78 20,-8.4 20.37,-8.42 h 27.67 c 2.49,-0.25 24.68,-2.07 40.11,10.44 7.54,6.13 12.17,14.55 13.83,25.13 h 17.54 c 47.91,-0.7 52,36.89 52.08,37.27 v 120.38 z m -71.74,-6.59 H 285.2 V 80.194 c -0.29,-2.5 -4.56,-31.18 -44.24,-31.18 h -24.7 l -0.29,-3 c -1,-10.17 -4.92,-18.12 -11.71,-23.64 -13.84,-11.24 -35.22,-9 -35.44,-9 h -27.93 c -2.13,0.16 -33.31,3.36 -36.37,52.86 v 39.49 a 54,54 0 0 0 15.37,35.09 c 12.94,13 32.84,19.64 59.14,19.64 h 2.71 l 0.52,2.66 c 0.23,1.17 5.94,27.88 37.78,30.35 z"
     id="path249"
     style="fill:#d08f2a" />
  <path
     class="cls-4"
     d="M288.87 144.884v45.28h-68.58c-34.95-2.64-40.88-33-40.88-33-78.47 0-77.81-58-77.81-58v-39.59c3.3-54.07 39.56-56.05 39.56-56.05h27.67s46.84-5.28 50.79 35.61h20.45c45.5-.66 48.8 34.28 48.8 34.28z"
     id="path251"
     style="fill:#231f20" />
  <path
     class="cls-6"
     d="M292.16 193.464h-72.12c-30.74-2.32-40.63-25.13-43.14-33-26.95-.43-47.6-7.71-61.4-21.67a59.81 59.81 0 0 1-17.2-39.68v-39.74c1-16.11 5.65-38 22.3-50.72 10.17-7.78 20-8.4 20.37-8.42h27.67c2.49-.25 24.68-2.07 40.11 10.44 7.53 6.11 12.16 14.56 13.77 25.17h17.54c47.91-.7 52 36.9 52.08 37.27v120.35zm-71.74-6.6h65.16V73.594c-.29-2.5-4.56-31.18-44.24-31.18h-24.7l-.29-3c-1-10.17-4.92-18.12-11.71-23.64-13.84-11.24-35.22-9-35.44-9h-27.93c-2.13.15-33.31 3.35-36.37 52.85v39.49a54 54 0 0 0 15.37 35.09c12.94 13 32.84 19.64 59.14 19.64h2.71l.52 2.67c.23 1.21 5.94 27.88 37.78 30.35z"
     id="path253"
     style="fill:#f6dd93" />
  <path
     class="cls-3"
     d="M170.85 87.254c-17.36-1.44-28-12.55-27.87-29 .08-8.89 2.47-17 6.71-22.91 5-6.94 12.39-10.65 21.35-10.74l.05 5.28c-10.91.1-22.63 7.62-22.84 28.42-.13 13.61 8.48 22.46 23 23.68z"
     id="path255"
     style="fill:#f2ea1e" />
  <path
     class="cls-3"
     d="M179.3 87.264h-21.65c-17.35-1.44-28-12.55-27.87-29 .09-8.89 2.47-17 6.72-22.91 4.89-6.78 12.05-10.48 20.73-10.73h23.07c4.32 0 7.64 1.29 9.86 3.82a12.18 12.18 0 0 1 2.67 8.86v11.06h-17.81v-11.87a4.53 4.53 0 0 0-1.83-3.64c-2.57-2.17-6.79-2.84-7.57-2.95h-7.75c-10.88.1-22.61 7.62-22.82 28.42-.13 13.58 8.44 22.42 22.93 23.67h16v-12.2h5.28zm1-44.18h7.28v-6.28a7 7 0 0 0-1.4-4.91c-1.18-1.32-3.15-2-5.87-2h-2.58a9.61 9.61 0 0 1 2.58 6.59z"
     id="path257"
     style="fill:#f2ea1e" />
  <path
     class="cls-3"
     d="M243.44 122.894c-17.35-1.45-28-12.55-27.87-29 .2-20.41 8.75-30.84 25.42-31v5.27c-13.61.13-20 8.32-20.2 25.78-.13 13.62 8.48 22.47 23 23.68z"
     id="path259"
     style="fill:#f2ea1e" />
  <path
     class="cls-3"
     d="M250.58 122.904h-20.34c-17.35-1.45-28-12.55-27.87-29 .19-19 10.43-30.56 27.45-31h20.43c4.32 0 7.64 1.28 9.86 3.82a12.06 12.06 0 0 1 2.67 8.85v11.06h-17.81v-11.86a4.55 4.55 0 0 0-1.82-3.65 15.24 15.24 0 0 0-5.12-2.95h-7.57c-20.36.2-22.74 18.1-22.82 25.78-.13 13.58 8.44 22.43 22.93 23.67h14.73v-9.58h17.76v13.85h-5.28v-8.57h-7.2zm-.32-41.54h7.25v-6.28a7.09 7.09 0 0 0-1.41-4.92c-1.18-1.32-3.15-2-5.87-2h-2.58a9.64 9.64 0 0 1 2.58 6.6z"
     id="path261"
     style="fill:#f2ea1e" />
  <path
     class="cls-3"
     d="M195.46 70.124h-40.22v-16.49h40.22zm-34.95-5.28h29.67v-5.93h-29.67z"
     id="path263"
     style="fill:#f2ea1e" />
  <path
     class="cls-3"
     id="rect265"
     style="fill:#f2ea1e"
     d="M186.56 69.134h5.28v32.65h-5.28z" />
  <path
     class="cls-2"
     d="M267.77 147.924h-44.84c-26.85 0-31.55-24.89-31.6-25.15l6.5-1.14-3.25.57 3.24-.58c.15.8 3.87 19.7 25.11 19.7h44.84z"
     id="path267"
     style="fill:#5e4c9b" />
  <path
     class="cls-2"
     d="M267.77 169.044h-44.84c-26.85 0-31.55-24.9-31.6-25.15l-.05-.28v-28.21h6.6v27.6c.51 2.38 4.87 19.44 25.05 19.44h44.84z"
     id="path269"
     style="fill:#5e4c9b" />
  <path
     class="cls-2"
     d="M176.7 113.604h-22.4c-26.85 0-31.56-24.89-31.6-25.14l6.49-1.15-3.24.58 3.24-.59c.15.81 3.87 19.71 25.11 19.71h22.4z"
     id="path271"
     style="fill:#5e4c9b" />
  <path
     class="cls-2"
     d="M176.7 134.724h-22.4c-26.85 0-31.56-24.89-31.6-25.14l-.05-.29v-28.21h6.59v27.64c.51 2.38 4.88 19.45 25.06 19.45h22.4z"
     id="path273"
     style="fill:#5e4c9b" />
  <path
     class="cls-2"
     id="rect275"
     style="fill:#5e4c9b"
     d="M261.25 146.394h6.59v9.47h-6.59z" />
  <path
     class="cls-2"
     id="rect277"
     style="fill:#5e4c9b"
     d="M241.35 146.394h6.59v9.47h-6.59z" />
  <path
     class="cls-2"
     id="rect279"
     style="fill:#5e4c9b"
     d="M220.5 146.394h6.59v9.47h-6.59z" />
  <path
     class="cls-2"
     id="rect281"
     style="fill:#5e4c9b"
     d="M169.71 111.984h6.59v8.52h-6.59z" />
  <path
     class="cls-2"
     id="rect283"
     style="fill:#5e4c9b"
     d="M149.81 111.984h6.59v8.52h-6.59z" />
  <g
     inkscape:groupmode="layer"
     id="layer1"
     inkscape:label="Layer 1"
     style="display:inline"
     sodipodi:insensitive="true" />
  <g
     inkscape:groupmode="layer"
     id="layer2"
     inkscape:label="Layer 2"
     style="display:inline"
     sodipodi:insensitive="true">
    <g
       id="g73609">
      <path
         id="path1362"
         style="fill:#4d3e7e;fill-opacity:1;stroke-width:1"
         d="m 82.097656,138.47461 a 2,2 0 0 0 -1.123047,0.51758 2,2 0 0 0 -0.113281,2.82617 l 8.697266,9.42773 c 0.556801,0.71565 1.340002,1.58182 2.509765,2.83594 1.211119,1.29845 2.120144,2.23636 2.75586,2.87109 l 4.054687,4.39649 c 0.573887,0.68615 1.945044,2.14656 5.695314,6.10351 2.21591,2.33805 5.49921,5.82938 7.29687,7.75782 1.79765,1.92844 4.30328,4.59076 5.56836,5.91601 1.2651,1.32527 2.39285,2.55671 2.50586,2.73828 0.53124,0.85341 24.11876,25.4689 25.81446,26.93946 2.76777,2.40029 15.681,4.23981 23.38085,3.33008 1.57187,-0.18572 4.18687,-0.69327 5.81055,-1.12696 4.06678,-1.08629 6.27102,-2.43478 6.78125,-4.14843 0.85276,-2.86405 -0.87567,-5.46493 -3.78906,-5.70118 -0.71671,-0.0581 -2.95086,0.25924 -4.96289,0.70703 -9.02063,2.00759 -15.50889,2.39609 -21.25781,1.27149 -2.44143,-0.47758 -7.57509,-2.8554 -10.51758,-4.8711 -1.07748,-0.7381 -4.24232,-3.85978 -7.2168,-7.11718 -2.91424,-3.19145 -6.5592,-7.12383 -8.09961,-8.73828 -1.89535,-1.98646 -13.21793,-14.0913 -22.51367,-24.0293 a 2,2 0 0 0 -0.2207,-0.29297 L 83.800781,139.10547 a 2,2 0 0 0 -1.703125,-0.63086 z"
         clip-path="url(#clipPath44226)" />
      <path
         id="path1359"
         style="fill:#5e4c9b;fill-opacity:1;stroke-width:1"
         d="m 82.097656,138.47461 a 2,2 0 0 0 -1.123047,0.51758 2,2 0 0 0 -0.113281,2.82617 l 8.697266,9.42773 c 0.556801,0.71565 1.340002,1.58182 2.509765,2.83594 1.211119,1.29845 2.120144,2.23636 2.75586,2.87109 l 4.054687,4.39649 c 0.573887,0.68615 1.945044,2.14656 5.695314,6.10351 2.21591,2.33805 5.49921,5.82938 7.29687,7.75782 1.79765,1.92844 4.30328,4.59076 5.56836,5.91601 1.2651,1.32527 2.39285,2.55671 2.50586,2.73828 0.53124,0.85341 24.11876,25.4689 25.81446,26.93946 2.76777,2.40029 15.681,4.23981 23.38085,3.33008 1.57187,-0.18572 4.18687,-0.69327 5.81055,-1.12696 4.06678,-1.08629 6.27102,-2.43478 6.78125,-4.14843 0.85276,-2.86405 -0.87567,-5.46493 -3.78906,-5.70118 -0.71671,-0.0581 -2.95086,0.25924 -4.96289,0.70703 -9.02063,2.00759 -15.50889,2.39609 -21.25781,1.27149 -2.44143,-0.47758 -7.57509,-2.8554 -10.51758,-4.8711 -1.07748,-0.7381 -4.24232,-3.85978 -7.2168,-7.11718 -2.91424,-3.19145 -6.5592,-7.12383 -8.09961,-8.73828 -1.89535,-1.98646 -13.21793,-14.0913 -22.51367,-24.0293 a 2,2 0 0 0 -0.2207,-0.29297 L 83.800781,139.10547 a 2,2 0 0 0 -1.703125,-0.63086 z"
         clip-path="url(#clipPath44747)" />
    </g>
    <g
       id="path1978"
       style="stroke:none;stroke-opacity:1">
      <path
         style="color:#000000;fill:#d08f2a;stroke:none;stroke-width:1px;stroke-linejoin:round;stroke-opacity:1;-inkscape-stroke:none"
         d="m 119.54063,177.14466 c 1.2986,-0.37881 2.16907,-0.35435 3.48057,0.18638 l 25.17957,27.20726 c 0,0 4.13453,2.13939 11.71864,0.14104 7.9139,-2.08525 17.78796,-4.03884 17.78796,-4.03884 0,0 1.76404,0.0172 2.26964,1.44382 0.50559,1.42666 1.36747,7.05434 1.36747,7.05434 0,0 0.21952,0.95332 -1.5303,1.69177 -1.74981,0.73844 -11.67265,2.31111 -11.67265,2.31111 l -10.13765,2.20662 -7.80332,1.73432 c 0,0 -4.8511,-0.14485 -6.72838,-2.46266 l -27.34062,-29.85216 c 0,0 -1.02145,-0.5937 -0.3449,-3.59654 z"
         id="path1061" />
      <path
         style="color:#000000;fill:#d08f2a;stroke:none;stroke-linejoin:round;stroke-opacity:1;-inkscape-stroke:none"
         d="m 121.30078,176.4043 c -0.61023,-0.0296 -1.21948,0.0611 -1.90039,0.25976 a 0.50005,0.50005 0 0 0 -0.22461,0.13867 l -3.7539,4.02735 a 0.50005,0.50005 0 0 0 -0.12305,0.23047 c -0.35169,1.56094 -0.27606,2.55248 -0.0684,3.18945 0.10385,0.31848 0.24142,0.54583 0.36719,0.69727 0.12576,0.15143 0.2832,0.25195 0.2832,0.25195 l -0.11719,-0.0937 27.33985,29.85156 -0.0195,-0.0234 c 1.06802,1.31864 2.84762,1.93805 4.34571,2.27539 1.49808,0.33735 2.75586,0.37305 2.75586,0.37305 a 0.50005,0.50005 0 0 0 0.12304,-0.0117 l 7.80274,-1.73437 10.13672,-2.20508 c 0.0259,-0.004 2.47063,-0.39096 5.16211,-0.875 1.35283,-0.2433 2.76187,-0.51046 3.94726,-0.76367 1.18539,-0.25322 2.11555,-0.47547 2.65039,-0.70117 0.95282,-0.40211 1.44977,-0.90524 1.67578,-1.36133 0.11301,-0.22805 0.15536,-0.43863 0.16602,-0.59766 0.0106,-0.15903 -0.0176,-0.30469 -0.0176,-0.30469 -0.005,-0.0325 -0.21176,-1.39379 -0.48828,-2.96679 -0.27979,-1.59165 -0.60247,-3.31846 -0.89453,-4.14258 -0.6275,-1.77057 -2.73633,-1.77734 -2.73633,-1.77735 a 0.50005,0.50005 0 0 0 -0.10352,0.01 c 0,0 -9.87782,1.95317 -17.8164,4.04492 -3.72789,0.98227 -6.58721,0.94396 -8.50586,0.66797 -1.88178,-0.27069 -2.76736,-0.73558 -2.80274,-0.75391 l -25.0957,-27.11718 a 0.50005,0.50005 0 0 0 -0.17773,-0.12305 c -0.68933,-0.28421 -1.29993,-0.43521 -1.91016,-0.46484 z m -0.0488,0.97656 c 0.4527,0.0219 0.92006,0.15965 1.4961,0.39062 l 25.08593,27.10547 a 0.50005,0.50005 0 0 0 0.13672,0.10547 c 0,0 1.1292,0.57698 3.17383,0.8711 2.04464,0.29411 5.04613,0.32467 8.90234,-0.69141 7.85801,-2.07052 17.60993,-4.00026 17.6875,-4.01563 0.0562,0.002 1.39569,0.0451 1.77149,1.10547 0.21353,0.60254 0.57402,2.40162 0.85156,3.98047 0.27755,1.57885 0.49219,2.98242 0.49219,2.98242 a 0.50005,0.50005 0 0 0 0.008,0.0352 c 0,0 -0.001,-0.0272 -0.004,0.0156 -0.003,0.0428 -0.0156,0.11812 -0.0664,0.22071 -0.10168,0.20518 -0.37097,0.54647 -1.16797,0.88281 -0.34006,0.14351 -1.30343,0.39519 -2.4707,0.64453 -1.16727,0.24935 -2.56942,0.51564 -3.91602,0.75781 -2.6932,0.48435 -5.16992,0.87696 -5.16992,0.87696 a 0.50005,0.50005 0 0 0 -0.0273,0.004 l -10.13672,2.20703 a 0.50005,0.50005 0 0 0 -0.004,0 l -7.72266,1.7168 c -0.0382,-0.001 -1.1481,-0.0345 -2.52148,-0.34375 -1.39678,-0.31453 -2.97979,-0.92856 -3.78906,-1.92773 a 0.50005,0.50005 0 0 0 -0.0195,-0.0234 L 116.5,184.42969 a 0.50005,0.50005 0 0 0 -0.11719,-0.0937 c 0,0 0.029,0.0264 -0.0156,-0.0273 -0.0446,-0.0537 -0.11861,-0.16189 -0.18555,-0.36718 -0.12877,-0.39492 -0.19215,-1.21807 0.0898,-2.5586 l 3.52149,-3.77539 c 0.55498,-0.15455 1.01586,-0.24797 1.45898,-0.22656 z"
         id="path1058" />
    </g>
    <g
       id="path16460"
       style="stroke:none;stroke-opacity:1">
      <path
         style="color:#000000;fill:#d08f2a;stroke:none;stroke-width:0.1;stroke-opacity:1;-inkscape-stroke:none"
         d="m 97.60244,154.12516 22.43949,24.06341 -3.08705,2.44063 -22.169869,-23.72567 z"
         id="path73751" />
      <path
         style="color:#000000;fill:#d08f2a;stroke:none;stroke-opacity:1;-inkscape-stroke:none"
         d="m 97.603516,154.05273 -0.03711,0.0371 -2.851562,2.8125 22.234376,23.79493 3.16601,-2.50391 z m -0.0039,0.14258 22.369144,23.98633 -3.00781,2.37891 -22.105474,-23.65625 z"
         id="path73753" />
    </g>
  </g>
  <g
     inkscape:groupmode="layer"
     id="layer3"
     inkscape:label="Layer 3"
     style="display:inline">
    <g
       id="g90504"
       transform="translate(0.35082,0.56541)"
       clip-path="url(#clipPath91848)"
       inkscape:export-filename="D:\ART\HGM\g90504.png"
       inkscape:export-xdpi="2537.468"
       inkscape:export-ydpi="2537.468">
      <g
         id="path85304">
        <path
           style="color:#000000;fill:#5e4c9b;stroke-width:0.00625;stroke-linecap:round;stroke-linejoin:round;-inkscape-stroke:none"
           d="m 174.56335,200.21976 c -1.94442,0.36126 -3.87869,0.79747 -5.80856,1.2337 -0.4955,0.17867 -0.44538,0.7481 -0.34783,1.16304 0.51648,3.56984 1.02902,7.14616 1.59291,10.70534 0.16307,0.59898 0.87787,0.46525 1.34031,0.37273 1.11361,-0.20424 2.24846,-0.3549 3.34235,-0.62724 0.56491,-0.2283 0.33205,-0.93559 0.38795,-1.406 0.0303,-3.62129 0.0826,-7.24256 0.0918,-10.86392 -0.0406,-0.31845 -0.27415,-0.55759 -0.59898,-0.57765 z"
           id="path92374" />
        <path
           style="color:#000000;fill:#4d3e7e;stroke-linecap:round;stroke-linejoin:round;-inkscape-stroke:none"
           d="m 174.5625,200.2168 c -1.9445,0.36127 -3.87872,0.79814 -5.80859,1.23437 -0.24878,0.0897 -0.3611,0.27685 -0.39844,0.49414 -0.0373,0.21729 1e-5,0.46421 0.0488,0.67188 0.51648,3.56983 1.0279,7.14587 1.59179,10.70508 0.0409,0.15033 0.11711,0.25551 0.21485,0.32617 0.0977,0.0707 0.2169,0.10806 0.3457,0.12304 0.25761,0.03 0.55196,-0.028 0.7832,-0.0742 1.11351,-0.20423 2.24964,-0.35456 3.34375,-0.62696 0.14182,-0.0573 0.23417,-0.14562 0.29297,-0.25195 0.0588,-0.10633 0.084,-0.23094 0.0937,-0.36328 0.0194,-0.26468 -0.024,-0.55845 0.004,-0.79297 0.0303,-3.62127 0.0826,-7.24385 0.0918,-10.86524 -0.0406,-0.31868 -0.27503,-0.55659 -0.59961,-0.57812 a 0.00312531,0.00312531 0 0 0 -0.002,-0.002 0.00312531,0.00312531 0 0 0 -0.002,0 z m 0,0.006 c 5.5e-4,3e-5 0.001,-4e-5 0.002,0 0.32199,0.0206 0.55281,0.25841 0.59375,0.57421 -0.009,3.62134 -0.0615,7.24394 -0.0918,10.86524 -0.0276,0.2356 0.0173,0.52997 -0.002,0.79297 -0.01,0.13182 -0.0356,0.25613 -0.0937,0.36133 -0.0582,0.10519 -0.14842,0.19121 -0.28906,0.24804 -1.09366,0.27229 -2.22809,0.4227 -3.3418,0.62696 -0.2312,0.0463 -0.52508,0.10205 -0.78125,0.0723 -0.12808,-0.0149 -0.24714,-0.0512 -0.34375,-0.12109 -0.0959,-0.0694 -0.17014,-0.17284 -0.21093,-0.32031 -0.56389,-3.55915 -1.07727,-7.1372 -1.59375,-10.70704 -0.0487,-0.20727 -0.0859,-0.45214 -0.0488,-0.66796 0.0371,-0.21583 0.14781,-0.40127 0.39453,-0.49024 1.92925,-0.43609 3.86293,-0.8732 5.80664,-1.23437 z"
           id="path92376" />
      </g>
      <g
         id="path89943">
        <path
           style="color:#000000;fill:#5e4c9b;stroke-width:0.00625;stroke-linecap:round;stroke-linejoin:round;-inkscape-stroke:none"
           d="m 167.72902,201.70871 c -1.05988,0.19542 -2.11583,0.44721 -3.1484,0.75569 -0.50616,0.31328 -0.40118,1.00065 -0.57597,1.49822 -0.74568,3.60835 -1.47473,7.22508 -2.18594,10.8373 -0.0795,0.51621 0.52721,0.80658 0.95473,0.60463 2.2933,-0.5029 4.57741,-1.01183 6.88185,-1.44451 0.47874,-0.14708 0.49369,-0.70514 0.38219,-1.10856 -0.50344,-3.44217 -0.97521,-6.89033 -1.55582,-10.32035 -0.0518,-0.39833 -0.28906,-0.84676 -0.75264,-0.82242 z"
           id="path92380" />
        <path
           style="color:#000000;fill:#4d3e7e;stroke-linecap:round;stroke-linejoin:round;-inkscape-stroke:none"
           d="m 167.72852,201.70508 c -1.05999,0.19544 -2.11576,0.44734 -3.14844,0.75586 a 0.00312531,0.00312531 0 0 0 -0.002,0 c -0.25403,0.15723 -0.35316,0.41006 -0.4121,0.68359 -0.059,0.27353 -0.0769,0.56823 -0.16407,0.81641 a 0.00312531,0.00312531 0 0 0 0,0.002 c -0.74568,3.60836 -1.47433,7.22371 -2.18554,10.83594 -0.04,0.25937 0.091,0.46379 0.28711,0.57617 0.19605,0.11238 0.45707,0.13467 0.67187,0.0332 2.29268,-0.50276 4.57712,-1.01276 6.88086,-1.44531 0.24042,-0.0739 0.36424,-0.25186 0.41406,-0.46094 0.0498,-0.20907 0.0266,-0.44829 -0.0293,-0.65039 -0.50344,-3.44214 -0.97602,-6.89023 -1.55665,-10.32031 -0.026,-0.19962 -0.0985,-0.41281 -0.22265,-0.57227 -0.1242,-0.15945 -0.30038,-0.26613 -0.5332,-0.2539 z m 0,0.006 h 0.002 c 0.22972,-0.0114 0.40444,0.0942 0.52734,0.25195 0.12328,0.15826 0.19486,0.36965 0.22071,0.56836 0.58059,3.42995 1.05319,6.87813 1.55664,10.32031 0.0556,0.20132 0.0788,0.44282 0.0293,0.65039 -0.0495,0.20758 -0.17184,0.38186 -0.41015,0.45508 -2.30451,0.43269 -4.58757,0.94242 -6.88086,1.44531 a 0.00312531,0.00312531 0 0 0 -0.002,0 c -0.21272,0.10049 -0.46976,0.0782 -0.66406,-0.0332 -0.1943,-0.11137 -0.32471,-0.31152 -0.28515,-0.56836 0.7112,-3.61221 1.43987,-7.22955 2.18554,-10.83789 0.0876,-0.24939 0.10526,-0.54549 0.16406,-0.81836 0.0588,-0.27287 0.15803,-0.52168 0.41016,-0.67773 1.03185,-0.30827 2.08734,-0.56051 3.14649,-0.75586 z"
           id="path92382" />
      </g>
      <g
         id="path89982">
        <path
           style="color:#000000;fill:#5e4c9b;stroke-width:0.00625;stroke-linecap:round;stroke-linejoin:round;-inkscape-stroke:none"
           d="m 163.53219,202.71434 c -1.28532,0.20731 -2.53358,0.61501 -3.80274,0.9063 -0.55115,0.18087 -1.1736,0.21992 -1.6786,0.5032 -0.4355,0.36495 -0.23213,1.00951 -0.33377,1.50556 -0.19274,3.32216 -0.43547,6.64327 -0.54198,9.96932 -0.0814,0.45949 0.29311,0.95913 0.78514,0.8431 1.17048,-0.24166 2.34518,-0.4777 3.49997,-0.7847 0.53724,-0.29654 0.41856,-1.00743 0.5997,-1.51002 0.73667,-3.56997 1.48953,-7.13763 2.16413,-10.7197 0.0473,-0.39462 -0.30042,-0.73851 -0.69185,-0.71306 z"
           id="path92386" />
        <path
           style="color:#000000;fill:#4d3e7e;stroke-linecap:round;stroke-linejoin:round;-inkscape-stroke:none"
           d="m 163.53125,202.71094 c -1.28564,0.20736 -2.53376,0.615 -3.80273,0.90625 -0.55062,0.18069 -1.17384,0.22015 -1.67969,0.5039 -0.21863,0.18321 -0.27665,0.43794 -0.29297,0.70703 -0.0163,0.2691 0.01,0.55342 -0.041,0.80079 -0.19273,3.32212 -0.43645,6.64261 -0.54297,9.96875 -0.0409,0.23074 0.0322,0.47206 0.17774,0.64062 0.14558,0.16856 0.36417,0.26532 0.61133,0.20703 1.17047,-0.24166 2.34508,-0.47812 3.5,-0.78515 0.26963,-0.14883 0.37534,-0.40173 0.43554,-0.67969 0.0602,-0.27797 0.0757,-0.58138 0.16602,-0.83203 0.73667,-3.56996 1.48945,-7.13859 2.16406,-10.72071 0.0475,-0.39663 -0.30194,-0.74237 -0.69531,-0.71679 z m 0.002,0.006 c 0.38949,-0.0253 0.73456,0.31832 0.6875,0.71093 -0.67459,3.58203 -1.42739,7.14878 -2.16406,10.71875 -0.0908,0.25195 -0.10596,0.55477 -0.16602,0.83204 -0.0601,0.27726 -0.16403,0.52806 -0.43164,0.67578 -1.15466,0.30696 -2.32951,0.54349 -3.5,0.78515 -0.24486,0.0577 -0.45918,-0.0379 -0.60351,-0.20508 -0.14434,-0.16712 -0.21826,-0.40602 -0.17774,-0.63476 0.10649,-3.32531 0.35025,-6.64721 0.54297,-9.96875 v -0.002 c 0.0505,-0.24826 0.0248,-0.533 0.041,-0.80079 0.0163,-0.26843 0.0741,-0.51943 0.29101,-0.70117 0.50416,-0.2828 1.12605,-0.32286 1.67774,-0.5039 1.26934,-0.29134 2.51774,-0.699 3.80273,-0.90625 z"
           id="path92388" />
      </g>
      <g
         id="path90021">
        <path
           style="color:#000000;fill:#5e4c9b;stroke-width:0.00625;stroke-linecap:round;stroke-linejoin:round;-inkscape-stroke:none"
           d="m 157.20771,204.17493 c -0.96682,0.16723 -1.95646,0.17378 -2.9185,0.35613 -0.60703,0.19947 -0.44495,0.948 -0.55819,1.43562 -0.42988,3.63066 -0.90172,7.25752 -1.30465,10.89067 -0.0226,0.5145 0.56858,0.80953 1.00565,0.60509 1.13997,-0.26979 2.29226,-0.49061 3.42615,-0.78391 0.58345,-0.30164 0.35524,-1.05052 0.45178,-1.58 0.19828,-3.43992 0.40101,-6.87977 0.5738,-10.32102 -0.0253,-0.3657 -0.3096,-0.62182 -0.67604,-0.60258 z"
           id="path92392" />
        <path
           style="color:#000000;fill:#4d3e7e;stroke-linecap:round;stroke-linejoin:round;-inkscape-stroke:none"
           d="m 157.20703,204.17187 c -0.96648,0.16718 -1.95556,0.17305 -2.91797,0.35547 -0.15234,0.0501 -0.25779,0.13583 -0.33008,0.24219 -0.0723,0.10636 -0.11191,0.23434 -0.13671,0.37109 -0.0496,0.27352 -0.0373,0.58303 -0.0937,0.82618 -0.42988,3.63063 -0.90176,7.25744 -1.30469,10.89062 -0.0114,0.25847 0.13158,0.46123 0.33203,0.57422 0.20045,0.11299 0.45819,0.1359 0.67773,0.0332 1.13989,-0.26977 2.29177,-0.48987 3.42578,-0.7832 0.29281,-0.15138 0.38217,-0.41547 0.41016,-0.70703 0.028,-0.29156 -0.005,-0.61094 0.043,-0.875 0.19828,-3.43991 0.40143,-6.881 0.57422,-10.32227 -0.0254,-0.3672 -0.31171,-0.62479 -0.67969,-0.60547 z m 0,0.006 h 0.002 c 0.36405,-0.0182 0.64672,0.23601 0.67188,0.59961 -0.17279,3.44123 -0.37594,6.8804 -0.57422,10.32032 -0.0484,0.26542 -0.0151,0.58629 -0.043,0.87695 -0.0279,0.29066 -0.11561,0.55091 -0.40625,0.70117 -1.13376,0.29327 -2.28572,0.51339 -3.42578,0.7832 -0.21752,0.10175 -0.47507,0.0808 -0.67383,-0.0312 -0.19876,-0.11204 -0.33937,-0.31428 -0.32812,-0.57031 0.40292,-3.63311 0.8748,-7.25994 1.30468,-10.89062 0.0568,-0.24448 0.0443,-0.55365 0.0937,-0.82618 0.0247,-0.13626 0.0651,-0.26186 0.13672,-0.36718 0.0713,-0.10492 0.17401,-0.19049 0.32422,-0.24024 0.96104,-0.18216 1.95142,-0.1885 2.91797,-0.35547 z"
           id="path92394" />
      </g>
      <g
         id="path90060">
        <path
           style="color:#000000;fill:#5e4c9b;stroke-width:0.00625;stroke-linecap:round;stroke-linejoin:round;-inkscape-stroke:none"
           d="m 150.70611,204.35915 c -0.47377,0.35681 -0.44868,1.03339 -0.68407,1.53891 -1.1829,3.68615 -2.40923,7.36436 -3.56503,11.05545 -0.12491,0.54773 0.48103,0.77506 0.91672,0.82401 1.34886,0.28783 2.76753,0.50876 4.12035,0.1142 0.47049,-0.0598 1.0172,-0.31261 1.03135,-0.8593 0.49616,-3.97076 0.97291,-7.94927 1.44826,-11.91932 0.0311,-0.55401 -0.5995,-0.68066 -1.03223,-0.66388 -0.73964,-0.0233 -1.50529,-0.22473 -2.23535,-0.0901 z"
           id="path92398" />
        <path
           style="color:#000000;fill:#4d3e7e;stroke-linecap:round;stroke-linejoin:round;-inkscape-stroke:none"
           d="m 150.70508,204.35547 a 0.00312531,0.00312531 0 0 0 0,0.002 l -0.002,0.002 c -0.2361,0.17893 -0.34946,0.43662 -0.43164,0.7129 -0.0824,0.27717 -0.1345,0.57198 -0.25195,0.82421 -1.18289,3.68613 -2.41059,7.36552 -3.56641,11.05664 -0.0627,0.27503 0.059,0.46968 0.25,0.60157 0.19101,0.13188 0.45171,0.20204 0.66993,0.22656 1.34897,0.28785 2.76741,0.50809 4.12109,0.11328 0.23564,-0.03 0.49161,-0.10862 0.68945,-0.24805 0.19784,-0.13942 0.33861,-0.3389 0.34571,-0.61328 0.49616,-3.97076 0.97191,-7.94987 1.44726,-11.91992 0.0156,-0.2782 -0.13516,-0.44966 -0.34375,-0.54883 -0.20858,-0.0992 -0.47468,-0.12754 -0.6914,-0.11914 -0.73914,-0.0233 -1.50534,-0.22464 -2.23633,-0.0898 z m 0.002,0.006 c 0.72913,-0.13446 1.49424,0.0685 2.23438,0.0918 0.216,-0.008 0.48233,0.0187 0.68945,0.11719 0.20712,0.0985 0.35533,0.26716 0.33984,0.54297 -0.47535,3.97005 -0.95306,7.94722 -1.44922,11.91797 a 0.00312531,0.00312531 0 0 0 0,0.002 c -0.007,0.27232 -0.14512,0.47078 -0.34179,0.60938 -0.19668,0.1386 -0.4507,0.21624 -0.68555,0.24609 -1.35195,0.39431 -2.7704,0.17453 -4.11914,-0.11328 -0.21747,-0.0244 -0.47831,-0.0937 -0.66797,-0.22461 -0.18966,-0.13095 -0.30828,-0.323 -0.24609,-0.5957 1.15578,-3.69105 2.38154,-7.37047 3.56445,-11.05664 0.11794,-0.25328 0.16965,-0.54752 0.25195,-0.82422 0.0823,-0.2767 0.19359,-0.53507 0.42969,-0.71289 z"
           id="path92400" />
      </g>
      <g
         id="path90099">
        <path
           style="color:#000000;fill:#5e4c9b;stroke-width:0.00625;stroke-linecap:round;stroke-linejoin:round;-inkscape-stroke:none"
           d="m 148.0299,203.54126 c -1.03832,1.19336 -1.97473,2.48178 -2.9739,3.71166 -1.39928,1.7805 -2.81829,3.54633 -4.19109,5.34715 -0.31224,0.58481 0.31786,1.03226 0.63757,1.43922 1.06298,1.12136 2.06449,2.41781 3.55035,2.99748 0.42383,0.19418 1.02092,0.54018 1.3979,0.0746 0.38423,-0.62983 0.48295,-1.3954 0.75378,-2.07843 1.10139,-3.42203 2.23958,-6.833 3.30778,-10.26525 0.0783,-0.51212 -0.42975,-0.75477 -0.85095,-0.82859 -0.47252,-0.0937 -0.86234,-0.40852 -1.33191,-0.49327 -0.0998,0.0318 -0.19969,0.0636 -0.29953,0.0954 z"
           id="path92404" />
        <path
           style="color:#000000;fill:#4d3e7e;stroke-linecap:round;stroke-linejoin:round;-inkscape-stroke:none"
           d="m 148.32812,203.44336 c -0.0998,0.0318 -0.19898,0.0639 -0.29882,0.0957 a 0.00312531,0.00312531 0 0 0 -0.002,0 v 0.002 c -1.03804,1.19317 -1.97583,2.47958 -2.97461,3.70898 a 0.00312531,0.00312531 0 0 0 0,0.002 c -1.39926,1.78048 -2.81662,3.54485 -4.18945,5.34571 a 0.00312531,0.00312531 0 0 0 -0.002,0 c -0.15669,0.29346 -0.0768,0.5547 0.082,0.79101 0.15878,0.23631 0.39706,0.44921 0.55664,0.65235 1.06283,1.12119 2.0639,2.41797 3.55078,2.99804 0.21178,0.097 0.46874,0.23245 0.71875,0.28516 0.25001,0.0527 0.49436,0.0228 0.68359,-0.21094 0.3847,-0.63059 0.48328,-1.39755 0.75391,-2.08008 1.10138,-3.422 2.24038,-6.83138 3.30859,-10.26367 a 0.00312531,0.00312531 0 0 0 0,-0.002 c 0.0393,-0.25713 -0.0697,-0.44569 -0.24023,-0.58008 -0.17049,-0.13439 -0.40232,-0.21498 -0.61328,-0.25195 -0.47153,-0.0935 -0.86143,-0.40725 -1.33203,-0.49219 a 0.00312531,0.00312531 0 0 0 -0.002,0 z m 0,0.006 c 0.46854,0.0846 0.85853,0.39829 1.33204,0.49219 0.21023,0.0368 0.44207,0.11658 0.61132,0.25 0.16926,0.13341 0.27727,0.32118 0.23829,0.57617 -1.06819,3.4322 -2.2072,6.84162 -3.3086,10.26367 -0.27103,0.68353 -0.37014,1.44905 -0.7539,2.07812 -0.18754,0.23021 -0.42965,0.26129 -0.67774,0.20899 -0.24874,-0.0524 -0.50279,-0.18801 -0.71484,-0.28516 -1.48483,-0.57927 -2.48765,-1.87457 -3.55078,-2.99609 h 0.002 c -0.16013,-0.20383 -0.3985,-0.41699 -0.55664,-0.65234 -0.15814,-0.23536 -0.23759,-0.49187 -0.082,-0.78321 1.37245,-1.80037 2.79242,-3.56559 4.1914,-5.3457 v -0.002 c 0.99831,-1.2289 1.93551,-2.51673 2.97266,-3.70899 0.0993,-0.0316 0.19767,-0.0641 0.29687,-0.0957 z"
           id="path92406" />
      </g>
      <g
         id="path90138">
        <path
           style="color:#000000;fill:#5e4c9b;stroke-width:0.00625;stroke-linecap:round;stroke-linejoin:round;-inkscape-stroke:none"
           d="m 145.5028,200.51018 c -0.53524,0.25043 -0.7295,0.8806 -1.10738,1.3041 -1.96205,2.77544 -3.96378,5.52692 -5.90561,8.31248 -0.30754,0.58799 0.40161,0.98143 0.70729,1.38544 0.43191,0.39279 0.76002,0.99883 1.35954,1.1466 0.62302,0.0417 0.84426,-0.6888 1.22379,-1.04734 2.11837,-2.68761 4.26429,-5.36085 6.3531,-8.06716 0.33225,-0.54201 -0.30448,-0.95249 -0.61073,-1.31774 -0.56125,-0.54487 -1.02054,-1.21382 -1.65098,-1.67448 -0.0981,-0.0782 -0.25298,-0.0178 -0.36902,-0.0419 z"
           id="path92410" />
        <path
           style="color:#000000;fill:#4d3e7e;stroke-linecap:round;stroke-linejoin:round;-inkscape-stroke:none"
           d="m 145.50195,200.50781 c -0.2684,0.12558 -0.45241,0.34594 -0.61523,0.58789 -0.16282,0.24196 -0.30554,0.50543 -0.49414,0.7168 -1.96203,2.77541 -3.9644,5.52691 -5.90625,8.3125 -0.0772,0.14756 -0.0907,0.28361 -0.0625,0.41016 0.0282,0.12655 0.0988,0.24407 0.1875,0.35546 0.17739,0.22279 0.43155,0.42159 0.58398,0.62305 0.43131,0.39225 0.76014,1.00026 1.36133,1.14844 0.31275,0.0209 0.5242,-0.15246 0.70508,-0.375 0.18088,-0.22254 0.33227,-0.49508 0.52148,-0.67383 2.11836,-2.68759 4.26469,-5.36007 6.35352,-8.06641 0.0834,-0.13603 0.10575,-0.26561 0.0879,-0.38671 -0.0179,-0.1211 -0.0762,-0.23549 -0.1543,-0.34375 -0.15629,-0.21652 -0.39211,-0.40955 -0.54492,-0.5918 -0.56094,-0.54457 -1.02132,-1.2147 -1.65234,-1.67578 -0.05,-0.0399 -0.11399,-0.0433 -0.17969,-0.041 -0.0657,0.002 -0.13221,0.0119 -0.18945,0 a 0.00312531,0.00312531 0 0 0 -0.002,0 z m 0,0.006 h 0.002 c 0.0584,0.0117 0.12484,0.002 0.18945,0 0.0653,-0.002 0.12766,0.003 0.17578,0.041 0.62986,0.46023 1.09079,1.12866 1.65234,1.67383 h -0.002 c 0.15344,0.183 0.38935,0.37626 0.54492,0.59179 0.0778,0.10777 0.13665,0.22208 0.1543,0.3418 0.0177,0.11972 -0.005,0.24589 -0.0879,0.38086 -2.08878,2.70627 -4.23514,5.37878 -6.35352,8.0664 -0.19031,0.17979 -0.33915,0.45191 -0.51953,0.67383 -0.18037,0.22192 -0.3909,0.39382 -0.70117,0.37305 -0.59785,-0.14736 -0.92491,-0.75315 -1.35742,-1.14648 -0.15325,-0.20255 -0.40727,-0.40112 -0.58399,-0.62305 -0.0883,-0.11097 -0.15768,-0.2283 -0.18554,-0.35352 -0.0279,-0.12521 -0.0141,-0.25786 0.0625,-0.40429 1.9418,-2.78553 3.94418,-5.53704 5.90625,-8.3125 0.18927,-0.21213 0.33155,-0.47519 0.49414,-0.7168 0.16232,-0.24121 0.34326,-0.46098 0.60937,-0.58594 z"
           id="path92412" />
      </g>
      <g
         id="path90177">
        <path
           style="color:#000000;fill:#5e4c9b;stroke-width:0.00625;stroke-linecap:round;stroke-linejoin:round;-inkscape-stroke:none"
           d="m 142.84072,197.65406 c -0.62389,0.34505 -1.03292,0.97419 -1.5633,1.44095 -2.20165,2.23642 -4.41753,4.46634 -6.61016,6.70702 -0.3812,0.45263 0.11414,0.92645 0.42875,1.24114 0.95244,1.00308 1.82188,2.09744 2.86347,3.00961 0.48618,0.30288 0.91718,-0.19702 1.13817,-0.58645 2.10939,-2.95321 4.23904,-5.89912 6.31351,-8.87277 0.30706,-0.58826 -0.40237,-0.98116 -0.70843,-1.38491 -0.52562,-0.5036 -0.93657,-1.14619 -1.54779,-1.54606 -0.10474,-0.003 -0.20948,-0.006 -0.31422,-0.009 z"
           id="path92416" />
        <path
           style="color:#000000;fill:#4d3e7e;stroke-linecap:round;stroke-linejoin:round;-inkscape-stroke:none"
           d="m 142.83789,197.65039 a 0.00312531,0.00312531 0 0 0 0,0.002 c -0.62342,0.34584 -1.03325,0.9737 -1.5625,1.43946 a 0.00312531,0.00312531 0 0 0 0,0.002 c -2.20164,2.23641 -4.41869,4.46634 -6.61133,6.70703 -0.0957,0.11362 -0.1364,0.2281 -0.13867,0.3418 -0.002,0.11369 0.0339,0.22648 0.0918,0.33398 0.11585,0.21501 0.31928,0.41104 0.47656,0.56836 0.95231,1.00295 1.82141,2.09735 2.86328,3.00977 0.2441,0.15206 0.47508,0.10304 0.67188,-0.0332 0.19679,-0.13624 0.36006,-0.35776 0.4707,-0.55273 2.10938,-2.9532 4.23996,-5.89937 6.31445,-8.87305 0.0771,-0.14763 0.0908,-0.28362 0.0625,-0.41015 -0.0283,-0.12654 -0.0987,-0.24415 -0.1875,-0.35547 -0.17757,-0.22265 -0.43136,-0.42171 -0.58398,-0.62305 -0.52525,-0.50324 -0.93686,-1.14652 -1.54883,-1.54687 a 0.00312531,0.00312531 0 0 0 -0.002,0 l -0.31446,-0.01 a 0.00312531,0.00312531 0 0 0 -0.002,0 z m 0.002,0.006 h 0.002 l 0.31054,0.01 c 0.61048,0.39938 1.02284,1.04096 1.54883,1.54492 0.15344,0.20241 0.40709,0.40124 0.58399,0.62304 0.0884,0.1109 0.15758,0.22637 0.18554,0.35157 0.028,0.1252 0.014,0.25975 -0.0625,0.40625 -2.07444,2.97362 -4.2031,5.91983 -6.3125,8.87304 -0.11034,0.19446 -0.27325,0.41739 -0.46875,0.55274 -0.1955,0.13534 -0.42393,0.18401 -0.66601,0.0332 -1.04131,-0.91192 -1.91072,-2.00655 -2.86328,-3.00976 -0.15733,-0.15737 -0.35945,-0.35463 -0.47461,-0.56836 -0.0576,-0.10687 -0.0921,-0.2178 -0.0899,-0.33008 0.002,-0.11229 0.0418,-0.2252 0.13672,-0.33789 2.19262,-2.24067 4.40772,-4.47061 6.60938,-6.70703 0.53047,-0.46684 0.93827,-1.09671 1.56054,-1.44141 z"
           id="path92418" />
      </g>
      <g
         id="path90216">
        <path
           style="color:#000000;fill:#5e4c9b;stroke-width:0.00625;stroke-linecap:round;stroke-linejoin:round;-inkscape-stroke:none"
           d="m 139.90998,194.42212 c -0.58956,0.0817 -0.80552,0.75394 -1.20821,1.11251 -2.14469,2.56886 -4.32928,5.11175 -6.45284,7.69367 -0.35127,0.53462 0.27998,0.96337 0.58029,1.3352 0.46342,0.46079 0.81957,1.04706 1.36995,1.40634 0.61913,0.12034 0.93845,-0.55589 1.35193,-0.88687 2.38937,-2.42661 4.80154,-4.83882 7.1729,-7.27818 0.37339,-0.45528 -0.12301,-0.92194 -0.43723,-1.23486 -0.67348,-0.6749 -1.24065,-1.47194 -1.99719,-2.05626 -0.11513,-0.0653 -0.24748,-0.0966 -0.3796,-0.0915 z"
           id="path92422" />
        <path
           style="color:#000000;fill:#4d3e7e;stroke-linecap:round;stroke-linejoin:round;-inkscape-stroke:none"
           d="m 139.91016,194.41992 c -0.002,2.2e-4 -0.002,0.002 -0.004,0.002 -0.29332,0.0423 -0.49657,0.22904 -0.67383,0.45118 -0.1782,0.22332 -0.33237,0.48133 -0.5332,0.66015 -2.14467,2.56884 -4.32954,5.11141 -6.45313,7.69336 -0.0882,0.13418 -0.11416,0.26288 -0.0996,0.38477 0.0146,0.12188 0.0706,0.23716 0.14649,0.34765 0.15179,0.221 0.38335,0.42189 0.5332,0.60743 0.46305,0.46042 0.81993,1.04645 1.3711,1.40625 a 0.00312531,0.00312531 0 0 0 0.002,0 c 0.31074,0.0604 0.54664,-0.0797 0.75586,-0.27539 0.20922,-0.19568 0.39142,-0.44625 0.59765,-0.61133 2.38936,-2.4266 4.80245,-4.83992 7.17383,-7.2793 0.0937,-0.11428 0.1337,-0.23039 0.13477,-0.34375 0.001,-0.11336 -0.0372,-0.22342 -0.0957,-0.33008 -0.11705,-0.21332 -0.31948,-0.40802 -0.47656,-0.56445 -0.67323,-0.67465 -1.24102,-1.47194 -1.99804,-2.05664 -0.11509,-0.0653 -0.24686,-0.0965 -0.37891,-0.0918 z m 0,0.006 c 0.13154,-0.005 0.26234,0.0248 0.37695,0.0898 0.75605,0.58395 1.32432,1.3815 1.99805,2.05665 0.15714,0.15649 0.35825,0.35044 0.47461,0.5625 0.0582,0.10602 0.0948,0.21616 0.0937,0.32812 -0.001,0.11196 -0.0399,0.22649 -0.13282,0.33984 h 0.002 c -2.37134,2.43934 -4.78445,4.85073 -7.17383,7.27735 -0.20725,0.16589 -0.39102,0.41818 -0.59961,0.61328 -0.20812,0.19465 -0.44071,0.33233 -0.74805,0.27344 -0.5492,-0.35851 -0.90583,-0.94329 -1.36914,-1.4043 v -0.002 c -0.15048,-0.18601 -0.38433,-0.38588 -0.53516,-0.60547 -0.0755,-0.11 -0.13014,-0.22522 -0.14453,-0.34571 -0.0144,-0.12048 0.0121,-0.24577 0.0996,-0.3789 2.12353,-2.58188 4.30842,-5.12448 6.45313,-7.69336 h -0.002 c 0.20187,-0.17975 0.35732,-0.43729 0.53516,-0.66016 0.17784,-0.22286 0.3782,-0.41047 0.67188,-0.45117 z"
           id="path92424" />
      </g>
      <g
         id="path90255">
        <path
           style="color:#000000;fill:#5e4c9b;stroke-width:0.00625;stroke-linecap:round;stroke-linejoin:round;-inkscape-stroke:none"
           d="m 135.07924,189.57883 c -0.43377,0.45073 -0.50763,1.12372 -0.78613,1.66948 -1.33225,3.38529 -2.69834,6.76343 -3.9988,10.15737 -0.12246,0.57755 0.51235,0.89636 0.80942,1.30267 0.29141,0.35568 0.76875,0.79349 1.24762,0.49158 0.73853,-0.7094 1.34182,-1.55882 2.02606,-2.32355 1.78149,-2.12778 3.59454,-4.23657 5.34987,-6.38158 0.35407,-0.54064 -0.28956,-0.96655 -0.60016,-1.33299 -1.12881,-1.18582 -2.20785,-2.42568 -3.37847,-3.56813 -0.20455,-0.1347 -0.45454,-0.12077 -0.66941,-0.0148 z"
           id="path92428" />
        <path
           style="color:#000000;fill:#4d3e7e;stroke-linecap:round;stroke-linejoin:round;-inkscape-stroke:none"
           d="m 135.07617,189.57617 c -4.1e-4,4.3e-4 4.2e-4,0.002 0,0.002 -0.43362,0.45172 -0.50729,1.12346 -0.78515,1.66797 a 0.00312531,0.00312531 0 0 0 0,0.002 c -1.33225,3.38527 -2.69953,6.76227 -4,10.15625 -0.0615,0.28996 0.0672,0.51576 0.24804,0.71875 0.1808,0.20299 0.41436,0.38527 0.5625,0.58789 0.14584,0.178 0.33845,0.37567 0.55469,0.49218 0.21624,0.11652 0.45686,0.15157 0.69727,0 0.73881,-0.70967 1.34131,-1.55966 2.02539,-2.32421 1.78147,-2.12776 3.5962,-4.23777 5.35156,-6.38282 0.0889,-0.13568 0.1151,-0.26432 0.0996,-0.38672 -0.0155,-0.12239 -0.0725,-0.23747 -0.15039,-0.34765 -0.15584,-0.22037 -0.39579,-0.4187 -0.55078,-0.60156 -1.12875,-1.18575 -2.20817,-2.4258 -3.37891,-3.56836 -0.20501,-0.13501 -0.45471,-0.12113 -0.66992,-0.0156 a 0.00312531,0.00312531 0 0 0 -0.004,0 z m 0.004,0.006 c 1.9e-4,-2e-4 0.002,2e-4 0.002,0 0.21368,-0.10474 0.46117,-0.11994 0.66406,0.0137 1.1705,1.14233 2.25004,2.38248 3.37891,3.56836 0.1556,0.18358 0.39371,0.38221 0.54883,0.60156 0.0776,0.10968 0.13508,0.22473 0.15039,0.34571 0.0153,0.12097 -0.0114,0.24622 -0.0996,0.38086 -1.7553,2.14497 -3.5681,4.25501 -5.34961,6.38281 -0.6844,0.76491 -1.28715,1.61314 -2.02539,2.32227 -0.23846,0.15034 -0.47641,0.11583 -0.69141,0 -0.21499,-0.11584 -0.40716,-0.31256 -0.55273,-0.49024 -0.14893,-0.2037 -0.38029,-0.38551 -0.56055,-0.58789 -0.18025,-0.20238 -0.30902,-0.4253 -0.24805,-0.71289 1.30045,-3.3939 2.66775,-6.77095 4,-10.15625 h -0.002 c 0.27848,-0.54572 0.35396,-1.21824 0.78516,-1.66797 z"
           id="path92430" />
      </g>
      <g
         id="path90294">
        <path
           style="color:#000000;fill:#5e4c9b;stroke-width:0.00625;stroke-linecap:round;stroke-linejoin:round;-inkscape-stroke:none"
           d="m 131.42874,185.4257 c -0.49878,0.27732 -0.5564,0.92051 -0.83822,1.37193 -1.50301,3.25294 -3.01538,6.50196 -4.4831,9.77093 -0.19137,0.64071 0.477,1.07765 0.80557,1.53149 0.9209,1.00277 1.80373,2.04953 2.80607,2.97193 0.40701,0.29537 0.93442,-0.0489 1.01756,-0.49709 1.49446,-3.73103 2.98117,-7.47201 4.4284,-11.21732 0.0266,-0.59945 -0.55851,-0.97257 -0.87601,-1.41325 -0.76633,-0.82735 -1.49292,-1.70125 -2.32643,-2.46089 -0.17323,-0.10944 -0.34121,-0.0824 -0.53384,-0.0577 z"
           id="path92434" />
        <path
           style="color:#000000;fill:#4d3e7e;stroke-linecap:round;stroke-linejoin:round;-inkscape-stroke:none"
           d="m 131.42773,185.42187 v 0.002 c -8.6e-4,4.8e-4 -0.001,0.001 -0.002,0.002 a 0.00312531,0.00312531 0 0 0 0,0.002 c -0.24773,0.13937 -0.38851,0.36642 -0.5,0.61719 -0.11208,0.25212 -0.19728,0.52673 -0.33789,0.75195 -1.50301,3.25294 -3.01469,6.50054 -4.48242,9.76954 a 0.00312531,0.00312531 0 0 0 -0.002,0.002 c -0.096,0.3215 0.0245,0.59148 0.20898,0.83789 0.18451,0.24641 0.43368,0.46882 0.59766,0.69531 0.92084,1.00271 1.8041,2.05008 2.80664,2.97266 0.20449,0.1484 0.4408,0.13688 0.63476,0.0312 0.19396,-0.10563 0.34691,-0.30418 0.38867,-0.5293 1.49446,-3.73103 2.9805,-7.47147 4.42774,-11.2168 a 0.00312531,0.00312531 0 0 0 0,-0.002 c 0.0133,-0.30077 -0.12575,-0.54402 -0.3086,-0.76758 -0.18284,-0.22355 -0.40989,-0.42654 -0.56835,-0.64648 a 0.00312531,0.00312531 0 0 0 0,-0.002 c -0.76626,-0.82727 -1.49245,-1.70111 -2.32618,-2.46094 -0.17419,-0.11005 -0.34453,-0.0833 -0.53711,-0.0586 z m 0,0.008 a 0.00312531,0.00312531 0 0 0 0.002,0 c 0.19269,-0.0247 0.35899,-0.0522 0.53125,0.0566 0.83329,0.75944 1.55976,1.6335 2.32617,2.46094 0.15899,0.2203 0.38429,0.42382 0.56641,0.64648 0.18243,0.22304 0.32184,0.46499 0.30859,0.76367 -1.44702,3.74472 -2.9335,7.48634 -4.42774,11.2168 -0.0414,0.22307 -0.19443,0.42068 -0.38671,0.52539 -0.19228,0.10471 -0.42444,0.11767 -0.62696,-0.0293 -1.00214,-0.92222 -1.88373,-1.96982 -2.80468,-2.97265 -0.1646,-0.22735 -0.41369,-0.44962 -0.59766,-0.69532 -0.18397,-0.24569 -0.30238,-0.51282 -0.20703,-0.83203 h -0.002 c 1.4677,-3.26894 2.98136,-6.51854 4.48437,-9.77148 0.14121,-0.2262 0.22601,-0.5003 0.33789,-0.75196 0.11149,-0.25078 0.24917,-0.47885 0.49609,-0.61718 z"
           id="path92436" />
      </g>
      <g
         id="path90333">
        <path
           style="color:#000000;fill:#5e4c9b;stroke-width:0.00625;stroke-linecap:round;stroke-linejoin:round;-inkscape-stroke:none"
           d="m 128.29208,182.15494 c -0.60387,0.55101 -1.01289,1.28963 -1.53587,1.91817 -1.81198,2.40791 -3.64172,4.80278 -5.43563,7.2241 -0.33352,0.52784 0.23406,0.95187 0.55033,1.30725 1.18898,1.28724 2.34947,2.6084 3.55617,3.87455 0.36935,0.35057 0.9456,0.0398 1.0401,-0.41352 1.64322,-3.58783 3.32853,-7.16266 4.94539,-10.75865 0.16723,-0.58931 -0.50178,-0.91912 -0.79561,-1.33084 -0.58514,-0.59997 -1.114,-1.26582 -1.75942,-1.80143 -0.19808,-0.10128 -0.35772,-0.0754 -0.56546,-0.0196 z"
           id="path92440" />
        <path
           style="color:#000000;fill:#4d3e7e;stroke-linecap:round;stroke-linejoin:round;-inkscape-stroke:none"
           d="m 128.28906,182.15234 c -3.7e-4,3.5e-4 3.8e-4,0.002 0,0.002 -0.60376,0.55136 -1.01276,1.28817 -1.53515,1.91601 -1.81197,2.4079 -3.64162,4.80327 -5.43555,7.22461 -0.16739,0.26492 -0.10884,0.50571 0.0312,0.72266 0.14009,0.21695 0.3616,0.41238 0.51953,0.58984 1.18894,1.2872 2.34988,2.60684 3.55664,3.87305 0.1856,0.17616 0.42205,0.18664 0.625,0.0957 0.20295,-0.0909 0.37244,-0.282 0.41992,-0.50976 1.64321,-3.58781 3.32844,-7.1618 4.94532,-10.75782 0.0839,-0.29585 -0.0432,-0.52842 -0.22657,-0.73632 -0.18336,-0.20791 -0.42382,-0.39239 -0.57031,-0.59766 -0.58499,-0.59982 -1.11401,-1.26685 -1.75977,-1.80274 -0.19819,-0.10133 -0.35954,-0.075 -0.5664,-0.0195 a 0.00312531,0.00312531 0 0 0 -0.004,0 z m 0.006,0.006 c 0.20653,-0.0554 0.36395,-0.081 0.56055,0.0195 0.64508,0.53534 1.17448,1.20066 1.75976,1.80079 0.14734,0.20645 0.38753,0.3904 0.57032,0.59765 0.18279,0.20726 0.30788,0.43702 0.22461,0.73047 -1.61662,3.59541 -3.30233,7.1705 -4.94532,10.75781 -0.047,0.22556 -0.21488,0.41573 -0.41601,0.50586 -0.20114,0.0901 -0.43539,0.0807 -0.61914,-0.0937 -1.20664,-1.26608 -2.36763,-2.58772 -3.55664,-3.875 -0.15834,-0.17792 -0.37819,-0.37202 -0.51758,-0.58789 -0.13939,-0.21586 -0.19933,-0.45192 -0.0332,-0.71484 1.79389,-2.42129 3.62356,-4.81669 5.43554,-7.22461 0.52324,-0.62885 0.93375,-1.36547 1.53711,-1.91602 z"
           id="path92442" />
      </g>
      <g
         id="path90372">
        <path
           style="color:#000000;fill:#5e4c9b;stroke-width:0.00625;stroke-linecap:round;stroke-linejoin:round;-inkscape-stroke:none"
           d="m 124.69348,178.43248 c -2.50221,2.78751 -5.03503,5.55548 -7.51243,8.36054 -0.36708,0.51109 0.22948,0.95376 0.53906,1.30404 0.98183,1.05587 1.93544,2.13977 2.94554,3.16837 0.39142,0.29807 0.86706,0.0183 1.06983,-0.3604 2.20755,-2.88274 4.41017,-5.7705 6.5551,-8.70006 0.31758,-0.54481 -0.26759,-0.9645 -0.5705,-1.34073 -0.75622,-0.82262 -1.47542,-1.69376 -2.27562,-2.46658 -0.21817,-0.19335 -0.53563,-0.12753 -0.75098,0.0348 z"
           id="path92446" />
        <path
           style="color:#000000;fill:#4d3e7e;stroke-linecap:round;stroke-linejoin:round;-inkscape-stroke:none"
           d="m 125.06836,178.2793 c -0.13424,0.0126 -0.26885,0.0689 -0.37695,0.15039 l -0.002,0.002 c -2.50159,2.7868 -5.0349,5.55498 -7.51172,8.35938 -0.0921,0.12827 -0.12248,0.25348 -0.11328,0.37304 0.009,0.11956 0.0578,0.23431 0.12891,0.34375 0.14231,0.21889 0.36887,0.41692 0.52344,0.5918 a 0.00312531,0.00312531 0 0 0 0.002,0 c 0.98179,1.05583 1.93513,2.13929 2.94531,3.16797 0.19657,0.14969 0.41539,0.15457 0.60938,0.0742 0.19398,-0.0804 0.36313,-0.24559 0.46484,-0.43555 2.20755,-2.88274 4.40974,-5.76963 6.55469,-8.69922 0.15938,-0.27343 0.0921,-0.51772 -0.0527,-0.73828 -0.14479,-0.22056 -0.36638,-0.41963 -0.51757,-0.60742 -0.75615,-0.82254 -1.47502,-1.69381 -2.27539,-2.4668 -0.10978,-0.0973 -0.24467,-0.12788 -0.37891,-0.11523 z m 0,0.006 c 0.13224,-0.0125 0.26494,0.0202 0.37305,0.11523 0.80002,0.77265 1.52104,1.6441 2.27734,2.4668 0.15167,0.18786 0.37395,0.38668 0.51758,0.60547 0.14412,0.21954 0.20897,0.45908 0.0508,0.73046 -2.1449,2.92953 -4.34714,5.81649 -6.55469,8.69922 a 0.00312531,0.00312531 0 0 0 0,0.002 c -0.10105,0.18873 -0.27051,0.35195 -0.46289,0.43164 -0.19238,0.0797 -0.40671,0.0761 -0.60156,-0.0723 -1.01002,-1.02852 -1.96345,-2.11206 -2.94531,-3.16797 -0.15502,-0.17539 -0.38185,-0.374 -0.52344,-0.59179 -0.0708,-0.1089 -0.11982,-0.22367 -0.12891,-0.3418 -0.009,-0.11813 0.0219,-0.23992 0.11328,-0.36719 2.47706,-2.80467 5.00982,-5.57222 7.51172,-8.35937 0.10725,-0.0808 0.24018,-0.13788 0.37305,-0.15039 z"
           id="path92448" />
      </g>
    </g>
    <g
       id="g83899"
       transform="translate(0.35082,0.56541)"
       clip-path="url(#clipPath91840)">
      <g
         id="path74319">
        <path
           style="color:#000000;fill:#4d3e7e;stroke-width:1px;-inkscape-stroke:none"
           d="m 125.38614,177.75506 -8.98449,9.97504"
           id="path92290" />
        <path
           style="color:#000000;fill:#4d3e7e;-inkscape-stroke:none"
           d="m 125.01367,177.41992 -8.98437,9.97461 0.74414,0.66992 8.98437,-9.97461 z"
           id="path92292" />
      </g>
      <g
         id="path74321">
        <path
           style="color:#000000;fill:#4d3e7e;stroke-width:1px;-inkscape-stroke:none"
           d="m 129.29983,180.81014 -8.21443,10.88552"
           id="path92296" />
        <path
           style="color:#000000;fill:#4d3e7e;-inkscape-stroke:none"
           d="m 128.90039,180.50977 -8.21484,10.88476 0.79883,0.60156 8.21484,-10.88476 z"
           id="path92298" />
      </g>
      <g
         id="path74413">
        <path
           style="color:#000000;fill:#4d3e7e;stroke-width:1px;-inkscape-stroke:none"
           d="m 125.70809,197.54843 6.5205,-14.14495"
           id="path92302" />
        <path
           style="color:#000000;fill:#4d3e7e;-inkscape-stroke:none"
           d="m 131.77539,183.19336 -6.52148,14.14648 0.9082,0.41797 6.52148,-14.14453 z"
           id="path92304" />
      </g>
      <g
         id="path74415">
        <path
           style="color:#000000;fill:#4d3e7e;stroke-width:1px;-inkscape-stroke:none"
           d="m 130.12762,201.96883 6.10519,-15.46271"
           id="path92308" />
        <path
           style="color:#000000;fill:#4d3e7e;-inkscape-stroke:none"
           d="m 135.76758,186.32227 -6.10547,15.46289 0.92969,0.36718 6.10547,-15.46289 z"
           id="path92310" />
      </g>
      <g
         id="path74417">
        <path
           style="color:#000000;fill:#4d3e7e;stroke-width:1px;-inkscape-stroke:none"
           d="m 140.41602,193.59375 -9.75,11.58984"
           id="path92314" />
        <path
           style="color:#000000;fill:#4d3e7e;-inkscape-stroke:none"
           d="m 140.0332,193.27148 -9.75,11.58985 0.76563,0.64453 9.75,-11.58984 z"
           id="path92316" />
      </g>
      <g
         id="path74419">
        <path
           style="color:#000000;fill:#4d3e7e;stroke-width:1px;-inkscape-stroke:none"
           d="M 133.4043,207.1543 145.62782,194.794"
           id="path92320" />
        <path
           style="color:#000000;fill:#4d3e7e;-inkscape-stroke:none"
           d="m 145.27148,194.44336 -12.22265,12.35937 0.71094,0.70313 12.22265,-12.35938 z"
           id="path92322" />
      </g>
      <g
         id="path74421">
        <path
           style="color:#000000;fill:#4d3e7e;stroke-width:1px;-inkscape-stroke:none"
           d="m 146.25362,199.31823 -9.10143,12.7798"
           id="path92326" />
        <path
           style="color:#000000;fill:#4d3e7e;-inkscape-stroke:none"
           d="m 145.8457,199.02734 -9.10156,12.78125 0.81445,0.58008 9.10157,-12.78125 z"
           id="path92328" />
      </g>
      <g
         id="path74423">
        <path
           style="color:#000000;fill:#4d3e7e;stroke-width:1px;-inkscape-stroke:none"
           d="m 139.87695,213.91211 10.63885,-13.464"
           id="path92332" />
        <path
           style="color:#000000;fill:#4d3e7e;-inkscape-stroke:none"
           d="m 150.12305,200.13867 -10.63868,13.46289 0.78516,0.6211 10.63867,-13.46485 z"
           id="path92334" />
      </g>
      <g
         id="path74425">
        <path
           style="color:#000000;fill:#4d3e7e;stroke-width:1px;-inkscape-stroke:none"
           d="m 146.30349,217.60571 5.1896,-16.01794"
           id="path92338" />
        <path
           style="color:#000000;fill:#4d3e7e;-inkscape-stroke:none"
           d="m 151.01758,201.43359 -5.18946,16.01758 0.95118,0.3086 5.18945,-16.01758 z"
           id="path92340" />
      </g>
      <g
         id="path74427">
        <path
           style="color:#000000;fill:#4d3e7e;stroke-width:1px;-inkscape-stroke:none"
           d="m 154.00528,204.30983 -1.67325,13.75076"
           id="path92344" />
        <path
           style="color:#000000;fill:#4d3e7e;-inkscape-stroke:none"
           d="m 153.50977,204.25 -1.67383,13.75 0.99218,0.12109 1.67383,-13.75 z"
           id="path92346" />
      </g>
      <g
         id="path74429">
        <path
           style="color:#000000;fill:#4d3e7e;stroke-width:1px;-inkscape-stroke:none"
           d="m 157.11914,217.22659 0.85574,-15.10292"
           id="path92350" />
        <path
           style="color:#000000;fill:#4d3e7e;-inkscape-stroke:none"
           d="m 157.47656,202.0957 -0.85742,15.10352 1,0.0547 0.85547,-15.10157 z"
           id="path92352" />
      </g>
      <g
         id="path74431">
        <path
           style="color:#000000;fill:#4d3e7e;stroke-width:1px;-inkscape-stroke:none"
           d="m 161.56938,216.34331 3.23558,-16.05952"
           id="path92356" />
        <path
           style="color:#000000;fill:#4d3e7e;-inkscape-stroke:none"
           d="m 164.31445,200.18555 -3.23437,16.05859 0.97851,0.19727 3.23633,-16.0586 z"
           id="path92358" />
      </g>
      <g
         id="path74433">
        <path
           style="color:#000000;fill:#4d3e7e;stroke-width:1px;-inkscape-stroke:none"
           d="M 170.19734,214.28519 167.83357,198.3996"
           id="path92362" />
        <path
           style="color:#000000;fill:#4d3e7e;-inkscape-stroke:none"
           d="m 168.32812,198.32617 -0.98828,0.14649 2.36328,15.88671 0.98829,-0.14843 z"
           id="path92364" />
      </g>
      <g
         id="path74435">
        <path
           style="color:#000000;fill:#4d3e7e;stroke-width:1px;-inkscape-stroke:none"
           d="m 175.10937,199.66211 -0.12954,15.70262"
           id="path92368" />
        <path
           style="color:#000000;fill:#4d3e7e;-inkscape-stroke:none"
           d="m 174.60937,199.6582 -0.1289,15.70313 1,0.008 0.1289,-15.70312 z"
           id="path92370" />
      </g>
    </g>
  </g>
</svg>
