<?xml version="1.0" encoding="UTF-8" standalone="no"?>
<svg
   id="Layer_1"
   data-name="Layer 1"
   version="1.1"
   width="292.2"
   height="300.284"
   sodipodi:docname="ATL4.svg"
   inkscape:version="1.1.2 (b8e25be833, 2022-02-05)"
   xmlns:inkscape="http://www.inkscape.org/namespaces/inkscape"
   xmlns:sodipodi="http://sodipodi.sourceforge.net/DTD/sodipodi-0.dtd"
   xmlns="http://www.w3.org/2000/svg"
   xmlns:svg="http://www.w3.org/2000/svg">
  <sodipodi:namedview
     id="namedview61"
     pagecolor="#505050"
     bordercolor="#ffffff"
     borderopacity="1"
     inkscape:pageshadow="0"
     inkscape:pageopacity="0"
     inkscape:pagecheckerboard="1"
     showgrid="false"
     inkscape:zoom="3.0098522"
     inkscape:cx="149.509"
     inkscape:cy="137.21604"
     inkscape:window-width="1920"
     inkscape:window-height="1017"
     inkscape:window-x="-1928"
     inkscape:window-y="-8"
     inkscape:window-maximized="1"
     inkscape:current-layer="Layer_1" />
  <defs
     id="defs4">
    <style
       id="style2">.cls-1{fill:#f15d24}.cls-2{fill:#5e4c9b}.cls-3{fill:#f2ea1e}.cls-4{fill:#231f20}.cls-5{fill:#d08f2a}.cls-6{fill:#f6dd93}.cls-7{fill:#fff}</style>
    <clipPath
       clipPathUnits="userSpaceOnUse"
       id="clipPath33238">
      <g
         id="g33244">
        <path
           style="color:#000000;fill:#d08f2a;stroke-width:1px;stroke-linecap:round;-inkscape-stroke:none"
           d="m 124.43574,184.64143 21.23967,21.7507 c 0,0 3.52574,2.83755 8.52505,1.28309 l 16.89868,-4.89224 m 0,0 c 0,0 4.1902,1.5947 2.61903,6.1643 l -25.32791,6.8989 c 0,0 -3.52176,0.30722 -6.22818,-3.32169 -3.84687,-5.15807 -19.25943,-19.86628 -19.25943,-19.86628 l -2.71485,-2.77873 c 0,0 -0.22771,-0.5333 -0.48322,-2.09834 -0.25552,-1.56503 -1.88029,-2.75644 -1.88029,-2.75644 L 77.932033,144.01456 c 0,0 -0.734605,-2.8426 1.98024,-1.85248 l 40.371347,41.04208 c 0,0 1.82054,2.07605 4.15212,1.43727"
           id="path33240" />
        <path
           style="color:#000000;fill:#d08f2a;stroke-linecap:round;-inkscape-stroke:none"
           d="m 78.269531,141.57031 c -0.47915,0.19487 -0.746435,0.62869 -0.849609,1.01758 -0.206348,0.77777 0.02734,1.55273 0.02734,1.55273 l 0.0332,0.12696 40.013668,41.13476 0.0352,0.0254 c 0,0 1.47393,1.16141 1.68164,2.4336 0.26021,1.59383 0.51758,2.21484 0.51758,2.21484 l 0.0371,0.0859 2.78515,2.85156 0.006,0.006 c 0,0 3.85021,3.67488 8.17969,7.99219 4.32948,4.31731 9.15711,9.30742 11.02539,11.8125 2.83877,3.80638 6.67187,3.51953 6.67187,3.51953 l 0.0449,-0.004 25.62695,-6.98047 0.0859,-0.25 c 0.83583,-2.43095 0.12214,-4.21542 -0.81836,-5.2871 -0.9405,-1.07169 -2.09571,-1.50586 -2.09571,-1.50586 a 0.5,0.5 0 0 0 -0.16015,0.0723 0.5,0.5 0 0 0 -0.15625,-0.0859 l -16.9043,4.89454 h -0.004 c -4.76017,1.4801 -8.03989,-1.17745 -8.05468,-1.18946 l -21.20508,-21.71484 a 0.5,0.5 0 0 0 -0.0644,-0.0273 0.5,0.5 0 0 0 -0.16993,-0.0742 0.5,0.5 0 0 0 -0.1875,-0.0234 0.5,0.5 0 0 0 -0.0684,-0.008 c -2.00134,0.5483 -3.64257,-1.28516 -3.64257,-1.28516 l -0.01,-0.0117 -40.460934,-41.13281 -0.105469,-0.0391 c -0.744241,-0.27143 -1.335302,-0.31597 -1.814453,-0.1211 z m 0.376953,0.92578 c 0.136183,-0.0554 0.48271,-0.0502 1.015625,0.125 L 119.9082,183.5332 c 0,0 1.8369,2.03358 4.31055,1.60157 l 21.11914,21.6289 0.0234,0.0176 c 0,0 3.76059,2.99656 8.98828,1.37109 l 16.67578,-4.82617 c 0.10406,0.0422 0.88057,0.33941 1.5957,1.1543 0.72786,0.82938 1.23782,2.0979 0.64649,4.07031 l -24.93946,6.79492 c -0.0321,0.003 -3.20453,0.31295 -5.76562,-3.12109 -1.97859,-2.65299 -6.78063,-7.59557 -11.11914,-11.92188 -4.33223,-4.32004 -8.17246,-7.98351 -8.18359,-7.99414 l -0.006,-0.006 c -1e-5,0 -0.006,-0.006 -0.006,-0.006 l -2.61328,-2.67578 c -0.012,-0.0278 -0.19459,-0.43202 -0.4375,-1.91992 -0.30334,-1.85787 -2.07813,-3.08008 -2.07813,-3.08008 l 0.0644,0.0547 -39.769528,-40.88476 c -0.01975,-0.10285 -0.122569,-0.58639 -0.02734,-0.94532 0.05253,-0.19799 0.113105,-0.28996 0.259765,-0.34961 z"
           id="path33242" />
      </g>
    </clipPath>
    <clipPath
       clipPathUnits="userSpaceOnUse"
       id="clipPath33392">
      <g
         id="g33398">
        <path
           style="color:#000000;fill:#d08f2a;stroke-width:1px;stroke-linecap:round;-inkscape-stroke:none"
           d="m 124.43574,184.64143 21.23967,21.7507 c 0,0 3.52574,2.83755 8.52505,1.28309 l 16.89868,-4.89224 m 0,0 c 0,0 4.1902,1.5947 2.61903,6.1643 l -25.32791,6.8989 c 0,0 -3.52176,0.30722 -6.22818,-3.32169 -3.84687,-5.15807 -19.25943,-19.86628 -19.25943,-19.86628 l -2.71485,-2.77873 c 0,0 -0.22771,-0.5333 -0.48322,-2.09834 -0.25552,-1.56503 -1.88029,-2.75644 -1.88029,-2.75644 L 77.932033,144.01456 c 0,0 -0.734605,-2.8426 1.98024,-1.85248 l 40.371347,41.04208 c 0,0 1.82054,2.07605 4.15212,1.43727"
           id="path33394" />
        <path
           style="color:#000000;fill:#d08f2a;stroke-linecap:round;-inkscape-stroke:none"
           d="m 78.269531,141.57031 c -0.47915,0.19487 -0.746435,0.62869 -0.849609,1.01758 -0.206348,0.77777 0.02734,1.55273 0.02734,1.55273 l 0.0332,0.12696 40.013668,41.13476 0.0352,0.0254 c 0,0 1.47393,1.16141 1.68164,2.4336 0.26021,1.59383 0.51758,2.21484 0.51758,2.21484 l 0.0371,0.0859 2.78515,2.85156 0.006,0.006 c 0,0 3.85021,3.67488 8.17969,7.99219 4.32948,4.31731 9.15711,9.30742 11.02539,11.8125 2.83877,3.80638 6.67187,3.51953 6.67187,3.51953 l 0.0449,-0.004 25.62695,-6.98047 0.0859,-0.25 c 0.83583,-2.43095 0.12214,-4.21542 -0.81836,-5.2871 -0.9405,-1.07169 -2.09571,-1.50586 -2.09571,-1.50586 a 0.5,0.5 0 0 0 -0.16015,0.0723 0.5,0.5 0 0 0 -0.15625,-0.0859 l -16.9043,4.89454 h -0.004 c -4.76017,1.4801 -8.03989,-1.17745 -8.05468,-1.18946 l -21.20508,-21.71484 a 0.5,0.5 0 0 0 -0.0644,-0.0273 0.5,0.5 0 0 0 -0.16993,-0.0742 0.5,0.5 0 0 0 -0.1875,-0.0234 0.5,0.5 0 0 0 -0.0684,-0.008 c -2.00134,0.5483 -3.64257,-1.28516 -3.64257,-1.28516 l -0.01,-0.0117 -40.460934,-41.13281 -0.105469,-0.0391 c -0.744241,-0.27143 -1.335302,-0.31597 -1.814453,-0.1211 z m 0.376953,0.92578 c 0.136183,-0.0554 0.48271,-0.0502 1.015625,0.125 L 119.9082,183.5332 c 0,0 1.8369,2.03358 4.31055,1.60157 l 21.11914,21.6289 0.0234,0.0176 c 0,0 3.76059,2.99656 8.98828,1.37109 l 16.67578,-4.82617 c 0.10406,0.0422 0.88057,0.33941 1.5957,1.1543 0.72786,0.82938 1.23782,2.0979 0.64649,4.07031 l -24.93946,6.79492 c -0.0321,0.003 -3.20453,0.31295 -5.76562,-3.12109 -1.97859,-2.65299 -6.78063,-7.59557 -11.11914,-11.92188 -4.33223,-4.32004 -8.17246,-7.98351 -8.18359,-7.99414 l -0.006,-0.006 c -1e-5,0 -0.006,-0.006 -0.006,-0.006 l -2.61328,-2.67578 c -0.012,-0.0278 -0.19459,-0.43202 -0.4375,-1.91992 -0.30334,-1.85787 -2.07813,-3.08008 -2.07813,-3.08008 l 0.0644,0.0547 -39.769528,-40.88476 c -0.01975,-0.10285 -0.122569,-0.58639 -0.02734,-0.94532 0.05253,-0.19799 0.113105,-0.28996 0.259765,-0.34961 z"
           id="path33396" />
      </g>
    </clipPath>
  </defs>
  <g
     id="SlHar6"
     transform="translate(-104.42 -286.276)">
    <path
       class="cls-1"
       d="M150.51 369.93a31.64 31.64 0 0 1-3.84-2.66c-1.6-1.15-1.59-1.18-3.19 0-1.29.91-2.57 1.85-3.89 2.81-.17-.33 0-.57.08-.8.53-1.65 1.06-3.3 1.63-4.94a.88.88 0 0 0-.37-1.17c-1.48-1-2.92-2.13-4.38-3.2-.13-.1-.25-.22-.53-.47h2.33c1.32 0 2.65 0 4-.07a.7.7 0 0 0 .75-.59c.61-2 1.26-3.89 2-6 .55 1.66 1.07 3.13 1.52 4.62.61 2 .59 2.05 2.75 2.05h4.84l-2.44 1.79c-.89.66-1.76 1.33-2.66 2a.72.72 0 0 0-.3 1c.57 1.67 1.1 3.34 1.63 5 .07.23.11.47.16.71z"
       id="path6"
       style="fill:#f15d24" />
    <path
       class="cls-1"
       d="m150.53 369.91.06.08-.08-.06z"
       id="path8"
       style="fill:#f15d24" />
  </g>
  <circle
     class="cls-4"
     cx="-117.008"
     cy="177.274"
     r="142.45"
     transform="rotate(-76.72)"
     id="circle179"
     style="fill:#231f20" />
  <path
     class="cls-6"
     d="M145.66 300.284C65.34 300.284 0 234.944 0 154.624S65.34 8.964 145.66 8.964s145.66 65.34 145.66 145.66-65.35 145.66-145.66 145.66zm0-284.91c-76.79 0-139.25 62.47-139.25 139.25s62.46 139.25 139.25 139.25c76.79 0 139.25-62.47 139.25-139.25s-62.47-139.25-139.25-139.25z"
     id="path181"
     style="fill:#f6dd93" />
  <path
     class="cls-2"
     d="M145.66 241.494a86.87 86.87 0 1 1 86.92-86.87 87 87 0 0 1-86.92 86.87z"
     id="path183"
     style="fill:#5e4c9b" />
  <path
     class="cls-2"
     d="M145.66 244.584a90 90 0 1 1 90-90 90.05 90.05 0 0 1-90 90zm0-173.74a83.79 83.79 0 1 0 83.78 83.78 83.88 83.88 0 0 0-83.78-83.78z"
     id="path185"
     style="fill:#5e4c9b" />
  <path
     class="cls-6"
     d="m102.42 105.644-13.17.82s-7 1.65-7 10.3v12.76"
     id="path187"
     style="fill:#f6dd93" />
  <path
     class="cls-6"
     d="M82.25 132.724a3.2 3.2 0 0 1-3.2-3.2v-12.8c0-8.85 6.19-12.65 9.47-13.42a3.07 3.07 0 0 1 .53-.07l13.17-.83a3.21 3.21 0 1 1 .4 6.4l-12.82.8c-.92.31-4.35 1.82-4.35 7.12v12.8a3.2 3.2 0 0 1-3.2 3.2z"
     id="path189"
     style="fill:#f6dd93" />
  <path
     class="cls-6"
     d="m83.15 132.974-10.57 7.88s-5 5.2-.25 12.45l7 10.69"
     id="path191"
     style="fill:#f6dd93" />
  <path
     class="cls-6"
     d="M79.28 167.204a3.21 3.21 0 0 1-2.7-1.48l-7-10.7c-4.82-7.41-1.7-14 .62-16.4a3.52 3.52 0 0 1 .41-.36l10.59-7.88a3.202 3.202 0 0 1 3.82 5.14l-10.31 7.67c-.6.76-2.65 3.9.24 8.34l7 10.69a3.22 3.22 0 0 1-.94 4.44 3.18 3.18 0 0 1-1.73.54z"
     id="path193"
     style="fill:#f6dd93" />
  <path
     class="cls-6"
     d="m80.99 164.264-6.93 11.23s-2.69 6.67 4.37 11.66l10.42 7.36"
     id="path195"
     style="fill:#f6dd93" />
  <path
     class="cls-6"
     d="M88.85 197.724a3.18 3.18 0 0 1-1.85-.59l-10.42-7.36c-7.23-5.11-6.75-12.36-5.49-15.48a4.3 4.3 0 0 1 .24-.48l6.93-11.23a3.21 3.21 0 1 1 5.46 3.36l-6.75 10.94c-.28.92-1 4.6 3.3 7.65l10.43 7.37a3.2 3.2 0 0 1-1.85 5.82z"
     id="path197"
     style="fill:#f6dd93" />
  <path
     class="cls-6"
     d="m89.39 195.194 2.06 13s2.3 6.81 10.91 6l12.7-1.2"
     id="path199"
     style="fill:#f6dd93" />
  <path
     class="cls-6"
     d="M100.98 217.504a13 13 0 0 1-12.57-8.25 3 3 0 0 1-.12-.52l-2.07-13a3.204 3.204 0 0 1 6.33-1l2 12.7c.39.88 2.21 4.15 7.49 3.65l12.71-1.2a3.204 3.204 0 1 1 .6 6.38l-12.7 1.2c-.57.01-1.13.04-1.67.04z"
     id="path201"
     style="fill:#f6dd93" />
  <path
     class="cls-6"
     d="m116.75 215.084 6.49 11.5s4.54 5.57 12.32 1.8l11.48-5.58"
     id="path203"
     style="fill:#f6dd93" />
  <path
     class="cls-6"
     d="M130.32 232.884a12.66 12.66 0 0 1-9.56-4.28 2.77 2.77 0 0 1-.31-.45l-6.49-11.49a3.204 3.204 0 0 1 5.58-3.15l6.32 11.21c.68.68 3.53 3.11 8.3.79l11.48-5.57a3.202 3.202 0 0 1 2.8 5.76l-11.48 5.58a15.17 15.17 0 0 1-6.64 1.6z"
     id="path205"
     style="fill:#f6dd93" />
  <path
     class="cls-6"
     d="m152.93 221.464 11.7 6.12s6.84 2.21 11.31-5.18l6.64-10.92"
     id="path207"
     style="fill:#f6dd93" />
  <path
     class="cls-6"
     d="M166.95 231.104a11.24 11.24 0 0 1-3.31-.47 4.4 4.4 0 0 1-.5-.21l-11.7-6.12a3.212 3.212 0 0 1 3-5.68l11.39 6c.94.21 4.66.69 7.4-3.84l6.61-10.92a3.204 3.204 0 1 1 5.48 3.32l-6.61 10.92c-3.38 5.5-8.13 7-11.76 7z"
     id="path209"
     style="fill:#f6dd93" />
  <path
     class="cls-6"
     d="m185.74 209.564 13.19-.43s7-1.44 7.3-10.08l.38-12.76"
     id="path211"
     style="fill:#f6dd93" />
  <path
     class="cls-6"
     d="M185.73 212.774a3.21 3.21 0 0 1-.1-6.41l12.85-.42c.92-.28 4.39-1.69 4.55-7l.38-12.76a3.201 3.201 0 1 1 6.4.19l-.38 12.75c-.26 8.85-6.56 12.46-9.86 13.13a2.39 2.39 0 0 1-.53.06l-13.2.44z"
     id="path213"
     style="fill:#f6dd93" />
  <circle
     class="cls-6"
     cx="145.66"
     cy="154.624"
     r="68.35"
     id="circle215"
     style="fill:#f6dd93" />
  <path
     class="cls-6"
     d="M145.66 226.174a71.55 71.55 0 1 1 71.55-71.55 71.63 71.63 0 0 1-71.55 71.55zm0-136.69a65.14 65.14 0 1 0 65.14 65.14 65.21 65.21 0 0 0-65.14-65.14z"
     id="path217"
     style="fill:#f6dd93" />
  <path
     class="cls-6"
     d="M145.66 226.174a71.55 71.55 0 1 1 71.55-71.55 71.63 71.63 0 0 1-71.55 71.55zm0-136.69a65.14 65.14 0 1 0 65.14 65.14 65.21 65.21 0 0 0-65.14-65.14z"
     id="path227"
     style="fill:#f6dd93" />
  <path
     class="cls-5"
     d="M130.29 236.304c-5.45 0-10.44-2.41-13.08-6.44a23.09 23.09 0 0 1-2.15-4.56c-.67-1.78-1.25-3.32-2.28-4.22-1.63-1.42-4.11-1.22-8-.72-3.28.41-7 .89-10.48-.45-4.56-1.76-7.79-6.21-9.62-13.24l-.54-2.18c-.88-3.67-1.72-7.13-3.86-9.49a22.74 22.74 0 0 0-4.3-3.35c-3-2-6.32-4.21-7.71-8.22-1.51-4.38.11-8.5 1.54-12.13 1-2.63 2-5.11 1.71-7.31-.29-2.2-1.77-4.21-3.35-6.42-2.17-3-4.63-6.47-4.42-10.88.25-5.27 4.2-9 7.37-12l.34-.31c3.63-3.41 4.34-6.38 4.49-11.36v-3.09c-.07-4.49-.14-9.58 3.13-13.92 4.69-6.24 13.2-6.81 20-7.27 1.5-.1 2.91-.19 4.19-.34l.7 6.14c-1.42.16-2.91.26-4.48.36-5.87.4-12.53.84-15.52 4.82-2 2.65-1.94 6.28-1.89 10.12v3.36c-.18 6.12-1.32 10.88-6.43 15.68l-.34.32c-2.61 2.44-5.3 5-5.43 7.73-.11 2.27 1.46 4.46 3.27 7s4 5.56 4.46 9.22c.46 3.66-.88 7.27-2.1 10.36-1.22 3.09-2.21 5.64-1.44 7.86.71 2 2.83 3.46 5.29 5.1a27.54 27.54 0 0 1 5.46 4.35c3.19 3.52 4.3 8.12 5.29 12.17.17.7.33 1.4.51 2.09 1.3 5 3.27 8 5.86 9 2 .79 4.67.45 7.47.09 4.23-.54 9-1.15 12.86 2.21 2.18 1.91 3.14 4.44 4 6.67a18.9 18.9 0 0 0 1.53 3.37c1.94 2.94 6 3.91 9.25 3.57 4.05-.44 7.87-2.52 11.38-4.7l.28-.17a17.86 17.86 0 0 1 6.14-2.78c4.57-.86 8.54 1.32 12 3.24 2.85 1.57 5.55 3.05 7.94 2.58 2.58-.51 4.36-3.08 6.42-6.06a28.28 28.28 0 0 1 5.75-6.69c3.63-2.8 8.11-3.6 12-4.13l1-.13c3.26-.43 6.33-.84 8.85-2.19 2.52-1.35 2.95-2.81 3.9-6.31.14-.52.28-1 .44-1.59l5.93 1.71c-.15.51-.28 1-.41 1.49-1 3.68-2 7.49-6.93 10.13-3.52 1.9-7.31 2.4-11 2.88l-.94.13c-3.11.42-6.64 1-9.07 2.9a23.27 23.27 0 0 0-4.44 5.31c-2.47 3.57-5.27 7.61-10.31 8.61-4.59.9-8.58-1.29-12.11-3.22-2.84-1.56-5.53-3-7.92-2.59a13.36 13.36 0 0 0-4 2l-.28.18c-3.94 2.44-8.68 5-14 5.59a19.11 19.11 0 0 1-1.92.12z"
     id="path229"
     style="fill:#d08f2a" />
  <path
     class="cls-7"
     d="M91.24 244.724c.09-.23.23-.28.45-.16l2 1.17a.35.35 0 0 1 .16.5l-1.2 2.55 1.4.79 1.57-2.34a.37.37 0 0 1 .52-.12l2.06 1.17c.21.12.24.27.09.47l-10.31 14.23a.39.39 0 0 1-.55.12l-3-1.7a.38.38 0 0 1-.18-.52zm.21 6.7-3.05 6.37.18.1 3.91-5.88z"
     id="path231"
     style="fill:#fff" />
  <path
     class="cls-7"
     d="m53.88 235.724 1.7-1.58a.32.32 0 0 1 .51 0l1.26 1.35 10.84-10.06a.31.31 0 0 1 .51 0l1.58 1.69a.37.37 0 0 1 .09.25.33.33 0 0 1-.11.27l-10.84 10.08 1.24 1.34a.32.32 0 0 1 0 .51l-1.7 1.57a.32.32 0 0 1-.51 0l-4.57-4.92a.32.32 0 0 1 0-.5z"
     id="path233"
     style="fill:#fff" />
  <path
     class="cls-7"
     d="m47.19 196.834 2.1-1a.31.31 0 0 1 .48.17l1.48 3.19 1 2.1a.32.32 0 0 1-.18.48l-15.85 7.36a.32.32 0 0 1-.48-.18l-1-2.1a.31.31 0 0 1 .17-.48l13.42-6.23-1.36-2.93a.32.32 0 0 1 .22-.38z"
     id="path235"
     style="fill:#fff" />
  <path
     class="cls-7"
     d="M41.17 163.124a.27.27 0 0 1 .4.26l.29 2.35a.37.37 0 0 1-.32.43l-2.76.55.2 1.6 2.81-.14a.37.37 0 0 1 .41.35l.29 2.34c0 .24-.08.36-.32.36l-17.58.21a.38.38 0 0 1-.41-.37l-.42-3.41a.37.37 0 0 1 .31-.45zm-5.25 4.16-6.94 1.35v.21l7-.38z"
     id="path237"
     style="fill:#fff" />
  <path
     class="cls-7"
     d="m26.74 125.374 17.12 3.51a.32.32 0 0 1 .28.43l-.33 1.63a.5.5 0 0 1-.16.27.61.61 0 0 1-.27.15l-9 1 8.41 1.72a.32.32 0 0 1 .28.43l-.49 2.21a.32.32 0 0 1-.43.28l-17.12-3.51a.32.32 0 0 1-.28-.43l.34-1.68a.54.54 0 0 1 .16-.27.61.61 0 0 1 .27-.15l8.72-1-8.15-1.67a.32.32 0 0 1-.28-.43l.46-2.27a.33.33 0 0 1 .47-.22z"
     id="path239"
     style="fill:#fff" />
  <path
     class="cls-7"
     d="m41.81 89.234 2 1.16a.32.32 0 0 1 .14.49l-.92 1.6 12.81 7.39a.33.33 0 0 1 .14.5l-1.16 2a.32.32 0 0 1-.21.16.33.33 0 0 1-.29 0l-12.81-7.39-.93 1.58a.32.32 0 0 1-.5.13l-2-1.16a.31.31 0 0 1-.14-.49l3.35-5.81a.32.32 0 0 1 .52-.16z"
     id="path241"
     style="fill:#fff" />
  <path
     class="cls-7"
     d="M78.5 72.994a.28.28 0 0 1 0 .48l-1.74 1.6a.36.36 0 0 1-.53 0l-2-1.93-1.19 1.09 1.74 2.21a.37.37 0 0 1 0 .53l-1.75 1.6a.27.27 0 0 1-.47-.06l-10.36-14.2a.38.38 0 0 1 .06-.55l2.53-2.32a.39.39 0 0 1 .56 0zm-6.43-1.87-5.12-4.86-.16.14 4.4 5.53z"
     id="path243"
     style="fill:#fff" />
  <path
     class="cls-7"
     d="M145.25 271.984a118.63 118.63 0 0 1-13.08-.73l.68-6.13a113.8 113.8 0 0 0 12.4.68 110.54 110.54 0 0 0 102.88-69.32l5.72 2.32a116.7 116.7 0 0 1-108.6 73.18z"
     id="path245"
     style="fill:#fff" />
  <path
     class="cls-5"
     d="M288.87 152.804v45.28h-68.58c-34.95-2.64-40.88-33-40.88-33-78.47 0-77.81-58-77.81-58v-39.59c3.3-54.07 39.56-56 39.56-56h27.67s46.84-5.28 50.79 35.61h20.45c45.5-.66 48.8 34.28 48.8 34.28v71.47z"
     id="path247"
     style="fill:#d08f2a" />
  <path
     class="cls-5"
     d="M292.16 201.374h-72.12c-30.74-2.32-40.63-25.12-43.14-33-26.95-.43-47.6-7.71-61.4-21.67a59.81 59.81 0 0 1-17.2-39.68v-39.73c1-16.11 5.65-38 22.3-50.72 10.17-7.78 20-8.4 20.37-8.42h27.67c2.49-.25 24.68-2.07 40.11 10.44 7.54 6.13 12.17 14.55 13.83 25.13h17.54c47.91-.7 52 36.89 52.08 37.27v120.38zm-71.74-6.59h65.16V81.514c-.29-2.5-4.56-31.18-44.24-31.18h-24.7l-.29-3c-1-10.17-4.92-18.12-11.71-23.64-13.84-11.24-35.22-9-35.44-9h-27.93c-2.13.16-33.31 3.36-36.37 52.86v39.49a54 54 0 0 0 15.37 35.09c12.94 13 32.84 19.64 59.14 19.64h2.71l.52 2.66c.23 1.17 5.94 27.88 37.78 30.35z"
     id="path249"
     style="fill:#d08f2a" />
  <path
     class="cls-4"
     d="M288.87 144.884v45.28h-68.58c-34.95-2.64-40.88-33-40.88-33-78.47 0-77.81-58-77.81-58v-39.59c3.3-54.07 39.56-56.05 39.56-56.05h27.67s46.84-5.28 50.79 35.61h20.45c45.5-.66 48.8 34.28 48.8 34.28z"
     id="path251"
     style="fill:#231f20" />
  <path
     class="cls-6"
     d="M292.16 193.464h-72.12c-30.74-2.32-40.63-25.13-43.14-33-26.95-.43-47.6-7.71-61.4-21.67a59.81 59.81 0 0 1-17.2-39.68v-39.74c1-16.11 5.65-38 22.3-50.72 10.17-7.78 20-8.4 20.37-8.42h27.67c2.49-.25 24.68-2.07 40.11 10.44 7.53 6.11 12.16 14.56 13.77 25.17h17.54c47.91-.7 52 36.9 52.08 37.27v120.35zm-71.74-6.6h65.16V73.594c-.29-2.5-4.56-31.18-44.24-31.18h-24.7l-.29-3c-1-10.17-4.92-18.12-11.71-23.64-13.84-11.24-35.22-9-35.44-9h-27.93c-2.13.15-33.31 3.35-36.37 52.85v39.49a54 54 0 0 0 15.37 35.09c12.94 13 32.84 19.64 59.14 19.64h2.71l.52 2.67c.23 1.21 5.94 27.88 37.78 30.35z"
     id="path253"
     style="fill:#f6dd93" />
  <path
     class="cls-3"
     d="M170.85 87.254c-17.36-1.44-28-12.55-27.87-29 .08-8.89 2.47-17 6.71-22.91 5-6.94 12.39-10.65 21.35-10.74l.05 5.28c-10.91.1-22.63 7.62-22.84 28.42-.13 13.61 8.48 22.46 23 23.68z"
     id="path255"
     style="fill:#f2ea1e" />
  <path
     class="cls-3"
     d="M179.3 87.264h-21.65c-17.35-1.44-28-12.55-27.87-29 .09-8.89 2.47-17 6.72-22.91 4.89-6.78 12.05-10.48 20.73-10.73h23.07c4.32 0 7.64 1.29 9.86 3.82a12.18 12.18 0 0 1 2.67 8.86v11.06h-17.81v-11.87a4.53 4.53 0 0 0-1.83-3.64c-2.57-2.17-6.79-2.84-7.57-2.95h-7.75c-10.88.1-22.61 7.62-22.82 28.42-.13 13.58 8.44 22.42 22.93 23.67h16v-12.2h5.28zm1-44.18h7.28v-6.28a7 7 0 0 0-1.4-4.91c-1.18-1.32-3.15-2-5.87-2h-2.58a9.61 9.61 0 0 1 2.58 6.59z"
     id="path257"
     style="fill:#f2ea1e" />
  <path
     class="cls-3"
     d="M243.44 122.894c-17.35-1.45-28-12.55-27.87-29 .2-20.41 8.75-30.84 25.42-31v5.27c-13.61.13-20 8.32-20.2 25.78-.13 13.62 8.48 22.47 23 23.68z"
     id="path259"
     style="fill:#f2ea1e" />
  <path
     class="cls-3"
     d="M250.58 122.904h-20.34c-17.35-1.45-28-12.55-27.87-29 .19-19 10.43-30.56 27.45-31h20.43c4.32 0 7.64 1.28 9.86 3.82a12.06 12.06 0 0 1 2.67 8.85v11.06h-17.81v-11.86a4.55 4.55 0 0 0-1.82-3.65 15.24 15.24 0 0 0-5.12-2.95h-7.57c-20.36.2-22.74 18.1-22.82 25.78-.13 13.58 8.44 22.43 22.93 23.67h14.73v-9.58h17.76v13.85h-5.28v-8.57h-7.2zm-.32-41.54h7.25v-6.28a7.09 7.09 0 0 0-1.41-4.92c-1.18-1.32-3.15-2-5.87-2h-2.58a9.64 9.64 0 0 1 2.58 6.6z"
     id="path261"
     style="fill:#f2ea1e" />
  <path
     class="cls-3"
     d="M195.46 70.124h-40.22v-16.49h40.22zm-34.95-5.28h29.67v-5.93h-29.67z"
     id="path263"
     style="fill:#f2ea1e" />
  <path
     class="cls-3"
     id="rect265"
     style="fill:#f2ea1e"
     d="M186.56 69.134h5.28v32.65h-5.28z" />
  <path
     class="cls-2"
     d="M267.77 147.924h-44.84c-26.85 0-31.55-24.89-31.6-25.15l6.5-1.14-3.25.57 3.24-.58c.15.8 3.87 19.7 25.11 19.7h44.84z"
     id="path267"
     style="fill:#5e4c9b" />
  <path
     class="cls-2"
     d="M267.77 169.044h-44.84c-26.85 0-31.55-24.9-31.6-25.15l-.05-.28v-28.21h6.6v27.6c.51 2.38 4.87 19.44 25.05 19.44h44.84z"
     id="path269"
     style="fill:#5e4c9b" />
  <path
     class="cls-2"
     d="M176.7 113.604h-22.4c-26.85 0-31.56-24.89-31.6-25.14l6.49-1.15-3.24.58 3.24-.59c.15.81 3.87 19.71 25.11 19.71h22.4z"
     id="path271"
     style="fill:#5e4c9b" />
  <path
     class="cls-2"
     d="M176.7 134.724h-22.4c-26.85 0-31.56-24.89-31.6-25.14l-.05-.29v-28.21h6.59v27.64c.51 2.38 4.88 19.45 25.06 19.45h22.4z"
     id="path273"
     style="fill:#5e4c9b" />
  <path
     class="cls-2"
     id="rect275"
     style="fill:#5e4c9b"
     d="M261.25 146.394h6.59v9.47h-6.59z" />
  <path
     class="cls-2"
     id="rect277"
     style="fill:#5e4c9b"
     d="M241.35 146.394h6.59v9.47h-6.59z" />
  <path
     class="cls-2"
     id="rect279"
     style="fill:#5e4c9b"
     d="M220.5 146.394h6.59v9.47h-6.59z" />
  <path
     class="cls-2"
     id="rect281"
     style="fill:#5e4c9b"
     d="M169.71 111.984h6.59v8.52h-6.59z" />
  <path
     class="cls-2"
     id="rect283"
     style="fill:#5e4c9b"
     d="M149.81 111.984h6.59v8.52h-6.59z" />
  <g
     id="g44776"
     transform="translate(2.6953808,-2.2318419)">
    <path
       id="path1679"
       style="fill:#d08f2a;fill-opacity:1;stroke:#d08f2a;stroke-width:1px;stroke-linecap:round;stroke-linejoin:miter;stroke-opacity:1"
       d="m 124.43574,184.64143 21.23967,21.7507 c 0,0 3.52574,2.83755 8.52505,1.28309 l 16.89868,-4.89224 m 0,0 c 0,0 4.1902,1.5947 2.61903,6.1643 l -25.32791,6.8989 c 0,0 -3.52176,0.30722 -6.22818,-3.32169 -3.84687,-5.15807 -19.25943,-19.86628 -19.25943,-19.86628 l -2.71485,-2.77873 c 0,0 -0.22771,-0.5333 -0.48322,-2.09834 -0.25552,-1.56503 -1.88029,-2.75644 -1.88029,-2.75644 L 77.932033,144.01456 c 0,0 -0.734605,-2.8426 1.98024,-1.85248 l 40.371347,41.04208 c 0,0 1.82054,2.07605 4.15212,1.43727"
       sodipodi:nodetypes="cccccccsccsccccc" />
    <g
       id="g32803"
       clip-path="url(#clipPath33238)"
       style="fill:#5e4c9b;fill-opacity:1">
      <path
         style="opacity:1;fill:#5e4c9b;fill-opacity:1;stroke:none;stroke-width:0.0293663;stroke-linecap:round;stroke-linejoin:round;stroke-opacity:1"
         d="m 78.951236,140.8755 c -0.728409,-0.0344 -1.459904,0.33492 -1.83987,0.96118 -0.182648,0.33343 -0.330264,0.71163 -0.327388,1.09624 0.01903,0.40649 0.491598,0.70725 0.861504,0.51929 0.457089,-0.27205 0.86839,-0.62231 1.303766,-0.92987 0.288229,-0.24575 0.66656,-0.42305 0.847361,-0.77072 0.158919,-0.35289 -0.08702,-0.7975 -0.470378,-0.8506 -0.123369,-0.0237 -0.249753,-0.026 -0.374995,-0.0255 z"
         id="path31843" />
      <path
         style="opacity:1;fill:#5e4c9b;fill-opacity:1;stroke:none;stroke-width:0.0293663;stroke-linecap:round;stroke-linejoin:round;stroke-opacity:1"
         d="m 80.290387,141.41161 c -0.354182,0.11043 -0.61351,0.40247 -0.922033,0.59749 -0.750626,0.56786 -1.533916,1.09605 -2.251309,1.70593 -0.29613,0.25163 -0.283214,0.72547 -0.01549,0.99261 0.229529,0.23961 0.439094,0.55482 0.786984,0.61973 0.377326,0.0192 0.666112,-0.26868 0.990599,-0.41766 0.914349,-0.52013 1.842188,-1.02109 2.745956,-1.55698 0.336108,-0.21276 0.326818,-0.73388 0.02256,-0.97169 -0.318857,-0.29901 -0.599673,-0.64476 -0.952622,-0.90422 -0.133778,-0.0612 -0.258199,-0.0812 -0.404648,-0.0652 z"
         id="path31882" />
      <path
         style="opacity:1;fill:#5e4c9b;fill-opacity:1;stroke:none;stroke-width:0.0293663;stroke-linecap:round;stroke-linejoin:round;stroke-opacity:1"
         d="m 81.888846,143.04884 c -0.579086,0.27063 -1.119709,0.62167 -1.683565,0.92414 -0.611107,0.35217 -1.23771,0.6817 -1.839159,1.04798 -0.333686,0.21141 -0.327345,0.72769 -0.02798,0.96757 0.606577,0.61014 1.189805,1.24507 1.818545,1.83234 0.284296,0.2177 0.718167,0.12265 0.902729,-0.17987 0.740316,-0.98327 1.479954,-1.96876 2.177389,-2.98283 0.173785,-0.29013 0.0381,-0.65341 -0.204962,-0.85801 -0.251811,-0.24046 -0.459363,-0.54365 -0.763501,-0.71731 -0.125705,-0.0534 -0.246335,-0.0524 -0.379499,-0.034 z"
         id="path31921" />
      <path
         style="opacity:1;fill:#5e4c9b;fill-opacity:1;stroke:none;stroke-width:0.0293663;stroke-linecap:round;stroke-linejoin:round;stroke-opacity:1"
         d="m 83.18888,144.5978 c -0.302748,0.21998 -0.470484,0.57477 -0.709663,0.85634 -0.575455,0.78711 -1.168882,1.56392 -1.727138,2.36183 -0.19298,0.29268 -0.03399,0.66144 0.214904,0.86457 0.245369,0.22409 0.42868,0.5392 0.734894,0.68143 0.308163,0.13624 0.61882,-0.0693 0.817886,-0.2967 0.84425,-0.80839 1.701771,-1.60635 2.529333,-2.43004 0.247357,-0.26444 0.153484,-0.69806 -0.119547,-0.90816 -0.382768,-0.37402 -0.721897,-0.80031 -1.147263,-1.1268 -0.190922,-0.0974 -0.400913,-0.0966 -0.593406,-0.002 z"
         id="path31960" />
      <path
         style="opacity:1;fill:#5e4c9b;fill-opacity:1;stroke:none;stroke-width:0.0293663;stroke-linecap:round;stroke-linejoin:round;stroke-opacity:1"
         d="m 85.152869,146.4219 c -0.332259,0.14776 -0.550245,0.4626 -0.825365,0.69081 -0.708129,0.68254 -1.433104,1.34932 -2.11996,2.05297 -0.226984,0.27765 -0.13357,0.68472 0.121115,0.9106 0.304995,0.31437 0.585518,0.66783 0.951188,0.91312 0.286256,0.13947 0.615445,0.01 0.811312,-0.22045 0.867716,-0.81707 1.747781,-1.6245 2.598268,-2.45769 0.249849,-0.26319 0.158487,-0.69881 -0.114615,-0.91029 -0.310731,-0.30336 -0.582532,-0.65426 -0.927748,-0.9185 -0.147267,-0.0911 -0.329156,-0.0992 -0.494195,-0.0606 z"
         id="path31999" />
      <path
         style="opacity:1;fill:#5e4c9b;fill-opacity:1;stroke:none;stroke-width:0.0293663;stroke-linecap:round;stroke-linejoin:round;stroke-opacity:1"
         d="m 86.924428,148.07811 c -0.389934,0.0467 -0.609421,0.41852 -0.895585,0.64383 -0.738034,0.70422 -1.501314,1.38579 -2.216186,2.112 -0.246112,0.26587 -0.14992,0.69935 0.124648,0.90787 0.550917,0.54385 1.060361,1.13495 1.653764,1.63308 0.30974,0.20992 0.760647,0.0609 0.901516,-0.28157 0.596774,-1.13547 1.190311,-2.27401 1.770647,-3.41719 0.146979,-0.30088 -0.02571,-0.62938 -0.260718,-0.8277 -0.262028,-0.25051 -0.468627,-0.58592 -0.80943,-0.73619 -0.0881,-0.0303 -0.176031,-0.037 -0.268656,-0.0341 z"
         id="path32038" />
      <path
         style="opacity:1;fill:#5e4c9b;fill-opacity:1;stroke:none;stroke-width:0.0293663;stroke-linecap:round;stroke-linejoin:round;stroke-opacity:1"
         d="m 88.346114,149.60166 c -0.402101,0.11308 -0.490918,0.56566 -0.68382,0.88038 -0.50763,1.00056 -1.04826,1.98608 -1.523557,3.00213 -0.112897,0.30884 0.07759,0.60261 0.295646,0.80702 0.473053,0.50829 0.954594,1.00956 1.449842,1.49605 0.286695,0.23449 0.75051,0.1369 0.916125,-0.19459 0.558634,-1.25061 1.126756,-2.49954 1.671102,-3.75508 0.128258,-0.32021 -0.102083,-0.62218 -0.334634,-0.82086 -0.43181,-0.43045 -0.837244,-0.89139 -1.285721,-1.30257 -0.136575,-0.12174 -0.331047,-0.14062 -0.504983,-0.11248 z"
         id="path32077" />
      <path
         style="opacity:1;fill:#5e4c9b;fill-opacity:1;stroke:none;stroke-width:0.0293663;stroke-linecap:round;stroke-linejoin:round;stroke-opacity:1"
         d="m 90.541535,151.84836 c -0.395553,0.10817 -0.474716,0.54982 -0.637559,0.86815 -0.472638,1.06888 -0.963184,2.13131 -1.422778,3.20506 -0.128002,0.3135 0.07572,0.62331 0.312504,0.81798 0.384504,0.37488 0.732423,0.79421 1.155054,1.12651 0.311809,0.20941 0.750049,0.0442 0.898831,-0.28639 0.651553,-1.09596 1.303227,-2.19248 1.92665,-3.30463 0.141374,-0.29586 -0.0052,-0.62945 -0.244337,-0.82501 -0.48411,-0.49348 -0.959041,-0.99929 -1.458777,-1.47535 -0.144041,-0.13116 -0.343345,-0.15955 -0.529588,-0.12632 z"
         id="path32116" />
      <path
         style="opacity:1;fill:#5e4c9b;fill-opacity:1;stroke:none;stroke-width:0.0293663;stroke-linecap:round;stroke-linejoin:round;stroke-opacity:1"
         d="m 92.899962,154.23495 c -0.334118,0.0424 -0.491252,0.35921 -0.63674,0.62162 -0.59161,1.01151 -1.207705,2.01127 -1.783575,3.03037 -0.187166,0.37055 0.109459,0.76853 0.416132,0.96041 0.305466,0.16934 0.63007,-0.0225 0.877038,-0.20601 1.002157,-0.66048 2.01832,-1.30383 3.008386,-1.98006 0.308625,-0.22646 0.281108,-0.7176 -0.0095,-0.94822 -0.473184,-0.4524 -0.905037,-0.95215 -1.414753,-1.3642 -0.133095,-0.0943 -0.295737,-0.12995 -0.457013,-0.11391 z"
         id="path32155" />
      <path
         style="opacity:1;fill:#5e4c9b;fill-opacity:1;stroke:none;stroke-width:0.0293663;stroke-linecap:round;stroke-linejoin:round;stroke-opacity:1"
         d="m 132.23371,191.64428 c -0.31976,0.17959 -0.48841,0.53161 -0.73031,0.79588 -1.39287,1.76952 -2.77726,3.54724 -4.15187,5.33008 -0.20507,0.27818 -0.094,0.67015 0.16689,0.87053 0.38609,0.37299 0.74671,0.77503 1.15496,1.12365 0.27564,0.18063 0.62977,0.0815 0.85064,-0.13892 1.92603,-1.49627 3.84989,-2.99724 5.76572,-4.50541 0.29806,-0.24317 0.25513,-0.72683 -0.0403,-0.9547 -0.80799,-0.81673 -1.59123,-1.65977 -2.42007,-2.45486 -0.18192,-0.11892 -0.39143,-0.14254 -0.59564,-0.0662 z"
         id="path32194" />
      <path
         style="opacity:1;fill:#5e4c9b;fill-opacity:1;stroke:none;stroke-width:0.0293663;stroke-linecap:round;stroke-linejoin:round;stroke-opacity:1"
         d="m 135.47995,194.83025 c -0.37404,0.15964 -0.65261,0.47668 -0.98451,0.70563 -1.70796,1.34 -3.42554,2.66969 -5.12729,4.0164 -0.28791,0.2374 -0.25782,0.70939 0.0279,0.93636 0.63271,0.62379 1.24788,1.26843 1.89148,1.87923 0.27437,0.24594 0.71408,0.13508 0.91369,-0.15294 1.67293,-1.74983 3.3847,-3.46268 5.05162,-5.21806 0.20951,-0.26867 0.13834,-0.65894 -0.10845,-0.87795 -0.37755,-0.40055 -0.75232,-0.80924 -1.15899,-1.17846 -0.13713,-0.12113 -0.33168,-0.13912 -0.5055,-0.11021 z"
         id="path32233" />
      <path
         style="opacity:1;fill:#5e4c9b;fill-opacity:1;stroke:none;stroke-width:0.0293663;stroke-linecap:round;stroke-linejoin:round;stroke-opacity:1"
         d="m 137.38033,196.77708 c -0.34955,0.12633 -0.54305,0.47381 -0.81355,0.70951 -1.53724,1.58712 -3.09466,3.15524 -4.60918,4.76405 -0.23292,0.27232 -0.15431,0.69575 0.11502,0.91444 0.81461,0.85162 1.64273,1.69095 2.47581,2.52423 0.29093,0.27941 0.80149,0.16859 0.97641,-0.18728 1.37603,-2.05986 2.7418,-4.12801 4.09827,-6.19994 0.18691,-0.29927 0.0295,-0.66442 -0.21501,-0.87693 -0.4959,-0.5101 -0.98508,-1.03016 -1.49826,-1.52129 -0.14392,-0.13132 -0.34322,-0.15986 -0.52951,-0.12679 z"
         id="path32272" />
      <path
         style="opacity:1;fill:#5e4c9b;fill-opacity:1;stroke:none;stroke-width:0.0293663;stroke-linecap:round;stroke-linejoin:round;stroke-opacity:1"
         d="m 139.74008,199.15541 c -0.39972,0.0952 -0.52984,0.53042 -0.75823,0.82169 -1.2567,1.90664 -2.52291,3.8071 -3.76929,5.72047 -0.16058,0.27273 -0.0707,0.61803 0.15673,0.82324 0.68684,0.75761 1.3961,1.49592 2.09828,2.23849 0.28774,0.25816 0.76778,0.15012 0.95264,-0.17879 1.4706,-1.98459 2.93487,-3.97429 4.37408,-5.98172 0.18361,-0.28146 0.0807,-0.65495 -0.16794,-0.86086 -0.78743,-0.82282 -1.57175,-1.64956 -2.38159,-2.45025 -0.14103,-0.11584 -0.32649,-0.15357 -0.50468,-0.13227 z"
         id="path32311" />
      <path
         style="opacity:1;fill:#5e4c9b;fill-opacity:1;stroke:none;stroke-width:0.0293663;stroke-linecap:round;stroke-linejoin:round;stroke-opacity:1"
         d="m 143.00651,202.46251 c -0.42921,0.0176 -0.60393,0.4627 -0.84331,0.74645 -1.3608,1.8556 -2.73016,3.70548 -4.0705,5.57575 -0.15716,0.27315 -0.0641,0.61139 0.15675,0.81904 0.53694,0.5908 1.05575,1.20093 1.60374,1.77988 0.25984,0.26059 0.71411,0.1781 0.91929,-0.11093 1.68294,-1.84577 3.35695,-3.70227 5.03155,-5.55406 0.23912,-0.27924 0.11599,-0.70447 -0.15991,-0.91098 -0.71924,-0.71959 -1.40378,-1.47554 -2.14945,-2.1678 -0.1361,-0.11469 -0.30858,-0.18476 -0.48816,-0.17735 z"
         id="path32350" />
      <path
         style="opacity:1;fill:#5e4c9b;fill-opacity:1;stroke:none;stroke-width:0.0293663;stroke-linecap:round;stroke-linejoin:round;stroke-opacity:1"
         d="m 145.79671,205.54632 c -0.35731,0.26591 -0.61107,0.64581 -0.9244,0.96013 -1.46643,1.62348 -2.94374,3.2387 -4.4034,4.86733 -0.23131,0.26809 -0.13603,0.66827 0.10735,0.89423 0.69805,0.85564 1.33557,1.77141 2.18247,2.49306 0.22177,0.24173 0.60755,0.38157 0.8947,0.16812 0.26867,-0.17895 0.32636,-0.53254 0.47964,-0.7989 1.1144,-2.43865 2.21255,-4.88602 3.305,-7.33379 0.13677,-0.32633 -0.0761,-0.69242 -0.39166,-0.81357 -0.30163,-0.14238 -0.55137,-0.39153 -0.8719,-0.48623 -0.13433,-0.0247 -0.25184,0.003 -0.3778,0.0496 z"
         id="path32389" />
      <path
         style="opacity:1;fill:#5e4c9b;fill-opacity:1;stroke:none;stroke-width:0.0293663;stroke-linecap:round;stroke-linejoin:round;stroke-opacity:1"
         d="m 147.7412,206.42634 c -0.31176,0.0396 -0.48362,0.32306 -0.58106,0.59318 -1.18037,2.6288 -2.3704,5.25445 -3.53927,7.88723 -0.10107,0.34305 0.13766,0.66389 0.43468,0.81025 0.82706,0.49131 1.73111,0.86594 2.67515,1.05765 0.35602,0.0427 0.66846,-0.25521 0.69677,-0.60235 0.32771,-2.0317 0.58189,-4.0747 0.87258,-6.11198 0.12575,-0.96995 0.28358,-1.93828 0.38849,-2.90946 0.0313,-0.37243 -0.3183,-0.61303 -0.64065,-0.69286 -0.099,-0.0325 -0.20309,-0.0438 -0.30669,-0.0317 z"
         id="path32428" />
      <path
         style="opacity:1;fill:#5e4c9b;fill-opacity:1;stroke:none;stroke-width:0.0293663;stroke-linecap:round;stroke-linejoin:round;stroke-opacity:1"
         d="m 148.81583,206.8861 c -0.32041,0.17496 -0.3239,0.56277 -0.36638,0.88021 -0.39034,2.80446 -0.77249,5.61096 -1.17197,8.41275 -0.0106,0.0271 -0.0199,0.24651 0.0332,0.34069 0.12543,0.34332 0.52106,0.43849 0.84922,0.40786 0.62005,-0.004 1.20534,-0.24703 1.80252,-0.38526 0.61266,-0.17536 1.23788,-0.31849 1.84018,-0.52355 0.32482,-0.13053 0.42268,-0.52247 0.32951,-0.83435 -0.49454,-2.40272 -1.05615,-4.79119 -1.58719,-7.18605 -0.092,-0.35193 -0.1004,-0.83012 -0.5026,-0.9794 -0.33207,-0.1067 -0.67971,-0.19339 -1.02937,-0.19972 -0.0657,0.0223 -0.13138,0.0446 -0.19707,0.0668 z"
         id="path32467" />
      <path
         style="opacity:1;fill:#5e4c9b;fill-opacity:1;stroke:none;stroke-width:0.0293663;stroke-linecap:round;stroke-linejoin:round;stroke-opacity:1"
         d="m 154.44178,206.49012 c -0.8018,0.20554 -1.59818,0.46162 -2.42937,0.52037 -0.42923,0.0607 -0.87609,-0.0208 -1.29493,0.10083 -0.33971,0.12129 -0.47534,0.53408 -0.34967,0.85636 0.5547,2.46388 1.09607,4.93194 1.6584,7.39335 0.0895,0.35814 0.51608,0.53081 0.84543,0.38994 0.44163,-0.13328 0.90499,-0.21726 1.33721,-0.38688 0.26738,-0.14238 0.34404,-0.44993 0.34471,-0.73054 0.2098,-2.509 0.41651,-5.01861 0.5875,-7.53053 0.005,-0.36978 -0.33184,-0.66943 -0.69928,-0.6129 z"
         id="path32506" />
      <path
         style="opacity:1;fill:#5e4c9b;fill-opacity:1;stroke:none;stroke-width:0.0293663;stroke-linecap:round;stroke-linejoin:round;stroke-opacity:1"
         d="m 156.89599,205.76594 c -0.5161,0.16162 -1.05177,0.2768 -1.55397,0.47456 -0.31065,0.1486 -0.34533,0.51595 -0.35415,0.81935 -0.19545,2.48877 -0.40469,4.97697 -0.55883,7.46861 -0.008,0.39203 0.40652,0.69645 0.77919,0.58205 0.74416,-0.19892 1.48949,-0.39553 2.22771,-0.61525 0.30662,-0.12004 0.42697,-0.46388 0.38539,-0.77093 -0.0459,-2.38675 -0.0876,-4.77402 -0.16976,-7.15976 0.0109,-0.30289 -0.0839,-0.66691 -0.40464,-0.76934 -0.1153,-0.0536 -0.22835,-0.0401 -0.35094,-0.0293 z"
         id="path32545" />
      <path
         style="opacity:1;fill:#5e4c9b;fill-opacity:1;stroke:none;stroke-width:0.0293663;stroke-linecap:round;stroke-linejoin:round;stroke-opacity:1"
         d="m 160.404,204.7649 c -0.84851,0.22346 -1.6924,0.46857 -2.53003,0.72997 -0.30394,0.1219 -0.42109,0.46468 -0.37979,0.77006 0.0423,2.48075 0.10405,4.96131 0.16505,7.44156 0.0383,0.41276 0.51585,0.65474 0.8857,0.49934 1.22302,-0.33192 2.45187,-0.64853 3.65897,-1.03458 0.3216,-0.12523 0.44604,-0.51026 0.34166,-0.82316 -0.47794,-2.37918 -0.95788,-4.75807 -1.45368,-7.13357 -0.0811,-0.29762 -0.38081,-0.50085 -0.68788,-0.44962 z"
         id="path32584" />
      <path
         style="opacity:1;fill:#5e4c9b;fill-opacity:1;stroke:none;stroke-width:0.0293663;stroke-linecap:round;stroke-linejoin:round;stroke-opacity:1"
         d="m 163.71867,203.82839 c -0.78473,0.17186 -1.555,0.41085 -2.3251,0.63975 -0.35753,0.0882 -0.54838,0.49428 -0.4358,0.83522 0.45688,2.36192 0.95346,4.72398 1.42209,7.07838 0.0291,0.32795 0.34976,0.6206 0.69533,0.57184 0.77601,-0.17176 1.53745,-0.41174 2.30678,-0.61353 0.34326,-0.12475 0.80218,-0.11918 1.00019,-0.47574 0.18302,-0.35973 -0.0609,-0.73676 -0.12919,-1.09374 -0.63448,-2.19108 -1.25731,-4.38607 -1.91967,-6.56873 -0.10973,-0.23928 -0.34829,-0.39341 -0.61463,-0.37345 z"
         id="path32623" />
      <path
         style="opacity:1;fill:#5e4c9b;fill-opacity:1;stroke:none;stroke-width:0.0293663;stroke-linecap:round;stroke-linejoin:round;stroke-opacity:1"
         d="m 167.84361,202.61898 c -0.75432,0.17029 -1.49111,0.41831 -2.23686,0.6247 -0.3681,0.12126 -0.75703,0.19535 -1.11006,0.35339 -0.30891,0.16488 -0.36765,0.56393 -0.23649,0.86448 0.67097,2.34847 1.33847,4.69853 2.03927,7.03805 0.12541,0.34559 0.54311,0.48819 0.87175,0.35252 0.75879,-0.20747 1.52542,-0.39505 2.27692,-0.62402 0.33099,-0.12071 0.446,-0.51311 0.34613,-0.82878 -0.43686,-2.4476 -0.8712,-4.89598 -1.33219,-7.33904 -0.0856,-0.27097 -0.33257,-0.45042 -0.61847,-0.4413 z"
         id="path32662" />
    </g>
    <g
       id="g31426"
       style="fill:#ffffff;stroke:#43366e;stroke-opacity:1"
       clip-path="url(#clipPath33392)">
      <path
         style="fill:#ffffff;stroke:#43366e;stroke-width:1px;stroke-linecap:butt;stroke-linejoin:miter;stroke-opacity:1"
         d="m 90.774833,150.9673 -2.563262,5.74524"
         id="path31275" />
      <path
         style="fill:#ffffff;stroke:#43366e;stroke-width:1px;stroke-linecap:butt;stroke-linejoin:miter;stroke-opacity:1"
         d="m 88.28125,149.46875 -2.75,5.3125"
         id="path31277" />
      <path
         style="fill:#ffffff;stroke:#43366e;stroke-width:1px;stroke-linecap:butt;stroke-linejoin:miter;stroke-opacity:1"
         d="m 83.53125,151.1875 3.28125,-3.09375"
         id="path31279" />
      <path
         style="fill:#ffffff;stroke:#43366e;stroke-width:1px;stroke-linecap:butt;stroke-linejoin:miter;stroke-opacity:1"
         d="M 85.3125,146.28125 81.6875,149.75"
         id="path31281" />
      <path
         style="fill:#ffffff;stroke:#43366e;stroke-width:1px;stroke-linecap:butt;stroke-linejoin:miter;stroke-opacity:1"
         d="M 80.5,148.28125 83.28125,144.5"
         id="path31283" />
      <path
         style="fill:#ffffff;stroke:#43366e;stroke-width:1px;stroke-linecap:butt;stroke-linejoin:miter;stroke-opacity:1"
         d="M 82.15625,142.96875 77,145.875"
         id="path31285" />
      <path
         style="fill:#ffffff;stroke:#43366e;stroke-width:1px;stroke-linecap:butt;stroke-linejoin:miter;stroke-opacity:1"
         d="M 76.9375,143.90625 80.53125,141.25"
         id="path31287" />
      <path
         style="fill:#ffffff;stroke:#43366e;stroke-width:1px;stroke-linecap:butt;stroke-linejoin:miter;stroke-opacity:1"
         d="m 90.5,158 2.4375,-4.125"
         id="path31289" />
      <path
         style="fill:#ffffff;stroke:#43366e;stroke-width:1px;stroke-linecap:butt;stroke-linejoin:miter;stroke-opacity:1"
         d="m 91.128386,158.96644 4.110058,-2.69584"
         id="path31291" />
      <path
         style="fill:#ffffff;stroke:#43366e;stroke-width:1px;stroke-linecap:butt;stroke-linejoin:miter;stroke-opacity:1"
         d="m 132.375,191.4375 -5.25,6.75"
         id="path31293" />
      <path
         style="fill:#ffffff;stroke:#43366e;stroke-width:1px;stroke-linecap:butt;stroke-linejoin:miter;stroke-opacity:1"
         d="m 129,199.9375 6.875,-5.375"
         id="path31295" />
      <path
         style="fill:#ffffff;stroke:#43366e;stroke-width:1px;stroke-linecap:butt;stroke-linejoin:miter;stroke-opacity:1"
         d="m 131.375,202.9375 6.875,-7.0625"
         id="path31297" />
      <path
         style="fill:#ffffff;stroke:#43366e;stroke-width:1px;stroke-linecap:butt;stroke-linejoin:miter;stroke-opacity:1"
         d="m 134.8125,206.4375 5,-7.5625"
         id="path31299" />
      <path
         style="fill:#ffffff;stroke:#43366e;stroke-width:1px;stroke-linecap:butt;stroke-linejoin:miter;stroke-opacity:1"
         d="m 137.5625,209.625 6,-8.1875"
         id="path31301" />
      <path
         style="fill:#ffffff;stroke:#43366e;stroke-width:1px;stroke-linecap:butt;stroke-linejoin:miter;stroke-opacity:1"
         d="m 140.0625,211.9375 6.625,-7.3125"
         id="path31303" />
      <path
         style="fill:#ffffff;stroke:#43366e;stroke-width:1px;stroke-linecap:butt;stroke-linejoin:miter;stroke-opacity:1"
         d="m 143.4375,215.5 4.1875,-9.3125"
         id="path31305" />
      <path
         style="fill:#ffffff;stroke:#43366e;stroke-width:1px;stroke-linecap:butt;stroke-linejoin:miter;stroke-opacity:1"
         d="m 147.3125,216.5625 1.3125,-9.4375"
         id="path31307" />
      <path
         style="fill:#ffffff;stroke:#43366e;stroke-width:1px;stroke-linecap:butt;stroke-linejoin:miter;stroke-opacity:1"
         d="m 152.125,215.4375 -1.875,-8.375"
         id="path31309" />
      <path
         style="fill:#ffffff;stroke:#43366e;stroke-width:1px;stroke-linecap:butt;stroke-linejoin:miter;stroke-opacity:1"
         d="m 154.4375,215.25 0.75,-9.75"
         id="path31311" />
      <path
         style="fill:#ffffff;stroke:#43366e;stroke-width:1px;stroke-linecap:butt;stroke-linejoin:miter;stroke-opacity:1"
         d="m 157.75,214.09375 -0.1875,-8.1875"
         id="path31313" />
      <path
         style="fill:#ffffff;stroke:#43366e;stroke-width:1px;stroke-linecap:butt;stroke-linejoin:miter;stroke-opacity:1"
         d="m 162.60937,213.0625 -1.6875,-8.29688"
         id="path31315" />
      <path
         style="fill:#ffffff;stroke:#43366e;stroke-width:1px;stroke-linecap:butt;stroke-linejoin:miter;stroke-opacity:1"
         d="M 166.4375,211.6875 164.125,203.75"
         id="path31317" />
      <path
         style="fill:#ffffff;stroke:#43366e;stroke-width:1px;stroke-linecap:butt;stroke-linejoin:miter;stroke-opacity:1"
         d="m 168.29687,202.5625 1.53125,8.46875"
         id="path31321" />
    </g>
  </g>
</svg>
