<?xml version="1.0" encoding="UTF-8" standalone="no"?>
<svg
   id="Layer_1"
   data-name="Layer 1"
   version="1.1"
   width="292.2"
   height="300.284"
   sodipodi:docname="ATL4.svg"
   inkscape:version="1.1.2 (b8e25be833, 2022-02-05)"
   xmlns:inkscape="http://www.inkscape.org/namespaces/inkscape"
   xmlns:sodipodi="http://sodipodi.sourceforge.net/DTD/sodipodi-0.dtd"
   xmlns="http://www.w3.org/2000/svg"
   xmlns:svg="http://www.w3.org/2000/svg">
  <sodipodi:namedview
     id="namedview61"
     pagecolor="#505050"
     bordercolor="#ffffff"
     borderopacity="1"
     inkscape:pageshadow="0"
     inkscape:pageopacity="0"
     inkscape:pagecheckerboard="1"
     showgrid="false"
     inkscape:zoom="8.5131477"
     inkscape:cx="146.18565"
     inkscape:cy="191.46854"
     inkscape:window-width="1920"
     inkscape:window-height="1017"
     inkscape:window-x="-1928"
     inkscape:window-y="-8"
     inkscape:window-maximized="1"
     inkscape:current-layer="Layer_1" />
  <defs
     id="defs4">
    <style
       id="style2">.cls-1{fill:#f15d24}.cls-2{fill:#5e4c9b}.cls-3{fill:#f2ea1e}.cls-4{fill:#231f20}.cls-5{fill:#d08f2a}.cls-6{fill:#f6dd93}.cls-7{fill:#fff}</style>
    <clipPath
       clipPathUnits="userSpaceOnUse"
       id="clipPath33238">
      <g
         id="g33244">
        <path
           style="color:#000000;fill:#d08f2a;stroke-width:1px;stroke-linecap:round;-inkscape-stroke:none"
           d="m 124.43574,184.64143 21.23967,21.7507 c 0,0 3.52574,2.83755 8.52505,1.28309 l 16.89868,-4.89224 m 0,0 c 0,0 4.1902,1.5947 2.61903,6.1643 l -25.32791,6.8989 c 0,0 -3.52176,0.30722 -6.22818,-3.32169 -3.84687,-5.15807 -19.25943,-19.86628 -19.25943,-19.86628 l -2.71485,-2.77873 c 0,0 -0.22771,-0.5333 -0.48322,-2.09834 -0.25552,-1.56503 -1.88029,-2.75644 -1.88029,-2.75644 L 77.932033,144.01456 c 0,0 -0.734605,-2.8426 1.98024,-1.85248 l 40.371347,41.04208 c 0,0 1.82054,2.07605 4.15212,1.43727"
           id="path33240" />
        <path
           style="color:#000000;fill:#d08f2a;stroke-linecap:round;-inkscape-stroke:none"
           d="m 78.269531,141.57031 c -0.47915,0.19487 -0.746435,0.62869 -0.849609,1.01758 -0.206348,0.77777 0.02734,1.55273 0.02734,1.55273 l 0.0332,0.12696 40.013668,41.13476 0.0352,0.0254 c 0,0 1.47393,1.16141 1.68164,2.4336 0.26021,1.59383 0.51758,2.21484 0.51758,2.21484 l 0.0371,0.0859 2.78515,2.85156 0.006,0.006 c 0,0 3.85021,3.67488 8.17969,7.99219 4.32948,4.31731 9.15711,9.30742 11.02539,11.8125 2.83877,3.80638 6.67187,3.51953 6.67187,3.51953 l 0.0449,-0.004 25.62695,-6.98047 0.0859,-0.25 c 0.83583,-2.43095 0.12214,-4.21542 -0.81836,-5.2871 -0.9405,-1.07169 -2.09571,-1.50586 -2.09571,-1.50586 a 0.5,0.5 0 0 0 -0.16015,0.0723 0.5,0.5 0 0 0 -0.15625,-0.0859 l -16.9043,4.89454 h -0.004 c -4.76017,1.4801 -8.03989,-1.17745 -8.05468,-1.18946 l -21.20508,-21.71484 a 0.5,0.5 0 0 0 -0.0644,-0.0273 0.5,0.5 0 0 0 -0.16993,-0.0742 0.5,0.5 0 0 0 -0.1875,-0.0234 0.5,0.5 0 0 0 -0.0684,-0.008 c -2.00134,0.5483 -3.64257,-1.28516 -3.64257,-1.28516 l -0.01,-0.0117 -40.460934,-41.13281 -0.105469,-0.0391 c -0.744241,-0.27143 -1.335302,-0.31597 -1.814453,-0.1211 z m 0.376953,0.92578 c 0.136183,-0.0554 0.48271,-0.0502 1.015625,0.125 L 119.9082,183.5332 c 0,0 1.8369,2.03358 4.31055,1.60157 l 21.11914,21.6289 0.0234,0.0176 c 0,0 3.76059,2.99656 8.98828,1.37109 l 16.67578,-4.82617 c 0.10406,0.0422 0.88057,0.33941 1.5957,1.1543 0.72786,0.82938 1.23782,2.0979 0.64649,4.07031 l -24.93946,6.79492 c -0.0321,0.003 -3.20453,0.31295 -5.76562,-3.12109 -1.97859,-2.65299 -6.78063,-7.59557 -11.11914,-11.92188 -4.33223,-4.32004 -8.17246,-7.98351 -8.18359,-7.99414 l -0.006,-0.006 c -1e-5,0 -0.006,-0.006 -0.006,-0.006 l -2.61328,-2.67578 c -0.012,-0.0278 -0.19459,-0.43202 -0.4375,-1.91992 -0.30334,-1.85787 -2.07813,-3.08008 -2.07813,-3.08008 l 0.0644,0.0547 -39.769528,-40.88476 c -0.01975,-0.10285 -0.122569,-0.58639 -0.02734,-0.94532 0.05253,-0.19799 0.113105,-0.28996 0.259765,-0.34961 z"
           id="path33242" />
      </g>
    </clipPath>
    <clipPath
       clipPathUnits="userSpaceOnUse"
       id="clipPath33392">
      <g
         id="g33398">
        <path
           style="color:#000000;fill:#d08f2a;stroke-width:1px;stroke-linecap:round;-inkscape-stroke:none"
           d="m 124.43574,184.64143 21.23967,21.7507 c 0,0 3.52574,2.83755 8.52505,1.28309 l 16.89868,-4.89224 m 0,0 c 0,0 4.1902,1.5947 2.61903,6.1643 l -25.32791,6.8989 c 0,0 -3.52176,0.30722 -6.22818,-3.32169 -3.84687,-5.15807 -19.25943,-19.86628 -19.25943,-19.86628 l -2.71485,-2.77873 c 0,0 -0.22771,-0.5333 -0.48322,-2.09834 -0.25552,-1.56503 -1.88029,-2.75644 -1.88029,-2.75644 L 77.932033,144.01456 c 0,0 -0.734605,-2.8426 1.98024,-1.85248 l 40.371347,41.04208 c 0,0 1.82054,2.07605 4.15212,1.43727"
           id="path33394" />
        <path
           style="color:#000000;fill:#d08f2a;stroke-linecap:round;-inkscape-stroke:none"
           d="m 78.269531,141.57031 c -0.47915,0.19487 -0.746435,0.62869 -0.849609,1.01758 -0.206348,0.77777 0.02734,1.55273 0.02734,1.55273 l 0.0332,0.12696 40.013668,41.13476 0.0352,0.0254 c 0,0 1.47393,1.16141 1.68164,2.4336 0.26021,1.59383 0.51758,2.21484 0.51758,2.21484 l 0.0371,0.0859 2.78515,2.85156 0.006,0.006 c 0,0 3.85021,3.67488 8.17969,7.99219 4.32948,4.31731 9.15711,9.30742 11.02539,11.8125 2.83877,3.80638 6.67187,3.51953 6.67187,3.51953 l 0.0449,-0.004 25.62695,-6.98047 0.0859,-0.25 c 0.83583,-2.43095 0.12214,-4.21542 -0.81836,-5.2871 -0.9405,-1.07169 -2.09571,-1.50586 -2.09571,-1.50586 a 0.5,0.5 0 0 0 -0.16015,0.0723 0.5,0.5 0 0 0 -0.15625,-0.0859 l -16.9043,4.89454 h -0.004 c -4.76017,1.4801 -8.03989,-1.17745 -8.05468,-1.18946 l -21.20508,-21.71484 a 0.5,0.5 0 0 0 -0.0644,-0.0273 0.5,0.5 0 0 0 -0.16993,-0.0742 0.5,0.5 0 0 0 -0.1875,-0.0234 0.5,0.5 0 0 0 -0.0684,-0.008 c -2.00134,0.5483 -3.64257,-1.28516 -3.64257,-1.28516 l -0.01,-0.0117 -40.460934,-41.13281 -0.105469,-0.0391 c -0.744241,-0.27143 -1.335302,-0.31597 -1.814453,-0.1211 z m 0.376953,0.92578 c 0.136183,-0.0554 0.48271,-0.0502 1.015625,0.125 L 119.9082,183.5332 c 0,0 1.8369,2.03358 4.31055,1.60157 l 21.11914,21.6289 0.0234,0.0176 c 0,0 3.76059,2.99656 8.98828,1.37109 l 16.67578,-4.82617 c 0.10406,0.0422 0.88057,0.33941 1.5957,1.1543 0.72786,0.82938 1.23782,2.0979 0.64649,4.07031 l -24.93946,6.79492 c -0.0321,0.003 -3.20453,0.31295 -5.76562,-3.12109 -1.97859,-2.65299 -6.78063,-7.59557 -11.11914,-11.92188 -4.33223,-4.32004 -8.17246,-7.98351 -8.18359,-7.99414 l -0.006,-0.006 c -1e-5,0 -0.006,-0.006 -0.006,-0.006 l -2.61328,-2.67578 c -0.012,-0.0278 -0.19459,-0.43202 -0.4375,-1.91992 -0.30334,-1.85787 -2.07813,-3.08008 -2.07813,-3.08008 l 0.0644,0.0547 -39.769528,-40.88476 c -0.01975,-0.10285 -0.122569,-0.58639 -0.02734,-0.94532 0.05253,-0.19799 0.113105,-0.28996 0.259765,-0.34961 z"
           id="path33396" />
      </g>
    </clipPath>
  </defs>
  <g
     id="SlHar6"
     transform="translate(-104.42 -286.276)">
    <path
       class="cls-1"
       d="M150.51 369.93a31.64 31.64 0 0 1-3.84-2.66c-1.6-1.15-1.59-1.18-3.19 0-1.29.91-2.57 1.85-3.89 2.81-.17-.33 0-.57.08-.8.53-1.65 1.06-3.3 1.63-4.94a.88.88 0 0 0-.37-1.17c-1.48-1-2.92-2.13-4.38-3.2-.13-.1-.25-.22-.53-.47h2.33c1.32 0 2.65 0 4-.07a.7.7 0 0 0 .75-.59c.61-2 1.26-3.89 2-6 .55 1.66 1.07 3.13 1.52 4.62.61 2 .59 2.05 2.75 2.05h4.84l-2.44 1.79c-.89.66-1.76 1.33-2.66 2a.72.72 0 0 0-.3 1c.57 1.67 1.1 3.34 1.63 5 .07.23.11.47.16.71z"
       id="path6"
       style="fill:#f15d24" />
    <path
       class="cls-1"
       d="m150.53 369.91.06.08-.08-.06z"
       id="path8"
       style="fill:#f15d24" />
  </g>
  <circle
     class="cls-4"
     cx="-117.008"
     cy="177.274"
     r="142.45"
     transform="rotate(-76.72)"
     id="circle179"
     style="fill:#231f20" />
  <path
     class="cls-6"
     d="M145.66 300.284C65.34 300.284 0 234.944 0 154.624S65.34 8.964 145.66 8.964s145.66 65.34 145.66 145.66-65.35 145.66-145.66 145.66zm0-284.91c-76.79 0-139.25 62.47-139.25 139.25s62.46 139.25 139.25 139.25c76.79 0 139.25-62.47 139.25-139.25s-62.47-139.25-139.25-139.25z"
     id="path181"
     style="fill:#f6dd93" />
  <path
     class="cls-2"
     d="M145.66 241.494a86.87 86.87 0 1 1 86.92-86.87 87 87 0 0 1-86.92 86.87z"
     id="path183"
     style="fill:#5e4c9b" />
  <path
     class="cls-2"
     d="M145.66 244.584a90 90 0 1 1 90-90 90.05 90.05 0 0 1-90 90zm0-173.74a83.79 83.79 0 1 0 83.78 83.78 83.88 83.88 0 0 0-83.78-83.78z"
     id="path185"
     style="fill:#5e4c9b" />
  <path
     class="cls-6"
     d="m102.42 105.644-13.17.82s-7 1.65-7 10.3v12.76"
     id="path187"
     style="fill:#f6dd93" />
  <path
     class="cls-6"
     d="M82.25 132.724a3.2 3.2 0 0 1-3.2-3.2v-12.8c0-8.85 6.19-12.65 9.47-13.42a3.07 3.07 0 0 1 .53-.07l13.17-.83a3.21 3.21 0 1 1 .4 6.4l-12.82.8c-.92.31-4.35 1.82-4.35 7.12v12.8a3.2 3.2 0 0 1-3.2 3.2z"
     id="path189"
     style="fill:#f6dd93" />
  <path
     class="cls-6"
     d="m83.15 132.974-10.57 7.88s-5 5.2-.25 12.45l7 10.69"
     id="path191"
     style="fill:#f6dd93" />
  <path
     class="cls-6"
     d="M79.28 167.204a3.21 3.21 0 0 1-2.7-1.48l-7-10.7c-4.82-7.41-1.7-14 .62-16.4a3.52 3.52 0 0 1 .41-.36l10.59-7.88a3.202 3.202 0 0 1 3.82 5.14l-10.31 7.67c-.6.76-2.65 3.9.24 8.34l7 10.69a3.22 3.22 0 0 1-.94 4.44 3.18 3.18 0 0 1-1.73.54z"
     id="path193"
     style="fill:#f6dd93" />
  <path
     class="cls-6"
     d="m80.99 164.264-6.93 11.23s-2.69 6.67 4.37 11.66l10.42 7.36"
     id="path195"
     style="fill:#f6dd93" />
  <path
     class="cls-6"
     d="M88.85 197.724a3.18 3.18 0 0 1-1.85-.59l-10.42-7.36c-7.23-5.11-6.75-12.36-5.49-15.48a4.3 4.3 0 0 1 .24-.48l6.93-11.23a3.21 3.21 0 1 1 5.46 3.36l-6.75 10.94c-.28.92-1 4.6 3.3 7.65l10.43 7.37a3.2 3.2 0 0 1-1.85 5.82z"
     id="path197"
     style="fill:#f6dd93" />
  <path
     class="cls-6"
     d="m89.39 195.194 2.06 13s2.3 6.81 10.91 6l12.7-1.2"
     id="path199"
     style="fill:#f6dd93" />
  <path
     class="cls-6"
     d="M100.98 217.504a13 13 0 0 1-12.57-8.25 3 3 0 0 1-.12-.52l-2.07-13a3.204 3.204 0 0 1 6.33-1l2 12.7c.39.88 2.21 4.15 7.49 3.65l12.71-1.2a3.204 3.204 0 1 1 .6 6.38l-12.7 1.2c-.57.01-1.13.04-1.67.04z"
     id="path201"
     style="fill:#f6dd93" />
  <path
     class="cls-6"
     d="m116.75 215.084 6.49 11.5s4.54 5.57 12.32 1.8l11.48-5.58"
     id="path203"
     style="fill:#f6dd93" />
  <path
     class="cls-6"
     d="M130.32 232.884a12.66 12.66 0 0 1-9.56-4.28 2.77 2.77 0 0 1-.31-.45l-6.49-11.49a3.204 3.204 0 0 1 5.58-3.15l6.32 11.21c.68.68 3.53 3.11 8.3.79l11.48-5.57a3.202 3.202 0 0 1 2.8 5.76l-11.48 5.58a15.17 15.17 0 0 1-6.64 1.6z"
     id="path205"
     style="fill:#f6dd93" />
  <path
     class="cls-6"
     d="m152.93 221.464 11.7 6.12s6.84 2.21 11.31-5.18l6.64-10.92"
     id="path207"
     style="fill:#f6dd93" />
  <path
     class="cls-6"
     d="M166.95 231.104a11.24 11.24 0 0 1-3.31-.47 4.4 4.4 0 0 1-.5-.21l-11.7-6.12a3.212 3.212 0 0 1 3-5.68l11.39 6c.94.21 4.66.69 7.4-3.84l6.61-10.92a3.204 3.204 0 1 1 5.48 3.32l-6.61 10.92c-3.38 5.5-8.13 7-11.76 7z"
     id="path209"
     style="fill:#f6dd93" />
  <path
     class="cls-6"
     d="m185.74 209.564 13.19-.43s7-1.44 7.3-10.08l.38-12.76"
     id="path211"
     style="fill:#f6dd93" />
  <path
     class="cls-6"
     d="M185.73 212.774a3.21 3.21 0 0 1-.1-6.41l12.85-.42c.92-.28 4.39-1.69 4.55-7l.38-12.76a3.201 3.201 0 1 1 6.4.19l-.38 12.75c-.26 8.85-6.56 12.46-9.86 13.13a2.39 2.39 0 0 1-.53.06l-13.2.44z"
     id="path213"
     style="fill:#f6dd93" />
  <circle
     class="cls-6"
     cx="145.66"
     cy="154.66553"
     r="68.349998"
     id="circle215"
     style="fill:#f6dd93" />
  <path
     class="cls-6"
     d="M145.66 226.174a71.55 71.55 0 1 1 71.55-71.55 71.63 71.63 0 0 1-71.55 71.55zm0-136.69a65.14 65.14 0 1 0 65.14 65.14 65.21 65.21 0 0 0-65.14-65.14z"
     id="path217"
     style="fill:#f6dd93" />
  <path
     class="cls-6"
     d="M145.66 226.174a71.55 71.55 0 1 1 71.55-71.55 71.63 71.63 0 0 1-71.55 71.55zm0-136.69a65.14 65.14 0 1 0 65.14 65.14 65.21 65.21 0 0 0-65.14-65.14z"
     id="path227"
     style="fill:#f6dd93" />
  <path
     class="cls-5"
     d="M130.29 236.304c-5.45 0-10.44-2.41-13.08-6.44a23.09 23.09 0 0 1-2.15-4.56c-.67-1.78-1.25-3.32-2.28-4.22-1.63-1.42-4.11-1.22-8-.72-3.28.41-7 .89-10.48-.45-4.56-1.76-7.79-6.21-9.62-13.24l-.54-2.18c-.88-3.67-1.72-7.13-3.86-9.49a22.74 22.74 0 0 0-4.3-3.35c-3-2-6.32-4.21-7.71-8.22-1.51-4.38.11-8.5 1.54-12.13 1-2.63 2-5.11 1.71-7.31-.29-2.2-1.77-4.21-3.35-6.42-2.17-3-4.63-6.47-4.42-10.88.25-5.27 4.2-9 7.37-12l.34-.31c3.63-3.41 4.34-6.38 4.49-11.36v-3.09c-.07-4.49-.14-9.58 3.13-13.92 4.69-6.24 13.2-6.81 20-7.27 1.5-.1 2.91-.19 4.19-.34l.7 6.14c-1.42.16-2.91.26-4.48.36-5.87.4-12.53.84-15.52 4.82-2 2.65-1.94 6.28-1.89 10.12v3.36c-.18 6.12-1.32 10.88-6.43 15.68l-.34.32c-2.61 2.44-5.3 5-5.43 7.73-.11 2.27 1.46 4.46 3.27 7s4 5.56 4.46 9.22c.46 3.66-.88 7.27-2.1 10.36-1.22 3.09-2.21 5.64-1.44 7.86.71 2 2.83 3.46 5.29 5.1a27.54 27.54 0 0 1 5.46 4.35c3.19 3.52 4.3 8.12 5.29 12.17.17.7.33 1.4.51 2.09 1.3 5 3.27 8 5.86 9 2 .79 4.67.45 7.47.09 4.23-.54 9-1.15 12.86 2.21 2.18 1.91 3.14 4.44 4 6.67a18.9 18.9 0 0 0 1.53 3.37c1.94 2.94 6 3.91 9.25 3.57 4.05-.44 7.87-2.52 11.38-4.7l.28-.17a17.86 17.86 0 0 1 6.14-2.78c4.57-.86 8.54 1.32 12 3.24 2.85 1.57 5.55 3.05 7.94 2.58 2.58-.51 4.36-3.08 6.42-6.06a28.28 28.28 0 0 1 5.75-6.69c3.63-2.8 8.11-3.6 12-4.13l1-.13c3.26-.43 6.33-.84 8.85-2.19 2.52-1.35 2.95-2.81 3.9-6.31.14-.52.28-1 .44-1.59l5.93 1.71c-.15.51-.28 1-.41 1.49-1 3.68-2 7.49-6.93 10.13-3.52 1.9-7.31 2.4-11 2.88l-.94.13c-3.11.42-6.64 1-9.07 2.9a23.27 23.27 0 0 0-4.44 5.31c-2.47 3.57-5.27 7.61-10.31 8.61-4.59.9-8.58-1.29-12.11-3.22-2.84-1.56-5.53-3-7.92-2.59a13.36 13.36 0 0 0-4 2l-.28.18c-3.94 2.44-8.68 5-14 5.59a19.11 19.11 0 0 1-1.92.12z"
     id="path229"
     style="fill:#d08f2a" />
  <path
     class="cls-7"
     d="M91.24 244.724c.09-.23.23-.28.45-.16l2 1.17a.35.35 0 0 1 .16.5l-1.2 2.55 1.4.79 1.57-2.34a.37.37 0 0 1 .52-.12l2.06 1.17c.21.12.24.27.09.47l-10.31 14.23a.39.39 0 0 1-.55.12l-3-1.7a.38.38 0 0 1-.18-.52zm.21 6.7-3.05 6.37.18.1 3.91-5.88z"
     id="path231"
     style="fill:#fff" />
  <path
     class="cls-7"
     d="m53.88 235.724 1.7-1.58a.32.32 0 0 1 .51 0l1.26 1.35 10.84-10.06a.31.31 0 0 1 .51 0l1.58 1.69a.37.37 0 0 1 .09.25.33.33 0 0 1-.11.27l-10.84 10.08 1.24 1.34a.32.32 0 0 1 0 .51l-1.7 1.57a.32.32 0 0 1-.51 0l-4.57-4.92a.32.32 0 0 1 0-.5z"
     id="path233"
     style="fill:#fff" />
  <path
     class="cls-7"
     d="m47.19 196.834 2.1-1a.31.31 0 0 1 .48.17l1.48 3.19 1 2.1a.32.32 0 0 1-.18.48l-15.85 7.36a.32.32 0 0 1-.48-.18l-1-2.1a.31.31 0 0 1 .17-.48l13.42-6.23-1.36-2.93a.32.32 0 0 1 .22-.38z"
     id="path235"
     style="fill:#fff" />
  <path
     class="cls-7"
     d="M41.17 163.124a.27.27 0 0 1 .4.26l.29 2.35a.37.37 0 0 1-.32.43l-2.76.55.2 1.6 2.81-.14a.37.37 0 0 1 .41.35l.29 2.34c0 .24-.08.36-.32.36l-17.58.21a.38.38 0 0 1-.41-.37l-.42-3.41a.37.37 0 0 1 .31-.45zm-5.25 4.16-6.94 1.35v.21l7-.38z"
     id="path237"
     style="fill:#fff" />
  <path
     class="cls-7"
     d="m26.74 125.374 17.12 3.51a.32.32 0 0 1 .28.43l-.33 1.63a.5.5 0 0 1-.16.27.61.61 0 0 1-.27.15l-9 1 8.41 1.72a.32.32 0 0 1 .28.43l-.49 2.21a.32.32 0 0 1-.43.28l-17.12-3.51a.32.32 0 0 1-.28-.43l.34-1.68a.54.54 0 0 1 .16-.27.61.61 0 0 1 .27-.15l8.72-1-8.15-1.67a.32.32 0 0 1-.28-.43l.46-2.27a.33.33 0 0 1 .47-.22z"
     id="path239"
     style="fill:#fff" />
  <path
     class="cls-7"
     d="m41.81 89.234 2 1.16a.32.32 0 0 1 .14.49l-.92 1.6 12.81 7.39a.33.33 0 0 1 .14.5l-1.16 2a.32.32 0 0 1-.21.16.33.33 0 0 1-.29 0l-12.81-7.39-.93 1.58a.32.32 0 0 1-.5.13l-2-1.16a.31.31 0 0 1-.14-.49l3.35-5.81a.32.32 0 0 1 .52-.16z"
     id="path241"
     style="fill:#fff" />
  <path
     class="cls-7"
     d="M78.5 72.994a.28.28 0 0 1 0 .48l-1.74 1.6a.36.36 0 0 1-.53 0l-2-1.93-1.19 1.09 1.74 2.21a.37.37 0 0 1 0 .53l-1.75 1.6a.27.27 0 0 1-.47-.06l-10.36-14.2a.38.38 0 0 1 .06-.55l2.53-2.32a.39.39 0 0 1 .56 0zm-6.43-1.87-5.12-4.86-.16.14 4.4 5.53z"
     id="path243"
     style="fill:#fff" />
  <path
     class="cls-7"
     d="M145.25 271.984a118.63 118.63 0 0 1-13.08-.73l.68-6.13a113.8 113.8 0 0 0 12.4.68 110.54 110.54 0 0 0 102.88-69.32l5.72 2.32a116.7 116.7 0 0 1-108.6 73.18z"
     id="path245"
     style="fill:#fff" />
  <path
     class="cls-5"
     d="M288.87 152.804v45.28h-68.58c-34.95-2.64-40.88-33-40.88-33-78.47 0-77.81-58-77.81-58v-39.59c3.3-54.07 39.56-56 39.56-56h27.67s46.84-5.28 50.79 35.61h20.45c45.5-.66 48.8 34.28 48.8 34.28v71.47z"
     id="path247"
     style="fill:#d08f2a" />
  <path
     class="cls-5"
     d="M292.16 201.374h-72.12c-30.74-2.32-40.63-25.12-43.14-33-26.95-.43-47.6-7.71-61.4-21.67a59.81 59.81 0 0 1-17.2-39.68v-39.73c1-16.11 5.65-38 22.3-50.72 10.17-7.78 20-8.4 20.37-8.42h27.67c2.49-.25 24.68-2.07 40.11 10.44 7.54 6.13 12.17 14.55 13.83 25.13h17.54c47.91-.7 52 36.89 52.08 37.27v120.38zm-71.74-6.59h65.16V81.514c-.29-2.5-4.56-31.18-44.24-31.18h-24.7l-.29-3c-1-10.17-4.92-18.12-11.71-23.64-13.84-11.24-35.22-9-35.44-9h-27.93c-2.13.16-33.31 3.36-36.37 52.86v39.49a54 54 0 0 0 15.37 35.09c12.94 13 32.84 19.64 59.14 19.64h2.71l.52 2.66c.23 1.17 5.94 27.88 37.78 30.35z"
     id="path249"
     style="fill:#d08f2a" />
  <path
     class="cls-4"
     d="M288.87 144.884v45.28h-68.58c-34.95-2.64-40.88-33-40.88-33-78.47 0-77.81-58-77.81-58v-39.59c3.3-54.07 39.56-56.05 39.56-56.05h27.67s46.84-5.28 50.79 35.61h20.45c45.5-.66 48.8 34.28 48.8 34.28z"
     id="path251"
     style="fill:#231f20" />
  <path
     class="cls-6"
     d="M292.16 193.464h-72.12c-30.74-2.32-40.63-25.13-43.14-33-26.95-.43-47.6-7.71-61.4-21.67a59.81 59.81 0 0 1-17.2-39.68v-39.74c1-16.11 5.65-38 22.3-50.72 10.17-7.78 20-8.4 20.37-8.42h27.67c2.49-.25 24.68-2.07 40.11 10.44 7.53 6.11 12.16 14.56 13.77 25.17h17.54c47.91-.7 52 36.9 52.08 37.27v120.35zm-71.74-6.6h65.16V73.594c-.29-2.5-4.56-31.18-44.24-31.18h-24.7l-.29-3c-1-10.17-4.92-18.12-11.71-23.64-13.84-11.24-35.22-9-35.44-9h-27.93c-2.13.15-33.31 3.35-36.37 52.85v39.49a54 54 0 0 0 15.37 35.09c12.94 13 32.84 19.64 59.14 19.64h2.71l.52 2.67c.23 1.21 5.94 27.88 37.78 30.35z"
     id="path253"
     style="fill:#f6dd93" />
  <path
     class="cls-3"
     d="M170.85 87.254c-17.36-1.44-28-12.55-27.87-29 .08-8.89 2.47-17 6.71-22.91 5-6.94 12.39-10.65 21.35-10.74l.05 5.28c-10.91.1-22.63 7.62-22.84 28.42-.13 13.61 8.48 22.46 23 23.68z"
     id="path255"
     style="fill:#f2ea1e" />
  <path
     class="cls-3"
     d="M179.3 87.264h-21.65c-17.35-1.44-28-12.55-27.87-29 .09-8.89 2.47-17 6.72-22.91 4.89-6.78 12.05-10.48 20.73-10.73h23.07c4.32 0 7.64 1.29 9.86 3.82a12.18 12.18 0 0 1 2.67 8.86v11.06h-17.81v-11.87a4.53 4.53 0 0 0-1.83-3.64c-2.57-2.17-6.79-2.84-7.57-2.95h-7.75c-10.88.1-22.61 7.62-22.82 28.42-.13 13.58 8.44 22.42 22.93 23.67h16v-12.2h5.28zm1-44.18h7.28v-6.28a7 7 0 0 0-1.4-4.91c-1.18-1.32-3.15-2-5.87-2h-2.58a9.61 9.61 0 0 1 2.58 6.59z"
     id="path257"
     style="fill:#f2ea1e" />
  <path
     class="cls-3"
     d="M243.44 122.894c-17.35-1.45-28-12.55-27.87-29 .2-20.41 8.75-30.84 25.42-31v5.27c-13.61.13-20 8.32-20.2 25.78-.13 13.62 8.48 22.47 23 23.68z"
     id="path259"
     style="fill:#f2ea1e" />
  <path
     class="cls-3"
     d="M250.58 122.904h-20.34c-17.35-1.45-28-12.55-27.87-29 .19-19 10.43-30.56 27.45-31h20.43c4.32 0 7.64 1.28 9.86 3.82a12.06 12.06 0 0 1 2.67 8.85v11.06h-17.81v-11.86a4.55 4.55 0 0 0-1.82-3.65 15.24 15.24 0 0 0-5.12-2.95h-7.57c-20.36.2-22.74 18.1-22.82 25.78-.13 13.58 8.44 22.43 22.93 23.67h14.73v-9.58h17.76v13.85h-5.28v-8.57h-7.2zm-.32-41.54h7.25v-6.28a7.09 7.09 0 0 0-1.41-4.92c-1.18-1.32-3.15-2-5.87-2h-2.58a9.64 9.64 0 0 1 2.58 6.6z"
     id="path261"
     style="fill:#f2ea1e" />
  <path
     class="cls-3"
     d="M195.46 70.124h-40.22v-16.49h40.22zm-34.95-5.28h29.67v-5.93h-29.67z"
     id="path263"
     style="fill:#f2ea1e" />
  <path
     class="cls-3"
     id="rect265"
     style="fill:#f2ea1e"
     d="M186.56 69.134h5.28v32.65h-5.28z" />
  <path
     class="cls-2"
     d="M267.77 147.924h-44.84c-26.85 0-31.55-24.89-31.6-25.15l6.5-1.14-3.25.57 3.24-.58c.15.8 3.87 19.7 25.11 19.7h44.84z"
     id="path267"
     style="fill:#5e4c9b" />
  <path
     class="cls-2"
     d="M267.77 169.044h-44.84c-26.85 0-31.55-24.9-31.6-25.15l-.05-.28v-28.21h6.6v27.6c.51 2.38 4.87 19.44 25.05 19.44h44.84z"
     id="path269"
     style="fill:#5e4c9b" />
  <path
     class="cls-2"
     d="M176.7 113.604h-22.4c-26.85 0-31.56-24.89-31.6-25.14l6.49-1.15-3.24.58 3.24-.59c.15.81 3.87 19.71 25.11 19.71h22.4z"
     id="path271"
     style="fill:#5e4c9b" />
  <path
     class="cls-2"
     d="M176.7 134.724h-22.4c-26.85 0-31.56-24.89-31.6-25.14l-.05-.29v-28.21h6.59v27.64c.51 2.38 4.88 19.45 25.06 19.45h22.4z"
     id="path273"
     style="fill:#5e4c9b" />
  <path
     class="cls-2"
     id="rect275"
     style="fill:#5e4c9b"
     d="M261.25 146.394h6.59v9.47h-6.59z" />
  <path
     class="cls-2"
     id="rect277"
     style="fill:#5e4c9b"
     d="M241.35 146.394h6.59v9.47h-6.59z" />
  <path
     class="cls-2"
     id="rect279"
     style="fill:#5e4c9b"
     d="M220.5 146.394h6.59v9.47h-6.59z" />
  <path
     class="cls-2"
     id="rect281"
     style="fill:#5e4c9b"
     d="M169.71 111.984h6.59v8.52h-6.59z" />
  <path
     class="cls-2"
     id="rect283"
     style="fill:#5e4c9b"
     d="M149.81 111.984h6.59v8.52h-6.59z" />
  <path
     id="path1679"
     style="fill:#d08f2a;fill-opacity:1;stroke:#d08f2a;stroke-width:1px;stroke-linecap:round;stroke-linejoin:miter;stroke-opacity:1"
     d="m 127.13112,182.40959 21.23967,21.7507 c 0,0 3.52574,2.83755 8.52505,1.28309 l 16.89868,-4.89224 m 0,0 c 0,0 4.1902,1.5947 2.61903,6.1643 l -25.32791,6.8989 c 0,0 -3.52176,0.30722 -6.22818,-3.32169 -3.84687,-5.15807 -19.25943,-19.86628 -19.25943,-19.86628 l -2.71485,-2.77873 c 0,0 -0.22771,-0.5333 -0.48322,-2.09834 -0.25552,-1.56503 -1.88029,-2.75644 -1.88029,-2.75644 L 80.627414,141.78272 c 0,0 -0.734605,-2.8426 1.98024,-1.85248 L 122.979,180.97232 c 0,0 1.82054,2.07605 4.15212,1.43727"
     sodipodi:nodetypes="cccccccsccsccccc" />
  <g
     id="g31426"
     style="fill:#ffffff;stroke:#43366e"
     clip-path="url(#clipPath33392)"
     transform="translate(2.6953808,-2.2318419)"
     inkscape:export-filename="D:\ART\HGM\g31426.png"
     inkscape:export-xdpi="1057.197"
     inkscape:export-ydpi="1057.197">
    <g
       id="path31275">
      <path
         style="color:#000000;stroke:none;stroke-width:1px;-inkscape-stroke:none"
         d="m 90.774833,150.9673 -2.563262,5.74524"
         id="path44941" />
      <path
         style="color:#000000;fill:#43366e;stroke:none;-inkscape-stroke:none"
         d="m 90.318359,150.76367 -2.5625,5.7461 0.91211,0.40625 2.564453,-5.74415 z"
         id="path44943" />
    </g>
    <g
       id="path31277">
      <path
         style="color:#000000;stroke:none;stroke-width:1px;-inkscape-stroke:none"
         d="m 88.28125,149.46875 -2.75,5.3125"
         id="path44947" />
      <path
         style="color:#000000;fill:#43366e;stroke:none;-inkscape-stroke:none"
         d="m 87.837891,149.23828 -2.75,5.3125 0.886718,0.46094 2.75,-5.3125 z"
         id="path44949" />
    </g>
    <g
       id="path31279">
      <path
         style="color:#000000;stroke:none;stroke-width:1px;-inkscape-stroke:none"
         d="m 83.53125,151.1875 3.28125,-3.09375"
         id="path44953" />
      <path
         style="color:#000000;fill:#43366e;stroke:none;-inkscape-stroke:none"
         d="m 86.46875,147.73047 -3.28125,3.09375 0.6875,0.72656 3.28125,-3.09375 z"
         id="path44955" />
    </g>
    <g
       id="path31281">
      <path
         style="color:#000000;stroke:none;stroke-width:1px;-inkscape-stroke:none"
         d="M 85.3125,146.28125 81.6875,149.75"
         id="path44959" />
      <path
         style="color:#000000;fill:#43366e;stroke:none;-inkscape-stroke:none"
         d="m 84.966797,145.91992 -3.625,3.46875 0.691406,0.72266 3.625,-3.46875 z"
         id="path44961" />
    </g>
    <g
       id="path31283">
      <path
         style="color:#000000;stroke:none;stroke-width:1px;-inkscape-stroke:none"
         d="M 80.5,148.28125 83.28125,144.5"
         id="path44965" />
      <path
         style="color:#000000;fill:#43366e;stroke:none;-inkscape-stroke:none"
         d="m 82.878906,144.20312 -2.78125,3.78125 0.804688,0.59375 2.78125,-3.78125 z"
         id="path44967" />
    </g>
    <g
       id="path31285">
      <path
         style="color:#000000;stroke:none;stroke-width:1px;-inkscape-stroke:none"
         d="M 82.15625,142.96875 77,145.875"
         id="path44971" />
      <path
         style="color:#000000;fill:#43366e;stroke:none;-inkscape-stroke:none"
         d="m 81.910156,142.5332 -5.15625,2.90625 0.492188,0.8711 5.15625,-2.90625 z"
         id="path44973" />
    </g>
    <g
       id="path31287">
      <path
         style="color:#000000;stroke:none;stroke-width:1px;-inkscape-stroke:none"
         d="M 76.9375,143.90625 80.53125,141.25"
         id="path44977" />
      <path
         style="color:#000000;fill:#43366e;stroke:none;-inkscape-stroke:none"
         d="m 80.234375,140.84766 -3.59375,2.65625 0.59375,0.80468 3.59375,-2.65625 z"
         id="path44979" />
    </g>
    <g
       id="path31289">
      <path
         style="color:#000000;stroke:none;stroke-width:1px;-inkscape-stroke:none"
         d="m 90.5,158 2.4375,-4.125"
         id="path44983" />
      <path
         style="color:#000000;fill:#43366e;stroke:none;-inkscape-stroke:none"
         d="m 92.507812,153.62109 -2.4375,4.125 0.859375,0.50782 2.4375,-4.125 z"
         id="path44985" />
    </g>
    <g
       id="path31291">
      <path
         style="color:#000000;stroke:none;stroke-width:1px;-inkscape-stroke:none"
         d="m 91.128386,158.96644 4.110058,-2.69584"
         id="path44989" />
      <path
         style="color:#000000;fill:#43366e;stroke:none;-inkscape-stroke:none"
         d="m 94.964844,155.85156 -4.111328,2.69727 0.548828,0.83594 4.109375,-2.69532 z"
         id="path44991" />
    </g>
    <g
       id="path31293">
      <path
         style="color:#000000;stroke:none;stroke-width:1px;-inkscape-stroke:none"
         d="m 132.375,191.4375 -5.25,6.75"
         id="path44995" />
      <path
         style="color:#000000;fill:#43366e;stroke:none;-inkscape-stroke:none"
         d="m 131.98047,191.13086 -5.25,6.75 0.78906,0.61328 5.25,-6.75 z"
         id="path44997" />
    </g>
    <g
       id="path31295">
      <path
         style="color:#000000;stroke:none;stroke-width:1px;-inkscape-stroke:none"
         d="m 129,199.9375 6.875,-5.375"
         id="path45001" />
      <path
         style="color:#000000;fill:#43366e;stroke:none;-inkscape-stroke:none"
         d="m 135.56641,194.16797 -6.875,5.375 0.61718,0.78906 6.875,-5.375 z"
         id="path45003" />
    </g>
    <g
       id="path31297">
      <path
         style="color:#000000;stroke:none;stroke-width:1px;-inkscape-stroke:none"
         d="m 131.375,202.9375 6.875,-7.0625"
         id="path45007" />
      <path
         style="color:#000000;fill:#43366e;stroke:none;-inkscape-stroke:none"
         d="m 137.89258,195.52539 -6.875,7.0625 0.71484,0.69922 6.875,-7.0625 z"
         id="path45009" />
    </g>
    <g
       id="path31299">
      <path
         style="color:#000000;stroke:none;stroke-width:1px;-inkscape-stroke:none"
         d="m 134.8125,206.4375 5,-7.5625"
         id="path45013" />
      <path
         style="color:#000000;fill:#43366e;stroke:none;-inkscape-stroke:none"
         d="m 139.39453,198.59961 -5,7.5625 0.83594,0.55078 5,-7.5625 z"
         id="path45015" />
    </g>
    <g
       id="path31301">
      <path
         style="color:#000000;stroke:none;stroke-width:1px;-inkscape-stroke:none"
         d="m 137.5625,209.625 6,-8.1875"
         id="path45019" />
      <path
         style="color:#000000;fill:#43366e;stroke:none;-inkscape-stroke:none"
         d="m 143.16016,201.14258 -6,8.1875 0.80468,0.58984 6,-8.1875 z"
         id="path45021" />
    </g>
    <g
       id="path31303">
      <path
         style="color:#000000;stroke:none;stroke-width:1px;-inkscape-stroke:none"
         d="m 140.0625,211.9375 6.625,-7.3125"
         id="path45025" />
      <path
         style="color:#000000;fill:#43366e;stroke:none;-inkscape-stroke:none"
         d="m 146.31641,204.28906 -6.625,7.3125 0.74218,0.67188 6.625,-7.3125 z"
         id="path45027" />
    </g>
    <g
       id="path31305">
      <path
         style="color:#000000;stroke:none;stroke-width:1px;-inkscape-stroke:none"
         d="m 143.4375,215.5 4.1875,-9.3125"
         id="path45031" />
      <path
         style="color:#000000;fill:#43366e;stroke:none;-inkscape-stroke:none"
         d="m 147.16992,205.98242 -4.1875,9.3125 0.91016,0.41016 4.1875,-9.3125 z"
         id="path45033" />
    </g>
    <g
       id="path31307">
      <path
         style="color:#000000;stroke:none;stroke-width:1px;-inkscape-stroke:none"
         d="m 147.3125,216.5625 1.3125,-9.4375"
         id="path45037" />
      <path
         style="color:#000000;fill:#43366e;stroke:none;-inkscape-stroke:none"
         d="m 148.12891,207.05664 -1.3125,9.4375 0.99218,0.13672 1.3125,-9.4375 z"
         id="path45039" />
    </g>
    <g
       id="path31309">
      <path
         style="color:#000000;stroke:none;stroke-width:1px;-inkscape-stroke:none"
         d="m 152.125,215.4375 -1.875,-8.375"
         id="path45043" />
      <path
         style="color:#000000;fill:#43366e;stroke:none;-inkscape-stroke:none"
         d="m 150.73828,206.95312 -0.97656,0.21875 1.875,8.375 0.97656,-0.21875 z"
         id="path45045" />
    </g>
    <g
       id="path31311">
      <path
         style="color:#000000;stroke:none;stroke-width:1px;-inkscape-stroke:none"
         d="m 154.4375,215.25 0.75,-9.75"
         id="path45049" />
      <path
         style="color:#000000;fill:#43366e;stroke:none;-inkscape-stroke:none"
         d="m 154.68945,205.46094 -0.75,9.75 0.9961,0.0781 0.75,-9.75 z"
         id="path45051" />
    </g>
    <g
       id="path31313">
      <path
         style="color:#000000;stroke:none;stroke-width:1px;-inkscape-stroke:none"
         d="m 157.75,214.09375 -0.1875,-8.1875"
         id="path45055" />
      <path
         style="color:#000000;fill:#43366e;stroke:none;-inkscape-stroke:none"
         d="m 158.0625,205.89453 -1,0.0234 0.1875,8.1875 1,-0.0234 z"
         id="path45057" />
    </g>
    <g
       id="path31315">
      <path
         style="color:#000000;stroke:none;stroke-width:1px;-inkscape-stroke:none"
         d="m 162.60937,213.0625 -1.6875,-8.29688"
         id="path45061" />
      <path
         style="color:#000000;fill:#43366e;stroke:none;-inkscape-stroke:none"
         d="m 161.41211,204.66602 -0.98047,0.19921 1.6875,8.29688 0.98047,-0.19922 z"
         id="path45063" />
    </g>
    <g
       id="path31317">
      <path
         style="color:#000000;stroke:none;stroke-width:1px;-inkscape-stroke:none"
         d="M 166.4375,211.6875 164.125,203.75"
         id="path45067" />
      <path
         style="color:#000000;fill:#43366e;stroke:none;-inkscape-stroke:none"
         d="m 164.60547,203.60937 -0.96094,0.28125 2.3125,7.9375 0.96094,-0.28125 z"
         id="path45069" />
    </g>
    <g
       id="path31321">
      <path
         style="color:#000000;stroke:none;stroke-width:1px;-inkscape-stroke:none"
         d="m 168.29687,202.5625 1.53125,8.46875"
         id="path45073" />
      <path
         style="color:#000000;fill:#43366e;stroke:none;-inkscape-stroke:none"
         d="m 168.78906,202.47266 -0.98437,0.17968 1.53125,8.46875 0.98437,-0.17968 z"
         id="path45075" />
    </g>
  </g>
  <path
     style="fill:#392f5f;stroke-width:0.0908231;fill-opacity:1"
     d="m 150.00106,214.07422 c -0.21137,-0.0344 -0.40117,-0.0804 -0.42176,-0.10216 -0.0489,-0.0517 1.18497,-8.89525 1.25022,-8.9605 0.0274,-0.0274 0.26569,0.0105 0.52945,0.0844 0.37972,0.1063 0.47543,0.17034 0.45967,0.30757 -0.0502,0.43735 -1.12694,8.19931 -1.17369,8.46091 -0.029,0.16235 -0.0993,0.29006 -0.15616,0.28381 -0.0569,-0.006 -0.27636,-0.0395 -0.48773,-0.074 z m 3.44174,-4.61473 c -0.46434,-2.08552 -0.86387,-3.86063 -0.88784,-3.94467 -0.0384,-0.13457 0.0192,-0.14675 0.48281,-0.10201 0.28952,0.0279 0.55467,0.0763 0.58921,0.1074 0.0892,0.0804 1.71617,7.37238 1.6638,7.45712 -0.0395,0.064 -0.75131,0.27403 -0.92857,0.27403 -0.0413,0 -0.45508,-1.70634 -0.91941,-3.79187 z m -6.96282,3.14937 c -0.19981,-0.15079 -0.37552,-0.30892 -0.39045,-0.35141 -0.037,-0.10536 3.43967,-7.81593 3.52422,-7.81593 0.12828,0 0.90785,0.37206 0.90785,0.43328 0,0.11816 -3.57318,8.01324 -3.62552,8.01074 -0.0291,-0.001 -0.21629,-0.1259 -0.4161,-0.27668 z m 10.4563,-3.76708 c 0.1597,-2.0756 0.30966,-3.82409 0.33324,-3.88554 0.0453,-0.11801 0.94931,-0.38609 1.02997,-0.30543 0.0259,0.026 -0.079,1.67539 -0.23312,3.6654 -0.15416,1.99002 -0.27999,3.70859 -0.27961,3.81904 5.4e-4,0.16361 -0.0866,0.22674 -0.46991,0.34059 -0.25883,0.0769 -0.51568,0.13975 -0.57078,0.13975 -0.07,0 -0.0126,-1.138 0.19021,-3.77381 z m 3.0011,2.79747 c -0.0223,-0.0375 -0.0554,-1.74319 -0.0735,-3.79051 l -0.0329,-3.72238 0.4784,-0.12845 c 0.26312,-0.0707 0.49366,-0.11213 0.51232,-0.0922 0.0187,0.0199 0.0637,1.73283 0.10008,3.8064 l 0.0661,3.77013 -0.42084,0.11256 c -0.48962,0.13095 -0.57464,0.13695 -0.6297,0.0444 z m 4.71028,-1.40128 c -0.2756,-1.18443 -1.40307,-6.95578 -1.37385,-7.03254 0.0446,-0.11713 0.86576,-0.34269 0.95042,-0.26106 0.0314,0.0303 0.38636,1.6567 0.78883,3.6143 l 0.73177,3.55929 -0.23224,0.10284 c -0.12773,0.0566 -0.36355,0.131 -0.52405,0.16542 -0.2553,0.0548 -0.29796,0.0362 -0.34088,-0.14825 z m -21.37757,-1.07758 c -0.16694,-0.19501 -0.28956,-0.39101 -0.27247,-0.43555 0.0276,-0.0721 1.66907,-1.89733 4.15439,-4.61973 0.46953,-0.51431 0.88352,-0.93512 0.92,-0.93512 0.0365,0 0.21017,0.17556 0.38599,0.39013 l 0.31968,0.39012 -2.50485,2.76598 c -1.37766,1.52129 -2.54857,2.77335 -2.60202,2.78236 -0.0534,0.009 -0.23377,-0.14317 -0.40072,-0.33819 z m 24.24554,-3.36167 c -0.56603,-1.95099 -1.01443,-3.56118 -0.99645,-3.5782 0.018,-0.017 0.24918,-0.0948 0.51376,-0.17287 0.36592,-0.10794 0.4902,-0.11561 0.51922,-0.032 0.0979,0.28193 2.04229,7.00629 2.04229,7.06284 0,0.0648 -0.70335,0.26749 -0.92835,0.26749 -0.0816,0 -0.45843,-1.16191 -1.15047,-3.54724 z m 4.39836,2.52548 c -0.0678,-0.21281 -1.32671,-7.26721 -1.30084,-7.28922 0.08,-0.0681 0.97946,-0.28766 0.97973,-0.23915 0,0.032 0.28626,1.6421 0.63576,3.57802 0.34949,1.93591 0.63544,3.59491 0.63544,3.68666 0,0.11497 -0.10913,0.19952 -0.35112,0.27202 -0.4466,0.13381 -0.55418,0.13231 -0.59897,-0.008 z m -30.9763,-1.79588 c -0.32897,-0.3369 -0.3471,-0.38122 -0.23217,-0.56765 0.19302,-0.31312 4.01207,-5.54033 4.17934,-5.72036 0.14021,-0.15091 0.1687,-0.13855 0.52365,0.22705 l 0.37537,0.38664 -2.195,3.01434 c -1.20725,1.65788 -2.21735,3.01682 -2.24468,3.01987 -0.0273,0.003 -0.21026,-0.15891 -0.40651,-0.35989 z m -2.90498,-3.08659 -0.35546,-0.36403 0.17259,-0.29444 c 0.0949,-0.16194 0.97465,-1.50037 1.95494,-2.97428 0.98029,-1.47391 1.8283,-2.76133 1.88447,-2.86093 0.0973,-0.17258 0.11967,-0.16402 0.47559,0.18221 0.21955,0.21358 0.35769,0.42371 0.33521,0.5099 -0.046,0.17626 -3.99108,6.16318 -4.06219,6.1646 -0.0273,5.5e-4 -0.20964,-0.16282 -0.40515,-0.36303 z m -3.29368,-3.38495 -0.37552,-0.38348 2.5767,-2.63386 2.57669,-2.63387 0.3869,0.38068 0.38691,0.38068 -2.46863,2.53753 c -1.35774,1.39564 -2.52238,2.58214 -2.58808,2.63666 -0.0914,0.0759 -0.20768,0.009 -0.49497,-0.28434 z m -2.65451,-2.60528 c -0.26533,-0.23014 -0.37684,-0.38443 -0.31788,-0.4398 0.0658,-0.0618 4.72685,-3.70632 5.72812,-4.47888 0.0592,-0.0457 0.2483,0.0792 0.48505,0.32039 l 0.38795,0.39529 -0.98457,0.76605 c -3.07447,2.3921 -4.45657,3.47644 -4.62335,3.62729 -0.10313,0.0933 -0.2053,0.16837 -0.22706,0.16688 -0.0218,-0.001 -0.22348,-0.16224 -0.44826,-0.35722 z m -1.92684,-1.88794 -0.32888,-0.34059 2.32188,-2.9825 2.32189,-2.9825 0.3618,0.3618 c 0.32643,0.32644 0.34954,0.37888 0.23643,0.53652 -0.49339,0.68768 -4.47618,5.74786 -4.52405,5.74786 -0.0331,0 -0.20818,-0.15327 -0.38907,-0.34059 z m -35.9029,-39.0786 c -0.18525,-0.18971 -0.31183,-0.38536 -0.28129,-0.43477 0.0748,-0.12097 2.99789,-2.01549 3.10978,-2.01549 0.0486,0 0.23663,0.15327 0.41789,0.34059 l 0.32958,0.34059 -1.61958,1.057 -1.61957,1.057 z m -0.88801,-0.88752 c -0.1849,-0.18936 -0.33618,-0.39603 -0.33618,-0.45927 0,-0.0927 1.73936,-3.13554 1.87354,-3.27756 0.0207,-0.0219 0.21612,0.1355 0.43436,0.3497 l 0.39681,0.38943 -0.95003,1.60301 c -0.52251,0.88165 -0.97979,1.6336 -1.01617,1.67099 -0.0364,0.0374 -0.21743,-0.087 -0.40233,-0.2763 z m -2.03995,-2.13081 -0.37925,-0.38642 0.82838,-1.84398 0.82838,-1.84399 0.39478,0.38745 c 0.21712,0.21309 0.39477,0.4179 0.39477,0.45512 0,0.12276 -1.57816,3.61825 -1.63359,3.61825 -0.0298,0 -0.22489,-0.17389 -0.43347,-0.38643 z m -2.35586,-2.3953 -0.35426,-0.4197 0.84851,-1.64558 c 0.46668,-0.90507 0.87928,-1.67635 0.91688,-1.71395 0.0376,-0.0376 0.2402,0.1067 0.45021,0.32068 l 0.38183,0.38906 -0.8673,1.69691 c -0.47701,0.93329 -0.90202,1.71836 -0.94446,1.74459 -0.0424,0.0262 -0.23657,-0.14118 -0.43141,-0.37201 z m -2.37099,-2.42222 c -0.15966,-0.16472 -0.29029,-0.34358 -0.29029,-0.39746 0,-0.0539 0.59799,-0.6642 1.32885,-1.35629 l 1.32885,-1.25834 0.36271,0.40698 0.36271,0.40698 -1.30556,1.24842 c -0.71806,0.68664 -1.34863,1.24861 -1.40127,1.24882 -0.0526,1.8e-4 -0.22634,-0.13438 -0.386,-0.29911 z m -1.60793,-1.69934 -0.35546,-0.36402 0.54138,-0.55129 c 0.29775,-0.30321 0.9017,-0.88197 1.34211,-1.28613 l 0.80073,-0.73484 0.37997,0.38246 0.37996,0.38246 -1.31693,1.26341 c -0.72432,0.69488 -1.33929,1.26535 -1.36662,1.2677 -0.0273,0.002 -0.20964,-0.15953 -0.40514,-0.35975 z m -1.4461,-1.44593 -0.34839,-0.35678 1.11426,-1.51192 1.11426,-1.51192 0.39211,0.38483 0.39211,0.38482 -0.19757,0.28047 c -0.71483,1.01477 -1.98955,2.68729 -2.04813,2.68729 -0.0387,0 -0.22704,-0.16056 -0.41865,-0.35679 z m -2.50601,-2.59702 c -0.21745,-0.22156 -0.37747,-0.41626 -0.35561,-0.43267 0.13829,-0.10378 3.1917,-1.79044 3.24128,-1.79044 0.0337,0 0.23541,0.17095 0.4483,0.3799 l 0.38709,0.37989 -1.11023,0.62398 c -0.61063,0.34318 -1.35891,0.76307 -1.66285,0.93308 l -0.55262,0.3091 z m -0.95423,-1.44049 c -0.0337,-0.26978 -0.0365,-0.56855 -0.006,-0.66393 0.0303,-0.0954 0.46711,-0.47241 0.97074,-0.83783 0.81353,-0.59028 0.95003,-0.65885 1.22334,-0.6145 0.36771,0.0597 0.78855,0.25373 0.82405,0.38 0.0207,0.0737 -2.38541,1.90993 -2.82767,2.15785 -0.094,0.0527 -0.13735,-0.0464 -0.18422,-0.42159 z"
     id="path45496" />
  <path
     style="opacity:1;fill:#5e4c9b;fill-opacity:1;stroke:#43366e;stroke-width:0.0146832;stroke-linecap:round;stroke-linejoin:round;stroke-opacity:1"
     d="m 95.737083,152.60767 c -0.631002,1.06501 -1.25341,2.14036 -1.90924,3.1923 -0.0186,0.057 -0.0643,0.0849 -0.117754,0.0926 -0.0022,0.0727 0.08858,0.11998 0.130944,0.17204 0.04834,0.0636 0.105936,-0.0382 0.154955,-0.0541 0.995664,-0.70972 2.037368,-1.35122 3.067714,-2.00845 0.07948,-0.0292 -0.01633,-0.0763 -0.03816,-0.11099 -0.41352,-0.42391 -0.820819,-0.85487 -1.250004,-1.26287 -0.01153,-0.008 -0.0235,-0.021 -0.03846,-0.0205 z"
     id="path45908" />
  <path
     style="opacity:1;fill:#5e4c9b;fill-opacity:1;stroke:#43366e;stroke-width:0.0146832;stroke-linecap:round;stroke-linejoin:round;stroke-opacity:1"
     d="m 93.40352,150.23476 c -0.212481,0.57289 -0.476365,1.12729 -0.721798,1.6873 -0.286294,0.62188 -0.555778,1.25248 -0.872129,1.85986 -0.0099,0.0476 -0.06907,0.0695 -0.07927,0.10984 0.403132,0.42902 0.815007,0.85709 1.230633,1.26975 0.442224,-0.72516 0.842295,-1.47563 1.272718,-2.208 0.217723,-0.36276 0.415984,-0.73888 0.659553,-1.08513 0.02201,-0.0326 0.09652,-0.0754 0.03347,-0.10961 -0.488559,-0.50093 -0.971485,-1.00809 -1.476866,-1.49212 -0.01474,-0.0103 -0.02805,-0.0282 -0.04631,-0.0319 z"
     id="path45947" />
  <path
     style="opacity:1;fill:#5e4c9b;fill-opacity:1;stroke:#43366e;stroke-width:0.0146832;stroke-linecap:round;stroke-linejoin:round;stroke-opacity:1"
     d="m 91.224589,148.01006 c -0.585118,1.1091 -1.127939,2.24094 -1.745232,3.33288 -0.02635,0.05 -0.06088,0.10497 -0.115573,0.11686 0.517037,0.5501 1.051382,1.08653 1.576433,1.63003 0.474363,-1.08555 0.967474,-2.16312 1.452144,-3.24421 0.07062,-0.15243 0.135241,-0.30775 0.21084,-0.45781 -0.459333,-0.45907 -0.903982,-0.93515 -1.378612,-1.37775 z"
     id="path45986" />
  <path
     style="opacity:1;fill:#5e4c9b;fill-opacity:1;stroke:#43366e;stroke-width:0.0146832;stroke-linecap:round;stroke-linejoin:round;stroke-opacity:1"
     d="m 89.055151,147.07252 c -0.630095,0.59577 -1.246641,1.20742 -1.907119,1.76989 -0.05532,0.0574 -0.139699,0.0863 -0.191342,0.1419 0.545629,0.57365 1.095613,1.14392 1.657363,1.70173 0.05264,-0.15864 0.149489,-0.31914 0.223206,-0.47586 0.499884,-0.9778 0.999641,-1.95618 1.531318,-2.91716 0.08623,-0.0815 0.04524,-0.14827 -0.03845,-0.2105 -0.206609,-0.21255 -0.413218,-0.4251 -0.619827,-0.63765 -0.218383,0.20921 -0.436767,0.41843 -0.655149,0.62765 z"
     id="path46025" />
  <path
     style="opacity:1;fill:#5e4c9b;fill-opacity:1;stroke:#43366e;stroke-width:0.0146832;stroke-linecap:round;stroke-linejoin:round;stroke-opacity:1"
     d="m 88.082276,144.80213 c -0.875253,0.8066 -1.71263,1.65419 -2.600097,2.44762 -0.03771,0.0422 -0.09098,0.0566 -0.14124,0.0641 0.284965,0.32314 0.590388,0.62949 0.895129,0.93427 0.741823,-0.71286 1.471197,-1.43911 2.223073,-2.14168 0.158167,-0.14949 0.316334,-0.29897 0.474501,-0.44846 -0.283816,-0.2846 -0.563259,-0.5784 -0.851366,-0.85587 z"
     id="path46103" />
  <path
     style="opacity:1;fill:#5e4c9b;fill-opacity:1;stroke:#43366e;stroke-width:0.0146832;stroke-linecap:round;stroke-linejoin:round;stroke-opacity:1"
     d="m 86.218029,142.91164 c -0.316414,0.41772 -0.611573,0.85204 -0.928573,1.26976 -0.413603,0.54766 -0.815642,1.10573 -1.2631,1.62651 -0.110205,0.0654 -0.06592,0.12977 0.01884,0.1938 0.189892,0.19411 0.376672,0.39143 0.570126,0.58196 0.71224,-0.70899 1.425273,-1.41765 2.171624,-2.09107 0.172464,-0.16136 0.352779,-0.31936 0.518407,-0.48502 -0.356332,-0.37076 -0.718197,-0.73928 -1.087329,-1.09594 z"
     id="path46142" />
  <path
     style="opacity:1;fill:#5e4c9b;fill-opacity:1;stroke:#43366e;stroke-width:0.0146832;stroke-linecap:round;stroke-linejoin:round;stroke-opacity:1"
     d="m 84.7233,141.47221 c -1.093527,0.62091 -2.192603,1.23202 -3.28883,1.84815 0.589747,0.59799 1.167771,1.20792 1.762526,1.8007 0.74656,-0.98134 1.457153,-1.98999 2.212455,-2.96471 0.06571,-0.0321 0.0038,-0.0669 -0.02451,-0.10006 -0.198756,-0.2101 -0.405615,-0.41233 -0.608843,-0.61807 -0.0176,0.0113 -0.0352,0.0227 -0.0528,0.034 z"
     id="path46181" />
  <path
     style="opacity:1;fill:#5e4c9b;fill-opacity:1;stroke:#43366e;stroke-width:0.0146832;stroke-linecap:round;stroke-linejoin:round;stroke-opacity:1"
     d="m 83.020138,139.82408 c -0.621397,0.53425 -1.281851,1.02124 -1.938867,1.51041 -0.272161,0.19124 -0.533132,0.40349 -0.825842,0.56238 -0.04125,0.002 -0.113137,4.4e-4 -0.08853,0.065 0.07227,0.15371 0.215677,0.26308 0.326872,0.3892 0.06005,0.0473 0.108857,0.13298 0.181016,0.15422 0.01321,-0.0777 0.126488,-0.0972 0.183017,-0.14425 1.035836,-0.58745 2.075072,-1.16974 3.130591,-1.72123 -0.287303,-0.30501 -0.581444,-0.60347 -0.879671,-0.89779 -0.02953,0.0273 -0.05906,0.0547 -0.08859,0.082 z"
     id="path46220" />
  <path
     style="opacity:1;fill:#5e4c9b;fill-opacity:1;stroke:#43366e;stroke-width:0.0146832;stroke-linecap:round;stroke-linejoin:round;stroke-opacity:1"
     d="m 81.525007,139.24122 c -0.563449,-0.0195 -1.109735,0.34873 -1.31618,0.87156 -0.07382,0.18801 -0.137269,0.38948 -0.138113,0.59226 0.06227,-0.007 0.114409,-0.0822 0.170691,-0.11451 0.485245,-0.39894 0.985357,-0.78007 1.51208,-1.12295 0.0962,-0.0654 0.190037,-0.13416 0.283884,-0.20287 -0.168288,-0.0315 -0.341983,-0.0211 -0.512362,-0.0235 z"
     id="path46259" />
  <path
     style="opacity:1;fill:#5e4c9b;fill-opacity:1;stroke:#43366e;stroke-width:0.0293663;stroke-linecap:round;stroke-linejoin:round;stroke-opacity:1"
     d="m 131.13078,196.46816 -0.56202,-0.5653 0.16131,-0.19088 c 0.21423,-0.25351 1.82596,-2.28655 2.81696,-3.55333 1.1576,-1.47972 1.566,-2.0235 1.58507,-2.11049 0.009,-0.0425 0.0191,-0.0852 0.0217,-0.0948 0.005,-0.0179 2.40622,2.4302 2.42095,2.4681 0.004,0.0115 -0.0682,0.0804 -0.16151,0.15312 -1.84749,1.43962 -3.7715,2.94258 -4.62451,3.61248 -0.59275,0.46551 -1.08183,0.84639 -1.08684,0.84639 -0.005,0 -0.26201,-0.25439 -0.57112,-0.56531 z"
     id="path66143" />
  <path
     style="opacity:1;fill:#5e4c9b;fill-opacity:1;stroke:#43366e;stroke-width:0.0293663;stroke-linecap:round;stroke-linejoin:round;stroke-opacity:1"
     d="m 133.41618,198.74869 c -0.67264,-0.66826 -0.90769,-0.91895 -0.87384,-0.93194 0.0255,-0.01 0.33383,-0.24726 0.68522,-0.52775 0.3514,-0.28049 1.57716,-1.24109 2.72392,-2.13467 1.14675,-0.89358 2.16525,-1.68795 2.26333,-1.76528 l 0.17832,-0.14059 0.30632,0.31406 c 0.16848,0.17274 0.41817,0.42955 0.55488,0.57071 l 0.24856,0.25664 -0.42574,0.43347 c -0.23416,0.2384 -1.2311,1.25939 -2.21543,2.26886 -0.98434,1.00947 -1.95523,2.00083 -2.15755,2.20302 l -0.36784,0.36763 z"
     id="path66182" />
  <path
     style="opacity:1;fill:#5e4c9b;fill-opacity:1;stroke:#43366e;stroke-width:0.0293663;stroke-linecap:round;stroke-linejoin:round;stroke-opacity:1"
     d="m 136.36874,201.71777 c -0.70596,-0.71627 -1.28357,-1.31001 -1.28357,-1.31942 0,-0.009 0.0314,-0.0171 0.0698,-0.0171 0.0713,0 0.84637,-0.77794 3.61336,-3.62674 0.61181,-0.62991 1.20288,-1.23765 1.31349,-1.35053 l 0.20109,-0.20524 0.41323,0.4108 c 0.22728,0.22595 0.5728,0.57972 0.76782,0.78618 l 0.3546,0.37537 -0.059,0.0651 c -0.0325,0.0358 -0.32316,0.46818 -0.64599,0.9608 -0.32283,0.49262 -1.06858,1.62249 -1.65723,2.51082 -0.58865,0.88834 -1.22633,1.85643 -1.41706,2.15132 -0.19073,0.29489 -0.35581,0.54174 -0.36684,0.54856 -0.011,0.007 -0.59766,-0.57365 -1.30363,-1.28992 z"
     id="path66221" />
  <path
     style="opacity:1;fill:#5e4c9b;fill-opacity:1;stroke:#43366e;stroke-width:0.0293663;stroke-linecap:round;stroke-linejoin:round;stroke-opacity:1"
     d="m 140.30615,205.80666 c -0.13772,-0.1494 -0.61364,-0.65339 -1.05761,-1.11998 l -0.80722,-0.84834 0.16084,-0.22353 c 0.24141,-0.33549 2.10994,-3.14393 2.81569,-4.23204 0.85114,-1.31226 1.07021,-1.66606 1.10127,-1.77854 l 0.0267,-0.0966 0.66668,0.68062 c 0.36667,0.37434 0.92331,0.94072 1.23698,1.25861 l 0.5703,0.57798 -0.49974,0.67009 c -0.69633,0.93368 -1.97316,2.67783 -3.03299,4.14305 -0.49262,0.68105 -0.9035,1.23874 -0.91307,1.2393 -0.01,5.7e-4 -0.13009,-0.12121 -0.26781,-0.27061 z"
     id="path66260" />
  <path
     style="opacity:1;fill:#5e4c9b;fill-opacity:1;stroke:#43366e;stroke-width:0.0293663;stroke-linecap:round;stroke-linejoin:round;stroke-opacity:1"
     d="m 142.83788,208.59597 c -0.13072,-0.15801 -1.03413,-1.17182 -1.29652,-1.45495 l -0.19899,-0.21472 0.27373,-0.35793 c 0.37737,-0.49344 1.44481,-1.94512 2.93721,-3.9945 l 1.25819,-1.72777 0.85516,0.87651 c 1.2012,1.23118 1.3397,1.37607 1.3397,1.40151 0,0.0124 -0.19568,0.23612 -0.43485,0.49722 -0.84404,0.92144 -3.11322,3.42241 -3.86148,4.25592 -0.41672,0.46421 -0.76031,0.84377 -0.76352,0.84348 -0.003,-2.9e-4 -0.0521,-0.0564 -0.10863,-0.12477 z"
     id="path66299" />
  <path
     style="opacity:1;fill:#5e4c9b;fill-opacity:1;stroke:#43366e;stroke-width:0.0293663;stroke-linecap:round;stroke-linejoin:round;stroke-opacity:1"
     d="m 145.59034,211.8346 c -0.49026,-0.47337 -0.72095,-0.73582 -1.29109,-1.46881 -0.21985,-0.28266 -0.45884,-0.58656 -0.53109,-0.67535 l -0.13135,-0.16144 0.0674,-0.0442 c 0.23717,-0.15558 5.11563,-5.51207 5.06566,-5.56203 -0.061,-0.061 -0.026,-0.0808 0.0514,-0.0291 0.0444,0.0297 0.21951,0.13771 0.3891,0.24004 0.16959,0.10232 0.31972,0.1973 0.33363,0.21107 0.0257,0.0254 -0.11275,0.34178 -1.16355,2.65854 -0.32234,0.71067 -0.94012,2.08501 -1.37286,3.0541 -0.43273,0.96909 -0.83122,1.85947 -0.88551,1.97863 l -0.0987,0.21664 z"
     id="path66338" />
  <path
     style="opacity:1;fill:#5e4c9b;fill-opacity:1;stroke:#43366e;stroke-width:0.0293663;stroke-linecap:round;stroke-linejoin:round;stroke-opacity:1"
     d="m 149.40126,213.93386 c -0.0162,-0.005 -0.18134,-0.0522 -0.36708,-0.10384 -0.60501,-0.16812 -1.34205,-0.48258 -1.88455,-0.80402 l -0.22536,-0.13353 0.35245,-0.75677 c 0.75844,-1.6285 2.56327,-5.62489 3.07744,-6.81429 0.11709,-0.27086 0.1747,-0.43972 0.1628,-0.47721 -0.0221,-0.0697 -0.0285,-0.0692 0.14182,-0.0112 0.0756,0.0258 0.13738,0.0601 0.13738,0.0763 0,0.0162 -0.15157,1.09532 -0.33683,2.39794 -0.38749,2.72461 -0.50863,3.59779 -0.73394,5.29035 -0.0892,0.67028 -0.16917,1.24843 -0.17766,1.28478 -0.0142,0.0607 -0.0659,0.0789 -0.14647,0.0515 z"
     id="path66377" />
  <path
     style="opacity:1;fill:#5e4c9b;fill-opacity:1;stroke:#43366e;stroke-width:0.0293663;stroke-linecap:round;stroke-linejoin:round;stroke-opacity:1"
     d="m 150.5906,214.0787 c 0,-0.009 0.0123,-0.0395 0.0273,-0.0676 0.0328,-0.0612 0.26577,-1.68526 0.85167,-5.93594 0.33586,-2.4367 0.35929,-2.6259 0.34191,-2.76112 l -0.0171,-0.13284 0.36721,0.072 c 0.35058,0.0687 0.36721,0.0752 0.36721,0.14396 0,0.0396 0.0653,0.3577 0.14506,0.70692 0.0798,0.34921 0.28543,1.26264 0.45699,2.02983 0.40916,1.8298 0.64083,2.84558 0.89414,3.92041 0.28427,1.20626 0.27452,1.16103 0.25461,1.18094 -0.01,0.01 -0.71335,0.2073 -1.56347,0.43891 -1.50156,0.4091 -1.55393,0.42111 -1.83559,0.42111 -0.15945,0 -0.28992,-0.007 -0.28992,-0.0166 z"
     id="path66416" />
  <path
     style="opacity:1;fill:#5e4c9b;fill-opacity:1;stroke:#43366e;stroke-width:0.0293663;stroke-linecap:round;stroke-linejoin:round;stroke-opacity:1"
     d="m 155.28921,212.88158 c 0,-0.29732 -1.42733,-6.67248 -1.65797,-7.40529 -0.0179,-0.0568 -0.004,-0.0589 0.43064,-0.0649 0.93796,-0.0129 1.63185,-0.12643 2.76501,-0.45255 0.22389,-0.0644 0.4101,-0.11313 0.41379,-0.1082 0.008,0.0104 -0.0157,0.31007 -0.116,1.47726 -0.094,1.09358 -0.20042,2.46131 -0.29249,3.7589 -0.0401,0.5653 -0.0958,1.34943 -0.12381,1.7425 -0.028,0.39308 -0.0647,0.7316 -0.0816,0.75227 -0.0287,0.035 -1.20011,0.36844 -1.29459,0.36844 -0.0254,0 -0.0429,-0.028 -0.0429,-0.0684 z"
     id="path66455" />
  <path
     style="opacity:1;fill:#5e4c9b;fill-opacity:1;stroke:#43366e;stroke-width:0.0293663;stroke-linecap:round;stroke-linejoin:round;stroke-opacity:1"
     d="m 157.80213,212.09106 c 0.008,-0.10095 0.0473,-0.63945 0.0872,-1.19668 0.04,-0.55723 0.11855,-1.62102 0.17465,-2.36399 0.1635,-2.16528 0.22258,-3.05296 0.23525,-3.53478 0.007,-0.24822 0.0168,-0.45627 0.0229,-0.46234 0.0164,-0.0164 1.41349,-0.42021 1.42254,-0.41116 0.004,0.004 0.034,1.20932 0.0661,2.67788 0.0321,1.46857 0.0695,3.17229 0.0831,3.78604 0.0136,0.61376 0.0238,1.11804 0.0227,1.12062 -0.004,0.01 -2.06518,0.56795 -2.09641,0.56795 -0.0219,0 -0.0278,-0.0601 -0.018,-0.18354 z"
     id="path66494" />
  <path
     style="opacity:1;fill:#5e4c9b;fill-opacity:1;stroke:#43366e;stroke-width:0.0293663;stroke-linecap:round;stroke-linejoin:round;stroke-opacity:1"
     d="m 160.97583,210.06612 c -0.0578,-3.95736 -0.11686,-6.11671 -0.16901,-6.17955 -0.0208,-0.025 -0.0244,-0.0522 -0.009,-0.0657 0.0147,-0.0127 0.54864,-0.17298 1.18663,-0.35613 0.63798,-0.18315 1.17483,-0.33815 1.19299,-0.34443 0.0217,-0.008 0.1,0.33324 0.22872,0.99609 0.66283,3.41224 1.20879,6.11292 1.26363,6.25081 0.0151,0.0378 -0.28515,0.12805 -1.79615,0.5397 -0.99783,0.27184 -1.82863,0.49977 -1.84624,0.50651 -0.0226,0.009 -0.0378,-0.38567 -0.0519,-1.34727 z"
     id="path66533" />
  <path
     style="opacity:1;fill:#5e4c9b;fill-opacity:1;stroke:#43366e;stroke-width:0.0293663;stroke-linecap:round;stroke-linejoin:round;stroke-opacity:1"
     d="m 165.74363,210.08318 c 0,-0.12209 -1.26746,-6.19014 -1.42759,-6.83468 -0.0407,-0.16374 -0.0811,-0.32649 -0.0897,-0.36165 -0.0141,-0.0573 0.005,-0.0701 0.18548,-0.12317 1.09936,-0.32361 2.04618,-0.59135 2.05611,-0.58142 0.007,0.007 0.0506,0.14933 0.0976,0.31694 0.047,0.16762 0.21305,0.76067 0.36902,1.31789 0.35266,1.25994 1.01951,3.5393 1.23652,4.22656 0.20418,0.64662 0.39618,1.29966 0.38532,1.31052 -0.005,0.005 -0.62275,0.1749 -1.3738,0.37857 -0.75104,0.20367 -1.38205,0.37615 -1.40224,0.38329 -0.0202,0.007 -0.0367,-0.008 -0.0367,-0.0328 z"
     id="path66572" />
  <path
     style="opacity:1;fill:#5e4c9b;fill-opacity:1;stroke:#43366e;stroke-width:0.0293663;stroke-linecap:round;stroke-linejoin:round;stroke-opacity:1"
     d="m 169.59062,209.0332 c 0,-0.0446 -0.53094,-1.90759 -1.22292,-4.29107 -0.72306,-2.49056 -0.80398,-2.75442 -0.85648,-2.7928 -0.0273,-0.0199 -0.0389,-0.0469 -0.0258,-0.06 0.013,-0.0131 0.71342,-0.22362 1.55637,-0.46792 l 1.53263,-0.44419 0.0224,0.10578 c 0.0123,0.0582 0.13477,0.7564 0.27213,1.55159 0.38273,2.21573 0.9673,5.43507 1.04618,5.76156 0.008,0.032 -0.24875,0.11295 -1.08334,0.34177 -0.60142,0.16488 -1.12671,0.30813 -1.16731,0.31832 -0.0528,0.0132 -0.0738,0.007 -0.0738,-0.0231 z"
     id="path66611" />
</svg>
