<?xml version="1.0" encoding="UTF-8" standalone="no"?>
<svg
   id="Layer_1"
   data-name="Layer 1"
   version="1.1"
   width="379.66"
   height="368.18"
   sodipodi:docname="CHA2.svg"
   inkscape:version="1.1.2 (b8e25be833, 2022-02-05)"
   xmlns:inkscape="http://www.inkscape.org/namespaces/inkscape"
   xmlns:sodipodi="http://sodipodi.sourceforge.net/DTD/sodipodi-0.dtd"
   xmlns="http://www.w3.org/2000/svg"
   xmlns:svg="http://www.w3.org/2000/svg">
  <sodipodi:namedview
     id="namedview58"
     pagecolor="#ffffff"
     bordercolor="#666666"
     borderopacity="1.0"
     inkscape:pageshadow="2"
     inkscape:pageopacity="0.0"
     inkscape:pagecheckerboard="0"
     showgrid="false"
     showguides="true"
     inkscape:guide-bbox="true"
     inkscape:zoom="1.4308071"
     inkscape:cx="202.33335"
     inkscape:cy="196.39265"
     inkscape:window-width="1920"
     inkscape:window-height="1017"
     inkscape:window-x="-8"
     inkscape:window-y="-8"
     inkscape:window-maximized="1"
     inkscape:current-layer="Layer_1" />
  <defs
     id="defs4">
    <style
       id="style2">.cls-3{fill:#fff}.cls-4{fill:#541f3e}.cls-5{fill:#009e87}</style>
  </defs>
  <path
     class="cls-4"
     d="M137.41 130.44a49.11 49.11 0 1 0 49.1-49.11 49.16 49.16 0 0 0-49.1 49.11zm15.82 0a33.29 33.29 0 1 1 33.28 33.28 33.32 33.32 0 0 1-33.23-33.28z"
     id="path192"
     style="fill:#541f3e" />
  <path
     class="cls-5"
     d="M130.17 142.41h112.69a57.89 57.89 0 0 1 57.89 57.89v76.79H72.28v-76.8a57.89 57.89 0 0 1 57.89-57.88z"
     id="path194"
     style="fill:#009e87" />
  <path
     class="cls-4"
     d="M314.28 290.61H58.78v-90.32a71.48 71.48 0 0 1 71.39-71.39h112.69a71.48 71.48 0 0 1 71.42 71.39zm-228.49-27h201.49v-63.32a44.56 44.56 0 0 0-44.38-44.38H130.17a44.56 44.56 0 0 0-44.38 44.38z"
     id="path196"
     style="fill:#541f3e" />
  <path
     class="cls-4"
     id="rect198"
     style="fill:#541f3e"
     d="M140.35 136.35h92.33v63.22h-92.33z" />
  <circle
     cx="186.51"
     cy="130.44"
     r="41.2"
     id="circle200"
     style="fill:#1a1a1a" />
  <path
     class="cls-4"
     d="M141.28 130.44a45.25 45.25 0 1 1 45.24 45.25 45.29 45.29 0 0 1-45.24-45.25zm11.81 0a33.44 33.44 0 1 0 33.43-33.43 33.47 33.47 0 0 0-33.44 33.43z"
     id="path202"
     style="fill:#541f3e" />
  <path
     class="cls-4"
     id="polygon220"
     style="fill:#541f3e"
     transform="translate(-310.72 -175.39)"
     d="M543.35 374.91h-92.23l30.87 70.24h30.49z" />
  <path
     class="cls-4"
     d="M310.46 286.69h61.74v-76c-38.36 0-61.74 31.1-61.74 69.46z"
     id="path222"
     style="fill:#541f3e" />
  <path
     class="cls-4"
     d="M62.28 286.68H.58v-76c38.36 0 61.74 31.1 61.74 69.46z"
     id="path224"
     style="fill:#541f3e" />
  <path
     class="cls-4"
     id="polygon226"
     style="fill:#541f3e"
     transform="translate(-310.72 -175.39)"
     d="m311.3 513.47 27.01 30.1h317.6l27.01-27.84v-57.05H311.3z" />
  <path
     d="m 97.848029,339.43381 v 14.77066 h -4.533997 v -5.74595 h -3.462719 v 5.74595 h -4.533997 v -14.77066 h 4.533997 v 5.43214 h 3.462719 v -5.43214 z"
     id="path51735"
     style="font-size:22.1614px;line-height:1.25;font-family:'Franklin Gothic Heavy';-inkscape-font-specification:'Franklin Gothic Heavy, Normal';letter-spacing:5.92px;fill:#009e87;stroke-width:0.999997" />
  <path
     d="m 112.71699,354.43171 q -3.11644,0 -5.08587,-2.06681 -1.9586,-2.06681 -1.9586,-5.52953 0,-3.31123 1.87204,-5.4646 1.88285,-2.1642 5.21572,-2.1642 3.08398,0 5.02094,2.03434 1.94778,2.03435 1.94778,5.43214 0,3.51683 -1.9586,5.63774 -1.9586,2.12092 -5.05341,2.12092 z m -0.0216,-3.35451 q 1.14703,0 1.64479,-0.99553 0.50859,-1.00635 0.50859,-3.66832 0,-3.85227 -2.06681,-3.85227 -2.22913,0 -2.22913,4.39332 0,4.1228 2.14256,4.1228 z"
     id="path51737"
     style="font-size:22.1614px;line-height:1.25;font-family:'Franklin Gothic Heavy';-inkscape-font-specification:'Franklin Gothic Heavy, Normal';letter-spacing:5.92px;fill:#009e87;stroke-width:0.999997" />
  <path
     d="m 135.69088,348.56673 4.14444,0.24888 q -0.29216,2.71607 -2.0127,4.16609 -1.70972,1.45001 -4.20937,1.45001 -3.00824,0 -4.85863,-1.99106 -1.85039,-1.99107 -1.85039,-5.49707 0,-3.47354 1.753,-5.60528 1.75301,-2.13173 4.89109,-2.13173 2.93249,0 4.50154,1.62315 1.57986,1.62315 1.78546,4.30675 l -4.23101,0.22724 q 0,-1.48247 -0.57351,-2.14255 -0.56269,-0.66008 -1.33098,-0.66008 -2.14256,0 -2.14256,4.30675 0,2.41308 0.55187,3.27876 0.56269,0.86568 1.56905,0.86568 1.79628,0 2.0127,-2.44554 z"
     id="path51739"
     style="font-size:22.1614px;line-height:1.25;font-family:'Franklin Gothic Heavy';-inkscape-font-specification:'Franklin Gothic Heavy, Normal';letter-spacing:5.92px;fill:#009e87;stroke-width:0.999997" />
  <path
     d="m 160.73158,354.20447 h -4.96683 l -2.55376,-5.58364 -1.52576,2.17502 v 3.40862 h -4.27429 v -14.77066 h 4.27429 v 6.10304 l 4.07952,-6.10304 h 4.06869 l -3.73324,5.39968 z"
     id="path51741"
     style="font-size:22.1614px;line-height:1.25;font-family:'Franklin Gothic Heavy';-inkscape-font-specification:'Franklin Gothic Heavy, Normal';letter-spacing:5.92px;fill:#009e87;stroke-width:0.999997" />
  <path
     d="m 178.9767,350.67682 v 3.52765 h -11.11317 v -14.77066 h 11.11317 v 3.40861 h -6.66574 v 2.14256 h 5.38886 v 3.27876 h -5.38886 v 2.41308 z"
     id="path51743"
     style="font-size:22.1614px;line-height:1.25;font-family:'Franklin Gothic Heavy';-inkscape-font-specification:'Franklin Gothic Heavy, Normal';letter-spacing:5.92px;fill:#009e87;stroke-width:0.999997" />
  <path
     d="m 198.95317,339.43381 -4.62057,8.51612 v 6.25454 h -4.40414 v -6.25454 l -4.96684,-8.51612 h 4.96684 l 2.58622,4.85863 2.478,-4.85863 z"
     id="path51745"
     style="font-size:22.1614px;line-height:1.25;font-family:'Franklin Gothic Heavy';-inkscape-font-specification:'Franklin Gothic Heavy, Normal';letter-spacing:5.92px;fill:#009e87;stroke-width:0.999997" />
  <path
     d="m 225.30413,348.56673 4.14444,0.24888 q -0.29217,2.71607 -2.01271,4.16609 -1.70971,1.45001 -4.20936,1.45001 -3.00824,0 -4.85863,-1.99106 -1.85039,-1.99107 -1.85039,-5.49707 0,-3.47354 1.753,-5.60528 1.753,-2.13173 4.89109,-2.13173 2.93249,0 4.50154,1.62315 1.57986,1.62315 1.78546,4.30675 l -4.23101,0.22724 q 0,-1.48247 -0.57351,-2.14255 -0.56269,-0.66008 -1.33098,-0.66008 -2.14256,0 -2.14256,4.30675 0,2.41308 0.55187,3.27876 0.56269,0.86568 1.56904,0.86568 1.79629,0 2.01271,-2.44554 z"
     id="path51747"
     style="font-size:22.1614px;line-height:1.25;font-family:'Franklin Gothic Heavy';-inkscape-font-specification:'Franklin Gothic Heavy, Normal';letter-spacing:5.92px;fill:#009e87;stroke-width:0.999997" />
  <path
     d="m 247.37987,350.57943 v 3.62504 h -10.35569 v -14.77066 h 4.534 v 11.14562 z"
     id="path51749"
     style="font-size:22.1614px;line-height:1.25;font-family:'Franklin Gothic Heavy';-inkscape-font-specification:'Franklin Gothic Heavy, Normal';letter-spacing:5.92px;fill:#009e87;stroke-width:0.999997" />
  <path
     d="m 266.75037,339.43381 v 9.78218 q 0,2.78099 -1.65562,4.00377 -1.64479,1.21195 -4.29593,1.21195 -2.79182,0 -4.49071,-1.16867 -1.68808,-1.16867 -1.68808,-3.80899 v -10.02024 h 4.60974 v 9.49001 q 0,1.06046 0.44367,1.5474 0.45448,0.48695 1.43919,0.48695 0.82239,0 1.3418,-0.34627 0.53023,-0.3571 0.62762,-0.80076 0.10821,-0.44366 0.10821,-1.73136 v -8.64597 z"
     id="path51751"
     style="font-size:22.1614px;line-height:1.25;font-family:'Franklin Gothic Heavy';-inkscape-font-specification:'Franklin Gothic Heavy, Normal';letter-spacing:5.92px;fill:#009e87;stroke-width:0.999997" />
  <path
     d="m 275.09428,354.20447 v -14.77066 h 7.49895 q 2.33733,0 3.40861,1.17949 1.07128,1.17949 1.07128,2.69442 0,1.10375 -0.62762,2.00189 -0.61679,0.88732 -1.85039,1.22277 2.86757,0.69255 2.86757,3.44108 0,1.64479 -1.01718,2.94331 -1.00635,1.2877 -4.31757,1.2877 z m 4.1769,-9.11128 h 2.09928 q 0.78993,0 1.11456,-0.40038 0.32463,-0.40037 0.32463,-0.85486 0,-1.23359 -1.51494,-1.23359 h -2.02353 z m 0,5.82169 h 2.20749 q 0.82239,0 1.20113,-0.40037 0.38955,-0.4112 0.38955,-0.91979 0,-0.50858 -0.37873,-0.9306 -0.36792,-0.43284 -1.36345,-0.43284 h -2.05599 z"
     id="path51753"
     style="font-size:22.1614px;line-height:1.25;font-family:'Franklin Gothic Heavy';-inkscape-font-specification:'Franklin Gothic Heavy, Normal';letter-spacing:5.92px;fill:#009e87;stroke-width:0.999997" />
  <path
     class="cls-5"
     transform="scale(-1)"
     id="rect228"
     style="fill:#009e87"
     d="M-356.76-322.65h340.75v39.75h-340.75z" />
  <path
     class="cls-3"
     transform="scale(-1)"
     id="rect230"
     style="fill:#fff"
     d="M-356.77-322.65h42.45v39.75h-42.45z" />
  <path
     class="cls-4"
     id="polygon232"
     style="fill:#541f3e"
     transform="translate(-310.72 -175.39)"
     d="m530.93 477.34-10.57-15.29-10.57 15.28 10.57 16.87z" />
  <path
     class="cls-4"
     id="polygon234"
     style="fill:#541f3e"
     transform="translate(-310.72 -175.39)"
     d="m573.12 477.34-10.57-15.29-10.57 15.28 10.57 16.87z" />
  <path
     class="cls-4"
     id="polygon236"
     style="fill:#541f3e"
     transform="translate(-310.72 -175.39)"
     d="m615.3 477.34-10.56-15.29-10.57 15.28 10.57 16.87z" />
  <path
     class="cls-5"
     id="polygon238"
     style="fill:#009e87"
     transform="translate(-310.72 -175.39)"
     d="m657.49 477.34-10.57-15.29-10.56 15.28 10.57 16.87z" />
  <path
     class="cls-4"
     id="polygon240"
     style="fill:#541f3e"
     transform="translate(-310.72 -175.39)"
     d="m362.17 477.34-10.57-15.29-10.57 15.28 10.57 16.87z" />
  <path
     class="cls-4"
     id="polygon242"
     style="fill:#541f3e"
     transform="translate(-310.72 -175.39)"
     d="m404.36 477.34-10.57-15.29-10.57 15.28 10.57 16.87z" />
  <path
     class="cls-4"
     id="polygon244"
     style="fill:#541f3e"
     transform="translate(-310.72 -175.39)"
     d="m446.55 477.34-10.57-15.29-10.57 15.28 10.57 16.87z" />
  <path
     class="cls-4"
     id="polygon246"
     style="fill:#541f3e"
     transform="translate(-310.72 -175.39)"
     d="m488.74 477.34-10.57-15.29-10.57 15.28 10.57 16.87z" />
  <path
     class="cls-3"
     d="M232.68 155.91h10.18a44.56 44.56 0 0 1 44.42 44.38v63.32h-21v-66.57s.34-25.52-33.6-41.13z"
     id="path248"
     style="fill:#fff" />
  <path
     class="cls-4"
     d="M132.63 155.91h-10.18a44.54 44.54 0 0 0-44.37 44.38v63.32H99v-66.57s-.31-25.52 33.63-41.13z"
     id="path250"
     style="fill:#541f3e" />
  <path
     class="cls-5"
     d="m12.71 90.23 40.88 27.62.9 4.9-1.5 2.21.22 1.13 5.22 3.52-3.94 5.84-5.21-3.53-1.13.22-1.49 2.21-4.92 1.06L.86 107.79l-.86-5 7.84-11.6zm-1.43 8.54-3 4.48.22 1.13 33.58 22.69 1.13-.22 3-4.48-.22-1.13-33.58-22.69z"
     id="path252"
     style="fill:#009e87" />
  <path
     class="cls-5"
     d="m47.88 53.36 33.26 36.45-.28 5-10.4 9.49-4.92-.23-33.26-36.46-3-2 6.45-5.89 1.69 3.17 30.32 33.22 1.15.05 4.05-3.7v-1.15L42.68 58.1l-3-2 6.52-5.94z"
     id="path254"
     style="fill:#009e87" />
  <path
     class="cls-5"
     d="m97.28 82.47-.92-3.48-24.08-43.13-2.44-2.55 18.44-10.29 4.89 6.17-3.57 1.06-8.79 4.92-.32 1.11 7.81 14 1.11.32 2.45-1.37 2.61-2.48 4.3 7.7-3.48.92-2.45 1.37-.32 1.11 7.76 13.87 1.11.31 8.79-4.91 2.78-2.48 2.76 7.53z"
     id="path256"
     style="fill:#009e87" />
  <path
     class="cls-5"
     d="m130.6 65.95-.11-3.59-13.74-47.46-1.8-3L135.28 6l3.37 7.13-3.71.22-9.68 2.8-.55 1 4.44 15.37 1 .56 2.71-.78 3.09-1.83 2.46 8.47-3.6.12-2.7.78-.56 1 4.43 15.3 1 .55 9.68-2.8 3.26-1.79 1 8z"
     id="path258"
     style="fill:#009e87" />
  <path
     class="cls-5"
     d="m175.41 56.93-8.74.38.74-3.45-2.13-49.36-1-3.44 7.85-.34 10.15 32.63L181 3.82l-1-3.44 8.81-.38-.74 3.51 2.14 49.37 1 3.37-7.93.36-10.16-32.71 1.25 29.71z"
     id="path260"
     style="fill:#009e87" />
  <path
     class="cls-5"
     d="m236.96 60.72 17.9-46 4.58-2 13.11 5.11 2 4.51-2.58 6.63-.41 3.49-8.21-3.2 2.13-2.82 1-2.62-.47-1.06-5.11-2-1 .46-14.73 37.83.46 1.06 5.11 2 1.05-.47 1-2.55.34-3.52 8.21 3.19-2.06 2.93-2.61 6.69-4.51 2-13.11-5.1z"
     id="path262"
     style="fill:#009e87" />
  <path
     class="cls-5"
     d="m277.88 84.67-7.37-4.7 2.58-2.4 26.57-41.67 1.12-3.41 7.37 4.7-2.62 2.42-26.57 41.67z"
     id="path264"
     style="fill:#009e87" />
  <path
     class="cls-5"
     d="m341.92 75.88-2.11-3.16-3.26-3.11h-1.16l-31.11 32.46-1.72 3.08-6.36-6.1 3-1.85 31.08-32.45v-1.16l-3.37-3.23-3.18-1.92 6.39-4.85 16.31 15.64z"
     id="path266"
     style="fill:#009e87" />
  <path
     class="cls-5"
     d="m329.05 133.7-2.5 2.58-4.62-7.52 3.48-1 17.8-10.93 20.27-22.78 1.41-2.95 5.39 8.71-2.51.59-12.72 13.28 17.6-5.32 1.58-2.1 5.43 8.84-3.59.11-29.43 7.71z"
     id="path268"
     style="fill:#009e87" />
  <circle
     cx="186.50999"
     cy="130.44"
     id="circle1515"
     style="fill:none;stroke:#4d4d4d;stroke-width:3.4;stroke-miterlimit:4;stroke-dasharray:none"
     r="26.173517" />
</svg>
