<?xml version="1.0" encoding="UTF-8" standalone="no"?>
<!-- Created with Inkscape (http://www.inkscape.org/) -->

<svg
   width="210mm"
   height="297mm"
   viewBox="0 0 210 297"
   version="1.1"
   id="svg5"
   inkscape:version="1.1.2 (b8e25be833, 2022-02-05)"
   sodipodi:docname="drawing.svg"
   xmlns:inkscape="http://www.inkscape.org/namespaces/inkscape"
   xmlns:sodipodi="http://sodipodi.sourceforge.net/DTD/sodipodi-0.dtd"
   xmlns="http://www.w3.org/2000/svg"
   xmlns:svg="http://www.w3.org/2000/svg">
  <sodipodi:namedview
     id="namedview7"
     pagecolor="#505050"
     bordercolor="#ffffff"
     borderopacity="1"
     inkscape:pageshadow="0"
     inkscape:pageopacity="0"
     inkscape:pagecheckerboard="1"
     inkscape:document-units="mm"
     showgrid="false"
     inkscape:zoom="5.9223906"
     inkscape:cx="258.00392"
     inkscape:cy="439.01191"
     inkscape:window-width="1920"
     inkscape:window-height="1017"
     inkscape:window-x="-8"
     inkscape:window-y="-8"
     inkscape:window-maximized="1"
     inkscape:current-layer="layer1" />
  <defs
     id="defs2">
    <clipPath
       clipPathUnits="userSpaceOnUse"
       id="clipPath65145">
      <g
         id="g65155">
        <g
           id="g65151">
          <path
             style="color:#000000;fill:#d08f2a;stroke-width:1px;stroke-linejoin:round;-inkscape-stroke:none"
             d="m 119.54063,177.14466 c 1.2986,-0.37881 2.16907,-0.35435 3.48057,0.18638 l 25.17957,27.20726 c 0,0 4.13453,2.13939 11.71864,0.14104 7.9139,-2.08525 17.78796,-4.03884 17.78796,-4.03884 0,0 1.76404,0.0172 2.26964,1.44382 0.50559,1.42666 1.36747,7.05434 1.36747,7.05434 0,0 0.21952,0.95332 -1.5303,1.69177 -1.74981,0.73844 -11.67265,2.31111 -11.67265,2.31111 l -10.13765,2.20662 -7.80332,1.73432 c 0,0 -4.8511,-0.14485 -6.72838,-2.46266 l -27.34062,-29.85216 c 0,0 -1.02145,-0.5937 -0.3449,-3.59654 z"
             id="path65147" />
          <path
             style="color:#000000;fill:#d08f2a;stroke-linejoin:round;-inkscape-stroke:none"
             d="m 121.30078,176.4043 c -0.61023,-0.0296 -1.21948,0.0611 -1.90039,0.25976 a 0.50005,0.50005 0 0 0 -0.22461,0.13867 l -3.7539,4.02735 a 0.50005,0.50005 0 0 0 -0.12305,0.23047 c -0.35169,1.56094 -0.27606,2.55248 -0.0684,3.18945 0.10385,0.31848 0.24142,0.54583 0.36719,0.69727 0.12576,0.15143 0.2832,0.25195 0.2832,0.25195 l -0.11719,-0.0937 27.33985,29.85156 -0.0195,-0.0234 c 1.06802,1.31864 2.84762,1.93805 4.34571,2.27539 1.49808,0.33735 2.75586,0.37305 2.75586,0.37305 a 0.50005,0.50005 0 0 0 0.12304,-0.0117 l 7.80274,-1.73437 10.13672,-2.20508 c 0.0259,-0.004 2.47063,-0.39096 5.16211,-0.875 1.35283,-0.2433 2.76187,-0.51046 3.94726,-0.76367 1.18539,-0.25322 2.11555,-0.47547 2.65039,-0.70117 0.95282,-0.40211 1.44977,-0.90524 1.67578,-1.36133 0.11301,-0.22805 0.15536,-0.43863 0.16602,-0.59766 0.0106,-0.15903 -0.0176,-0.30469 -0.0176,-0.30469 -0.005,-0.0325 -0.21176,-1.39379 -0.48828,-2.96679 -0.27979,-1.59165 -0.60247,-3.31846 -0.89453,-4.14258 -0.6275,-1.77057 -2.73633,-1.77734 -2.73633,-1.77735 a 0.50005,0.50005 0 0 0 -0.10352,0.01 c 0,0 -9.87782,1.95317 -17.8164,4.04492 -3.72789,0.98227 -6.58721,0.94396 -8.50586,0.66797 -1.88178,-0.27069 -2.76736,-0.73558 -2.80274,-0.75391 l -25.0957,-27.11718 a 0.50005,0.50005 0 0 0 -0.17773,-0.12305 c -0.68933,-0.28421 -1.29993,-0.43521 -1.91016,-0.46484 z m -0.0488,0.97656 c 0.4527,0.0219 0.92006,0.15965 1.4961,0.39062 l 25.08593,27.10547 a 0.50005,0.50005 0 0 0 0.13672,0.10547 c 0,0 1.1292,0.57698 3.17383,0.8711 2.04464,0.29411 5.04613,0.32467 8.90234,-0.69141 7.85801,-2.07052 17.60993,-4.00026 17.6875,-4.01563 0.0562,0.002 1.39569,0.0451 1.77149,1.10547 0.21353,0.60254 0.57402,2.40162 0.85156,3.98047 0.27755,1.57885 0.49219,2.98242 0.49219,2.98242 a 0.50005,0.50005 0 0 0 0.008,0.0352 c 0,0 -0.001,-0.0272 -0.004,0.0156 -0.003,0.0428 -0.0156,0.11812 -0.0664,0.22071 -0.10168,0.20518 -0.37097,0.54647 -1.16797,0.88281 -0.34006,0.14351 -1.30343,0.39519 -2.4707,0.64453 -1.16727,0.24935 -2.56942,0.51564 -3.91602,0.75781 -2.6932,0.48435 -5.16992,0.87696 -5.16992,0.87696 a 0.50005,0.50005 0 0 0 -0.0273,0.004 l -10.13672,2.20703 a 0.50005,0.50005 0 0 0 -0.004,0 l -7.72266,1.7168 c -0.0382,-0.001 -1.1481,-0.0345 -2.52148,-0.34375 -1.39678,-0.31453 -2.97979,-0.92856 -3.78906,-1.92773 a 0.50005,0.50005 0 0 0 -0.0195,-0.0234 L 116.5,184.42969 a 0.50005,0.50005 0 0 0 -0.11719,-0.0937 c 0,0 0.029,0.0264 -0.0156,-0.0273 -0.0446,-0.0537 -0.11861,-0.16189 -0.18555,-0.36718 -0.12877,-0.39492 -0.19215,-1.21807 0.0898,-2.5586 l 3.52149,-3.77539 c 0.55498,-0.15455 1.01586,-0.24797 1.45898,-0.22656 z"
             id="path65149" />
        </g>
        <path
           style="fill:#d08f2a;fill-opacity:1;stroke:#d08f2a;stroke-width:0.1;stroke-linecap:butt;stroke-linejoin:miter;stroke-miterlimit:4;stroke-dasharray:none;stroke-opacity:1"
           d="m 97.60244,154.12516 22.43949,24.06341 -3.08705,2.44063 -22.169869,-23.72567 z"
           id="path65153" />
      </g>
    </clipPath>
    <clipPath
       clipPathUnits="userSpaceOnUse"
       id="clipPath65123">
      <g
         id="g65133">
        <g
           id="g65129">
          <path
             style="color:#000000;fill:#d08f2a;stroke-width:1px;stroke-linejoin:round;-inkscape-stroke:none"
             d="m 119.54063,177.14466 c 1.2986,-0.37881 2.16907,-0.35435 3.48057,0.18638 l 25.17957,27.20726 c 0,0 4.13453,2.13939 11.71864,0.14104 7.9139,-2.08525 17.78796,-4.03884 17.78796,-4.03884 0,0 1.76404,0.0172 2.26964,1.44382 0.50559,1.42666 1.36747,7.05434 1.36747,7.05434 0,0 0.21952,0.95332 -1.5303,1.69177 -1.74981,0.73844 -11.67265,2.31111 -11.67265,2.31111 l -10.13765,2.20662 -7.80332,1.73432 c 0,0 -4.8511,-0.14485 -6.72838,-2.46266 l -27.34062,-29.85216 c 0,0 -1.02145,-0.5937 -0.3449,-3.59654 z"
             id="path65125" />
          <path
             style="color:#000000;fill:#d08f2a;stroke-linejoin:round;-inkscape-stroke:none"
             d="m 121.30078,176.4043 c -0.61023,-0.0296 -1.21948,0.0611 -1.90039,0.25976 a 0.50005,0.50005 0 0 0 -0.22461,0.13867 l -3.7539,4.02735 a 0.50005,0.50005 0 0 0 -0.12305,0.23047 c -0.35169,1.56094 -0.27606,2.55248 -0.0684,3.18945 0.10385,0.31848 0.24142,0.54583 0.36719,0.69727 0.12576,0.15143 0.2832,0.25195 0.2832,0.25195 l -0.11719,-0.0937 27.33985,29.85156 -0.0195,-0.0234 c 1.06802,1.31864 2.84762,1.93805 4.34571,2.27539 1.49808,0.33735 2.75586,0.37305 2.75586,0.37305 a 0.50005,0.50005 0 0 0 0.12304,-0.0117 l 7.80274,-1.73437 10.13672,-2.20508 c 0.0259,-0.004 2.47063,-0.39096 5.16211,-0.875 1.35283,-0.2433 2.76187,-0.51046 3.94726,-0.76367 1.18539,-0.25322 2.11555,-0.47547 2.65039,-0.70117 0.95282,-0.40211 1.44977,-0.90524 1.67578,-1.36133 0.11301,-0.22805 0.15536,-0.43863 0.16602,-0.59766 0.0106,-0.15903 -0.0176,-0.30469 -0.0176,-0.30469 -0.005,-0.0325 -0.21176,-1.39379 -0.48828,-2.96679 -0.27979,-1.59165 -0.60247,-3.31846 -0.89453,-4.14258 -0.6275,-1.77057 -2.73633,-1.77734 -2.73633,-1.77735 a 0.50005,0.50005 0 0 0 -0.10352,0.01 c 0,0 -9.87782,1.95317 -17.8164,4.04492 -3.72789,0.98227 -6.58721,0.94396 -8.50586,0.66797 -1.88178,-0.27069 -2.76736,-0.73558 -2.80274,-0.75391 l -25.0957,-27.11718 a 0.50005,0.50005 0 0 0 -0.17773,-0.12305 c -0.68933,-0.28421 -1.29993,-0.43521 -1.91016,-0.46484 z m -0.0488,0.97656 c 0.4527,0.0219 0.92006,0.15965 1.4961,0.39062 l 25.08593,27.10547 a 0.50005,0.50005 0 0 0 0.13672,0.10547 c 0,0 1.1292,0.57698 3.17383,0.8711 2.04464,0.29411 5.04613,0.32467 8.90234,-0.69141 7.85801,-2.07052 17.60993,-4.00026 17.6875,-4.01563 0.0562,0.002 1.39569,0.0451 1.77149,1.10547 0.21353,0.60254 0.57402,2.40162 0.85156,3.98047 0.27755,1.57885 0.49219,2.98242 0.49219,2.98242 a 0.50005,0.50005 0 0 0 0.008,0.0352 c 0,0 -0.001,-0.0272 -0.004,0.0156 -0.003,0.0428 -0.0156,0.11812 -0.0664,0.22071 -0.10168,0.20518 -0.37097,0.54647 -1.16797,0.88281 -0.34006,0.14351 -1.30343,0.39519 -2.4707,0.64453 -1.16727,0.24935 -2.56942,0.51564 -3.91602,0.75781 -2.6932,0.48435 -5.16992,0.87696 -5.16992,0.87696 a 0.50005,0.50005 0 0 0 -0.0273,0.004 l -10.13672,2.20703 a 0.50005,0.50005 0 0 0 -0.004,0 l -7.72266,1.7168 c -0.0382,-0.001 -1.1481,-0.0345 -2.52148,-0.34375 -1.39678,-0.31453 -2.97979,-0.92856 -3.78906,-1.92773 a 0.50005,0.50005 0 0 0 -0.0195,-0.0234 L 116.5,184.42969 a 0.50005,0.50005 0 0 0 -0.11719,-0.0937 c 0,0 0.029,0.0264 -0.0156,-0.0273 -0.0446,-0.0537 -0.11861,-0.16189 -0.18555,-0.36718 -0.12877,-0.39492 -0.19215,-1.21807 0.0898,-2.5586 l 3.52149,-3.77539 c 0.55498,-0.15455 1.01586,-0.24797 1.45898,-0.22656 z"
             id="path65127" />
        </g>
        <path
           style="fill:#d08f2a;fill-opacity:1;stroke:#d08f2a;stroke-width:0.1;stroke-linecap:butt;stroke-linejoin:miter;stroke-miterlimit:4;stroke-dasharray:none;stroke-opacity:1"
           d="m 97.60244,154.12516 22.43949,24.06341 -3.08705,2.44063 -22.169869,-23.72567 z"
           id="path65131" />
      </g>
    </clipPath>
    <clipPath
       clipPathUnits="userSpaceOnUse"
       id="clipPath44747">
      <path
         id="path44749"
         style="font-variation-settings:normal;opacity:1;vector-effect:none;fill:#a0a0a0;fill-opacity:1;stroke:none;stroke-width:0.224716;stroke-linecap:butt;stroke-linejoin:miter;stroke-miterlimit:4;stroke-dasharray:none;stroke-dashoffset:0;stroke-opacity:1;-inkscape-stroke:none;stop-color:#000000;stop-opacity:1"
         d="m 82.152344,138.38672 c -1.134111,0.0496 -2.064631,1.20809 -1.894532,2.33008 0.04526,0.5704 0.404089,1.03739 0.785157,1.43554 0.253131,0.2651 0.484439,0.56082 0.773437,0.78711 0.216875,0.0323 0.156127,-0.28651 0.222656,-0.41601 0.292172,-1.31806 0.637187,-2.62665 0.878907,-3.95508 0.0089,-0.22242 -0.293243,-0.15905 -0.435547,-0.18164 -0.07326,-0.002 -0.147436,-0.001 -0.220703,0 -0.03698,-7.5e-4 -0.07279,-0.002 -0.109375,0 z m 1.642578,0.63476 c -0.0161,-3e-4 -0.03235,0.002 -0.04883,0.006 -0.146208,0.16069 -0.11834,0.41888 -0.195313,0.61719 -0.325597,1.37483 -0.640162,2.75247 -0.958984,4.12891 0.07153,0.22805 0.321393,0.36874 0.460937,0.5625 0.251954,0.24263 0.453707,0.5491 0.746094,0.74414 0.22967,0.0387 0.19429,-0.2965 0.273438,-0.43164 0.414454,-1.32424 0.828577,-2.64813 1.242187,-3.97266 -0.05076,-0.22407 -0.303609,-0.35583 -0.433594,-0.54297 -0.354119,-0.35774 -0.664206,-0.76322 -1.039062,-1.09765 -0.01508,-0.009 -0.03078,-0.0134 -0.04687,-0.0137 z m 2.21875,2.39454 c -0.02307,0.003 -0.04493,0.022 -0.06836,0.0273 -0.486142,1.46392 -0.926349,2.94983 -1.394531,4.42187 0.05912,0.23808 0.306513,0.38958 0.449219,0.58594 0.219847,0.23303 0.428376,0.48035 0.664062,0.69727 0.207523,0.0477 0.215495,-0.26086 0.316407,-0.37891 0.571257,-1.16672 1.128263,-2.33934 1.699219,-3.50586 0.0018,-0.20573 -0.253526,-0.31374 -0.355469,-0.47851 -0.42512,-0.44773 -0.826792,-0.9267 -1.267578,-1.35352 -0.01366,-0.0143 -0.02913,-0.0177 -0.04297,-0.0156 z m 2.310547,2.54687 c -0.01385,0.001 -0.02914,0.005 -0.04297,0.006 -0.211476,0.26664 -0.311829,0.61754 -0.480469,0.91602 -0.478163,0.98564 -0.952051,1.97409 -1.427734,2.96093 -0.0011,0.20574 0.254793,0.31224 0.357422,0.47657 0.324247,0.31845 0.594549,0.7026 0.964843,0.96875 0.204791,0.0522 0.251184,-0.24741 0.365235,-0.35743 0.65756,-1.03576 1.327507,-2.06523 1.955078,-3.11914 -0.01519,-0.21114 -0.251923,-0.33585 -0.363281,-0.5039 -0.424026,-0.44983 -0.826149,-0.92855 -1.289063,-1.33789 -0.01289,-0.009 -0.02522,-0.0108 -0.03906,-0.01 z m 2.345703,2.51563 c -0.02078,-0.001 -0.04193,0.004 -0.06445,0.0215 -0.766527,1.14088 -1.50154,2.30633 -2.226563,3.47461 -0.02178,0.19579 0.214377,0.31225 0.308594,0.46484 0.572059,0.60238 1.085283,1.24113 1.636719,1.85938 0.210744,0.10618 0.219433,-0.23886 0.304687,-0.35547 0.521928,-1.24688 1.068283,-2.48762 1.572266,-3.74024 -0.04685,-0.26521 -0.31351,-0.42911 -0.464844,-0.63671 -0.331406,-0.35773 -0.657291,-0.7215 -1,-1.06836 -0.0242,-0.01 -0.04563,-0.0181 -0.06641,-0.0195 z m 2.224609,2.43359 c -0.02084,-0.002 -0.04172,0.01 -0.0625,0.0137 -0.217895,0.34743 -0.336216,0.76091 -0.515625,1.13281 -0.413525,0.99395 -0.861426,1.97764 -1.24414,2.98243 0.04863,0.24083 0.298877,0.38335 0.4375,0.57421 0.371783,0.38705 0.716863,0.80538 1.113281,1.16602 0.197213,0.0228 0.194684,-0.25383 0.279297,-0.375 0.525394,-1.26471 1.038677,-2.53497 1.55664,-3.80273 -0.02078,-0.21052 -0.269951,-0.32661 -0.382812,-0.49805 -0.386103,-0.39462 -0.729217,-0.84039 -1.160156,-1.18555 -0.007,-0.004 -0.01454,-0.007 -0.02148,-0.008 z m 2.230469,2.42578 c -0.01451,0.001 -0.03013,0.005 -0.04492,0.008 -0.19331,0.27522 -0.271811,0.62705 -0.419922,0.93164 -0.439265,1.06692 -0.87261,2.13682 -1.308594,3.20508 0.0242,0.20846 0.26306,0.32856 0.382813,0.49414 0.192759,0.16464 0.339142,0.42216 0.580078,0.51367 0.232087,-0.13602 0.375068,-0.39989 0.572266,-0.58398 0.725047,-0.82457 1.474786,-1.63696 2.175781,-2.47656 0.0016,-0.18537 -0.239156,-0.29424 -0.333984,-0.44727 -0.521132,-0.54273 -0.997461,-1.13587 -1.560547,-1.63476 -0.01437,-0.009 -0.02846,-0.0112 -0.04297,-0.01 z" />
    </clipPath>
    <clipPath
       clipPathUnits="userSpaceOnUse"
       id="clipPath44226">
      <path
         id="path44228"
         style="color:#000000;fill:#000000;-inkscape-stroke:none"
         d="m 82.931641,138.26367 -1.273438,5.51758 0.974609,0.22461 1.273438,-5.51758 z m 2.322265,2.30274 -1.603515,5.13086 0.955078,0.29687 1.603515,-5.12891 z m 2.328125,2.68359 -2.49414,5.16602 0.90039,0.43359 2.494141,-5.16602 z m 2.628907,2.12305 -3.134766,4.95117 0.84375,0.53516 3.136719,-4.95118 z m 2.134765,2.28125 -2.457031,5.80664 0.919922,0.39062 2.458984,-5.80664 z m 2.171875,2.57031 -2.066406,5.06055 0.925781,0.37695 2.066406,-5.05859 z m 2.701172,2.91211 -3.476562,3.92969 0.748046,0.66211 3.476563,-3.92969 z" />
    </clipPath>
  </defs>
  <g
     inkscape:label="Layer 1"
     inkscape:groupmode="layer"
     id="layer1">
    <g
       id="g26671"
       transform="matrix(0.26458333,0,0,0.26458333,28.217897,69.411065)">
      <g
         id="path1978">
        <path
           style="color:#000000;fill:#d08f2a;stroke-width:1px;stroke-linejoin:round;-inkscape-stroke:none"
           d="m 119.54063,177.14466 c 1.2986,-0.37881 2.16907,-0.35435 3.48057,0.18638 l 25.17957,27.20726 c 0,0 4.13453,2.13939 11.71864,0.14104 7.9139,-2.08525 17.78796,-4.03884 17.78796,-4.03884 0,0 1.76404,0.0172 2.26964,1.44382 0.50559,1.42666 1.36747,7.05434 1.36747,7.05434 0,0 0.21952,0.95332 -1.5303,1.69177 -1.74981,0.73844 -11.67265,2.31111 -11.67265,2.31111 l -10.13765,2.20662 -7.80332,1.73432 c 0,0 -4.8511,-0.14485 -6.72838,-2.46266 l -27.34062,-29.85216 c 0,0 -1.02145,-0.5937 -0.3449,-3.59654 z"
           id="path1061" />
        <path
           style="color:#000000;fill:#d08f2a;stroke-linejoin:round;-inkscape-stroke:none"
           d="m 121.30078,176.4043 c -0.61023,-0.0296 -1.21948,0.0611 -1.90039,0.25976 a 0.50005,0.50005 0 0 0 -0.22461,0.13867 l -3.7539,4.02735 a 0.50005,0.50005 0 0 0 -0.12305,0.23047 c -0.35169,1.56094 -0.27606,2.55248 -0.0684,3.18945 0.10385,0.31848 0.24142,0.54583 0.36719,0.69727 0.12576,0.15143 0.2832,0.25195 0.2832,0.25195 l -0.11719,-0.0937 27.33985,29.85156 -0.0195,-0.0234 c 1.06802,1.31864 2.84762,1.93805 4.34571,2.27539 1.49808,0.33735 2.75586,0.37305 2.75586,0.37305 a 0.50005,0.50005 0 0 0 0.12304,-0.0117 l 7.80274,-1.73437 10.13672,-2.20508 c 0.0259,-0.004 2.47063,-0.39096 5.16211,-0.875 1.35283,-0.2433 2.76187,-0.51046 3.94726,-0.76367 1.18539,-0.25322 2.11555,-0.47547 2.65039,-0.70117 0.95282,-0.40211 1.44977,-0.90524 1.67578,-1.36133 0.11301,-0.22805 0.15536,-0.43863 0.16602,-0.59766 0.0106,-0.15903 -0.0176,-0.30469 -0.0176,-0.30469 -0.005,-0.0325 -0.21176,-1.39379 -0.48828,-2.96679 -0.27979,-1.59165 -0.60247,-3.31846 -0.89453,-4.14258 -0.6275,-1.77057 -2.73633,-1.77734 -2.73633,-1.77735 a 0.50005,0.50005 0 0 0 -0.10352,0.01 c 0,0 -9.87782,1.95317 -17.8164,4.04492 -3.72789,0.98227 -6.58721,0.94396 -8.50586,0.66797 -1.88178,-0.27069 -2.76736,-0.73558 -2.80274,-0.75391 l -25.0957,-27.11718 a 0.50005,0.50005 0 0 0 -0.17773,-0.12305 c -0.68933,-0.28421 -1.29993,-0.43521 -1.91016,-0.46484 z m -0.0488,0.97656 c 0.4527,0.0219 0.92006,0.15965 1.4961,0.39062 l 25.08593,27.10547 a 0.50005,0.50005 0 0 0 0.13672,0.10547 c 0,0 1.1292,0.57698 3.17383,0.8711 2.04464,0.29411 5.04613,0.32467 8.90234,-0.69141 7.85801,-2.07052 17.60993,-4.00026 17.6875,-4.01563 0.0562,0.002 1.39569,0.0451 1.77149,1.10547 0.21353,0.60254 0.57402,2.40162 0.85156,3.98047 0.27755,1.57885 0.49219,2.98242 0.49219,2.98242 a 0.50005,0.50005 0 0 0 0.008,0.0352 c 0,0 -0.001,-0.0272 -0.004,0.0156 -0.003,0.0428 -0.0156,0.11812 -0.0664,0.22071 -0.10168,0.20518 -0.37097,0.54647 -1.16797,0.88281 -0.34006,0.14351 -1.30343,0.39519 -2.4707,0.64453 -1.16727,0.24935 -2.56942,0.51564 -3.91602,0.75781 -2.6932,0.48435 -5.16992,0.87696 -5.16992,0.87696 a 0.50005,0.50005 0 0 0 -0.0273,0.004 l -10.13672,2.20703 a 0.50005,0.50005 0 0 0 -0.004,0 l -7.72266,1.7168 c -0.0382,-0.001 -1.1481,-0.0345 -2.52148,-0.34375 -1.39678,-0.31453 -2.97979,-0.92856 -3.78906,-1.92773 a 0.50005,0.50005 0 0 0 -0.0195,-0.0234 L 116.5,184.42969 a 0.50005,0.50005 0 0 0 -0.11719,-0.0937 c 0,0 0.029,0.0264 -0.0156,-0.0273 -0.0446,-0.0537 -0.11861,-0.16189 -0.18555,-0.36718 -0.12877,-0.39492 -0.19215,-1.21807 0.0898,-2.5586 l 3.52149,-3.77539 c 0.55498,-0.15455 1.01586,-0.24797 1.45898,-0.22656 z"
           id="path1058" />
      </g>
      <path
         style="fill:#d08f2a;fill-opacity:1;stroke:#d08f2a;stroke-width:0.1;stroke-linecap:butt;stroke-linejoin:miter;stroke-miterlimit:4;stroke-dasharray:none;stroke-opacity:1"
         d="m 97.60244,154.12516 22.43949,24.06341 -3.08705,2.44063 -22.169869,-23.72567 z"
         id="path16460" />
    </g>
    <path
       id="path1362"
       style="display:inline;fill:#4d3e7e;fill-opacity:1;stroke-width:1"
       d="m 82.097656,138.47461 a 2,2 0 0 0 -1.123047,0.51758 2,2 0 0 0 -0.113281,2.82617 l 8.697266,9.42773 c 0.556801,0.71565 1.340002,1.58182 2.509765,2.83594 1.211119,1.29845 2.120144,2.23636 2.75586,2.87109 l 4.054687,4.39649 c 0.573887,0.68615 1.945044,2.14656 5.695314,6.10351 2.21591,2.33805 5.49921,5.82938 7.29687,7.75782 1.79765,1.92844 4.30328,4.59076 5.56836,5.91601 1.2651,1.32527 2.39285,2.55671 2.50586,2.73828 0.53124,0.85341 24.11876,25.4689 25.81446,26.93946 2.76777,2.40029 15.681,4.23981 23.38085,3.33008 1.57187,-0.18572 4.18687,-0.69327 5.81055,-1.12696 4.06678,-1.08629 6.27102,-2.43478 6.78125,-4.14843 0.85276,-2.86405 -0.87567,-5.46493 -3.78906,-5.70118 -0.71671,-0.0581 -2.95086,0.25924 -4.96289,0.70703 -9.02063,2.00759 -15.50889,2.39609 -21.25781,1.27149 -2.44143,-0.47758 -7.57509,-2.8554 -10.51758,-4.8711 -1.07748,-0.7381 -4.24232,-3.85978 -7.2168,-7.11718 -2.91424,-3.19145 -6.5592,-7.12383 -8.09961,-8.73828 -1.89535,-1.98646 -13.21793,-14.0913 -22.51367,-24.0293 a 2,2 0 0 0 -0.2207,-0.29297 L 83.800781,139.10547 a 2,2 0 0 0 -1.703125,-0.63086 z"
       clip-path="url(#clipPath44226)"
       transform="matrix(0.26458333,0,0,0.26458333,28.217897,69.411065)" />
    <path
       id="path1359"
       style="display:inline;fill:#5e4c9b;fill-opacity:1;stroke-width:1"
       d="m 82.097656,138.47461 a 2,2 0 0 0 -1.123047,0.51758 2,2 0 0 0 -0.113281,2.82617 l 8.697266,9.42773 c 0.556801,0.71565 1.340002,1.58182 2.509765,2.83594 1.211119,1.29845 2.120144,2.23636 2.75586,2.87109 l 4.054687,4.39649 c 0.573887,0.68615 1.945044,2.14656 5.695314,6.10351 2.21591,2.33805 5.49921,5.82938 7.29687,7.75782 1.79765,1.92844 4.30328,4.59076 5.56836,5.91601 1.2651,1.32527 2.39285,2.55671 2.50586,2.73828 0.53124,0.85341 24.11876,25.4689 25.81446,26.93946 2.76777,2.40029 15.681,4.23981 23.38085,3.33008 1.57187,-0.18572 4.18687,-0.69327 5.81055,-1.12696 4.06678,-1.08629 6.27102,-2.43478 6.78125,-4.14843 0.85276,-2.86405 -0.87567,-5.46493 -3.78906,-5.70118 -0.71671,-0.0581 -2.95086,0.25924 -4.96289,0.70703 -9.02063,2.00759 -15.50889,2.39609 -21.25781,1.27149 -2.44143,-0.47758 -7.57509,-2.8554 -10.51758,-4.8711 -1.07748,-0.7381 -4.24232,-3.85978 -7.2168,-7.11718 -2.91424,-3.19145 -6.5592,-7.12383 -8.09961,-8.73828 -1.89535,-1.98646 -13.21793,-14.0913 -22.51367,-24.0293 a 2,2 0 0 0 -0.2207,-0.29297 L 83.800781,139.10547 a 2,2 0 0 0 -1.703125,-0.63086 z"
       clip-path="url(#clipPath44747)"
       transform="matrix(0.26458333,0,0,0.26458333,28.217897,69.411065)" />
    <path
       id="path1356"
       style="display:inline;fill:#5e4c9b;fill-opacity:1;stroke:none;stroke-width:1px;stroke-linecap:butt;stroke-linejoin:miter;stroke-opacity:1"
       d="m 116.40165,187.7301 4.68375,3.96556 4.62269,5.85277 4.41953,4.4204 0.15592,2.89229 3.47897,2.64336 4.18651,2.80884 2.33365,3.88952 6.02082,3.40287 5.58926,0.21649 4.73099,-0.5299 4.94564,-0.94899 8.32133,-2.45286 5.10641,-0.46489 -0.38687,-13.74913 -6.4662,1.98359 -3.98071,0.72816 -6.63431,1.7261 -3.52375,0.19555 -3.18625,-0.67342 -2.0996,-1.20857 -2.46581,-3.10961 -2.75886,-1.76459 -3.46157,-4.28246 -4.29772,-4.87985 -3.94291,-3.72772 -2.81844,-3.22795 -3.58798,-3.6806 -8.98449,9.97504"
       clip-path="url(#clipPath65145)"
       transform="matrix(0.26458333,0,0,0.26458333,28.217897,69.411065)" />
    <path
       id="path1353"
       style="color:#000000;display:inline;fill:#4d3e7e;fill-opacity:1;-inkscape-stroke:none"
       d="m 175.10937,199.66211 -0.99804,0.0293 0.38672,13.74804 0.99804,-0.0273 z m -6.46875,1.93359 -0.99218,0.12891 c 0,0 0.39687,3.08907 0.81445,6.16406 0.20879,1.5375 0.42399,3.07128 0.5957,4.2168 0.0859,0.57276 0.16065,1.04723 0.22071,1.38281 0.03,0.16779 0.0551,0.2988 0.0801,0.40234 0.0125,0.0518 0.0214,0.0927 0.0449,0.1543 0.0118,0.0308 0.0178,0.0624 0.0801,0.14453 0.0156,0.0205 0.0362,0.0456 0.0684,0.0742 0.0322,0.0287 0.14384,0.0896 0.14454,0.0899 6.9e-4,2.8e-4 0.26302,0.0333 0.26367,0.0332 6.5e-4,-9e-5 0.23572,-0.10109 0.23633,-0.10156 l -0.61329,-0.78907 c -6e-4,4.8e-4 0.23503,-0.0997 0.23438,-0.0996 -6.5e-4,1e-4 0.2585,0.0315 0.25781,0.0312 -6.9e-4,-2.8e-4 0.10992,0.0605 0.14063,0.0879 0.0307,0.0274 0.0504,0.0499 0.0644,0.0684 0.056,0.0739 0.0544,0.0925 0.0586,0.10352 0.008,0.022 -9e-5,7.9e-4 -0.008,-0.0312 -0.0154,-0.0641 -0.04,-0.18539 -0.0684,-0.34375 -0.0567,-0.31673 -0.13163,-0.7873 -0.2168,-1.35547 -0.17033,-1.13634 -0.38331,-2.66789 -0.59179,-4.20312 -0.41697,-3.07047 -0.81445,-6.15821 -0.81446,-6.15821 z m -4.96875,0.70117 -2.59375,13.95508 0.98243,0.1836 2.59375,-13.95508 z m -6.64062,1.78125 c 0,0 -0.23205,3.2573 -0.46094,6.53321 -0.11444,1.63795 -0.22853,3.28011 -0.3125,4.52344 -0.042,0.62166 -0.0762,1.14344 -0.0996,1.51562 -0.0117,0.18609 -0.0215,0.33498 -0.0273,0.44141 -0.003,0.0532 -0.005,0.0952 -0.006,0.1289 -6.7e-4,0.0168 -0.002,0.0315 -0.002,0.0469 -2.5e-4,0.0154 -0.006,4.1e-4 0.006,0.0918 l 0.99023,-0.13281 c 0.0116,0.0866 0.004,0.0584 0.004,0.0566 3e-5,-0.002 0.001,-0.009 0.002,-0.0215 9.8e-4,-0.0246 0.001,-0.0647 0.004,-0.11524 0.006,-0.10107 0.0157,-0.24701 0.0273,-0.43164 0.0233,-0.36926 0.0577,-0.89082 0.0996,-1.51172 0.0839,-1.24179 0.19808,-2.88392 0.3125,-4.52148 0.22883,-3.27512 0.45898,-6.53125 0.45898,-6.53125 z m -3.51953,0.15625 c 0,0 -0.51074,3.3432 -1.0293,6.70313 -0.25928,1.67996 -0.5193,3.36464 -0.7207,4.63672 -0.1007,0.63604 -0.18746,1.16829 -0.25,1.54492 -0.0313,0.18832 -0.0559,0.33827 -0.0742,0.43945 -0.009,0.0506 -0.017,0.0895 -0.0215,0.11133 0.003,-0.011 0.0377,-0.087 0.0371,-0.0859 l 0.87891,0.47657 c 5.9e-4,-0.001 0.036,-0.0813 0.041,-0.0977 0.005,-0.0164 0.007,-0.0253 0.01,-0.0352 0.005,-0.0198 0.008,-0.0362 0.0117,-0.0547 0.008,-0.037 0.0174,-0.0817 0.0273,-0.13672 0.0199,-0.11009 0.0445,-0.26239 0.0762,-0.45313 0.0633,-0.38148 0.14909,-0.91542 0.25,-1.55273 0.2018,-1.27462 0.46328,-2.96001 0.72265,-4.64063 0.51876,-3.36122 1.0293,-6.70507 1.0293,-6.70507 z m -3.16797,-0.75195 -4.51563,13.96875 0.95118,0.3086 4.51562,-13.96875 z m -2.03125,-1.3457 -8.43555,11.77539 0.8125,0.58203 8.43555,-11.77539 z m -2.45703,-3.11914 -8.30469,10.99414 0.79688,0.60351 8.30468,-10.99609 z m -2.71875,-1.81446 -9.73242,9.95118 0.71484,0.69922 9.73242,-9.95118 z m -3.48633,-4.2539 -9.75,11.58984 0.76563,0.64453 9.75,-11.58984 z m -4.37695,-4.74805 -5.60742,13.57617 0.92382,0.38282 5.60743,-13.57813 z m -3.9336,-3.75195 -6.08398,12.88476 0.9043,0.42774 6.08398,-12.88477 z m -2.76172,-3.31836 -7.88867,10.25976 0.79297,0.60938 7.88867,-10.25977 z m -3.56445,-3.71094 -8.98437,9.97461 0.74414,0.66992 8.98437,-9.97461 z"
       clip-path="url(#clipPath65123)"
       transform="matrix(0.26458333,0,0,0.26458333,28.217897,69.411065)" />
  </g>
</svg>
