<?xml version="1.0" encoding="UTF-8" standalone="no"?>
<svg
   id="Layer_1"
   data-name="Layer 1"
   version="1.1"
   width="449.33359"
   height="241.02103"
   sodipodi:docname="MEM2.svg"
   inkscape:version="1.1.1 (3bf5ae0d25, 2021-09-20)"
   xmlns:inkscape="http://www.inkscape.org/namespaces/inkscape"
   xmlns:sodipodi="http://sodipodi.sourceforge.net/DTD/sodipodi-0.dtd"
   xmlns="http://www.w3.org/2000/svg"
   xmlns:svg="http://www.w3.org/2000/svg">
  <sodipodi:namedview
     id="namedview59"
     pagecolor="#8d8d8d"
     bordercolor="#666666"
     borderopacity="1.0"
     inkscape:pageshadow="2"
     inkscape:pageopacity="0"
     inkscape:pagecheckerboard="true"
     showgrid="false"
     inkscape:zoom="1.5006681"
     inkscape:cx="172.92298"
     inkscape:cy="78.298458"
     inkscape:window-width="1920"
     inkscape:window-height="1017"
     inkscape:window-x="-8"
     inkscape:window-y="-8"
     inkscape:window-maximized="1"
     inkscape:current-layer="Layer_1"
     fit-margin-top="0"
     fit-margin-left="0"
     fit-margin-right="0"
     fit-margin-bottom="0" />
  <defs
     id="defs4">
    <style
       id="style2">.cls-10,.cls-5,.cls-6,.cls-8,.cls-9{fill:none}.cls-5,.cls-6{stroke:#fff}.cls-10,.cls-5,.cls-6,.cls-7,.cls-8,.cls-9{stroke-linecap:round;stroke-linejoin:round}.cls-5{stroke-width:2.65px}.cls-6{stroke-width:3.97px}.cls-7,.cls-8{stroke:#f65d32;stroke-width:4.41px}.cls-9{stroke:#f2d425;stroke-width:4.47px}.cls-10{stroke:#00aedc;stroke-width:4.44px}</style>
  </defs>
  <rect
     x="91.828186"
     y="183.6115"
     width="276.11661"
     height="57.409527"
     rx="17.639999"
     id="rect23506"
     ry="17.639999"
     style="fill:#ffffff;stroke-width:1" />
  <path
     d="m 445.39815,116.19619 a 47.522092,47.522092 0 0 0 -45.70384,-30.2648 c 2.56062,-5.71298 3.75486,-10.56525 3.75486,-15.17006 0,-16.13836 -12.76007,-28.24213 -29.68383,-28.24213 -9.41404,0 -18.55911,4.64785 -25.10053,12.76006 a 39.463671,39.463671 0 0 0 -5.47628,9.06976 c -6.45535,-3.61499 -14.26631,-5.45477 -23.22848,-5.45477 -12.0177,0 -24.74549,4.45419 -35.92399,12.58793 a 26.897267,26.897267 0 0 0 -23.0133,-12.58793 29.791413,29.791413 0 0 0 -20.1622,7.53124 27.445972,27.445972 0 0 0 -18.09648,-7.45592 34.030423,34.030423 0 0 0 1.61384,-10.00579 c 0,-15.2884 -12.18984,-27.27383 -27.75798,-27.27383 -7.45592,0 -14.70743,3.33527 -21.11974,9.68302 A 42.906521,42.906521 0 0 0 164.21411,12.59868 C 155.60699,4.35736 143.68612,0 129.64574,0 118.35965,0 106.70775,3.66879 95.012817,10.92029 A 110.52625,110.52625 0 0 0 85.921541,17.2788 37.451755,37.451755 0 0 0 55.430798,4.1637 25.283431,25.283431 0 0 0 36.064766,14.26631 27.220035,27.220035 0 0 0 31.825756,37.37644 c 1.248034,4.91682 4.088385,8.4565 7.154674,11.92087 l 0.258213,0.55946 c -0.914507,6.58445 -6.057264,20.12992 -7.778689,24.64866 -4.303563,11.20002 -10.93105,25.0037 -14.223276,31.44828 -3.711823,5.99272 -6.627487,10.69436 -8.8330625,14.78274 -12.7062699,22.53991 -7.2299859,42.45465 -7.2299859,42.45465 l 0.936025,2.46379 c 1.0758905,3.31374 5.4762839,11.50127 20.0008084,20.82924 16.525682,10.61904 40.378178,15.9985 70.87968,15.9985 4.787713,0 9.317217,-0.0753 13.470157,-0.21518 h 207.38869 c 3.80865,0 7.70338,0.0538 11.8348,0.10759 h 0.13986 c 4.1637,0.0538 8.46726,0.11835 12.91069,0.11835 30.45847,0 62.01434,-3.0125 86.45858,-24.8746 7.05784,-6.31547 14.99791,-13.87899 19.77487,-23.76642 5.65918,-11.73797 5.83133,-24.41196 0.43036,-37.65618 z"
     id="path23508"
     style="fill:#ffffff;stroke-width:1" />
  <rect
     x="102.34056"
     y="175.34547"
     width="256.64001"
     height="53.360001"
     rx="17.639999"
     id="rect172"
     ry="17.639999" />
  <path
     d="m 430.97056,112.68549 a 44.17,44.17 0 0 0 -42.48,-28.13 c 2.38,-5.31 3.49,-9.82 3.49,-14.1 0,-15 -11.86,-26.25 -27.59,-26.25 -8.75,0 -17.25,4.32 -23.33,11.86 a 36.68,36.68 0 0 0 -5.09,8.43 c -6,-3.36 -13.26,-5.07 -21.59,-5.07 -11.17,0 -23,4.14 -33.39,11.7 a 25,25 0 0 0 -21.39,-11.7 27.69,27.69 0 0 0 -18.74,7 25.51,25.51 0 0 0 -16.82,-6.93 31.63,31.63 0 0 0 1.5,-9.3 c 0,-14.21 -11.33,-25.35 -25.8,-25.35 -6.93,0 -13.67,3.1 -19.63,9 a 39.88,39.88 0 0 0 -10.49,-17.45 c -8,-7.66 -19.08,-11.71 -32.13,-11.71 -10.49,0 -21.32,3.41 -32.19,10.15 a 102.73,102.73 0 0 0 -8.450004,5.91 34.81,34.81 0 0 0 -28.34,-12.19 23.5,23.5 0 0 0 -18,9.39 25.3,25.3 0 0 0 -3.94,21.48 c 1.16,4.57 3.8,7.86 6.65,11.08 l 0.24,0.52 c -0.85,6.12 -5.63,18.71 -7.23,22.91 -4,10.41 -10.16,23.24 -13.22,29.23 -3.45,5.57 -6.16,9.94 -8.21,13.74 -11.810001,20.95 -6.720001,39.46 -6.720001,39.46 l 0.87,2.29 c 1,3.08 5.090001,10.69 18.590001,19.36 15.36,9.87 37.53,14.87 65.880004,14.87 4.45,0 8.66,-0.07 12.52,-0.2 h 192.76 c 3.54,0 7.16,0.05 11,0.1 h 0.13 c 3.87,0.05 7.87,0.11 12,0.11 28.31,0 57.64,-2.8 80.36,-23.12 6.56,-5.87 13.94,-12.9 18.38,-22.09 5.26,-10.91 5.42,-22.69 0.4,-35 z"
     id="path178" />
  <path
     d="m 414.44056,119.44549 a 27.58,27.58 0 0 0 -16.48,-15.78 c -6.55,-2.14 -13.55,-1.41 -20.24,0.6 -1.35,-3 -2.88,-5.86 -4.35,-8.58 a 81.25,81.25 0 0 1 -5.18,-10.86 c 4.15,-7.17 5.94,-11.5 5.94,-14.4 0,-5.1 -3.83,-8.4 -9.74,-8.4 -6.58,0 -13.91,7.68 -13.91,18.7 v 1.66 c -6.19,13.65 -11,22.61 -16.4,30.84 -1.32,2 -2.45,3.74 -3.4,5.3 a 36.43,36.43 0 0 1 -27.94,12.62 c -5.76,0 -11.91,-2.5 -11.91,-9.52 v -1.72 c 11.61,-1.85 22.23,-5.43 30.05,-10.12 8.62,-5.17 13.37,-11.46 13.37,-17.72 0,-9.27 -7.43,-14.81 -19.89,-14.81 -9.25,0 -19.81,4.76 -28.24,12.72 a 45.74,45.74 0 0 0 -13.9,24.46 c -7.49,11.4 -14.24,17.9 -18.61,17.9 -1.14,0 -3,-1.49 -3,-5.49 0,-7.59 4.18,-17.35 8.27,-25.92 6.52,-10.47 7.86,-14.28 7.86,-16.77 0,-4 -3,-6.9 -7.2,-6.9 -5.72,0 -9.62,3.68 -13.46,12.69 -3.68,8.58 -8.71,20.33 -14,27.87 -4.38,6.35 -10.06,13.63 -15.1,13.63 -0.86,0 -2.5,-1 -2.5,-4.6 0,-7.59 4.17,-17.35 8.27,-25.92 5.79,-9.31 7.85,-13.66 7.85,-16.62 0,-4.15 -3.14,-7.05 -7.64,-7.05 -5.44,0 -9.36,3.73 -14.45,13.76 a 142,142 0 0 0 -9.68,23 c -7.44,11.38 -14.51,18.15 -19,18.15 -2.94,0 -3.26,-3.74 -3.26,-5.35 0,-7.31 4,-20 12,-37.73 l 0.58,-1 c 11.16,-19 18.48,-31.93 18.48,-38 0,-4.41 -3.26,-7.49 -7.94,-7.49 -4.23,0 -9.59,5.27 -14,13.75 -5.07,9.72 -19.36,38 -24.73,57.7 a 27.27,27.27 0 0 1 -15.05,9.7 c 0.42,-1.56 0.15,-2.39 -0.62,-2.66 a 43.1,43.1 0 0 0 2,-12.93 28.73,28.73 0 0 0 -5.49,-17.15 c 13.83,-11.48 22.35,-27.74 22.35,-42.86 0,-16.33 -9.75,-25.7 -26.75,-25.7 -14.3,0 -30.43,10 -48.000004,29.77 0.08,-1 0.13,-2.09 0.13,-3.17 a 24.9,24.9 0 0 0 -6,-16.46 17,17 0 0 0 -14.31,-6.19 c -4.56,0.19 -6.42,4.43 -5.36,8.61 0.41,1.57 6.06,7 5.9,7.56 l -0.2,0.73 0.3,-0.82 a 14.37,14.37 0 0 1 1.58,7 c 0,6.93 -3.41,17.32 -8.53,30.79 -4.63,12.16 -11.9,26.91 -14.35,31.68 -9.33,15 -11,18 -11,22.83 0,5.38 3.5,9 8.69,9 5.63,0 8.92,-4.9 12.41,-12.83 3.49,-7.93 9,-19.67 14.47,-30.59 a 130.31,130.31 0 0 1 18.56,-28.72 162.09,162.09 0 0 1 23.050004,-23.2 c 8.58,-6.81 16,-10.41 21.56,-10.41 7,0 8.47,5.5 8.47,10.11 0,10.82 -6.05,23.45 -15.51,32.54 a 49.93,49.93 0 0 0 -22.67,-5 c -13.200004,0 -22.420004,6.15 -22.420004,15 0,7 5.57,14.51 21.230004,14.51 a 54.53,54.53 0 0 0 22.23,-5 20,20 0 0 1 1.47,7.85 33.16,33.16 0 0 1 -5.06,17.72 c -11.89,-0.2 -29.000004,-4.27 -36.770004,-10.72 -3.54,-3 -6.88,-4.35 -10.83,-4.35 -2.68,0 -8.51,0.92 -9.78,8.69 v 0.25 c 0,0.24 -0.07,0.49 -0.1,0.74 -0.54,4.64 -2.22,24.34 7.95,30.61 h -38.5 c 0,0 7.5,24.07 67.480004,24.07 4.51,0 8.56,-0.07 12.21,-0.2 h 193 c 30.4,0 67,3.61 91.58,-18.36 12.36,-11.04 20.82,-20.74 14.16,-37.04 z m -100.8,-29.14 c 0.24,0 2.35,0 2.35,1 0,5.49 -8.51,11.22 -21.13,14.49 4.97,-9.39 13.23,-15.49 18.78,-15.49 z m -208.69,1.58 c -3,0 -4.3,-0.76 -4.3,-1.16 0,-0.8 2,-1.61 6.39,-1.61 a 32.05,32.05 0 0 1 7.77,0.9 28.55,28.55 0 0 1 -9.86,1.87 z m 241.22,30.24 c 1,-1.39 2,-2.84 3,-4.35 a 7.47,7.47 0 0 0 1.06,-2.56 c 2.87,-4.5 5.5,-9 8,-13.52 a 73.82,73.82 0 0 1 3.93,9.37 101.91,101.91 0 0 0 -13,8.5 17.11,17.11 0 0 0 -3.26,3.27 c 0.07,-0.22 0.16,-0.46 0.27,-0.71 z m 17.48,0.63 c -0.68,5.46 -4.6,9.14 -10,9.14 a 10.13,10.13 0 0 1 -3.85,-0.71 7.18,7.18 0 0 0 1,-0.11 15,15 0 0 0 6,-3.16 c 2.31,-1.69 4.55,-3.48 6.85,-5.16 z m -256.33,16.05 a 22.5,22.5 0 0 1 -6.1,0.85 c -8.560004,0 -16.000004,-4.12 -18.210004,-9.73 a 74.68,74.68 0 0 0 24.310004,8.88 z m 256.57,12.17 h -239.93 a 52.19,52.19 0 0 0 12.14,-11.21 c 9.4,-1 17.25,-3.13 23.76,-6.59 2.25,7.66 8.62,11.92 18.23,11.92 7.55,0 14.57,-3.93 20.56,-9.14 a 15.33,15.33 0 0 0 3.08,4.37 c 3.16,3.12 7.68,4.77 13.08,4.77 6.28,0 12.8,-3.71 19.43,-11 2.47,6.82 9,11 17.6,11 8.41,0 16.15,-4.78 22.76,-11.18 4.45,7.22 13.58,11.18 26.5,11.18 a 54.28,54.28 0 0 0 28.14,-7.5 c 0.57,-0.34 1.15,-0.7 1.71,-1.07 4,4.95 11.42,8.57 22.84,8.57 17,0 27.95,-9.68 27.95,-24.66 a 29.77,29.77 0 0 0 -0.37,-4.65 18.26,18.26 0 0 1 13.42,6.2 c 16.63,19.82 -13.03,28.99 -30.9,28.99 z"
     id="path180"
     style="fill:#00aedc" />
  <path
     class="cls-5"
     id="line182"
     style="fill:none;stroke:#ffffff;stroke-width:2.65px;stroke-linecap:round;stroke-linejoin:round"
     d="m 76.680556,76.26549 -29.55,55.56" />
  <path
     class="cls-5"
     d="m 76.680556,39.66549 c 0,0 4.33,7.7 3.39,20.8"
     id="path184"
     style="fill:none;stroke:#ffffff;stroke-width:2.65px;stroke-linecap:round;stroke-linejoin:round" />
  <path
     class="cls-5"
     d="m 77.080556,75.15549 a 100.16,100.16 0 0 1 37.860004,-38.07 c 6.35,-3.6 13.34,-6.55 20.64,-6.54 7.3,0.01 14.94,3.55 18.16,10.1 2.16,4.4 2.12,9.57 1.38,14.42 a 50,50 0 0 1 -19.47,31.94 c -9.35,7.11 -27.1,15.36 -39.050004,10.88 -10.57,-4 -2.21,-12.65 4.170004,-14.3 5.27,-1.37 16,-2.52 20.05,2.36"
     id="path186"
     style="fill:none;stroke:#ffffff;stroke-width:2.65px;stroke-linecap:round;stroke-linejoin:round" />
  <path
     class="cls-5"
     d="m 136.35056,102.06549 c 0.4,12 0.26,26 -7.64,35.55 -15.38,18.61 -47.900004,12.62 -55.800004,-9.82 -0.61,-1.74 -1,-3.9 0.27,-5.24 a 4.81,4.81 0 0 1 3,-1.22 c 6.48,-0.85 12.56,1.77 18.32,4.36 a 97.57,97.57 0 0 0 21.230004,6.76"
     id="path188"
     style="fill:none;stroke:#ffffff;stroke-width:2.65px;stroke-linecap:round;stroke-linejoin:round" />
  <path
     class="cls-5"
     d="m 197.83056,53.60549 c 0,0 -25.69,37 -28.42,64.73 -2.73,27.73 12.72,19 15.81,18.57 0,0 8.95,-4.42 12.48,-9.71"
     id="path190"
     style="fill:none;stroke:#ffffff;stroke-width:2.65px;stroke-linecap:round;stroke-linejoin:round" />
  <path
     class="cls-5"
     d="m 220.65056,86.62549 c 0,0 -15,21.17 -15,40.57 0,19.4 30,16.76 52,-40.57"
     id="path192"
     style="fill:none;stroke:#ffffff;stroke-width:2.65px;stroke-linecap:round;stroke-linejoin:round" />
  <path
     class="cls-5"
     d="m 241.03056,126.44549 a 23.18,23.18 0 0 0 0,4.08 c 1.18,13.64 20.62,9.3 26.38,1.52"
     id="path194"
     style="fill:none;stroke:#ffffff;stroke-width:2.65px;stroke-linecap:round;stroke-linejoin:round" />
  <path
     class="cls-5"
     d="m 288.55056,113.96549 c 0,0 19.41,-2.64 32.64,-12.34 13.23,-9.7 0,-24.26 -18.08,-15 -18.08,9.26 -26.46,34 -20.73,45.42 5.73,11.42 32.19,9.26 41.89,0"
     id="path196"
     style="fill:none;stroke:#ffffff;stroke-width:2.65px;stroke-linecap:round;stroke-linejoin:round" />
  <path
     class="cls-5"
     d="m 331.99056,127.41549 c 0,0 12.84,-11.86 17.64,-25.57 a 133.69,133.69 0 0 1 12.34,-25.14"
     id="path198"
     style="fill:none;stroke:#ffffff;stroke-width:2.65px;stroke-linecap:round;stroke-linejoin:round" />
  <path
     class="cls-5"
     d="m 362.19056,90.15549 c 0,0 3.53,12.35 7.06,19.84 2.58,5.56 4.58,12.49 3.18,18.63 -1.81,7.79 -10.23,10.64 -17.36,11 -3.22,0.14 -8,0.36 -10.41,-2.25 -2.68,-3 -0.74,-5.61 1.22,-8.38 5.06,-7.14 19.64,-12.71 17.2,-12.79"
     id="path200"
     style="fill:none;stroke:#ffffff;stroke-width:2.65px;stroke-linecap:round;stroke-linejoin:round" />
  <path
     class="cls-5"
     d="m 86.500556,165.98549 a 104.41,104.41 0 0 0 14.210004,0.9 h 215.18 l 34,-2.21"
     id="path202"
     style="fill:none;stroke:#ffffff;stroke-width:2.65px;stroke-linecap:round;stroke-linejoin:round" />
  <path
     class="cls-5"
     d="M 343.35056,157.62549 H 63.670556 c 0,0 3.44,3.62 12.92,6.33"
     id="path204"
     style="fill:none;stroke:#ffffff;stroke-width:2.65px;stroke-linecap:round;stroke-linejoin:round" />
  <path
     class="cls-5"
     d="m 383.36056,109.11549 c 0,0 17.6,-0.6 23.85,14.54 0,0 6.58,36.61 -50.31,34"
     id="path206"
     style="fill:none;stroke:#ffffff;stroke-width:2.65px;stroke-linecap:round;stroke-linejoin:round" />
  <path
     class="cls-5"
     d="m 142.60056,132.04549 c 0,0 13.76,-2.68 22.8,-12.67"
     id="path208"
     style="fill:none;stroke:#ffffff;stroke-width:2.65px;stroke-linecap:round;stroke-linejoin:round" />
  <path
     class="cls-6"
     id="line210"
     style="fill:none;stroke:#ffffff;stroke-width:3.97px;stroke-linecap:round;stroke-linejoin:round"
     d="m 147.31056,205.55549 v 7.28" />
  <path
     class="cls-6"
     id="polyline212"
     style="fill:none;stroke:#ffffff;stroke-width:3.97px;stroke-linecap:round;stroke-linejoin:round"
     d="m 130.12056,212.82549 v -18.52 l 8.82,12.35 8.37,-12.35" />
  <path
     class="cls-6"
     id="polyline214"
     style="fill:none;stroke:#ffffff;stroke-width:3.97px;stroke-linecap:round;stroke-linejoin:round"
     d="m 197.58056,194.30549 8.82,12.35 8.38,-12.35 v 18.52" />
  <path
     class="cls-6"
     id="line216"
     style="fill:none;stroke:#ffffff;stroke-width:3.97px;stroke-linecap:round;stroke-linejoin:round"
     d="m 197.58056,212.83549 v -7.28" />
  <path
     class="cls-6"
     id="polyline218"
     style="fill:none;stroke:#ffffff;stroke-width:3.97px;stroke-linecap:round;stroke-linejoin:round"
     d="m 179.72056,213.05549 h -12.34 v -18.52 h 12.34" />
  <path
     class="cls-6"
     id="line220"
     style="fill:none;stroke:#ffffff;stroke-width:3.97px;stroke-linecap:round;stroke-linejoin:round"
     d="m 173.38056,203.78549 h 5.46" />
  <path
     class="cls-6"
     d="m 235.28056,213.05549 v -18.5 h 6.18 c 0,0 7,-0.45 7,5.29 0,0 0.44,5.73 -7,5.73 h 0.09"
     id="path222"
     style="fill:none;stroke:#ffffff;stroke-width:3.97px;stroke-linecap:round;stroke-linejoin:round" />
  <path
     class="cls-6"
     id="line224"
     style="fill:none;stroke:#ffffff;stroke-width:3.97px;stroke-linecap:round;stroke-linejoin:round"
     d="m 266.15056,194.08549 v 18.97" />
  <path
     class="cls-6"
     id="line226"
     style="fill:none;stroke:#ffffff;stroke-width:3.97px;stroke-linecap:round;stroke-linejoin:round"
     d="m 280.70056,194.08549 v 18.97" />
  <path
     class="cls-6"
     id="line228"
     style="fill:none;stroke:#ffffff;stroke-width:3.97px;stroke-linecap:round;stroke-linejoin:round"
     d="m 266.59056,203.79549 h 7.72" />
  <path
     class="cls-6"
     id="line230"
     style="fill:none;stroke:#ffffff;stroke-width:3.97px;stroke-linecap:round;stroke-linejoin:round"
     d="m 300.10056,194.08549 v 18.97" />
  <path
     class="cls-6"
     d="m 332.19056,206.55549 a 5.32,5.32 0 0 0 -3,-2.49 c 0,0 -8.34,-0.94 -9.13,-4.66 -0.79,-3.72 4.51,-7.69 12,-3.28"
     id="path232"
     style="fill:none;stroke:#ffffff;stroke-width:3.97px;stroke-linecap:round;stroke-linejoin:round" />
  <path
     class="cls-6"
     d="m 318.83056,210.18549 c 0,0 2.21,2.65 7.5,2.65 a 6.92,6.92 0 0 0 2.78,-0.59"
     id="path234"
     style="fill:none;stroke:#ffffff;stroke-width:3.97px;stroke-linecap:round;stroke-linejoin:round" />
</svg>
