<?xml version="1.0" encoding="UTF-8" standalone="no"?>
<svg
   id="Layer_1"
   data-name="Layer 1"
   version="1.1"
   width="347.81"
   height="288.99"
   sodipodi:docname="POR.svg"
   inkscape:version="1.1.1 (3bf5ae0d25, 2021-09-20)"
   xmlns:inkscape="http://www.inkscape.org/namespaces/inkscape"
   xmlns:sodipodi="http://sodipodi.sourceforge.net/DTD/sodipodi-0.dtd"
   xmlns="http://www.w3.org/2000/svg"
   xmlns:svg="http://www.w3.org/2000/svg">
  <sodipodi:namedview
     id="namedview43"
     pagecolor="#ffffff"
     bordercolor="#666666"
     borderopacity="1.0"
     inkscape:pageshadow="2"
     inkscape:pageopacity="0.0"
     inkscape:pagecheckerboard="0"
     showgrid="false"
     inkscape:zoom="1.8228817"
     inkscape:cx="197.7638"
     inkscape:cy="162.10597"
     inkscape:window-width="1920"
     inkscape:window-height="1017"
     inkscape:window-x="-8"
     inkscape:window-y="-8"
     inkscape:window-maximized="1"
     inkscape:current-layer="Layer_1" />
  <defs
     id="defs4">
    <style
       id="style2">.cls-1{fill:#1e1e1e}.cls-14,.cls-15{stroke-miterlimit:10}.cls-3{fill:#e41d34}.cls-15{fill:none}.cls-14{stroke:#56b947;fill:#56b947}.cls-15{stroke:#1e1e1e}.cls-10{fill:#fff}.cls-11{fill:#e7a9cc}.cls-14{stroke-width:6.18px}.cls-15{stroke-width:5.43px}</style>
  </defs>
  <path
     class="cls-1"
     id="rect6"
     style="fill:#1e1e1e"
     d="M10.87 41.66h325.16v236.4H10.87z" />
  <g
     aria-label="HOCKEY CLUB
"
     transform="scale(0.82522223,1.2117948)"
     id="text5504"
     style="font-weight:bold;font-stretch:condensed;font-size:19.4893px;line-height:1.25;font-family:Arial;-inkscape-font-specification:'Arial, Bold Condensed';letter-spacing:21.59px;fill:#ffffff;stroke-width:0.999994">
    <path
       d="m 61.121878,216.79994 v -13.95083 h 2.302935 v 5.49088 h 4.529739 v -5.49088 h 2.312451 v 13.95083 h -2.312451 v -6.09992 h -4.529739 v 6.09992 z"
       style="letter-spacing:18.32px"
       id="path48250" />
    <path
       d="m 90.509287,209.91017 q 0,-2.49326 0.732752,-4.10151 0.742269,-1.61776 1.931801,-2.40761 1.189533,-0.78985 2.883427,-0.78985 2.455195,0 3.996833,1.8747 1.55115,1.87471 1.55115,5.33862 0,3.50199 -1.6368,5.47185 -1.436956,1.74148 -3.901667,1.74148 -2.483744,0 -3.920699,-1.72244 -1.636797,-1.96987 -1.636797,-5.40524 z m 2.379065,-0.0952 q 0,2.40761 0.913561,3.61618 0.913561,1.19904 2.26487,1.19904 1.360825,0 2.255354,-1.18953 0.894528,-1.19905 0.894528,-3.67327 0,-2.42665 -0.875496,-3.58763 -0.865979,-1.16099 -2.274386,-1.16099 -1.408406,0 -2.293418,1.1705 -0.885013,1.1705 -0.885013,3.6257 z"
       style="letter-spacing:18.32px"
       id="path48252" />
    <path
       d="m 129.05134,211.67068 2.23632,0.86598 q -0.52339,2.341 -1.74148,3.42585 -1.21808,1.07534 -2.99762,1.07534 -2.23632,0 -3.62569,-1.72244 -1.59873,-1.9889 -1.59873,-5.36717 0,-3.5686 1.60824,-5.58605 1.39889,-1.75099 3.75893,-1.75099 1.92228,0 3.21649,1.31324 0.92308,0.9326 1.35131,2.76923 l -2.2839,0.66614 q -0.21887,-1.13243 -0.8755,-1.73196 -0.6471,-0.60904 -1.53211,-0.60904 -1.26567,0 -2.06503,1.10389 -0.79937,1.10388 -0.79937,3.64473 0,2.636 0.78033,3.7494 0.78034,1.1134 2.02697,1.1134 0.91356,0 1.5797,-0.7042 0.66614,-0.71372 0.96114,-2.25535 z"
       style="letter-spacing:18.32px"
       id="path48254" />
    <path
       d="m 151.60607,216.79994 v -13.95083 h 2.30294 v 6.19508 l 4.67248,-6.19508 h 3.11182 l -4.31087,5.43378 4.53926,8.51705 h -2.98811 l -3.14988,-6.54718 -1.8747,2.33148 v 4.2157 z"
       style="letter-spacing:18.32px"
       id="path48256" />
    <path
       d="m 181.44075,216.79994 v -13.95083 h 8.4885 v 2.36003 h -6.18557 v 3.09278 h 5.74782 v 2.35052 h -5.74782 v 3.79699 h 6.39493 v 2.35051 z"
       style="letter-spacing:18.32px"
       id="path48258" />
    <path
       d="m 213.41659,216.79994 v -5.87153 l -4.18716,-8.0793 h 2.70262 l 2.6931,5.51943 2.64552,-5.51943 h 2.65504 l -4.20619,8.09833 v 5.8525 z"
       style="letter-spacing:18.32px"
       id="path48260" />
    <path
       d="m 269.20329,211.67068 2.23632,0.86598 q -0.52339,2.341 -1.74147,3.42585 -1.21808,1.07534 -2.99762,1.07534 -2.23632,0 -3.6257,-1.72244 -1.59873,-1.9889 -1.59873,-5.36717 0,-3.5686 1.60825,-5.58605 1.39889,-1.75099 3.75892,-1.75099 1.92229,0 3.2165,1.31324 0.92307,0.9326 1.35131,2.76923 l -2.28391,0.66614 q -0.21887,-1.13243 -0.87549,-1.73196 -0.64711,-0.60904 -1.53212,-0.60904 -1.26566,0 -2.06503,1.10389 -0.79936,1.10388 -0.79936,3.64473 0,2.636 0.78033,3.7494 0.78033,1.1134 2.02696,1.1134 0.91356,0 1.5797,-0.7042 0.66614,-0.71372 0.96114,-2.25535 z"
       style="letter-spacing:18.32px"
       id="path48262" />
    <path
       d="M 291.7961,216.79994 V 202.9633 h 2.30294 v 11.48613 h 5.74782 v 2.35051 z"
       style="letter-spacing:18.32px"
       id="path48264" />
    <path
       d="m 319.79413,202.84911 h 2.30294 v 7.55591 q 0,1.7605 0.0857,2.29341 0.15226,0.92308 0.72323,1.42744 0.58049,0.50436 1.5226,0.50436 0.79937,0 1.30373,-0.3521 0.50436,-0.36161 0.68517,-0.98969 0.19033,-0.63759 0.19033,-2.72165 v -7.71768 h 2.31245 v 7.32752 q 0,2.80729 -0.30452,4.06344 -0.29501,1.24663 -1.35131,2.02696 -1.04679,0.77082 -2.76923,0.77082 -1.78906,0 -2.79778,-0.63759 -0.99921,-0.64711 -1.45599,-1.80809 -0.44727,-1.1705 -0.44727,-4.30135 z"
       style="letter-spacing:18.32px"
       id="path48266" />
    <path
       d="m 349.66687,202.84911 h 4.57732 q 1.8747,0 2.636,0.34258 0.7613,0.34259 1.2847,1.20857 0.52339,0.86598 0.52339,1.96035 0,1.00872 -0.44726,1.82712 -0.44727,0.80888 -1.16099,1.19905 1.01824,0.36161 1.58922,1.23711 0.58049,0.8755 0.58049,2.13164 0,1.5226 -0.73275,2.57891 -0.73275,1.04679 -1.73196,1.29421 -0.69469,0.17129 -3.22601,0.17129 h -3.89215 z m 2.30293,2.32196 v 3.22601 h 1.5226 q 1.37034,0 1.6939,-0.0476 0.59,-0.0952 0.92307,-0.49484 0.33307,-0.4092 0.33307,-1.10389 0,-0.61856 -0.27597,-0.99921 -0.26645,-0.39016 -0.65662,-0.48532 -0.38065,-0.0952 -2.20777,-0.0952 z m 0,5.54798 v 3.73038 h 2.14116 q 1.40841,0 1.80809,-0.14275 0.39968,-0.15226 0.66614,-0.58049 0.27597,-0.43775 0.27597,-1.10389 0,-0.68517 -0.29501,-1.12291 -0.28548,-0.44727 -0.77081,-0.60905 -0.47582,-0.17129 -1.96035,-0.17129 z"
       style="letter-spacing:18.32px"
       id="path48268" />
  </g>
  <ellipse
     class="cls-1"
     cx="166.2"
     cy="43.02"
     rx="82.87"
     ry="43.02"
     id="ellipse8"
     style="fill:#1e1e1e" />
  <path
     class="cls-11"
     d="M65.64 210.29h-18.8V66.5h30.61q18.79 0 28.6 10.73 9 10.33 9 29.65 0 19.71-9 29.86-9.6 10.92-28.6 10.92H65.64zm0-81.16h11.81q7.8 0 10.6-1.76a16.65 16.65 0 0 0 3.6-2.73q4.4-4.48 4.4-17.76a43.29 43.29 0 0 0-1.2-11.31 15.14 15.14 0 0 0-3.5-6.64 11.44 11.44 0 0 0-5.8-3.12 37.6 37.6 0 0 0-8.1-.78H65.64z"
     id="path54"
     style="fill:#e7a9cc" />
  <path
     class="cls-11"
     d="M285.41 139.63a34.28 34.28 0 0 1 8.3 12.1 41.46 41.46 0 0 1 2.91 16v42.53h-19v-42.53q0-18.93-18.8-18.93h-11.83v61.46h-18.8V66.46h30.61q19 0 28.6 10.93 8.8 9.94 8.81 30.05 0 19.89-8.81 30.24c-.26.26-.57.58-.9 1a4.81 4.81 0 0 1-1.09.95zm-26.6-9.37q7.59 0 10.5-1.75a16.22 16.22 0 0 0 3.7-2.73q4.4-5.46 4.4-18.34a45.44 45.44 0 0 0-1.2-11.61 15.93 15.93 0 0 0-3.5-6.83 11.09 11.09 0 0 0-5.8-3.22 37.6 37.6 0 0 0-8.1-.78h-11.82v45.26h11.81z"
     id="path56"
     style="fill:#e7a9cc" />
  <path
     class="cls-3"
     d="M134.64 37.67v64.61a32.59 32.59 0 0 0 65.18 0V37.67z"
     id="path58"
     style="fill:#e41d34" />
  <path
     id="rect60"
     style="fill:#56b947"
     d="M162.34 150.98h9.78v80.19h-9.78z" />
  <path
     d="M147.3 190.45s-18.1-33.31-62.31-10.86c0 0 15.24 32.59 62.31 10.86z"
     id="path62"
     style="fill:#56b947;stroke:#56b947;stroke-width:9.77999973px;stroke-miterlimit:10" />
  <path
     class="cls-14"
     id="polygon64"
     style="fill:#56b947;stroke:#56b947;stroke-width:6.17999983px;stroke-miterlimit:10"
     transform="translate(-577.01 -361.01)"
     d="m760.11 540.61-8.24-5.03v8.23z" />
  <path
     class="cls-14"
     id="polygon66"
     style="fill:#56b947;stroke:#56b947;stroke-width:6.17999983px;stroke-miterlimit:10"
     transform="translate(-577.01 -361.01)"
     d="m730.13 578.84 8.24-5.04v8.24z" />
  <path
     class="cls-15"
     id="line68"
     style="fill:none;stroke:#1e1e1e;stroke-width:5.42999983px;stroke-miterlimit:10"
     d="m157.81 194.07-61.92-12.31" />
  <path
     class="cls-1"
     id="polyline70"
     style="fill:#1e1e1e"
     transform="translate(-577.01 -361.01)"
     d="m672.27 545.12-6.25-4.61h7.61" />
  <path
     class="cls-15"
     d="M201.26 54.3h-14.48s-28.25-4.34-28.25 25.35v29s2.18 18.83-19.55 18.83"
     id="path72"
     style="fill:none;stroke:#1e1e1e;stroke-width:5.42999983px;stroke-miterlimit:10" />
  <path
     class="cls-3"
     id="polyline74"
     style="fill:#e41d34"
     transform="translate(-577.01 -361.01)"
     d="M767.41 418.94h23.89l-15.93 28.24" />
  <path
     class="cls-3"
     id="polyline76"
     style="fill:#e41d34"
     transform="translate(-577.01 -361.01)"
     d="M714.91 398.68H699.7l18.83 41.98" />
  <path
     class="cls-3"
     id="polyline78"
     style="fill:#e41d34"
     transform="translate(-577.01 -361.01)"
     d="m776.82 412.6 7.6-10.32h-22.81" />
  <ellipse
     cx="167.23"
     cy="33.3"
     rx="43.81"
     ry="13.4"
     id="ellipse80"
     style="fill:#e41d34;stroke:#1e1e1e;stroke-width:5.42999983px;stroke-miterlimit:10" />
  <path
     class="cls-15"
     d="M193.29 35.74s-35.3-7.55-47.25 1.78c0 0-7.62 3.11 5.43 7.55"
     id="path82"
     style="fill:none;stroke:#1e1e1e;stroke-width:5.42999983px;stroke-miterlimit:10" />
  <path
     class="cls-1"
     d="M206.46 196.65s36-4.43 49.23 28.21"
     id="path84"
     style="fill:#1e1e1e" />
  <path
     d="M186.05 220.07s13.06-24 44.9-7.83c.04 0-10.96 23.49-44.9 7.83z"
     id="path86"
     style="fill:#56b947;stroke:#56b947;stroke-width:7.05000019px;stroke-miterlimit:10" />
  <path
     class="cls-15"
     id="line88"
     style="fill:none;stroke:#1e1e1e;stroke-width:5.42999983px;stroke-miterlimit:10"
     d="m177.72 222.68 41.28-7.61" />
  <path
     class="cls-1"
     id="polyline90"
     style="fill:#1e1e1e"
     transform="translate(-577.01 -361.01)"
     d="M794.93 573.91h7.24l-6.52 5.07" />
  <path
     class="cls-11"
     id="polyline92"
     style="fill:#e7a9cc"
     transform="translate(-577.01 -361.01)"
     d="m625.01 459.49-15.4 11.77 19.02 10.87" />
  <path
     class="cls-11"
     id="polyline94"
     style="fill:#e7a9cc"
     transform="translate(-577.01 -361.01)"
     d="m625.01 526.57-15.4 11.77 19.02 10.87" />
  <path
     class="cls-11"
     id="polyline96"
     style="fill:#e7a9cc"
     transform="translate(-577.01 -361.01)"
     d="m872.27 459.49 15.39 11.77-19.02 10.87" />
  <path
     class="cls-11"
     id="polyline98"
     style="fill:#e7a9cc"
     transform="translate(-577.01 -361.01)"
     d="m872.27 526.57 15.39 11.77-19.02 10.87" />
  <path
     class="cls-1"
     id="polyline284"
     style="fill:#1e1e1e"
     transform="translate(-577.01 -361.01)"
     d="m591.5 493.24-14.49 12.68 14.49 11.78" />
  <path
     class="cls-1"
     id="polyline286"
     style="fill:#1e1e1e"
     transform="translate(-577.01 -361.01)"
     d="m910.33 493.24 14.49 12.68-14.49 11.78" />
  <path
     class="cls-1"
     id="polyline288"
     style="fill:#1e1e1e"
     transform="translate(-577.01 -361.01)"
     d="m738 638 12 12 14-13" />
</svg>
