<?xml version="1.0" encoding="UTF-8" standalone="no"?>
<svg
   id="Layer_1"
   data-name="Layer 1"
   version="1.1"
   width="201.32959"
   height="196.31981"
   sodipodi:docname="BKN.svg"
   inkscape:version="1.1.2 (b8e25be833, 2022-02-05)"
   xmlns:inkscape="http://www.inkscape.org/namespaces/inkscape"
   xmlns:sodipodi="http://sodipodi.sourceforge.net/DTD/sodipodi-0.dtd"
   xmlns="http://www.w3.org/2000/svg"
   xmlns:svg="http://www.w3.org/2000/svg">
  <sodipodi:namedview
     id="namedview330"
     pagecolor="#656565"
     bordercolor="#666666"
     borderopacity="1.0"
     inkscape:pageshadow="2"
     inkscape:pageopacity="0"
     inkscape:pagecheckerboard="true"
     showgrid="false"
     inkscape:zoom="1.4742152"
     inkscape:cx="27.472245"
     inkscape:cy="43.412931"
     inkscape:window-width="1920"
     inkscape:window-height="1017"
     inkscape:window-x="-8"
     inkscape:window-y="-8"
     inkscape:window-maximized="1"
     inkscape:current-layer="layer2"
     showguides="true"
     inkscape:guide-bbox="true"
     fit-margin-top="0"
     fit-margin-left="0"
     fit-margin-right="0"
     fit-margin-bottom="0">
    <sodipodi:guide
       position="103.6798,94.36015"
       orientation="0,-1"
       id="guide93514" />
    <sodipodi:guide
       position="103.66787,98.29952"
       orientation="1,0"
       id="guide93618" />
    <sodipodi:guide
       position="109.03395,84.20981"
       orientation="1,0"
       id="guide1600" />
    <sodipodi:guide
       position="98.241838,83.96999"
       orientation="1,0"
       id="guide1631" />
  </sodipodi:namedview>
  <defs
     id="defs10">
    <clipPath
       id="clip-path">
      <path
         class="cls-1"
         d="m 499.29,535.21 a 173.07,173.07 0 0 0 66.16,-13 170.87,170.87 0 0 0 54.34,-35.68 167.16,167.16 0 0 0 37,-53.46 165.73,165.73 0 0 0 0,-132 167.32,167.32 0 0 0 -37,-53.46 170.56,170.56 0 0 0 -54.34,-35.67 174.23,174.23 0 0 0 -132.32,0 170.71,170.71 0 0 0 -54.35,35.67 167.48,167.48 0 0 0 -37,53.46 165.73,165.73 0 0 0 0,132 167.48,167.48 0 0 0 37,53.46 170.74,170.74 0 0 0 54.35,35.68 173,173 0 0 0 66.16,13 z"
         id="path4"
         style="fill:none" />
    </clipPath>
    <clipPath
       id="clip-path-2">
      <path
         class="cls-1"
         id="polygon7"
         style="fill:none"
         d="m 162.9,1006.07 h 21.36 V 834.76 H 162.9 v -44.02 h 119.04 v 259.35 H 162.9 Z" />
    </clipPath>
    <style
       id="style2">.cls-1,.cls-16{fill:none}.cls-16,.cls-19,.cls-7{stroke-miterlimit:10}.cls-7{fill:#0b6776}.cls-16,.cls-18,.cls-7{stroke:#034757}.cls-7{stroke-width:6.73px}.cls-11{fill:#b78254}.cls-13,.cls-18{fill:#034757}.cls-14{fill:#e5b38b}.cls-16{stroke-width:6.31px}.cls-17{fill:#eee4d3}.cls-18{stroke-linecap:round;stroke-linejoin:round;stroke-width:10.51px}.cls-19{fill:#67c7e9;stroke:#67c7e9;stroke-width:1.68px}</style>
  </defs>
  <g
     inkscape:groupmode="layer"
     id="layer2"
     inkscape:label="Layer 2"
     style="display:inline"
     transform="translate(-81.057202,-80.469341)">
    <path
       d="m 274.437,140.359 a 97.66,97.66 0 0 0 -21.58,-31.19 100.66,100.66 0 0 0 -32,-21 103.28,103.28 0 0 0 -78.26,0 100.55,100.55 0 0 0 -32,21 97.69,97.69 0 0 0 -21.59,31.19 96.09,96.09 0 0 0 0,76.54 97.76,97.76 0 0 0 21.59,31.18 100.38,100.38 0 0 0 32,21 103.15,103.15 0 0 0 78.26,0 100.5,100.5 0 0 0 32,-21 97.73,97.73 0 0 0 21.58,-31.18 96.09,96.09 0 0 0 0,-76.54 z"
       id="path698"
       style="fill:#fff6e7" />
    <path
       d="m 178.817,263.209 a 84.63,84.63 0 1 1 33,-6.68 84.22,84.22 0 0 1 -33,6.68 z"
       id="path700"
       style="fill:none;stroke:#034757;stroke-width:12.5px;stroke-miterlimit:10" />
    <path
       class="cls-11"
       d="m 184.217,264.159 a 85.35,85.35 0 1 1 33.31,-6.74 85,85 0 0 1 -33.31,6.74 z m 0,-113.6 a 28.07,28.07 0 1 0 28.07,28.06 28.1,28.1 0 0 0 -28.07,-28.06 z"
       id="path702"
       style="fill:#b78254" />
    <path
       d="m 263.017,145.329 a 85.47,85.47 0 0 0 -68,-51.56 l -1,5.87 c 7,-2 14.51,2 19.65,7.18 5.14,5.18 8.89,11.71 14.27,16.7 2.62,2.42 5.63,4.5 7.64,7.46 a 26.24,26.24 0 0 1 3.17,7.67 161.41,161.41 0 0 1 6.18,41.78 6,6 0 0 1 -0.46,2.93 9.64,9.64 0 0 1 -1.86,2.08 c -5.54,5.66 -1.24,15.77 -5,22.73 -2.32,4.25 -7.53,7.09 -7.87,11.92 -0.16,2.3 0.88,4.68 0.11,6.85 -1.25,3.54 -6,3.92 -9.19,6 -2.42,1.58 -3.91,4.25 -6,6.21 -3.61,3.32 -8.71,4.32 -13.17,6.36 -4.46,2.04 -8.8,6.31 -7.88,11.12 -5.57,0.22 -11.55,2.86 -14.36,7.39 1.67,0.1 3.35,0.16 5,0.16 a 85.57,85.57 0 0 0 78.79,-118.83 z"
       id="path704"
       style="fill:#9b6a43" />
    <path
       class="cls-13"
       d="m 184.217,270.459 a 91.63,91.63 0 1 1 35.76,-7.23 91.22,91.22 0 0 1 -35.76,7.23 z m 0,-171.06 a 79,79 0 1 0 30.85,6.22 78.7,78.7 0 0 0 -30.85,-6.22 z"
       id="path706"
       style="fill:#034757" />
    <path
       class="cls-14"
       d="m 184.227,206.689 a 28.07,28.07 0 1 1 6.21,-55.43 l -1.35,-6.54 a 7.88,7.88 0 0 0 -7.27,-8.77 c -3.13,-0.07 -6.1,1.8 -9.22,1.51 a 28.48,28.48 0 0 1 -4.81,-1.35 c -6.33,-1.74 -13.21,1.64 -17.38,6.71 -4.17,5.07 -6.16,11.56 -7.83,17.91 -1.67,6.35 -3.14,12.89 -6.58,18.51 a 8.56,8.56 0 0 1 -2.33,2.74 18.23,18.23 0 0 0 -2.31,1.44 5.85,5.85 0 0 0 -1.49,2.81 24.83,24.83 0 0 0 9.76,26.77 c 2.34,1.56 5.27,3.17 5.55,6 a 4.86,4.86 0 0 0 0.28,1.87 3,3 0 0 0 1.91,1.21 42.89,42.89 0 0 0 18.57,1.37 c 4.89,0.94 8.7,5.4 13.66,5.74 3.95,0.28 7.58,-2.15 10.41,-4.91 a 38.5,38.5 0 0 0 11.08,-21.33 l -0.34,-1.63 a 27.92,27.92 0 0 1 -16.52,5.37 z"
       id="path708"
       style="fill:#e5b38b" />
    <circle
       cx="184.217"
       cy="178.629"
       r="28.07"
       id="circle710"
       style="fill:#034757;fill-opacity:1;stroke:#034757;stroke-width:12.61px;stroke-miterlimit:10" />
    <rect
       class="cls-17"
       x="-309.10999"
       y="-18.148001"
       width="2.6199999"
       height="8.8000002"
       rx="1.3099999"
       transform="rotate(-135)"
       id="rect720"
       style="fill:#eee4d3" />
    <rect
       class="cls-14"
       x="-4.8060002"
       y="-318.14099"
       width="2.6199999"
       height="8.8000002"
       rx="1.3099999"
       transform="rotate(135)"
       id="rect722"
       style="fill:#e5b38b" />
    <rect
       class="cls-17"
       x="34.727001"
       y="-308.32901"
       width="2.6199999"
       height="8.8000002"
       rx="1.3099999"
       transform="rotate(135)"
       id="rect724"
       style="fill:#eee4d3" />
    <rect
       class="cls-14"
       x="-301.379"
       y="-1.51"
       width="2.6199999"
       height="8.8000002"
       rx="1.3099999"
       transform="rotate(-135)"
       id="rect726"
       style="fill:#e5b38b" />
    <rect
       class="cls-17"
       x="-25.903999"
       y="-306.556"
       width="2.6199999"
       height="8.8000002"
       rx="1.3099999"
       transform="rotate(135)"
       id="rect728"
       style="fill:#eee4d3" />
    <rect
       class="cls-11"
       x="-320.104"
       y="17.221001"
       width="2.6199999"
       height="8.8000002"
       rx="1.3099999"
       transform="rotate(-135)"
       id="rect730"
       style="fill:#b78254" />
    <rect
       class="cls-11"
       x="-329.31699"
       y="-15.171"
       width="2.6199999"
       height="8.8000002"
       rx="1.3099999"
       transform="rotate(-135)"
       id="rect732"
       style="fill:#b78254" />
    <rect
       class="cls-11"
       x="-40.467999"
       y="-321.11499"
       width="2.6199999"
       height="8.8000002"
       rx="1.3099999"
       transform="rotate(135)"
       id="rect734"
       style="fill:#b78254" />
    <rect
       class="cls-11"
       x="-63.951"
       y="-297.62701"
       width="2.6199999"
       height="8.8000002"
       rx="1.3099999"
       transform="rotate(135)"
       id="rect736"
       style="fill:#b78254" />
    <rect
       class="cls-14"
       x="-255.911"
       y="65.969002"
       width="2.6199999"
       height="8.8000002"
       rx="1.3099999"
       transform="rotate(-135)"
       id="rect738"
       style="fill:#e5b38b" />
    <rect
       class="cls-17"
       x="-251.146"
       y="48.728001"
       width="2.6199999"
       height="8.8000002"
       rx="1.3099999"
       transform="rotate(-135)"
       id="rect740"
       style="fill:#eee4d3" />
    <rect
       class="cls-17"
       x="-60.087002"
       y="-270.582"
       width="2.6199999"
       height="8.8000002"
       rx="1.3099999"
       transform="rotate(135)"
       id="rect742"
       style="fill:#eee4d3" />
    <rect
       class="cls-14"
       x="-275.61694"
       y="41.760311"
       width="2.6199999"
       height="8.8000002"
       rx="1.3099999"
       transform="rotate(-135)"
       id="rect744"
       style="fill:#e5b38b"
       ry="1.3099999" />
    <rect
       class="cls-11"
       x="-307.01999"
       y="42.187"
       width="2.6199999"
       height="8.8000002"
       rx="1.3099999"
       transform="rotate(-135)"
       id="rect746"
       style="fill:#b78254" />
    <rect
       class="cls-17"
       x="-289.79501"
       y="33.872002"
       width="2.6199999"
       height="8.8000002"
       rx="1.3099999"
       transform="rotate(-135)"
       id="rect748"
       style="fill:#eee4d3" />
    <path
       class="cls-13"
       d="m 244.437,118.399 a 47.81,47.81 0 0 1 7.41,11.64 46.09,46.09 0 0 1 3.23,10.27 c 0.52,2.74 0.79,5.53 1.42,8.24 0.7,3.06 1.86,6 2.84,9 a 79.53,79.53 0 0 1 -5.56,61.88 50.32,50.32 0 0 1 -10.42,13.75 c -4.94,4.41 -11,7.4 -16.9,10.33 -7.27,3.59 -14.59,7.2 -22.4,9.39 -7.32,2 -14.92,2.79 -22.49,3.54 -9,0.88 -18.42,1.71 -26.81,-1.68 a 44.84,44.84 0 0 1 -12.07,-7.85 108.92,108.92 0 0 1 -12.52,-12.62 c -3.37,-4 -6.45,-8.27 -9.52,-12.52 a 168.34,168.34 0 0 1 -10.21,-15.26 c -9.22,-16.19 -12.66,-37 -3.84,-53.39 3.49,-6.49 8.62,-11.85 13.19,-17.56 5,-6.26 7.53,-13.48 11.94,-20 3.1,-4.6 6.31,-6.06 11.59,-6.84 7.21,-1.07 14.15,-3.29 21.35,-4.55 12.05,-2.11 24.2,-4.17 36.43,-3.83 9.78,0.27 19.7,2.18 28.4,6.53 l -28.38,-13.08 -31.18,0.52 -30.39,11.41 -26.9,14.67 -11.38,25.23 -5.46,15.69 -1.48,24 0.21,28.85 22.37,20.33 25.53,21.58 36.73,7.93 45.24,-7 27.32,-21.44 18.07,-32.78 -0.29,-30.42 -3.07,-28.45 -17.21,-27.29"
       id="path750"
       style="fill:#034757" />
  </g>
  <g
     inkscape:groupmode="layer"
     id="layer3"
     inkscape:label="Layer 3"
     style="display:inline"
     transform="translate(-81.057202,-80.469341)">
    <ellipse
       style="opacity:1;fill:#67c7e9;fill-opacity:1;stroke-width:53.8048;stroke-linejoin:round;stroke-miterlimit:4;stroke-dasharray:none"
       id="ellipse12306"
       cx="184.3208"
       cy="179.85258"
       rx="22.537397"
       ry="31.283976" />
    <ellipse
       style="opacity:1;fill:#fff6e7;fill-opacity:1;stroke-width:48.8466;stroke-linejoin:round;stroke-miterlimit:4;stroke-dasharray:none"
       id="path1684"
       cx="184.3208"
       cy="179.85258"
       rx="20.460524"
       ry="28.401087" />
    <ellipse
       style="opacity:1;fill:#034757;fill-opacity:1;stroke-width:25.5;stroke-linejoin:round;paint-order:stroke fill markers"
       id="path2936"
       cx="194.25562"
       cy="178.60399"
       rx="5.0072923"
       ry="3.8307872" />
    <ellipse
       style="opacity:1;fill:#034757;fill-opacity:1;stroke-width:25.5;stroke-linejoin:round;paint-order:stroke fill markers"
       id="ellipse3018"
       cx="175.46333"
       cy="178.56258"
       rx="5.0072923"
       ry="3.8307872" />
    <ellipse
       style="opacity:1;fill:#034757;fill-opacity:1;stroke-width:38.25;stroke-linejoin:round;paint-order:stroke fill markers"
       id="path3060"
       cx="184.68211"
       cy="170.61414"
       rx="1.2666376"
       ry="1.2583691" />
    <ellipse
       style="fill:#034757;fill-opacity:1;stroke-width:38.25;stroke-linejoin:round;paint-order:stroke fill markers"
       id="path3060-6"
       cx="188.56281"
       cy="166.44855"
       rx="1.2666376"
       ry="1.2583691" />
    <ellipse
       style="fill:#034757;fill-opacity:1;stroke-width:38.25;stroke-linejoin:round;paint-order:stroke fill markers"
       id="path3060-6-5"
       cx="180.89186"
       cy="166.44769"
       rx="1.2666376"
       ry="1.2583691" />
    <ellipse
       style="fill:#034757;fill-opacity:1;stroke-width:49.3143;stroke-linejoin:round;stroke-miterlimit:4;stroke-dasharray:none;paint-order:stroke fill markers"
       id="path3060-6-4"
       cx="190.05417"
       cy="192.54581"
       rx="1.293237"
       ry="1.2847948" />
    <ellipse
       style="fill:#034757;fill-opacity:1;stroke-width:49.3143;stroke-linejoin:round;stroke-miterlimit:4;stroke-dasharray:none;paint-order:stroke fill markers"
       id="path3060-6-2"
       cx="179.26906"
       cy="192.54581"
       rx="1.293237"
       ry="1.2847948" />
    <ellipse
       style="fill:#034757;fill-opacity:1;stroke-width:49.3143;stroke-linejoin:round;stroke-miterlimit:4;stroke-dasharray:none;paint-order:stroke fill markers"
       id="path3060-6-6"
       cx="184.65433"
       cy="194.50391"
       rx="1.293237"
       ry="1.2847948" />
    <ellipse
       style="fill:#034757;fill-opacity:1;stroke-width:49.3143;stroke-linejoin:round;stroke-miterlimit:4;stroke-dasharray:none;paint-order:stroke fill markers"
       id="path3060-6-3"
       cx="190.05417"
       cy="197.76295"
       rx="1.293237"
       ry="1.2847948" />
    <ellipse
       style="fill:#034757;fill-opacity:1;stroke-width:49.3143;stroke-linejoin:round;stroke-miterlimit:4;stroke-dasharray:none;paint-order:stroke fill markers"
       id="path3060-6-9"
       cx="190.05417"
       cy="203.19939"
       rx="1.293237"
       ry="1.2847948" />
    <ellipse
       style="fill:#034757;fill-opacity:1;stroke-width:49.3143;stroke-linejoin:round;stroke-miterlimit:4;stroke-dasharray:none;paint-order:stroke fill markers"
       id="path3060-6-93"
       cx="184.65433"
       cy="201.12117"
       rx="1.293237"
       ry="1.2847948" />
    <ellipse
       style="fill:#034757;fill-opacity:1;stroke-width:49.3143;stroke-linejoin:round;stroke-miterlimit:4;stroke-dasharray:none;paint-order:stroke fill markers"
       id="path3060-6-66"
       cx="179.26906"
       cy="197.76295"
       rx="1.293237"
       ry="1.2847948" />
    <ellipse
       style="fill:#034757;fill-opacity:1;stroke-width:49.3143;stroke-linejoin:round;stroke-miterlimit:4;stroke-dasharray:none;paint-order:stroke fill markers"
       id="path3060-6-0"
       cx="179.26906"
       cy="203.19939"
       rx="1.293237"
       ry="1.2847948" />
    <path
       style="display:inline;fill:#c3c5c4;fill-opacity:1;stroke:#c0c2c1;stroke-width:0.999999px;stroke-linecap:round;stroke-linejoin:round;stroke-opacity:1"
       d="m 180.56223,190.23476 8.29768,0.052 c 0,0 -2.54116,-2.93649 -4.2007,-3.06642 0,0 -2.95605,1.55919 -4.09698,3.01443 z"
       id="path13296" />
    <path
       style="display:inline;fill:#d8dad9;fill-opacity:1;stroke:#d8dad9;stroke-width:0.999999px;stroke-linecap:round;stroke-linejoin:round;stroke-opacity:1"
       d="m 184.65921,187.22032 c 0,0 -3.24129,1.5592 -4.09698,3.01444 0,0 0.82977,-5.50915 4.17477,-8.18576 0,0 3.65617,3.37825 4.12291,8.23774 0,0 -1.14093,-1.89703 -4.2007,-3.06642 z"
       id="path13294" />
  </g>
</svg>
