<?xml version="1.0" encoding="UTF-8" standalone="no"?>
<svg
   id="Layer_1"
   data-name="Layer 1"
   version="1.1"
   width="217.68"
   height="305.21"
   sodipodi:docname="CHA.svg"
   inkscape:version="1.1.2 (b8e25be833, 2022-02-05)"
   xmlns:inkscape="http://www.inkscape.org/namespaces/inkscape"
   xmlns:sodipodi="http://sodipodi.sourceforge.net/DTD/sodipodi-0.dtd"
   xmlns="http://www.w3.org/2000/svg"
   xmlns:svg="http://www.w3.org/2000/svg">
  <sodipodi:namedview
     id="namedview39"
     pagecolor="#505050"
     bordercolor="#ffffff"
     borderopacity="1"
     inkscape:pageshadow="0"
     inkscape:pageopacity="0"
     inkscape:pagecheckerboard="1"
     showgrid="false"
     inkscape:zoom="7.7010026"
     inkscape:cx="110.95958"
     inkscape:cy="188.02747"
     inkscape:window-width="1920"
     inkscape:window-height="1017"
     inkscape:window-x="-1928"
     inkscape:window-y="-8"
     inkscape:window-maximized="1"
     inkscape:current-layer="Layer_1" />
  <defs
     id="defs4">
    <style
       id="style2">.cls-3,.cls-7{fill:#fff}.cls-4{fill:#541f3e}.cls-5{fill:#009e87}.cls-7{stroke:#fff;stroke-miterlimit:10;stroke-width:.34px}</style>
  </defs>
  <path
     id="path1307"
     style="fill:#541f3e;fill-opacity:1;stroke:#541f3e;stroke-width:0.156465;stroke-linecap:round;stroke-linejoin:round;stroke-opacity:1"
     d="m 109.81969,143.56488 c -3.37722,2e-5 -4.61199,0.18203 -7.35436,1.08256 -8.762586,2.87737 -14.902811,10.62706 -15.960739,20.14507 l -0.101197,0.899 h 1.068443 1.068441 l 0.270641,-1.9392 c 0.776619,-5.55233 3.69781,-10.58386 8.154518,-14.04272 6.403433,-4.96972 15.447263,-5.85096 22.698503,-2.21218 4.02707,2.02084 7.5298,5.52326 9.52655,9.52184 1.13065,2.2642 2.29927,6.34376 2.29927,8.03214 v 0.64012 h 0.88252 0.88018 l -0.10827,-1.212 c -0.78586,-8.78533 -7.07814,-16.73346 -15.6289,-19.73793 -2.68156,-0.94222 -4.21843,-1.17672 -7.6956,-1.1767 z m 0.64718,1.84036 c -2.9247,-0.0501 -5.86262,0.50462 -8.67226,1.66149 -7.099028,2.92302 -12.204609,9.81889 -12.950744,17.49045 l -0.110609,1.13433 h 1.273187 1.270835 v -0.63307 c 0,-0.89202 0.410894,-2.80097 0.955478,-4.4385 2.058365,-6.18944 7.286264,-10.82066 13.986233,-12.38828 1.33173,-0.3116 5.74003,-0.36181 7.2767,-0.0824 2.50582,0.45567 5.36205,1.68783 7.52852,3.24769 1.61664,1.16399 3.85008,3.48447 4.83388,5.0198 1.50313,2.34584 2.68622,5.64677 2.91116,8.12862 l 0.10355,1.14611 h 1.23082 1.22847 v -0.52009 c 0,-1.99116 -1.08111,-5.76105 -2.37222,-8.27455 -2.44795,-4.76569 -6.71523,-8.49607 -11.75756,-10.27494 -2.19248,-0.77347 -4.46066,-1.17773 -6.73543,-1.21669 z m -0.33418,2.69227 c -2.77594,-0.002 -3.52007,0.10045 -5.78936,0.80724 -4.593353,1.43054 -8.803088,5.01201 -10.992709,9.35474 -1.007745,1.99868 -1.915665,5.23468 -1.915665,6.8225 v 0.60952 h 18.641244 18.64361 l -0.0965,-1.13669 c -0.24195,-2.86237 -1.69159,-6.54312 -3.5442,-9.00174 -2.0117,-2.66971 -4.88001,-4.90675 -7.84388,-6.11647 -2.60702,-1.06408 -4.05692,-1.33668 -7.10255,-1.3391 z" />
  <path
     class="cls-4"
     d="M80.14 165.96a28.77 28.77 0 1 0 28.76-28.75 28.79 28.79 0 0 0-28.76 28.75zm9.27 0a19.5 19.5 0 1 1 19.49 19.5 19.52 19.52 0 0 1-19.49-19.5z"
     id="path298"
     style="fill:#541f3e" />
  <path
     class="cls-5"
     d="M75.9 172.97h66a33.9 33.9 0 0 1 33.9 33.9v45H42v-45a33.9 33.9 0 0 1 33.9-33.9z"
     id="path300"
     style="fill:#009e87" />
  <path
     class="cls-4"
     d="M183.68 259.77H34.09v-52.89a41.86 41.86 0 0 1 41.81-41.82h66a41.87 41.87 0 0 1 41.78 41.82zM49.87 243.94h118v-37.06a26.1 26.1 0 0 0-26-26h-66a26.09 26.09 0 0 0-26 26z"
     id="path302"
     style="fill:#541f3e" />
  <path
     class="cls-4"
     id="rect304"
     style="fill:#541f3e"
     d="M81.86 169.42h54.08v37.03H81.86z" />
  <path
     class="cls-4"
     d="M82.4 165.96a26.51 26.51 0 1 1 26.5 26.5 26.53 26.53 0 0 1-26.5-26.5zm6.92 0a19.58 19.58 0 1 0 19.58-19.58 19.6 19.6 0 0 0-19.58 19.58z"
     id="path308"
     style="fill:#541f3e" />
  <path
     class="cls-4"
     d="M102.13 167.33h-8.56a20 20 0 0 0 1.87 6.39c2.17-.76 5.59-2.51 6.69-6.39z"
     id="path312"
     style="fill:#541f3e" />
  <path
     class="cls-4"
     d="M105.25 181.86a14 14 0 0 1-7.78-4.89c4.8-2.58 6-7.45 6.22-9.64h3.67v11.88c0 2.63-1.87 2.65-2.11 2.65z"
     id="path314"
     style="fill:#541f3e" />
  <path
     class="cls-4"
     d="M115.35 167.33h8.55a20.18 20.18 0 0 1-1.86 6.39c-2.17-.76-5.59-2.51-6.69-6.39z"
     id="path320"
     style="fill:#541f3e" />
  <path
     class="cls-4"
     d="M112.23 181.86a13.88 13.88 0 0 0 7.77-4.89c-4.79-2.58-5.94-7.45-6.21-9.64h-3.67v11.88c0 2.63 1.87 2.65 2.11 2.65z"
     id="path322"
     style="fill:#541f3e" />
  <path
     class="cls-4"
     id="polygon326"
     style="fill:#541f3e"
     transform="translate(-151.32 -760.79)"
     d="M287.23 967.21h-54.02l18.08 41.14h17.86z" />
  <path
     class="cls-4"
     d="M181.5 257.48h36.18v-44.52c-22.47 0-36.16 18.21-36.16 40.68z"
     id="path328"
     style="fill:#541f3e" />
  <path
     class="cls-4"
     d="M36.16 257.47H0v-44.52c22.47 0 36.16 18.22 36.16 40.69z"
     id="path330"
     style="fill:#541f3e" />
  <path
     class="cls-4"
     id="polygon332"
     style="fill:#541f3e"
     transform="translate(-151.32 -760.79)"
     d="m151.32 1048.37 15.82 17.63h186.02l15.82-16.31v-33.42H151.32z" />
  <path
     class="cls-5"
     transform="scale(-1)"
     id="rect334"
     style="fill:#009e87"
     d="M-208.62-278.54H-9.04v23.28h-199.58z" />
  <path
     class="cls-3"
     transform="scale(-1)"
     id="rect336"
     style="fill:#fff"
     d="M-208.62-278.54h24.86v23.28h-24.86z" />
  <path
     class="cls-4"
     id="polygon338"
     style="fill:#541f3e"
     transform="translate(-151.32 -760.79)"
     d="m279.96 1027.2-6.19-8.95-6.19 8.95 6.19 9.88z" />
  <path
     class="cls-4"
     id="polygon340"
     style="fill:#541f3e"
     transform="translate(-151.32 -760.79)"
     d="m304.67 1027.2-6.19-8.95-6.19 8.95 6.19 9.88z" />
  <path
     class="cls-4"
     id="polygon342"
     style="fill:#541f3e"
     transform="translate(-151.32 -760.79)"
     d="m329.38 1027.2-6.19-8.95-6.19 8.95 6.19 9.88z" />
  <path
     class="cls-5"
     id="polygon344"
     style="fill:#009e87"
     transform="translate(-151.32 -760.79)"
     d="m354.09 1027.2-6.19-8.95-6.19 8.95 6.19 9.88z" />
  <path
     class="cls-4"
     id="polygon346"
     style="fill:#541f3e"
     transform="translate(-151.32 -760.79)"
     d="m181.11 1027.2-6.19-8.95-6.19 8.95 6.2 9.88z" />
  <path
     class="cls-4"
     id="polygon348"
     style="fill:#541f3e"
     transform="translate(-151.32 -760.79)"
     d="m205.82 1027.2-6.19-8.95-6.19 8.95 6.19 9.88z" />
  <path
     class="cls-4"
     id="polygon350"
     style="fill:#541f3e"
     transform="translate(-151.32 -760.79)"
     d="m230.53 1027.2-6.19-8.95-6.18 8.95 6.19 9.88z" />
  <path
     class="cls-4"
     id="polygon352"
     style="fill:#541f3e"
     transform="translate(-151.32 -760.79)"
     d="m255.25 1027.2-6.19-8.95-6.19 8.95 6.19 9.88z" />
  <path
     class="cls-3"
     d="M135.94 180.88h6a26.1 26.1 0 0 1 26 26v37.06h-12.26v-39s.14-14.92-19.74-24.06z"
     id="path354"
     style="fill:#fff" />
  <path
     class="cls-4"
     d="M77.34 180.88h-6a26.09 26.09 0 0 0-26 26v37.06h12.34v-39s-.21-14.92 19.66-24.06z"
     id="path356"
     style="fill:#541f3e" />
  <path
     class="cls-4"
     d="m26.13 214.92 1.06.88v-8.92a48.78 48.78 0 0 1 46.91-48.67 35.66 35.66 0 0 1 69.6 0 48.77 48.77 0 0 1 46.91 48.68v8.8c.38-.31.75-.63 1.14-.93a41.28 41.28 0 0 1 25.93-8.69V27.57A27.66 27.66 0 0 0 190.11 0H27.74A27.66 27.66 0 0 0 .17 27.57v178.49a41.27 41.27 0 0 1 25.96 8.86z"
     id="path358"
     style="fill:#541f3e" />
  <path
     class="cls-7"
     d="M63.42 35.31v94.08l-6.74 6.64h-5.09l-1.55 1.56v12H36.58v-12l-1.56-1.56h-5.08l-6.93-6.64V35.31l6.93-6.64h26.74zm-15 6.92H38.13l-1.55 1.55v77.28l1.55 1.55h10.31l1.56-1.55V43.78z"
     id="path360"
     style="fill:#fff;stroke:#fff;stroke-width:.34px;stroke-miterlimit:10" />
  <path
     class="cls-7"
     d="M153.99 129.39V35.31l6.78-6.64h26.84l6.64 6.64v13.56l1.7 6.5h-16.81l1.83-6.5V43.5l-1.55-1.55h-10.45l-1.56 1.55v77.42l1.56 1.55h10.45l1.55-1.55v-5.23l-1.83-6.5h16.81l-1.7 6.5v13.7l-6.64 6.64h-26.84z"
     id="path362"
     style="fill:#fff;stroke:#fff;stroke-width:.34px;stroke-miterlimit:10" />
  <path
     class="cls-5"
     id="rect364"
     style="fill:#009e87"
     d="M103.92 28.5h8.62v91h-8.62z" />
  <g
     inkscape:groupmode="layer"
     id="layer1"
     inkscape:label="Layer 1"
     sodipodi:insensitive="true"
     style="opacity:1">
    <circle
       cx="109.08227"
       cy="165.82709"
       r="20.26502"
       id="circle200"
       style="fill:#1a1a1a;stroke-width:0.491869" />
    <circle
       cx="109.08227"
       cy="165.82709"
       id="circle1515"
       style="fill:none;stroke:#4d4d4d;stroke-width:2.16338;stroke-miterlimit:4;stroke-dasharray:none"
       r="16.653891" />
  </g>
</svg>
