<?xml version="1.0" encoding="UTF-8" standalone="no"?>
<svg
   id="Layer_1"
   data-name="Layer 1"
   version="1.1"
   width="190"
   height="190.2903"
   sodipodi:docname="MEM3.svg"
   inkscape:version="1.1.2 (b8e25be833, 2022-02-05)"
   xmlns:inkscape="http://www.inkscape.org/namespaces/inkscape"
   xmlns:sodipodi="http://sodipodi.sourceforge.net/DTD/sodipodi-0.dtd"
   xmlns="http://www.w3.org/2000/svg"
   xmlns:svg="http://www.w3.org/2000/svg">
  <sodipodi:namedview
     id="namedview59"
     pagecolor="#505050"
     bordercolor="#ffffff"
     borderopacity="1"
     inkscape:pageshadow="0"
     inkscape:pageopacity="0"
     inkscape:pagecheckerboard="1"
     showgrid="false"
     fit-margin-top="0"
     fit-margin-left="0"
     fit-margin-right="0"
     fit-margin-bottom="0"
     inkscape:zoom="3.3477992"
     inkscape:cx="113.05935"
     inkscape:cy="81.844812"
     inkscape:window-width="1920"
     inkscape:window-height="1017"
     inkscape:window-x="-8"
     inkscape:window-y="-8"
     inkscape:window-maximized="1"
     inkscape:current-layer="Layer_1" />
  <defs
     id="defs4">
    <style
       id="style2">.cls-10,.cls-5,.cls-6,.cls-8,.cls-9{fill:none}.cls-5,.cls-6{stroke:#fff}.cls-10,.cls-5,.cls-6,.cls-7,.cls-8,.cls-9{stroke-linecap:round;stroke-linejoin:round}.cls-5{stroke-width:2.65px}.cls-6{stroke-width:3.97px}.cls-7,.cls-8{stroke:#f65d32;stroke-width:4.41px}.cls-9{stroke:#f2d425;stroke-width:4.47px}.cls-10{stroke:#00aedc;stroke-width:4.44px}</style>
  </defs>
  <g
     id="g23355"
     transform="translate(192.53883,-85.095742)">
    <g
       id="g23284"
       style="fill:#ffffff;fill-opacity:1;stroke:#ffffff;stroke-width:7.4;stroke-miterlimit:4;stroke-dasharray:none"
       transform="translate(169.81719,24.171685)">
      <path
         id="path23282"
         style="color:#000000;fill:#ffffff;fill-opacity:1;stroke:#ffffff;stroke-width:7.4;stroke-linecap:round;stroke-linejoin:round;stroke-miterlimit:4;stroke-dasharray:none"
         d="m -250.33811,123.63156 c -1.45681,0.0386 -1.65903,1.92791 -1.66951,3.03663 0.61869,1.76917 3.64979,1.47834 4.03784,-0.3523 0.43347,-1.39334 -1.06055,-2.68885 -2.36833,-2.68433 z m 0,0 c -1.45681,0.0386 -1.65903,1.92791 -1.66951,3.03663 0.61869,1.76917 3.64979,1.47834 4.03784,-0.3523 0.43347,-1.39334 -1.06055,-2.68885 -2.36833,-2.68433 z m 11.86745,-58.995691 c -11.45811,0.37817 -22.51825,4.519854 -32.2129,10.476562 -2.14161,1.31902 -4.23732,2.710612 -6.27343,4.1875 -6.70479,-6.35969 -15.68969,-10.321141 -24.94532,-10.707031 -7.16471,-0.39368 -14.67121,1.400014 -20.28515,6.027344 -7.37182,5.9545 -11.40333,15.771287 -10.30469,25.189453 0.52242,5.847643 3.04284,11.450823 6.87109,15.878903 0.19999,0.9927 0.26747,2.03014 -0.15429,2.97657 -1.4108,5.30425 -3.3524,10.59317 -5.23242,15.65039 -3.97406,10.39983 -8.5392,20.57626 -13.64649,30.46875 -4.11965,7.43886 -9.30681,14.37746 -12.05273,22.50586 -3.31139,9.43969 -2.42012,20.44179 3.04297,28.91211 5.0574,7.91817 14.04434,13.10784 23.41406,13.63867 3.99144,0.27748 8.04094,-0.20134 11.8457,-1.44531 8.93512,10.68802 22.14292,17.84254 36.08203,18.92968 11.94069,1.0156 23.96241,-2.15388 34.4668,-7.74609 7.06756,-3.71366 13.54442,-8.46854 19.54883,-13.71094 10.1429,-2.99187 20.33281,-6.24477 29.54492,-11.53906 7.23944,-4.3011 13.83682,-10.04397 18.08203,-17.39648 5.89505,-10.70934 4.26412,-25.09244 -4.09766,-34.0625 -4.33479,-4.84998 -10.34815,-8.10997 -16.72656,-9.30469 8.50031,-12.51995 13.73365,-27.53473 13.41797,-42.76172 -0.23151,-10.11321 -3.15805,-20.364881 -9.38281,-28.449221 -6.56475,-8.56968 -16.39852,-14.47934 -26.98242,-16.5 -4.60424,-0.96094 -9.32168,-1.30076 -14.01953,-1.21875 z m -11.84571,59.419921 c 0.29222,0.001 0.59646,0.0563 0.89649,0.0684 0.73361,0.41446 1.39933,1.2021 1.13281,2.0957 -0.19282,0.77559 -0.94857,1.31294 -1.74805,1.23047 -0.68244,0.16313 -1.40446,-0.33039 -1.71484,-0.92383 0.22294,-0.72217 0.28176,-1.55372 0.60156,-2.21093 0.25871,-0.20761 0.53981,-0.26082 0.83203,-0.25977 z" />
    </g>
    <g
       id="path20615"
       style="fill:#000000;fill-opacity:1"
       transform="translate(169.81719,24.171685)">
      <path
         id="path23240"
         style="color:#000000;fill:#000000;fill-opacity:1;stroke-linecap:round;stroke-linejoin:round;-inkscape-stroke:none"
         d="m -250.33811,123.63156 c -1.45681,0.0386 -1.65903,1.92791 -1.66951,3.03663 0.61869,1.76917 3.64979,1.47834 4.03784,-0.3523 0.43347,-1.39334 -1.06055,-2.68885 -2.36833,-2.68433 z m 0,0 c -1.45681,0.0386 -1.65903,1.92791 -1.66951,3.03663 0.61869,1.76917 3.64979,1.47834 4.03784,-0.3523 0.43347,-1.39334 -1.06055,-2.68885 -2.36833,-2.68433 z m 11.86745,-58.995691 c -11.45811,0.37817 -22.51825,4.519854 -32.2129,10.476562 -2.14161,1.31902 -4.23732,2.710612 -6.27343,4.1875 -6.70479,-6.35969 -15.68969,-10.321141 -24.94532,-10.707031 -7.16471,-0.39368 -14.67121,1.400014 -20.28515,6.027344 -7.37182,5.9545 -11.40333,15.771287 -10.30469,25.189453 0.52242,5.847643 3.04284,11.450823 6.87109,15.878903 0.19999,0.9927 0.26747,2.03014 -0.15429,2.97657 -1.4108,5.30425 -3.3524,10.59317 -5.23242,15.65039 -3.97406,10.39983 -8.5392,20.57626 -13.64649,30.46875 -4.11965,7.43886 -9.30681,14.37746 -12.05273,22.50586 -3.31139,9.43969 -2.42012,20.44179 3.04297,28.91211 5.0574,7.91817 14.04434,13.10784 23.41406,13.63867 3.99144,0.27748 8.04094,-0.20134 11.8457,-1.44531 8.93512,10.68802 22.14292,17.84254 36.08203,18.92968 11.94069,1.0156 23.96241,-2.15388 34.4668,-7.74609 7.06756,-3.71366 13.54442,-8.46854 19.54883,-13.71094 10.1429,-2.99187 20.33281,-6.24477 29.54492,-11.53906 7.23944,-4.3011 13.83682,-10.04397 18.08203,-17.39648 5.89505,-10.70934 4.26412,-25.09244 -4.09766,-34.0625 -4.33479,-4.84998 -10.34815,-8.10997 -16.72656,-9.30469 8.50031,-12.51995 13.73365,-27.53473 13.41797,-42.76172 -0.23151,-10.11321 -3.15805,-20.364881 -9.38281,-28.449221 -6.56475,-8.56968 -16.39852,-14.47934 -26.98242,-16.5 -4.60424,-0.96094 -9.32168,-1.30076 -14.01953,-1.21875 z m -11.84571,59.419921 c 0.29222,0.001 0.59646,0.0563 0.89649,0.0684 0.73361,0.41446 1.39933,1.2021 1.13281,2.0957 -0.19282,0.77559 -0.94857,1.31294 -1.74805,1.23047 -0.68244,0.16313 -1.40446,-0.33039 -1.71484,-0.92383 0.22294,-0.72217 0.28176,-1.55372 0.60156,-2.21093 0.25871,-0.20761 0.53981,-0.26082 0.83203,-0.25977 z" />
    </g>
    <g
       id="g19451"
       transform="matrix(1.1470672,0,0,1.1470672,-203.32059,-63.105924)">
      <g
         id="g19439"
         transform="translate(257.46532,331.06867)">
        <g
           id="g12863">
          <path
             id="path180"
             style="fill:#00aedc"
             d="m -134.17969,-190.41016 c -14.3,0 -30.43,9.99954 -48,29.76954 0.08,-1 0.13086,-2.08993 0.13086,-3.16993 a 24.9,24.9 0 0 0 -6,-16.46093 17,17 0 0 0 -14.31055,-6.18946 c -4.56,0.19 -6.41937,4.42938 -5.35937,8.60938 0.41,1.57 6.05844,7.00054 5.89844,7.56054 l -0.19922,0.73047 0.30078,-0.82031 a 14.37,14.37 0 0 1 1.58008,7 c 0,6.93 -3.41125,17.31906 -8.53125,30.78906 -4.63,12.16 -11.89961,26.91164 -14.34961,31.68164 -9.33,15.00003 -11,18.000082 -11,22.830082 0,5.38 3.49945,9 8.68945,9 5.63,0 8.92016,-4.900078 12.41016,-12.830078 3.49,-7.93 9.0007,-19.669844 14.4707,-30.589844 a 130.31,130.31 0 0 1 18.56055,-28.7207 162.09,162.09 0 0 1 23.04883,-23.20118 c 8.58,-6.81 16.00054,-10.4082 21.56054,-10.4082 7,0 8.47071,5.49938 8.47071,10.10938 0,10.82 -6.05172,23.44906 -15.51172,32.53906 a 49.93,49.93 0 0 0 -22.66992,-5 c -13.2,0 -22.41993,6.15 -22.41993,15 0,7 5.57047,14.50976 21.23047,14.50976 a 54.53,54.53 0 0 0 22.23047,-5 20,20 0 0 1 1.46875,7.85157 33.16,33.16 0 0 1 -5.05859,17.718748 c -11.89,-0.200002 -28.99953,-4.26875 -36.76953,-10.71875 -3.54,-2.999998 -6.88008,-4.351568 -10.83008,-4.351568 -2.68,0 -8.51125,0.92141 -9.78125,8.691411 v 0.25 c 0,0.24 -0.0696,0.490235 -0.0996,0.740235 -0.46955,4.034629 -1.7919,19.446117 4.55469,27.523437 2.84966,0.431682 4.66805,1.742592 5.46679,3.296875 0.65295,-0.02303 1.30589,-0.04433 1.95899,-0.06445 0.82649,-0.02514 1.65386,-0.04776 2.48047,-0.06836 0.85275,-0.02093 1.70575,-0.03817 2.55859,-0.05469 0.90295,-0.01189 1.80597,-0.01217 2.70898,-0.01367 0.80161,-0.0012 1.60269,-0.0011 2.4043,-0.002 0.82371,-10e-4 1.64698,-0.0012 2.4707,-0.002 0.85496,-7e-4 1.7095,-0.0014 2.56446,-0.002 0.86441,3e-4 1.7294,3.28e-4 2.59375,-0.0098 0.9014,-0.01078 1.80385,-0.02197 2.70508,-0.04297 0.99387,-0.02455 1.98649,-0.0477 2.98046,-0.06836 1.13318,-0.02293 2.26712,-0.03984 3.40039,-0.05664 1.24867,-0.01806 2.49741,-0.03285 3.7461,-0.04687 1.29139,-0.0096 2.58185,-0.03392 3.87305,-0.05664 1.29848,-0.02344 2.59689,-0.07013 3.89453,-0.121094 1.30652,-0.05737 2.6125,-0.117542 3.91797,-0.195312 1.26417,-0.07841 2.52666,-0.174877 3.78906,-0.277344 0.1668,-0.01373 0.33322,-0.03256 0.5,-0.04687 a 52.19,52.19 0 0 0 10.9707,-10.292969 c 9.05858,-0.963678 16.64789,-3.006581 23.01563,-6.248047 -0.10838,-0.358499 -0.24238,-0.709206 -0.32813,-1.074218 -0.1145,-0.484471 -0.21865,-0.970613 -0.32422,-1.457032 -0.12361,-0.54115 -0.24179,-1.084775 -0.35156,-1.628906 -0.11833,-0.551135 -0.24449,-1.099513 -0.38086,-1.646484 -0.23543,-1.036414 -0.45292,-2.079952 -0.54492,-3.140625 -0.0703,-1.02728 -0.11128,-2.058152 -0.0156,-3.085938 0.043,-0.570399 0.0913,-1.140208 0.15235,-1.708984 0.0628,-0.584477 0.12993,-1.167731 0.21093,-1.75 0.0426,-0.314748 0.0937,-0.627318 0.10743,-0.945313 10e-5,-0.0013 -1.1e-4,-0.0026 0,-0.0039 a 27.27,27.27 0 0 1 -11.73047,6.669922 c 0.42,-1.56 0.15086,-2.390156 -0.61914,-2.660156 a 43.1,43.1 0 0 0 2,-12.929688 28.73,28.73 0 0 0 -5.49024,-17.15039 c 13.83,-11.48 22.34961,-27.73938 22.34961,-42.85938 0,-16.33 -9.75,-25.69922 -26.75,-25.69922 z m 216.980471,52.99805 c 0.06924,0.30786 0.142824,0.61465 0.214844,0.92188 -0.02216,-0.23873 -0.0086,-0.48107 -0.05078,-0.7168 -0.01746,-0.0976 -0.02342,0.19642 -0.03516,0.29492 -0.04264,-0.16645 -0.166607,-0.66765 -0.128907,-0.5 z m -247.339841,13.67188 a 32.05,32.05 0 0 1 7.76953,0.89843 28.55,28.55 0 0 1 -9.85938,1.8711 c -3,0 -4.30078,-0.76016 -4.30078,-1.16016 0,-0.8 2.00063,-1.60937 6.39063,-1.60937 z m -24.03125,40.808589 a 74.68,74.68 0 0 0 24.31054,8.88086 22.5,22.5 0 0 1 -6.09961,0.849609 c -8.56,0 -16.00093,-4.120469 -18.21093,-9.730469 z" />
          <path
             style="fill:none;stroke:#00aedc;stroke-width:16.1;stroke-linecap:round;stroke-linejoin:miter;stroke-miterlimit:4;stroke-dasharray:none;stroke-opacity:1"
             d="m -197.3808,-89.766548 c 0,0 -0.97973,12.608165 1.65409,17.486633 6.72447,12.455392 24.76508,22.314035 52.31145,-3.335202"
             id="path1332"
             sodipodi:nodetypes="csc" />
        </g>
        <path
           style="fill:none;stroke:#00aedc;stroke-width:15.559;stroke-linecap:round;stroke-linejoin:miter;stroke-miterlimit:4;stroke-dasharray:none;stroke-opacity:1"
           d="m -143.20369,-77.321927 c 0,0 31.01111,-6.736397 38.93137,-16.886743"
           id="path12898" />
      </g>
      <path
         class="cls-5"
         id="line182"
         style="fill:none;stroke:#ffffff;stroke-width:2.65px;stroke-linecap:round;stroke-linejoin:round"
         d="m 64.473,193.75 -29.55,55.56" />
      <path
         class="cls-5"
         d="m 64.473,157.15 c 0,0 4.33,7.7 3.39,20.8"
         id="path184"
         style="fill:none;stroke:#ffffff;stroke-width:2.65px;stroke-linecap:round;stroke-linejoin:round" />
      <path
         class="cls-5"
         d="m 64.873,192.64 a 100.16,100.16 0 0 1 37.86,-38.07 c 6.35,-3.6 13.34,-6.55 20.64,-6.54 7.3,0.01 14.94,3.55 18.16,10.1 2.16,4.4 2.12,9.57 1.38,14.42 a 50,50 0 0 1 -19.47,31.94 c -9.35,7.11 -27.1,15.36 -39.05,10.88 -10.57,-4 -2.21,-12.65 4.17,-14.3 5.27,-1.37 16,-2.52 20.05,2.36"
         id="path186"
         style="fill:none;stroke:#ffffff;stroke-width:2.65px;stroke-linecap:round;stroke-linejoin:round" />
      <path
         class="cls-5"
         d="m 124.143,219.55 c 0.4,12 0.26,26 -7.64,35.55 -15.38,18.61 -47.9,12.62 -55.8,-9.82 -0.61,-1.74 -1,-3.9 0.27,-5.24 a 4.81,4.81 0 0 1 3,-1.22 c 6.48,-0.85 12.56,1.77 18.32,4.36 a 97.57,97.57 0 0 0 21.23,6.76"
         id="path188"
         style="fill:none;stroke:#ffffff;stroke-width:2.65px;stroke-linecap:round;stroke-linejoin:round" />
      <path
         class="cls-5"
         d="m 130.393,249.53 c 0,0 13.76,-2.68 22.8,-12.67"
         id="path208"
         style="fill:none;stroke:#ffffff;stroke-width:2.65px;stroke-linecap:round;stroke-linejoin:round" />
    </g>
  </g>
</svg>
