<?xml version="1.0" encoding="UTF-8" standalone="no"?>
<svg
   id="Layer_1"
   data-name="Layer 1"
   version="1.1"
   width="300.48999"
   height="357.96008"
   sodipodi:docname="NYC.svg"
   inkscape:version="1.1.2 (b8e25be833, 2022-02-05)"
   xmlns:inkscape="http://www.inkscape.org/namespaces/inkscape"
   xmlns:sodipodi="http://sodipodi.sourceforge.net/DTD/sodipodi-0.dtd"
   xmlns:xlink="http://www.w3.org/1999/xlink"
   xmlns="http://www.w3.org/2000/svg"
   xmlns:svg="http://www.w3.org/2000/svg">
  <sodipodi:namedview
     id="namedview116"
     pagecolor="#505050"
     bordercolor="#ffffff"
     borderopacity="1"
     inkscape:pageshadow="0"
     inkscape:pageopacity="0"
     inkscape:pagecheckerboard="1"
     showgrid="false"
     showguides="true"
     inkscape:guide-bbox="true"
     inkscape:zoom="2"
     inkscape:cx="115.25"
     inkscape:cy="160"
     inkscape:window-width="1920"
     inkscape:window-height="1017"
     inkscape:window-x="-1928"
     inkscape:window-y="-8"
     inkscape:window-maximized="1"
     inkscape:current-layer="Layer_1"
     fit-margin-top="0"
     fit-margin-left="0"
     fit-margin-right="0"
     fit-margin-bottom="0">
    <sodipodi:guide
       position="154.86299,196.04441"
       orientation="0,-1"
       id="guide5892" />
  </sodipodi:namedview>
  <defs
     id="defs13">
    <inkscape:path-effect
       effect="powerclip"
       id="path-effect14437"
       is_visible="true"
       lpeversion="1"
       inverse="true"
       flatten="false"
       hide_clip="false"
       message="Use fill-rule evenodd on &lt;b&gt;fill and stroke&lt;/b&gt; dialog if no flatten result after convert clip to paths." />
    <inkscape:path-effect
       effect="powerclip"
       id="path-effect13619"
       is_visible="true"
       lpeversion="1"
       inverse="true"
       flatten="false"
       hide_clip="false"
       message="Use fill-rule evenodd on &lt;b&gt;fill and stroke&lt;/b&gt; dialog if no flatten result after convert clip to paths." />
    <linearGradient
       id="linear-gradient"
       x1="723.26001"
       y1="499.54999"
       x2="723.26001"
       y2="457.25"
       gradientUnits="userSpaceOnUse">
      <stop
         offset="0"
         stop-color="#ff8500"
         id="stop4" />
      <stop
         offset="1"
         stop-color="#ff8500"
         stop-opacity="0"
         id="stop6" />
    </linearGradient>
    <linearGradient
       id="linear-gradient-2"
       x1="761.06"
       y1="499.54999"
       x2="761.06"
       y2="457.25"
       xlink:href="#linear-gradient" />
    <linearGradient
       id="linear-gradient-3"
       x1="730.82001"
       y1="443.60001"
       x2="730.82001"
       y2="423.98001"
       xlink:href="#linear-gradient" />
    <linearGradient
       id="linear-gradient-4"
       x1="753.5"
       y1="443.60001"
       x2="753.5"
       y2="423.98001"
       xlink:href="#linear-gradient" />
    <linearGradient
       id="linear-gradient-5"
       x1="744.25"
       y1="395.16"
       x2="744.25"
       y2="354.23999"
       xlink:href="#linear-gradient" />
    <style
       id="style2">.cls-20{fill:#2074bb}.cls-18,.cls-20{stroke:#ff8500}.cls-18,.cls-3{fill:#ff8500}.cls-32{fill:none}.cls-18,.cls-20,.cls-32{stroke-miterlimit:10}.cls-25{fill:#125e91}.cls-7{fill:#0b4f75}.cls-8{fill:#073e51}.cls-32{stroke:#fff}.cls-18{stroke-width:17px}.cls-20{stroke-width:6.37px}.cls-21{fill:#ddad92}.cls-22{fill:#fff}.cls-23{fill:#edc4a9}.cls-27{fill:#c69379}.cls-29{fill:#827a87}.cls-32{stroke-width:2.87px}</style>
    <clipPath
       clipPathUnits="userSpaceOnUse"
       id="clipPath13289">
      <path
         id="path13291"
         style="fill:#000000;stroke:#999999;stroke-width:2.9;stroke-linejoin:round"
         d="m 203.92273,211.45889 a 0.1741785,0.16704004 0 0 1 -0.17418,0.16704 0.1741785,0.16704004 0 0 1 -0.17418,-0.16704 0.1741785,0.16704004 0 0 1 0.17418,-0.16704 0.1741785,0.16704004 0 0 1 0.17418,0.16704 z" />
    </clipPath>
    <clipPath
       clipPathUnits="userSpaceOnUse"
       id="clipPath13615">
      <circle
         style="display:none;fill:#ffffff;fill-opacity:1;stroke:none;stroke-width:2.9;stroke-linejoin:round;stroke-miterlimit:4;stroke-dasharray:none;stroke-opacity:1"
         id="circle13617"
         cx="203.80078"
         cy="211.67578"
         r="1.0429688"
         d="m 204.84375,211.67578 a 1.0429687,1.0429687 0 0 1 -1.04297,1.04297 1.0429687,1.0429687 0 0 1 -1.04297,-1.04297 1.0429687,1.0429687 0 0 1 1.04297,-1.04297 1.0429687,1.0429687 0 0 1 1.04297,1.04297 z" />
      <path
         id="lpe_path-effect13619"
         style="fill:#ffffff;fill-opacity:1;stroke:none;stroke-width:2.9;stroke-linejoin:round;stroke-miterlimit:4;stroke-dasharray:none;stroke-opacity:1"
         class="powerclip"
         d="m 197.12891,205.00391 h 13.34375 v 13.34375 h -13.34375 z m 7.71484,6.67187 a 1.0429687,1.0429687 0 0 0 -1.04297,-1.04297 1.0429687,1.0429687 0 0 0 -1.04297,1.04297 1.0429687,1.0429687 0 0 0 1.04297,1.04297 1.0429687,1.0429687 0 0 0 1.04297,-1.04297 z" />
    </clipPath>
    <clipPath
       clipPathUnits="userSpaceOnUse"
       id="clipPath14433">
      <circle
         style="display:none;fill:#ffffff;fill-opacity:1;stroke:none;stroke-width:3.75189;stroke-linejoin:round;stroke-miterlimit:4;stroke-dasharray:none;stroke-opacity:1"
         id="circle14435"
         cx="203.79616"
         cy="211.3176"
         r="1.2042773"
         d="m 205.00044,211.3176 a 1.2042773,1.2042773 0 0 1 -1.20428,1.20427 1.2042773,1.2042773 0 0 1 -1.20428,-1.20427 1.2042773,1.2042773 0 0 1 1.20428,-1.20428 1.2042773,1.2042773 0 0 1 1.20428,1.20428 z" />
      <path
         id="lpe_path-effect14437"
         style="fill:#ffffff;fill-opacity:1;stroke:none;stroke-width:3.75189;stroke-linejoin:round;stroke-miterlimit:4;stroke-dasharray:none;stroke-opacity:1"
         class="powerclip"
         d="m 195.66211,206.06445 h 16.30859 v 13.23633 h -16.30859 z m 9.33833,5.25315 a 1.2042773,1.2042773 0 0 0 -1.20428,-1.20428 1.2042773,1.2042773 0 0 0 -1.20428,1.20428 1.2042773,1.2042773 0 0 0 1.20428,1.20427 1.2042773,1.2042773 0 0 0 1.20428,-1.20427 z" />
    </clipPath>
  </defs>
  <circle
     class="cls-18"
     cx="45.964993"
     cy="288.54507"
     r="29.370001"
     id="circle205"
     style="fill:#ff8500;stroke:#ff8500;stroke-width:17px;stroke-miterlimit:10" />
  <circle
     class="cls-18"
     cx="254.765"
     cy="286.63507"
     r="29.370001"
     id="circle207"
     style="fill:#ff8500;stroke:#ff8500;stroke-width:17px;stroke-miterlimit:10" />
  <circle
     cx="150.245"
     cy="207.71507"
     r="146"
     id="circle209"
     style="fill:#2074bb;stroke:#ff8500;stroke-width:8.49px;stroke-miterlimit:10" />
  <path
     d="m 252.84499,46.395075 a 145.49,145.49 0 0 0 -102.56,-42.1499997 c -41.37,0 -77.749997,17.2099997 -104.309997,44.8499997 V 306.39508 H 252.84499 Z"
     id="path211"
     style="fill:#125e91;stroke:#ff8500;stroke-width:8.49px;stroke-linecap:round;stroke-linejoin:round" />
  <path
     class="cls-20"
     id="line213"
     style="fill:#2074bb;stroke:#ff8500;stroke-width:6.37px;stroke-miterlimit:10"
     d="m 47.244993,102.06508 v 211.29" />
  <path
     class="cls-20"
     id="line215"
     style="fill:#2074bb;stroke:#ff8500;stroke-width:6.37px;stroke-miterlimit:10"
     d="m 22.404993,141.87508 v 135.92" />
  <path
     class="cls-20"
     id="line217"
     style="fill:#2074bb;stroke:#ff8500;stroke-width:6.37px;stroke-miterlimit:10"
     d="m 278.08499,141.87508 v 131.13" />
  <path
     class="cls-20"
     id="line219"
     style="fill:#2074bb;stroke:#ff8500;stroke-width:6.37px;stroke-miterlimit:10"
     d="m 253.24499,107.16508 v 205.34" />
  <path
     class="cls-7"
     id="rect221"
     style="fill:#0b4f75"
     d="m 89.064993,163.39508 h 19.159997 v 137.92 H 89.064993 Z" />
  <path
     class="cls-7"
     id="rect223"
     style="fill:#0b4f75"
     d="m 117.79499,163.39508 h 19.16 v 137.92 h -19.16 z" />
  <path
     class="cls-7"
     id="polygon225"
     style="fill:#0b4f75"
     d="m 165.68499,163.39508 10.22,-11.49 8.94,11.49 v 137.93 h -19.16 z" />
  <path
     class="cls-7"
     id="rect227"
     style="fill:#0b4f75"
     d="m 203.99499,170.03508 h 19.16 v 131.29 h -19.16 z" />
  <path
     class="cls-7"
     id="rect229"
     style="fill:#0b4f75"
     d="m 66.074993,225.97508 h 26.18 v 75.84 h -26.18 z" />
  <path
     class="cls-7"
     id="rect231"
     style="fill:#0b4f75"
     d="m 106.94499,195.96508 h 20.43 v 40.23 h -20.43 z" />
  <path
     class="cls-7"
     id="rect233"
     style="fill:#0b4f75"
     d="m 147.80499,182.55508 h 26.82 v 80.46 h -26.82 z" />
  <path
     class="cls-7"
     id="rect235"
     style="fill:#0b4f75"
     d="m 219.32499,179.99508 h 21.07 v 121.32 h -21.07 z" />
  <path
     class="cls-7"
     id="rect237"
     style="fill:#0b4f75"
     d="M 97.554993,211.28508 H 211.65499 v 90.67 H 97.554993 Z" />
  <path
     class="cls-20"
     id="line239"
     style="fill:#2074bb;stroke:#ff8500;stroke-width:6.37px;stroke-miterlimit:10"
     d="m 79.324993,307.98508 v 23.95" />
  <path
     class="cls-20"
     id="line241"
     style="fill:#2074bb;stroke:#ff8500;stroke-width:6.37px;stroke-miterlimit:10"
     d="m 108.06499,307.98508 v 42.15" />
  <path
     class="cls-20"
     id="line243"
     style="fill:#2074bb;stroke:#ff8500;stroke-width:6.37px;stroke-miterlimit:10"
     d="m 136.79499,307.98508 v 42.15" />
  <path
     class="cls-20"
     id="line245"
     style="fill:#2074bb;stroke:#ff8500;stroke-width:6.37px;stroke-miterlimit:10"
     d="m 165.53499,307.98508 v 42.15" />
  <path
     class="cls-20"
     id="line247"
     style="fill:#2074bb;stroke:#ff8500;stroke-width:6.37px;stroke-miterlimit:10"
     d="m 194.26499,307.98508 v 42.15" />
  <path
     class="cls-20"
     id="line249"
     style="fill:#2074bb;stroke:#ff8500;stroke-width:6.37px;stroke-miterlimit:10"
     d="m 223.00499,307.98508 v 22.99" />
  <ellipse
     class="cls-21"
     cx="153.33499"
     cy="81.615074"
     rx="42.040001"
     ry="39.439999"
     id="ellipse251"
     style="fill:#ddad92" />
  <path
     class="cls-22"
     id="polygon253"
     style="fill:#ffffff"
     d="m 106.58499,302.29508 h 89.47 l 5.89,-145.53 h -101.25 z" />
  <path
     class="cls-8"
     d="m 99.814993,153.23508 -49.79,20.32 -25.93,93.14 c 0,0 -6.48,25.92 4.72,34.17 11.2,8.25 13.55,17.09 41.83,1.18 h 42.419997 z"
     id="path255"
     style="fill:#073e51" />
  <path
     class="cls-8"
     d="m 201.85499,153.23508 49.79,20.32 25.93,93.14 c 0,0 6.48,25.92 -4.72,34.17 -11.2,8.25 -13.55,17.09 -41.83,1.18 h -42.42 z"
     id="path257"
     style="fill:#073e51" />
  <path
     class="cls-23"
     d="m 99.034993,122.41508 c 0,0 0.32,23.86 1.259997,30.5 0.94,6.64 18.67,33.53 51.25,36.55 0,0 36.06,-2.11 50,-35.94 0,0 2.85,-22.05 2.85,-30.21 0,0 11.7,-12.08 13.28,-16.61 1.58,-4.53 2.22,-15.410005 -12.33,-18.430005 0,0 -4.11,-21.74 -18.67,-23.25 0,0 -14.23,-19.64 -33.21,-18.73 a 45.83,45.83 0 0 0 -38,19 c 0,0 -15.819997,2.72 -18.349997,23.86 0,0 -15.5,1.51 -12,16.310005 0,0.03 10.44,16.95 13.92,16.95 z"
     id="path259"
     style="fill:#edc4a9" />
  <path
     class="cls-22"
     d="m 78.284993,237.78508 c 0,0 0.29,25.92 12.08,39.47 l 6.48,-4.12 -0.88,-16.79 -12.38,-21.51 z"
     id="path261"
     style="fill:#ffffff" />
  <path
     class="cls-7"
     d="m 78.594993,243.69508 -47.13,28.87 c 0,0 2.94,-9.43 13.55,-16.2 l 33.58,-21.51 z"
     id="path263"
     style="fill:#0b4f75" />
  <path
     class="cls-7"
     d="m 24.094993,266.69508 c 0,0 27.11,-43.31 26.22,-77.78 l -0.29,-15.32"
     id="path265"
     style="fill:#0b4f75" />
  <path
     class="cls-21"
     d="m 205.28499,88.275075 c 0,0 -4.11,-21.74 -18.67,-23.25 a 56.87,56.87 0 0 0 -16.26,-14.33 60.85,60.85 0 0 0 -6.62,-0.85 c -15.9,-1.18 -15.32,8.25 -15.32,8.25 l -15.9,4.13 15.32,0.59 -2.36,10 c -8,2.87 -1.64,9.44 -3.89,13.58 -3.76,6.89 -12.47,11.23 -12.47,11.23 l 14,14.670005 11.17,24.73 v 52.12 c 8.69,-1.28 35.62,-7.46 47.21,-35.62 0,0 2.85,-22.05 2.85,-30.21 0,0 11.7,-12.08 13.28,-16.61 1.58,-4.53 2.25,-15.410005 -12.34,-18.430005 z"
     id="path267"
     style="fill:#ddad92" />
  <path
     class="cls-7"
     id="polygon269"
     style="fill:#0b4f75"
     d="m 98.634993,203.31508 -14.14,13.26 14.73,36.82 6.769997,50.67 -10.009997,-47.72 -15.32,-40.95 7.95,-9.43 -12.08,-2.36 22.1,-47.43 -14.73,45.96 z" />
  <ellipse
     cx="151.80499"
     cy="200.22507"
     rx="14.88"
     ry="14.29"
     id="ellipse271"
     style="fill:none;stroke:#073e51;stroke-width:0.59px;stroke-miterlimit:10" />
  <path
     id="polyline273"
     style="fill:#2074bb"
     d="m 146.35499,210.38508 -14.73,91.62 h 39.77 l -12.66,-92.8" />
  <circle
     class="cls-25"
     cx="68.874992"
     cy="292.18509"
     r="4.52"
     id="circle275"
     style="fill:#125e91" />
  <circle
     class="cls-25"
     cx="79.484993"
     cy="283.34509"
     r="4.52"
     id="circle277"
     style="fill:#125e91" />
  <path
     class="cls-7"
     d="m 48.384993,179.43508 c 5.4,-3.48 16.32,-9.42 29.72,-10.79 19.25,-2 21.71,-15.41 21.71,-15.41 l -49.79,20.32 z"
     id="path279"
     style="fill:#0b4f75" />
  <path
     class="cls-22"
     d="m 223.36499,237.78508 c 0,0 -0.29,25.91 -12.08,39.47 l -6.48,-4.12 0.88,-16.79 12.38,-21.51 z"
     id="path281"
     style="fill:#ffffff" />
  <path
     class="cls-7"
     d="m 223.07499,243.69508 47.13,28.87 c 0,0 -2.94,-9.43 -13.55,-16.2 l -33.58,-21.51 z"
     id="path283"
     style="fill:#0b4f75" />
  <path
     class="cls-7"
     d="m 277.57499,266.69508 c 0,0 -27.11,-43.31 -26.22,-77.78 l 0.29,-15.32"
     id="path285"
     style="fill:#0b4f75" />
  <path
     class="cls-7"
     id="polygon287"
     style="fill:#0b4f75"
     d="m 203.03499,203.31508 14.14,13.26 -14.73,36.82 -6.77,50.67 10.01,-47.72 15.32,-40.95 -7.95,-9.43 12.08,-2.36 -22.1,-47.43 14.73,45.96 z" />
  <circle
     class="cls-25"
     cx="232.795"
     cy="292.18509"
     r="4.52"
     id="circle289"
     style="fill:#125e91" />
  <circle
     class="cls-25"
     cx="222.18498"
     cy="283.34509"
     r="4.52"
     id="circle291"
     style="fill:#125e91" />
  <path
     class="cls-7"
     d="m 223.56499,168.69508 c 13.4,1.37 24.32,7.31 29.72,10.79 l -1.64,-5.88 -49.79,-20.32 c 0,0 2.43,13.41 21.71,15.41 z"
     id="path293"
     style="fill:#0b4f75" />
  <path
     class="cls-21"
     d="m 101.87499,102.85508 c 0,0 10,5.3 21.8,-2.36 l -13,12.38 1.17,16.49 z"
     id="path295"
     style="fill:#ddad92" />
  <path
     class="cls-21"
     d="m 93.284993,90.125075 c -4.34,1.54 -10.46,5.5 -8.14,15.370005 0,0 6.89,11.16 11.34,15.35 l 2.58,1.57 -2.17,-31.340005 z"
     id="path297"
     style="fill:#ddad92" />
  <path
     d="m 97.454993,104.91508 c 0,0 -3.24,-5.590005 -8.54,-2.65 0,0 1.47,-7.070005 8.83,-3.530005"
     id="path299"
     style="fill:#cc9b83" />
  <path
     class="cls-27"
     d="m 202.03499,102.85508 c 0,0 -10,5.3 -21.8,-2.36 l 13,12.38 -1.17,16.49 z"
     id="path301"
     style="fill:#c69379" />
  <path
     class="cls-27"
     d="m 148.76499,104.69508 c -8.06,0 -15.2,-2.79 -19.65,-7.100005 a 10.76,10.76 0 0 0 -0.14,1.71 c 0,8.130005 9.23,14.730005 20.62,14.730005 11.39,0 20.63,-6.6 20.63,-14.730005 a 10.67,10.67 0 0 0 -0.48,-3.14 c -4.25,5.130005 -12.05,8.530005 -20.98,8.530005 z"
     id="path303"
     style="fill:#c69379" />
  <path
     class="cls-21"
     d="m 131.92499,154.69508 a 48.68,48.68 0 0 0 37.12,0 c 0,0 -15.91,22.4 -37.12,0 z"
     id="path305"
     style="fill:#ddad92" />
  <rect
     class="cls-21"
     x="143.70499"
     y="142.92506"
     width="16.5"
     height="6.6799998"
     rx="3.3399999"
     id="rect307"
     style="fill:#ddad92" />
  <path
     class="cls-23"
     id="polyline309"
     style="fill:#edc4a9"
     d="m 152.74499,151.17508 10.6,1.96 -11.39,1.18" />
  <path
     class="cls-8"
     d="m 117.38499,113.95508 c 0,0 32.58,22.05 66.43,0 0,0 -5.38,25.07 -32.59,24.77 0,0 -23.09,1.81 -34.16,-22 z"
     id="path311"
     style="fill:#073e51" />
  <path
     class="cls-22"
     d="m 170.41499,126.81508 h -36.92 c -4.26,0 -5.75,1.85 -6.22,3.54 a 36.09,36.09 0 0 0 23.95,8.34 c 10.34,0.11 17.52,-3.44 22.46,-7.88 a 7.64,7.64 0 0 0 -3.27,-4 z"
     id="path313"
     style="fill:#ffffff" />
  <path
     d="m 172.28499,129.20508 a 6.73,6.73 0 0 0 -1.89,-1.8 h -36.9 a 6.83,6.83 0 0 0 -4.83,1.51 c 2,1.71 4.37,2.25 7.21,2.92 7.46,1.75 27.48,4.51 36.41,-2.63 z"
     id="path315"
     style="fill:#e0e0e0" />
  <path
     class="cls-22"
     d="m 176.57499,118.02508 c -22.15,10.63 -42.77,4.06 -52.81,-0.61 0.65,0.3 2.1,5.84 2.78,6.79 2.48,3.43 5.44,4 9.33,4.87 9.54,2 39.62,5.56 40.83,-10.11 a 2.41,2.41 0 0 0 -0.13,-0.94 z"
     id="path317"
     style="fill:#ffffff" />
  <path
     class="cls-8"
     d="m 119.76499,60.205075 c 0,0 -9.94,10 -11.31,23.73 l -9.319997,23.490005 a 59.68,59.68 0 0 1 -2,-20.750005 c 0.81,-11.83 5.999997,-30.73 22.629997,-26.47 z"
     id="path319"
     style="fill:#073e51" />
  <path
     class="cls-8"
     d="m 184.66499,60.205075 c 0,0 9.93,10 11.31,23.73 l 9.31,23.490005 a 59.68,59.68 0 0 0 2.06,-20.730005 c -0.86,-11.85 -6.06,-30.75 -22.68,-26.49 z"
     id="path321"
     style="fill:#073e51" />
  <path
     class="cls-29"
     d="m 138.48499,75.625075 c 0,0 -5.17,-3.76 -10.38,-4.24 -5.21,-0.48 -8.91,-1.88 -7.91,-6.23 a 21.39,21.39 0 0 0 6.43,3.14 c 3.13,0.73 10.92,0.33 11.86,7.33 z"
     id="path323"
     style="fill:#827a87" />
  <path
     class="cls-29"
     d="m 163.04499,75.625075 c 0,0 5.18,-3.76 10.38,-4.24 5.2,-0.48 8.92,-1.88 7.91,-6.23 a 21.28,21.28 0 0 1 -6.42,3.14 c -3.13,0.73 -10.92,0.33 -11.87,7.33 z"
     id="path325"
     style="fill:#827a87" />
  <path
     class="cls-27"
     id="polyline327"
     style="fill:#c69379"
     d="m 175.52499,78.105075 h 13.26 l -10.9,3.83" />
  <path
     class="cls-23"
     id="polyline329"
     style="fill:#edc4a9"
     d="m 149.20499,55.525075 11.2,-0.59 -11.2,-2.16" />
  <path
     class="cls-27"
     d="m 161.08499,82.385075 c 0,0 1.92,14.14 22.1,6.33 0,0 2.65,-2.95 0.14,-2.95 -2.51,0 -3.83,1 -5.74,1 -1.91,0 -11.05,2.07 -13.4,-3.38 -2.35,-5.45 0.44,-2.36 0.44,-2.36 l -3.24,-0.44"
     id="path331"
     style="fill:#c69379" />
  <path
     class="cls-21"
     d="m 141.98499,82.385075 c 0,0 -1.92,14.14 -22.1,6.33 0,0 -2.65,-2.95 -0.14,-2.95 2.51,0 3.83,1 5.74,1 1.91,0 11.05,2.07 13.41,-3.38 2.36,-5.45 -0.45,-2.36 -0.45,-2.36 l 3.24,-0.44"
     id="path333"
     style="fill:#ddad92" />
  <ellipse
     class="cls-22"
     cx="171.39499"
     cy="80.615074"
     rx="10.02"
     ry="3.3900001"
     id="ellipse335"
     style="fill:#ffffff" />
  <circle
     class="cls-3"
     cx="172.18498"
     cy="81.055077"
     r="2.95"
     id="circle337"
     style="fill:#ff8500" />
  <path
     class="cls-21"
     id="polyline339"
     style="fill:#ddad92"
     d="m 126.03499,77.515075 -9.14,2.07 7.37,2.35" />
  <ellipse
     class="cls-22"
     cx="131.92499"
     cy="80.615074"
     rx="10.02"
     ry="3.3900001"
     id="ellipse341"
     style="fill:#ffffff" />
  <circle
     class="cls-3"
     cx="132.11499"
     cy="81.055077"
     r="2.95"
     id="circle343"
     style="fill:#ff8500" />
  <path
     id="line345"
     style="fill:none;stroke:#0b4f75;stroke-width:3.83px;stroke-miterlimit:10"
     d="m 139.34499,255.82508 h 25.86" />
  <g
     id="g25704"
     transform="translate(-50.215007,-42.705423)">
    <g
       id="g25577">
      <g
         id="g25568"
         transform="translate(-0.15762234)">
        <rect
           style="fill:#999999;stroke:none;stroke-width:32.2;stroke-linejoin:round"
           id="rect1205"
           width="16.456495"
           height="5.283401"
           x="195.13939"
           y="213.32816"
           ry="2.6417005" />
        <g
           id="g25561"
           transform="translate(-0.44876832)">
          <path
             style="fill:#999999;fill-opacity:1;stroke:none;stroke-width:2.9;stroke-linejoin:round;stroke-miterlimit:4;stroke-dasharray:none;stroke-opacity:1"
             id="path13401"
             clip-path="url(#clipPath13615)"
             sodipodi:type="arc"
             sodipodi:cx="203.80078"
             sodipodi:cy="211.67578"
             sodipodi:rx="1.671875"
             sodipodi:ry="1.671875"
             d="m 205.47266,211.67578 a 1.671875,1.671875 0 0 1 -1.67188,1.67188 1.671875,1.671875 0 0 1 -1.67187,-1.67188 1.671875,1.671875 0 0 1 1.67187,-1.67187 1.671875,1.671875 0 0 1 1.67188,1.67187 z"
             transform="translate(0.0234375,-0.3828125)"
             inkscape:path-effect="#path-effect13619" />
          <path
             id="path13956"
             style="color:#000000;fill:#999999;fill-opacity:1;-inkscape-stroke:none"
             d="m 203.1543,211.06445 -0.9961,0.0918 c 0,0 0.032,0.29896 -0.13281,0.75781 -0.16482,0.45886 -0.51444,1.03394 -1.36328,1.51758 l 0.49609,0.86914 c 1.05151,-0.59911 1.57567,-1.40034 1.8086,-2.04883 0.23293,-0.64848 0.1875,-1.1875 0.1875,-1.1875 z m 1.32617,0 c 0,0 -0.0454,0.53902 0.1875,1.1875 0.23293,0.64849 0.75709,1.44972 1.80859,2.04883 l 0.49414,-0.86914 c -0.84884,-0.48364 -1.1965,-1.05872 -1.36132,-1.51758 -0.16481,-0.45885 -0.13282,-0.75781 -0.13282,-0.75781 z"
             clip-path="url(#clipPath14433)"
             inkscape:original-d="m 203.1543,211.06445 -0.9961,0.0918 c 0,0 0.032,0.29896 -0.13281,0.75781 -0.16482,0.45886 -0.51444,1.03394 -1.36328,1.51758 l 0.49609,0.86914 c 1.05151,-0.59911 1.57567,-1.40034 1.8086,-2.04883 0.23293,-0.64848 0.1875,-1.1875 0.1875,-1.1875 z m 1.32617,0 c 0,0 -0.0454,0.53902 0.1875,1.1875 0.23293,0.64849 0.75709,1.44972 1.80859,2.04883 l 0.49414,-0.86914 c -0.84884,-0.48364 -1.1965,-1.05872 -1.36132,-1.51758 -0.16481,-0.45885 -0.13282,-0.75781 -0.13282,-0.75781 z"
             inkscape:path-effect="#path-effect14437" />
          <path
             style="fill:#999999;fill-opacity:1;stroke:none;stroke-width:0.0226563;stroke-linejoin:round;stroke-miterlimit:4;stroke-dasharray:none;stroke-opacity:1"
             d="m 202.68692,212.04613 c -0.18057,0.0376 -0.34023,0.16088 -0.42035,0.32733 0.0171,-0.0334 -0.0282,0.0516 -0.0374,0.067 -0.10571,0.19571 -0.23956,0.37391 -0.37586,0.54882 -0.15911,0.22535 -0.12905,0.55861 0.067,0.75259 0.12888,0.13741 0.32258,0.19524 0.50753,0.18233 0.95936,-0.001 1.91885,0.002 2.87812,-0.002 0.2784,-0.005 0.5319,-0.23066 0.56821,-0.50685 0.0336,-0.18734 -0.0395,-0.37841 -0.16293,-0.51869 -0.13459,-0.17063 -0.26084,-0.36199 -0.36104,-0.56101 -0.12223,-0.2131 -0.38204,-0.33418 -0.62373,-0.28795 -0.19337,0.0275 -0.32985,0.18329 -0.51024,0.2443 -0.15354,0.0627 -0.32075,0.0824 -0.48544,0.0694 -0.20458,-0.0139 -0.3991,-0.0975 -0.5649,-0.21557 -0.13991,-0.0929 -0.31328,-0.13348 -0.47894,-0.10016 z"
             id="path25420" />
        </g>
      </g>
      <rect
         style="fill:#c87137;stroke:none;stroke-width:30.4867;stroke-linejoin:round"
         id="rect977"
         width="80.723434"
         height="95.967369"
         x="162.8483"
         y="216.24263"
         ry="6.0629196" />
    </g>
    <g
       id="g25691"
       transform="translate(-0.08318329,-0.04419416)">
      <circle
         style="fill:#999999;fill-opacity:1;stroke:none;stroke-width:2.9;stroke-linejoin:round;stroke-miterlimit:4;stroke-dasharray:none;stroke-opacity:1"
         id="path25603"
         cx="189.70349"
         cy="220.0649"
         r="0.99436891" />
      <circle
         style="fill:#999999;fill-opacity:1;stroke:none;stroke-width:2.9;stroke-linejoin:round;stroke-miterlimit:4;stroke-dasharray:none;stroke-opacity:1"
         id="circle25687"
         cx="216.8829"
         cy="220.0649"
         r="0.99436891" />
    </g>
  </g>
  <path
     class="cls-21"
     d="m 222.13499,245.99508 a 43.18,43.18 0 0 1 -8.56,18.87 c 0,0 -1.82,1.28 -5.09,0.16 -3.27,-1.12 -14.91,-15.85 -16.2,-16.21 0,0 -8.21,-1.06 -12.83,-1.35 -4.62,-0.29 -11.46,0.76 -13.53,-1.07 -2.07,-1.83 -2.13,-4.52 -1.76,-5.12 0.37,-0.6 5.32,-1.45 8.36,-1.31 3.04,0.14 15.46,-2.18 16.11,-2.86 0.65,-0.68 2,-1 0.21,-3.43 -1.79,-2.43 -8.43,-8.83 -8.43,-8.83 0,0 -8.66,-3 -9.49,-4.36 -0.83,-1.36 -1.2,-5.95 -1.2,-5.95 0,0 0.44,-4.72 4.05,-1.81 0,0 6.65,3.85 10.42,4.39 3.77,0.54 7.33,0.77 7.33,0.77 0,0 1.49,-5.37 -5.82,-8.5 -5.33,-2.28 -10.49,-5.47 -11.54,-8.59 -1.05,-3.12 -0.83,-6.54 0.66,-6.68 0,0 1.4,-1.88 7.39,2.65 0,0 -6,-3.19 -6.78,-7.6 0,0 -1.88,-5.14 3.46,-4.45 l 2.33,0.41 3.71,3.86 4.18,4.21 c 0,0 6.28,2.18 10.94,10.48 4.66,8.3 9,16.26 9.73,19.46 0.73,3.2 12.35,22.86 12.35,22.86 z"
     id="path357"
     style="fill:#ddad92" />
  <path
     class="cls-27"
     d="m 179.34499,194.77508 9.71,5.49 -13.6,-11.1 c 0.43,2.29 2.24,4.25 3.89,5.61 z"
     id="path359"
     style="fill:#c69379" />
  <path
     class="cls-27"
     d="m 194.46499,218.07508 c 0.45,-10.37 -10.37,-14 -14.87,-15.33 -3.25,-1 -5.21,-3.82 -6.05,-5.33 a 12.48,12.48 0 0 0 0.64,3.38 c 1.05,3.12 6.21,6.31 11.54,8.59 7.31,3.13 5.82,8.5 5.82,8.5 z"
     id="path361"
     style="fill:#c69379" />
  <path
     class="cls-27"
     d="m 188.71499,237.04508 8.23,-1.62 c -2,-7.89 -15.32,-13.3 -19.16,-13.75 -3.84,-0.45 -7.52,-3.92 -7.65,-4 a 10.06,10.06 0 0 0 0.81,2.85 c 0.83,1.35 9.49,4.36 9.49,4.36 0,0 6.6,6.37 8.43,8.83 1.83,2.46 0.53,2.69 -0.15,3.33 z"
     id="path363"
     style="fill:#c69379" />
  <path
     class="cls-27"
     d="m 193.34499,244.21508 c 0,0 -20.21,2.13 -28.39,1 a 5.92,5.92 0 0 0 1,1.17 c 2.07,1.83 8.92,0.78 13.53,1.07 4.61,0.29 12.8,1.36 12.8,1.36 a 2.81,2.81 0 0 1 0.77,0.61 c 3.07,-0.76 6.89,-1.83 7,-2.5 0.23,-1.13 -6.71,-2.71 -6.71,-2.71 z"
     id="path365"
     style="fill:#c69379" />
  <path
     class="cls-23"
     d="m 80.884993,244.94508 a 43.43,43.43 0 0 0 8.6,19 c 0,0 1.83,1.28 5.12,0.16 3.29,-1.12 14.999997,-15.92 16.249997,-16.28 0,0 8.25,-1.07 12.88,-1.36 4.63,-0.29 11.52,0.76 13.61,-1.08 2.09,-1.84 2.14,-4.53 1.76,-5.14 -0.38,-0.61 -5.35,-1.45 -8.4,-1.31 -3.05,0.14 -15.53,-2.2 -16.19,-2.88 -0.66,-0.68 -2,-1 -0.21,-3.45 1.79,-2.45 8.47,-8.87 8.47,-8.87 0,0 8.7,-3 9.53,-4.37 0.83,-1.37 1.22,-6 1.22,-6 0,0 -0.45,-4.74 -4.08,-1.82 0,0 -6.67,3.87 -10.46,4.41 -3.79,0.54 -7.36,0.77 -7.36,0.77 0,0 -1.51,-5.39 5.84,-8.54 5.35,-2.29 10.54,-5.49 11.59,-8.62 1.05,-3.13 0.84,-6.58 -0.66,-6.72 0,0 -1.41,-1.89 -7.43,2.67 0,0 6,-3.21 6.81,-7.65 0,0 1.9,-5.15 -3.47,-4.47 l -2.34,0.42 -3.68,3.88 -4.2,4.23 c 0,0 -6.3,2.19 -11,10.52 -4.699997,8.33 -8.999997,16.34 -9.779997,19.56 -0.78,3.22 -12.42,22.94 -12.42,22.94 z"
     id="path367"
     style="fill:#edc4a9" />
  <path
     class="cls-21"
     d="m 123.87499,193.48508 -9.76,5.52 13.66,-11.16 c -0.42,2.31 -2.24,4.28 -3.9,5.64 z"
     id="path369"
     style="fill:#ddad92" />
  <path
     class="cls-21"
     d="m 108.68499,216.89508 c -0.46,-10.42 10.41,-14 14.94,-15.4 3.27,-1 5.23,-3.83 6.08,-5.36 a 12.79,12.79 0 0 1 -0.65,3.41 c -1.05,3.13 -6.24,6.33 -11.59,8.62 -7.35,3.15 -5.84,8.54 -5.84,8.54 z"
     id="path371"
     style="fill:#ddad92" />
  <path
     class="cls-21"
     d="m 114.45499,235.95508 -8.27,-1.62 c 2,-7.93 15.4,-13.37 19.25,-13.82 3.85,-0.45 7.56,-3.94 7.69,-4.06 a 9.87,9.87 0 0 1 -0.82,2.87 c -0.83,1.35 -9.53,4.37 -9.53,4.37 0,0 -6.63,6.4 -8.47,8.87 -1.84,2.47 -0.52,2.74 0.15,3.39 z"
     id="path373"
     style="fill:#ddad92" />
  <path
     class="cls-21"
     d="m 109.81499,243.16508 c 0,0 20.3,2.13 28.51,1 a 5.3,5.3 0 0 1 -1,1.17 c -2.09,1.84 -9,0.79 -13.61,1.08 -4.61,0.29 -12.88,1.36 -12.88,1.36 a 3,3 0 0 0 -0.78,0.61 c -3.08,-0.76 -6.92,-1.84 -7.06,-2.52 -0.2,-1.12 6.82,-2.7 6.82,-2.7 z"
     id="path375"
     style="fill:#ddad92" />
  <path
     class="cls-22"
     d="m 116.13499,58.695075 c -8.84,1.34 -15.17,7 -18.329997,16.46 a 43.54,43.54 0 0 0 -2.12,12.8 c -4.82,0.88 -8.31,2.94 -10.39,6.13 -3.42,5.25 -1.64,11.550005 -1.56,11.810005 l 0.05,0.14 c 5.48,13.48 11.22,16.76 13.84,17.56 l 0.72,28.68 -49.49,20.21 -9.57,30.5 -14.67,53.33 c -4.68,17 -5.33,30.11 -2,40.17 1.4,4.2 6.93,8.52 12.35,11.9 a 28.24,28.24 0 0 0 10.06,2.3 c -6.67,-3.34 -17.94,-9.89 -19.68,-15.11 -3.17,-9.5 -2.5,-22.09 2,-38.5 l 14.64,-53.28 9.21,-29.16 50.089997,-20.45 -0.8,-31.81 -0.07,-1.31 -1.309997,-0.09 c -0.06,0 -6.36,-0.6 -12.62,-15.94 -0.15,-0.6 -1.3,-5.510005 1.24,-9.400005 1.78,-2.72 5,-4.41 9.61,-5 l 1.31,-0.17 -0.06,-1.31 c 0,-0.26 -0.9,-25.2 18.559997,-27.67 l 0.64,-0.08 0.37,-0.54 c 0.12,-0.19 12.9,-18.66 35.1,-17.23 l 0.19,-2.87 c -21.93,-1.46 -34.93,14.69 -37.31,17.93 z"
     id="path457"
     style="fill:#ffffff" />
  <path
     class="cls-8"
     d="m 187.21499,58.695075 c 8.71,1.34 14.95,7 18.06,16.46 a 44.19,44.19 0 0 1 2.08,12.8 c 4.75,0.88 8.19,2.94 10.24,6.13 3.37,5.25 1.61,11.550005 1.54,11.810005 l -0.05,0.14 c -5.4,13.48 -11.05,16.76 -13.64,17.56 l -0.71,28.68 48.75,20.21 9.48,30.5 14.45,53.33 c 4.61,17 5.25,30.11 1.94,40.17 -1.37,4.2 -6.81,8.52 -12.15,11.9 a 27.51,27.51 0 0 1 -9.92,2.31 c 6.57,-3.34 17.68,-9.89 19.39,-15.11 3.12,-9.5 2.47,-22.09 -2,-38.5 l -14.39,-53.29 -9.07,-29.16 -49.33,-20.45 0.79,-31.81 0.07,-1.31 1.29,-0.09 c 0.06,0 6.26,-0.6 12.42,-15.94 0.16,-0.6 1.29,-5.510005 -1.21,-9.400005 -1.76,-2.72 -4.94,-4.41 -9.47,-5 l -1.28,-0.17 0.05,-1.31 c 0,-0.26 0.89,-25.2 -18.28,-27.67 l -0.63,-0.08 -0.36,-0.54 c -0.13,-0.19 -12.71,-18.66 -34.58,-17.23 l -0.21,-2.94 c 21.59,-1.39 34.39,14.76 36.73,18 z"
     id="path459"
     style="fill:#073e51" />
  <path
     id="path13213"
     style="fill:none;stroke:#000000;stroke-width:1.06093px;stroke-linecap:butt;stroke-linejoin:miter;stroke-opacity:1"
     d="m 204.8268,211.6725 c 0,0 0.15792,2.15553 1.1791,2.39363 m -3.33645,-2.39363 c 0,0 -0.15792,2.15553 -1.1791,2.39363"
     clip-path="url(#clipPath13289)"
     transform="translate(-50.215007,-49.194925)" />
</svg>
