<?xml version="1.0" encoding="UTF-8" standalone="no"?>
<svg
   id="Layer_1"
   data-name="Layer 1"
   version="1.1"
   width="322.98001"
   height="363.53"
   sodipodi:docname="OKC.svg"
   inkscape:version="1.1.2 (b8e25be833, 2022-02-05)"
   xmlns:inkscape="http://www.inkscape.org/namespaces/inkscape"
   xmlns:sodipodi="http://sodipodi.sourceforge.net/DTD/sodipodi-0.dtd"
   xmlns="http://www.w3.org/2000/svg"
   xmlns:svg="http://www.w3.org/2000/svg">
  <sodipodi:namedview
     id="namedview38"
     pagecolor="#505050"
     bordercolor="#ffffff"
     borderopacity="1"
     inkscape:pageshadow="0"
     inkscape:pageopacity="0"
     inkscape:pagecheckerboard="1"
     showgrid="false"
     inkscape:zoom="2.1107764"
     inkscape:cx="163.68385"
     inkscape:cy="199.45268"
     inkscape:window-width="1920"
     inkscape:window-height="1017"
     inkscape:window-x="-8"
     inkscape:window-y="-8"
     inkscape:window-maximized="1"
     inkscape:current-layer="Layer_1"
     fit-margin-top="0"
     fit-margin-left="0"
     fit-margin-right="0"
     fit-margin-bottom="0" />
  <defs
     id="defs4">
    <style
       id="style2">.cls-4{fill:#e4dfcf}.cls-7{stroke:#610000;stroke-miterlimit:10}.cls-10,.cls-7,.cls-8{fill:#610000}.cls-7{stroke-width:6.74px}.cls-10{stroke:#e4dfcf;stroke-linecap:round;stroke-linejoin:round;stroke-width:6.49px}</style>
  </defs>
  <path
     class="cls-4"
     d="m 301.3,176.16 c -4,-7.6 -7.87,-14.78 -10.43,-21.65 -4.57,-12.3 -4,-23.12 1.84,-33.08 a 45.93,45.93 0 0 1 11.73,-13.18 L 322.98,96.83 271.04,2.89 249.8,16.63 c -15.18,9.82 -31.66,12.42 -49,7.74 a 77,77 0 0 1 -24,-11.24 L 161.36,0 145.78,13.19 A 76.17,76.17 0 0 1 123.29,24 C 105.45,29.21 88.51,26.74 72.92,16.65 L 51.68,2.91 0,96.36 l 18.4,12 a 45.83,45.83 0 0 1 10.9,11.93 c 6.46,10.28 7.29,21.48 2.54,34.25 -2.56,6.87 -6.38,14.05 -10.43,21.65 -6.84,12.86 -14.6,27.44 -17.8,44.15 -3.06,16 -0.33,33.86 7.67,50.43 7.86,16.28 19.95,29.53 34,37.32 14.92,8.25 29.61,13.39 43.8,18.37 21.33,7.47 39.74,13.93 54.19,29.52 l 7,7.55 h 22.06 l 7,-7.55 c 14.45,-15.59 32.87,-22.05 54.19,-29.52 14.2,-5 28.88,-10.12 43.81,-18.37 14.09,-7.79 26.18,-21 34,-37.32 8,-16.57 10.72,-34.47 7.67,-50.43 C 315.91,203.6 308.15,189 301.3,176.16 Z"
     id="path174"
     style="fill:#e4dfcf" />
  <path
     d="M 160.63,339.9 C 131.45,308.42 92.55,307.18 56.74,287.4 36.5,276.22 22.4,247.66 26.79,224.75 31,202.75 46.21,183.59 53.96,162.75 71.74,114.93 31.28,88.57 31.28,88.57 L 60.09,36.46 c 52.11,33.72 100.54,-4.9 100.54,-4.9 l 0.73,-0.61 0.72,0.61 c 0,0 48.43,38.62 100.54,4.9 l 28.82,52.11 c 0,0 -40.47,26.36 -22.69,74.18 7.76,20.86 23,40 27.18,62 4.38,22.91 -9.72,51.47 -30,62.65 -35.81,19.78 -74.72,21 -103.9,52.5 z"
     id="path176"
     style="fill:#e4dfcf;stroke:#610000;stroke-width:15.94px;stroke-miterlimit:10" />
  <path
     id="line178"
     style="fill:none;stroke:#610000;stroke-width:15.94px;stroke-miterlimit:10"
     d="M 57.29,127.36 H 265.42" />
  <path
     class="cls-7"
     d="m 142.86,240.91 c 0,4.37 -0.86,13.53 -2.57,17.43 a 32.79,32.79 0 0 1 -17.09,17.17 31.29,31.29 0 0 1 -24.86,0 32.85,32.85 0 0 1 -17.1,-17.14 c -1.7,-3.89 -2.56,-13 -2.56,-17.4 v -50.11 a 31,31 0 0 1 2.56,-12.54 33.28,33.28 0 0 1 6.92,-10.2 31.86,31.86 0 0 1 10.18,-6.85 31.09,31.09 0 0 1 12.35,-2.5 31.54,31.54 0 0 1 12.51,2.5 32.09,32.09 0 0 1 10.18,6.85 33.25,33.25 0 0 1 6.91,10.2 30.88,30.88 0 0 1 2.57,12.54 4.28,4.28 0 0 1 -1.38,3.2 4.51,4.51 0 0 1 -3.22,1.32 4.26,4.26 0 0 1 -3.14,-1.32 4.4,4.4 0 0 1 -1.3,-3.2 22.38,22.38 0 0 0 -1.8,-8.88 22.72,22.72 0 0 0 -12.27,-12.22 22.82,22.82 0 0 0 -9.06,-1.8 22.45,22.45 0 0 0 -8.91,1.8 22.72,22.72 0 0 0 -12.22,12.24 22.37,22.37 0 0 0 -1.79,8.88 l 0.13,27.69 a 31.59,31.59 0 0 1 10.25,-7.2 30.83,30.83 0 0 1 12.59,-2.61 31.37,31.37 0 0 1 12.51,2.5 32,32 0 0 1 10.18,6.87 33.27,33.27 0 0 1 6.91,10.23 31,31 0 0 1 2.52,12.55 z m -9,0.07 a 22.68,22.68 0 0 0 -1.8,-9 23,23 0 0 0 -21.33,-14 22.62,22.62 0 0 0 -8.91,1.79 22.78,22.78 0 0 0 -12.26,12.23 22.67,22.67 0 0 0 -1.79,9 c 0,3.12 0.59,11.1 1.79,13.9 a 22.78,22.78 0 0 0 12.27,12.23 22.62,22.62 0 0 0 8.91,1.79 22.89,22.89 0 0 0 21.33,-14 c 1.15,-2.84 1.75,-10.82 1.75,-13.92 z"
     id="path180"
     style="fill:#610000;stroke:#610000;stroke-width:6.74px;stroke-miterlimit:10" />
  <path
     class="cls-7"
     d="m 244.62,240.91 c 0,4.37 -0.86,13.53 -2.56,17.43 a 33.42,33.42 0 0 1 -6.92,10.23 33,33 0 0 1 -10.18,6.94 31.29,31.29 0 0 1 -24.86,0 32.78,32.78 0 0 1 -17.09,-17.14 c -1.71,-3.89 -2.56,-13 -2.56,-17.4 v -50.11 a 30.88,30.88 0 0 1 2.56,-12.54 33.25,33.25 0 0 1 6.91,-10.2 32,32 0 0 1 10.18,-6.85 31.13,31.13 0 0 1 12.36,-2.5 31.46,31.46 0 0 1 12.5,2.5 31.86,31.86 0 0 1 10.18,6.85 33.28,33.28 0 0 1 6.92,10.2 31,31 0 0 1 2.56,12.54 4.28,4.28 0 0 1 -1.38,3.2 4.5,4.5 0 0 1 -3.21,1.32 4.25,4.25 0 0 1 -3.14,-1.32 4.4,4.4 0 0 1 -1.3,-3.2 22.38,22.38 0 0 0 -1.8,-8.88 23,23 0 0 0 -21.33,-14 22.45,22.45 0 0 0 -8.91,1.8 22.72,22.72 0 0 0 -12.27,12.22 22.38,22.38 0 0 0 -1.8,8.88 l 0.13,27.69 a 31.63,31.63 0 0 1 10.26,-7.2 30.79,30.79 0 0 1 12.59,-2.61 31.29,31.29 0 0 1 12.5,2.5 31.76,31.76 0 0 1 10.18,6.87 33.3,33.3 0 0 1 6.92,10.23 31.12,31.12 0 0 1 2.56,12.55 z m -9,0.07 a 22.92,22.92 0 0 0 -6.73,-16.35 23,23 0 0 0 -16.4,-6.7 22.62,22.62 0 0 0 -8.91,1.79 22.78,22.78 0 0 0 -12.3,12.28 22.68,22.68 0 0 0 -1.8,9 c 0,3.12 0.6,11.1 1.8,13.9 a 23,23 0 0 0 21.18,14 23,23 0 0 0 16.4,-6.7 22.76,22.76 0 0 0 4.93,-7.32 c 1.2,-2.8 1.77,-10.78 1.77,-13.88 z"
     id="path182"
     style="fill:#610000;stroke:#610000;stroke-width:6.74px;stroke-miterlimit:10" />
  <path
     class="cls-8"
     d="m 87.94,74.28 v 26.39 l -2.57,2.58 H 74.74 l -2.57,-2.58 V 74.28 l 2.57,-2.58 h 10.63 z m -5.93,2.57 h -4 l -0.58,0.58 v 20.13 l 0.58,0.58 h 4 l 0.62,-0.58 V 77.43 Z"
     id="path184"
     style="fill:#610000" />
  <path
     class="cls-8"
     d="m 104.56,85.65 7.55,17.6 h -5.76 l -5,-11.63 -2.5,4.57 v 7.06 H 93.67 V 71.7 h 5.18 v 14.4 l 7.43,-14.4 h 5.81 z"
     id="path186"
     style="fill:#610000" />
  <path
     class="cls-8"
     d="M 130.81,103.25 H 116.33 V 71.7 h 5.31 v 26.44 h 9.17 z"
     id="path188"
     style="fill:#610000" />
  <path
     class="cls-8"
     d="m 147.29,96.44 h -6.48 l -1.41,6.81 h -5.39 l 7.47,-31.55 h 5.14 l 7.47,31.55 h -5.39 z m -1,-5.11 -2.2,-10.62 -2.2,10.62 z"
     id="path190"
     style="fill:#610000" />
  <path
     class="cls-8"
     d="m 163.76,71.7 v 13 h 5.94 v -13 h 5.27 v 31.55 H 169.7 V 89.84 h -5.94 v 13.41 h -5.27 V 71.7 Z"
     id="path192"
     style="fill:#610000" />
  <path
     class="cls-8"
     d="m 196.47,74.28 v 26.39 l -2.58,2.58 h -10.62 l -2.57,-2.58 V 74.28 l 2.57,-2.58 h 10.62 z m -5.91,2.57 h -4 l -0.58,0.58 v 20.13 l 0.58,0.58 h 4 l 0.62,-0.58 V 77.43 Z"
     id="path194"
     style="fill:#610000" />
  <path
     class="cls-8"
     d="m 215.31,96.48 h -2.75 L 207.46,82 v 21.3 h -5.27 V 71.7 h 6.56 l 5.19,14.9 5.19,-14.9 h 6.55 v 31.55 h -5.27 V 82 Z"
     id="path196"
     style="fill:#610000" />
  <path
     class="cls-8"
     d="m 243.36,96.44 h -6.47 l -1.41,6.81 h -5.4 l 7.48,-31.55 h 5.15 l 7.47,31.55 h -5.39 z m -1,-5.11 -2.2,-10.62 -2.2,10.62 z"
     id="path198"
     style="fill:#610000" />
</svg>
