<?xml version="1.0" encoding="UTF-8" standalone="no"?>
<svg
   id="Layer_1"
   data-name="Layer 1"
   version="1.1"
   width="250.0244"
   height="236.66934"
   sodipodi:docname="STL.svg"
   inkscape:version="1.1.2 (b8e25be833, 2022-02-05)"
   xmlns:inkscape="http://www.inkscape.org/namespaces/inkscape"
   xmlns:sodipodi="http://sodipodi.sourceforge.net/DTD/sodipodi-0.dtd"
   xmlns="http://www.w3.org/2000/svg"
   xmlns:svg="http://www.w3.org/2000/svg">
  <sodipodi:namedview
     id="namedview29"
     pagecolor="#505050"
     bordercolor="#ffffff"
     borderopacity="1"
     inkscape:pageshadow="0"
     inkscape:pageopacity="0"
     inkscape:pagecheckerboard="1"
     showgrid="false"
     inkscape:zoom="3.1136419"
     inkscape:cx="94.262605"
     inkscape:cy="181.45953"
     inkscape:window-width="1920"
     inkscape:window-height="1017"
     inkscape:window-x="-1928"
     inkscape:window-y="-8"
     inkscape:window-maximized="1"
     inkscape:current-layer="Layer_1"
     fit-margin-top="0"
     fit-margin-left="0"
     fit-margin-right="0"
     fit-margin-bottom="0" />
  <defs
     id="defs4">
    <style
       id="style2">.cls-14{fill:#c0c5ce}.cls-14,.cls-15,.cls-16{stroke:#5685ef;stroke-linecap:round;stroke-linejoin:round}.cls-15,.cls-17{fill:#3a3a3a}.cls-16{fill:none}.cls-7{fill:#133cd1}.cls-17{stroke:#f71ef7;stroke-miterlimit:10}.cls-14{stroke-width:14.6px}.cls-15,.cls-16,.cls-17{stroke-width:8.81px}</style>
  </defs>
  <path
     class="cls-14"
     d="m 38.459939,229.28935 h 0.06 c 1.82,-46.83 7.74,-95.28 21.83,-140.110002 9.1,-28.92 26.12,-71.81 62.000001,-73.85 0,0 79.18,-22.9999996 94.07,213.930002 h 26.53 c -0.25,0 -8.64,-53.67 -9.39,-57.34 -5.81,-28.5 -13.18,-56.88 -23.82,-84.000002 -8,-20.46 -17.95,-41.09 -32.72,-57.61 -28.62,-31.9999996 -74.95,-28.7399996 -105.000001,-2 -29.36,26.21 -52.42,106.000002 -57.92,148.000002 -2.3,17.57 -5.3700003,35.35 -6.8000003,53 z"
     id="path258"
     style="fill:#c0c5ce;stroke:#5685ef;stroke-width:14.6px;stroke-linecap:round;stroke-linejoin:round" />
  <path
     class="cls-14"
     d="m 128.83994,7.3693484 c -20.13,-0.88 -40.790001,6.7099996 -56.810001,20.9999996 -29.36,26.21 -52.42,106.000002 -57.92,148.000002 -2.3,17.57 -5.3700003,35.35 -6.8000003,53 l 31.1500003,-0.06 h 0.06 c 1.82,-46.83 7.74,-95.28 21.83,-140.110002 9.1,-28.92 26.12,-71.81 62.000001,-73.85 a 23.26,23.26 0 0 1 6.52,-0.6 z"
     id="path302"
     style="fill:#c0c5ce;stroke:#5685ef;stroke-width:14.6px;stroke-linecap:round;stroke-linejoin:round" />
  <path
     d="m 72.979939,216.35935 c 0,0 9.93,10.91 24,0 a 27.34,27.34 0 0 1 10.640001,-5.47 c 9.74,-2.18 14.38,5.58 21.41,10.34 7.03,4.76 15.25,3 21.64,-1.94 0,0 15.1,-13.33 26.33,0"
     id="path304"
     style="fill:none;stroke:#5685ef;stroke-width:10.08px;stroke-linecap:round;stroke-linejoin:round" />
</svg>
